<?xml version="1.0" encoding="UTF-8" standalone="no"?>
<svg
   xmlns:dc="http://purl.org/dc/elements/1.1/"
   xmlns:cc="http://creativecommons.org/ns#"
   xmlns:rdf="http://www.w3.org/1999/02/22-rdf-syntax-ns#"
   xmlns:svg="http://www.w3.org/2000/svg"
   xmlns="http://www.w3.org/2000/svg"
   xmlns:sodipodi="http://sodipodi.sourceforge.net/DTD/sodipodi-0.dtd"
   xmlns:inkscape="http://www.inkscape.org/namespaces/inkscape"
   id="Layer_1"
   data-name="Layer 1"
   viewBox="0 0 700.00001 519.99999"
   version="1.1"
   sodipodi:docname="three_point_form.svg"
   inkscape:version="1.0.1 (3bc2e813f5, 2020-09-07)"
   width="700"
   height="520">
  <metadata
     id="metadata77">
    <rdf:RDF>
      <cc:Work
         rdf:about="">
        <dc:format>image/svg+xml</dc:format>
        <dc:type
           rdf:resource="http://purl.org/dc/dcmitype/StillImage" />
        <dc:title>SamplingReflectionFunctions</dc:title>
      </cc:Work>
    </rdf:RDF>
  </metadata>
  <sodipodi:namedview
     pagecolor="#ffffff"
     bordercolor="#666666"
     borderopacity="1"
     objecttolerance="10"
     gridtolerance="10"
     guidetolerance="10"
     inkscape:pageopacity="1"
     inkscape:pageshadow="2"
     inkscape:window-width="1920"
     inkscape:window-height="1001"
     id="namedview75"
     showgrid="false"
     inkscape:zoom="0.83328405"
     inkscape:cx="161.66862"
     inkscape:cy="302.40472"
     inkscape:window-x="-9"
     inkscape:window-y="-9"
     inkscape:window-maximized="1"
     inkscape:current-layer="layer1" />
  <defs
     id="defs4">
    <style
       id="style2">.cls-1{fill:#fff;}.cls-2,.cls-3,.cls-4,.cls-5{fill:none;}.cls-2,.cls-4{stroke:#231f20;}.cls-4{stroke-linecap:round;stroke-dasharray:6 6;}.cls-5{stroke:#000;stroke-miterlimit:10;stroke-width:2px;}.cls-6{fill:#a6a6a6;}.cls-7{fill:#666;}.cls-12,.cls-8{font-size:24px;}.cls-12,.cls-13,.cls-8{font-family:MyriadPro-Regular, Myriad Pro;}.cls-8{letter-spacing:-0.03em;}.cls-9{letter-spacing:-0.09em;}.cls-10{letter-spacing:-0.06em;}.cls-11{letter-spacing:-0.09em;}.cls-13{font-size:21px;}</style>
  </defs>
  <title
     id="title6">SamplingReflectionFunctions</title>
  <g
     inkscape:groupmode="layer"
     id="layer1"
     inkscape:label="Layer 1">
    <rect
       style="opacity:0.999;fill:#ffffff;stroke-width:30;stroke-dasharray:30, 30;stroke-dashoffset:42;paint-order:fill markers stroke"
       id="rect938"
       width="766.84534"
       height="624.03693"
       x="-44.402626"
       y="-61.203621" />
  </g>
  <g
     inkscape:groupmode="layer"
     id="layer2"
     inkscape:label="Layer 2"
     style="display:inline">
    <polygon
       class="cls-1"
       points="130.2,341.66 76.55,235.26 328.13,235.26 381.78,341.66 "
       id="polygon8"
       transform="matrix(1.4402978,0,0,1.4402978,17.017954,2.5759232)" />
    <polygon
       class="cls-3"
       points="5.81,138.13 64.33,16.54 138.75,35.48 92.46,127.02 "
       id="polygon12"
       transform="matrix(1.4402978,0,0,1.4402978,17.017954,2.5759232)" />
    <polygon
       class="cls-2"
       points="5.81,137.67 64.33,16.54 138.75,35.02 92.46,126.56 "
       id="polygon14"
       transform="matrix(1.4402978,0,0,1.4402978,17.017954,2.5759232)" />
    <path
       d="m 125.67401,113.96856 a 4.551341,4.551341 0 1 1 -4.55134,-4.55134 4.551341,4.551341 0 0 1 4.55134,4.55134"
       id="path16"
       style="stroke-width:1.4403" />
    <polygon
       class="cls-3"
       points="457.02,138.13 398.49,16.54 324.07,35.48 370.37,127.02 "
       id="polygon18"
       transform="matrix(1.4402978,0,0,1.4402978,17.017954,2.5759232)" />
    <polygon
       class="cls-2"
       points="457.02,138.18 398.49,16.54 324.07,35.53 370.37,127.07 "
       id="polygon20"
       transform="matrix(1.4402978,0,0,1.4402978,17.017954,2.5759232)" />
    <path
       d="m 574.97491,113.96856 a 4.551341,4.551341 0 1 0 4.55134,-4.55134 4.536938,4.536938 0 0 0 -4.55134,4.55134"
       id="path22"
       style="stroke-width:1.4403" />
    <polyline
       class="cls-4"
       points="72.28 77.34 230.77 289.55 390.55 77.34"
       id="polyline24"
       transform="matrix(1.4402978,0,0,1.4402978,17.017954,2.5759232)" />
    <path
       d="m 353.94681,418.17385 a 4.551341,4.551341 0 1 1 -4.55134,-4.53694 4.551341,4.551341 0 0 1 4.55134,4.53694"
       id="path26"
       style="stroke-width:1.4403" />
    <line
       class="cls-5"
       x1="349.39548"
       y1="419.61414"
       x2="349.39548"
       y2="183.66457"
       id="line28" />
    <polygon
       points="230.77,126.51 224.17,131.62 230.77,116 237.38,131.62 "
       id="polygon30"
       transform="matrix(1.4402978,0,0,1.4402978,17.017954,2.5759232)" />
    <polygon
       class="cls-6"
       points="230.77,117.58 230.77,125.75 235.94,129.75 "
       id="polygon32"
       transform="matrix(1.4402978,0,0,1.4402978,17.017954,2.5759232)" />
    <polygon
       class="cls-7"
       points="230.77,117.58 230.77,125.75 225.62,129.75 "
       id="polygon34"
       transform="matrix(1.4402978,0,0,1.4402978,17.017954,2.5759232)" />
    <line
       class="cls-5"
       x1="349.39548"
       y1="419.61414"
       x2="491.07761"
       y2="231.10797"
       id="line36" />
    <polygon
       points="328.67,159.3 320.32,159.41 334.98,150.9 330.88,167.35 "
       id="polygon38"
       transform="matrix(1.4402978,0,0,1.4402978,17.017954,2.5759232)" />
    <polygon
       class="cls-6"
       points="334.04,152.16 329.13,158.69 330.85,164.99 "
       id="polygon40"
       transform="matrix(1.4402978,0,0,1.4402978,17.017954,2.5759232)" />
    <polygon
       class="cls-7"
       points="334.04,152.16 329.13,158.69 322.6,158.79 "
       id="polygon42"
       transform="matrix(1.4402978,0,0,1.4402978,17.017954,2.5759232)" />
    <line
       class="cls-5"
       x1="349.39548"
       y1="419.61414"
       x2="206.41711"
       y2="228.16977"
       id="line44" />
    <polygon
       points="131.97,157.26 129.74,165.3 125.68,148.84 140.32,157.4 "
       id="polygon46"
       transform="matrix(1.4402978,0,0,1.4402978,17.017954,2.5759232)" />
    <polygon
       class="cls-6"
       points="126.62,150.1 131.51,156.65 138.04,156.76 "
       id="polygon48"
       transform="matrix(1.4402978,0,0,1.4402978,17.017954,2.5759232)" />
    <polygon
       class="cls-7"
       points="126.62,150.1 131.51,156.65 129.78,162.94 "
       id="polygon50"
       transform="matrix(1.4402978,0,0,1.4402978,17.017954,2.5759232)" />
    <text
       class="cls-8"
       id="text54"
       x="338.8237"
       y="451.07028"
       style="stroke-width:1.4403">p<tspan
   class="cls-9"
   x="357.34592"
   y="451.07028"
   id="tspan52"
   style="stroke-width:1.4403">’</tspan></text>
    <text
       class="cls-8"
       id="text60"
       x="588.35535"
       y="140.22519"
       style="stroke-width:1.4403">p<tspan
   class="cls-10"
   x="606.87756"
   y="140.22519"
   id="tspan56"
   style="stroke-width:1.4403">’</tspan><tspan
   class="cls-11"
   x="612.03381"
   y="140.22519"
   id="tspan58"
   style="stroke-width:1.4403">’</tspan></text>
    <text
       class="cls-12"
       id="text62"
       x="101.26097"
       y="142.14078"
       style="stroke-width:1.4403">p</text>
    <text
       class="cls-12"
       id="text64"
       x="339.61584"
       y="155.66518"
       style="stroke-width:1.4403">n</text>
    <text
       class="cls-13"
       id="text66"
       x="507.81384"
       y="249.16931"
       style="stroke-width:1.4403">ω</text>
    <text
       class="cls-13"
       id="text68"
       x="528.79901"
       y="259.2514"
       style="stroke-width:0.835373">i</text>
    <text
       class="cls-13"
       id="text70"
       x="163.00655"
       y="242.78879"
       style="stroke-width:1.4403">ω</text>
    <text
       class="cls-13"
       id="text72"
       x="184.00609"
       y="252.85648"
       style="stroke-width:0.835373">o</text>
    <polygon
       class="cls-2"
       points="130.2,341.66 76.58,235.26 328.17,235.26 381.78,341.66 "
       id="polygon10"
       transform="matrix(1.4402978,0,0,1.4402978,17.017954,2.5759232)" />
  </g>
</svg>
