<?xml version="1.0" encoding="UTF-8" standalone="no"?>
<svg
   xmlns:dc="http://purl.org/dc/elements/1.1/"
   xmlns:cc="http://creativecommons.org/ns#"
   xmlns:rdf="http://www.w3.org/1999/02/22-rdf-syntax-ns#"
   xmlns:svg="http://www.w3.org/2000/svg"
   xmlns="http://www.w3.org/2000/svg"
   xmlns:sodipodi="http://sodipodi.sourceforge.net/DTD/sodipodi-0.dtd"
   xmlns:inkscape="http://www.inkscape.org/namespaces/inkscape"
   width="1280"
   height="760"
   enable-background="new -9.144 -15.712 446 271"
   version="1.1"
   viewBox="-9.144 -15.712 1280 760"
   xml:space="preserve"
   id="svg255"
   sodipodi:docname="CIE_1931_XYZ_Color_Matching_Functions.svg"
   inkscape:version="1.0.1 (3bc2e813f5, 2020-09-07)"><sodipodi:namedview
   pagecolor="#ffffff"
   bordercolor="#666666"
   borderopacity="1"
   objecttolerance="10"
   gridtolerance="10"
   guidetolerance="10"
   inkscape:pageopacity="0"
   inkscape:pageshadow="2"
   inkscape:window-width="1920"
   inkscape:window-height="1001"
   id="namedview257"
   showgrid="false"
   inkscape:zoom="0.67064658"
   inkscape:cx="670.81339"
   inkscape:cy="461.42236"
   inkscape:window-x="-9"
   inkscape:window-y="-9"
   inkscape:window-maximized="1"
   inkscape:current-layer="layer1"
   inkscape:document-rotation="0" /><metadata
   id="metadata2"><rdf:RDF><cc:Work
       rdf:about=""><dc:format>image/svg+xml</dc:format><dc:type
         rdf:resource="http://purl.org/dc/dcmitype/StillImage" /><dc:title /></cc:Work></rdf:RDF></metadata>
<defs
   id="defs7">
<filter
   id="filter1342"
   x="-9.501e-7"
   y="-1.6283e-6"
   width="1"
   height="1"
   color-interpolation-filters="sRGB"><feGaussianBlur
     stdDeviation="0.00046479263"
     id="feGaussianBlur4" /></filter></defs>
















































































<g
   filter="url(#filter1342)"
   id="g253"><g
     transform="matrix(2.7778 0 0 2.7778 37.696 28.73)"
     id="g251">
	
	
	

	
	
	

	
	
	

	
	
	

	
	
	

	
	
	
	
	

	
	
	
	
	

	
	
	
	
	

	
	
	

	
	
	

	
	
	
	

	
	
	

	
	
	
</g></g><g
   display="none"
   id="g11"><rect
     x="-115.13"
     y="-105.08"
     width="1515"
     height="972.61"
     fill="#fff"
     opacity=".999"
     stroke-dasharray="30, 30"
     stroke-dashoffset="42"
     stroke-width="30"
     style="paint-order:fill markers stroke"
     id="rect9" /></g><g
   inkscape:groupmode="layer"
   id="layer1"
   inkscape:label="Layer 1"
   style="display:inline"><rect
     style="opacity:0.999;fill:#ffffff;stroke-width:30;stroke-dasharray:30, 30;stroke-dashoffset:42;paint-order:fill markers stroke"
     id="rect1083"
     width="1637.226"
     height="1067.6263"
     x="-113.52087"
     y="-206.57259" /></g><g
   inkscape:groupmode="layer"
   id="layer2"
   inkscape:label="Layer 2"
   style="display:inline"><g
     fill="none"
     id="g149"
     style="fill:none;fill-opacity:1"
     transform="matrix(2.7778,0,0,2.7778,37.696,28.73)"><g
       stroke-width="1.75"
       id="g19"
       style="fill:none;fill-opacity:1"><polyline
         points="33.668 207.83 34.668 207.82 35.668 207.82 36.668 207.81 37.668 207.8 38.668 207.78 39.668 207.77 40.668 207.76 41.668 207.74 42.668 207.72 43.668 207.7 44.668 207.68 45.668 207.65 46.668 207.62 47.668 207.58 48.668 207.54 49.668 207.5 50.668 207.44 51.668 207.38 52.668 207.31 53.668 207.25 54.668 207.18 55.668 207.12 56.668 207.04 57.668 206.95 58.668 206.84 59.668 206.7 60.668 206.53 61.668 206.33 62.668 206.12 63.668 205.89 64.668 205.64 65.668 205.37 66.668 205.06 67.668 204.7 68.668 204.27 69.668 203.75 70.668 203.14 71.668 202.48 72.668 201.79 73.668 201.11 74.668 200.44 75.668 199.76 76.668 198.98 77.668 198.04 78.668 196.87 79.668 195.43 80.668 193.72 81.668 191.76 82.668 189.57 83.668 187.15 84.668 184.52 85.668 181.63 86.668 178.42 87.668 174.81 88.668 170.76 89.668 166.27 90.668 161.35 91.668 155.92 92.668 149.94 93.668 143.33 94.668 136.04 95.668 128.22 96.668 120.11 97.668 111.95 98.668 103.99 99.668 96.356 100.67 89.043 101.67 82.08 102.67 75.5 103.67 69.333 104.67 63.629 105.67 58.412 106.67 53.673 107.67 49.404 108.67 45.597 109.67 42.252 110.67 39.363 111.67 36.905 112.67 34.854 113.67 33.187 114.67 31.888 115.67 30.93 116.67 30.266 117.67 29.849 118.67 29.633 119.67 29.596 120.67 29.723 121.67 29.973 122.67 30.306 123.67 30.682 124.67 31.067 125.67 31.489 126.67 31.998 127.67 32.646 128.67 33.482 129.67 34.537 130.67 35.807 131.67 37.299 132.67 39.019 133.67 40.973 134.67 43.14 135.67 45.551 136.67 48.291 137.67 51.44 138.67 55.083 139.67 59.281 140.67 63.94 141.67 68.905 142.67 74.019 143.67 79.128 144.67 84.15 145.67 89.11 146.67 94.017 147.67 98.878 148.67 103.7 149.67 108.47 150.67 113.16 151.67 117.75 152.67 122.23 153.67 126.6 154.67 130.84 155.67 134.95 156.67 138.9 157.67 142.68 158.67 146.27 159.67 149.66 160.67 152.85 161.67 155.86 162.67 158.7 163.67 161.38 164.67 163.9 165.67 166.27 166.67 168.5 167.67 170.6 168.67 172.56 169.67 174.41 170.67 176.14 171.67 177.76 172.67 179.28 173.67 180.69 174.67 182.01 175.67 183.24 176.67 184.42 177.67 185.55 178.67 186.66 179.67 187.78 180.67 188.88 181.67 189.97 182.67 191.04 183.67 192.07 184.67 193.08 185.67 194.06 186.67 194.99 187.67 195.88 188.67 196.72 189.67 197.5 190.67 198.23 191.67 198.9 192.67 199.51 193.67 200.07 194.67 200.57 195.67 201.02 196.67 201.44 197.67 201.81 198.67 202.17 199.67 202.5 200.67 202.82 201.67 203.12 202.67 203.4 203.67 203.68 204.67 203.94 205.67 204.2 206.67 204.45 207.67 204.68 208.67 204.91 209.67 205.12 210.67 205.32 211.67 205.51 212.67 205.69 213.67 205.86 214.67 206.02 215.67 206.17 216.67 206.31 217.67 206.43 218.67 206.55 219.67 206.66 220.67 206.76 221.67 206.86 222.67 206.94 223.67 207.02 224.67 207.09 225.67 207.15 226.67 207.21 227.67 207.27 228.67 207.32 229.67 207.36 230.67 207.4 231.67 207.44 232.67 207.47 233.67 207.5 234.67 207.53 235.67 207.56 236.67 207.58 237.67 207.6 238.67 207.62 239.67 207.64 240.67 207.65 241.67 207.66 242.67 207.67 243.67 207.68 244.67 207.69 245.67 207.7 246.67 207.7 247.67 207.71 248.67 207.71 249.67 207.72 250.67 207.72 251.67 207.72 252.67 207.72 253.67 207.73 254.67 207.73 255.67 207.74 256.67 207.74 257.67 207.75 258.67 207.75 259.67 207.76 260.67 207.77 261.67 207.77 262.67 207.78 263.67 207.78 264.67 207.78 265.67 207.79 266.67 207.79 267.67 207.79 268.67 207.79 269.67 207.8 270.67 207.8 271.67 207.8 272.67 207.81 273.67 207.81 274.67 207.82 275.67 207.82 276.67 207.82 277.67 207.83 278.67 207.83 279.67 207.84 280.67 207.84 281.67 207.85 282.67 207.85 283.67 207.86 284.67 207.86 285.67 207.86 286.67 207.87 287.67 207.87 288.67 207.87 289.67 207.87 290.67 207.87 291.67 207.87 292.67 207.87 293.67 207.87 294.67 207.88 295.67 207.88 296.67 207.88 297.67 207.88 298.67 207.88 299.67 207.88 300.67 207.88 301.67 207.89 302.67 207.89 303.67 207.89 304.67 207.89 305.67 207.89 306.67 207.89 307.67 207.89 308.67 207.89 309.67 207.89 310.67 207.89 311.67 207.89 312.67 207.89 313.67 207.89 314.67 207.89 315.67 207.89 316.67 207.89 317.67 207.89 318.67 207.89 319.67 207.89 320.67 207.89 321.67 207.89 322.67 207.89 323.67 207.89 324.67 207.89 325.67 207.89 326.67 207.89 327.67 207.89 328.67 207.89 329.67 207.89 330.67 207.89 331.67 207.89 332.67 207.89 333.67 207.89 334.67 207.89 335.67 207.89 336.67 207.89 337.67 207.89 338.67 207.89 339.67 207.89 340.67 207.89 341.67 207.89 342.67 207.89 343.67 207.89 344.67 207.89 345.67 207.89 346.67 207.89 347.67 207.89 348.67 207.89 349.67 207.89 350.67 207.89 351.67 207.89 352.67 207.89 353.67 207.89 354.67 207.89 355.67 207.89 356.67 207.89 357.67 207.89 358.67 207.89 359.67 207.89 360.67 207.89 361.67 207.89 362.67 207.89 363.67 207.89 364.67 207.89 365.67 207.89 366.67 207.89 367.67 207.89 368.67 207.89 369.67 207.89 370.67 207.89 371.67 207.89 372.67 207.89 373.67 207.89 374.67 207.89 375.67 207.89 376.67 207.89 377.67 207.89 378.67 207.89 379.67 207.89 380.67 207.89 381.67 207.89 382.67 207.89 383.67 207.89 384.67 207.89 385.67 207.89 386.67 207.89 387.67 207.89 388.67 207.89 389.67 207.89 390.67 207.89 391.67 207.89 392.67 207.89 393.67 207.89 394.67 207.89 395.67 207.89 396.67 207.89 397.67 207.89 398.67 207.89 399.67 207.89 400.67 207.89 401.67 207.89 402.67 207.89 403.67 207.89 404.67 207.89 405.67 207.89 406.67 207.89 407.67 207.89 408.67 207.89 409.67 207.89 410.67 207.89 411.67 207.89 412.67 207.89 413.67 207.89 414.67 207.89 415.67 207.89 416.67 207.89 417.67 207.89 418.67 207.89 419.67 207.89 420.67 207.89 421.67 207.89 422.67 207.89 423.67 207.89"
         stroke="#0000ff"
         id="polyline13"
         style="fill:none;fill-opacity:1" /><polyline
         points="33.668 207.89 34.668 207.89 35.668 207.89 36.668 207.89 37.668 207.89 38.668 207.89 39.668 207.89 40.668 207.89 41.668 207.89 42.668 207.89 43.668 207.89 44.668 207.89 45.668 207.89 46.668 207.89 47.668 207.89 48.668 207.89 49.668 207.89 50.668 207.89 51.668 207.89 52.668 207.89 53.668 207.89 54.668 207.89 55.668 207.89 56.668 207.89 57.668 207.89 58.668 207.89 59.668 207.88 60.668 207.88 61.668 207.88 62.668 207.88 63.668 207.88 64.668 207.88 65.668 207.88 66.668 207.88 67.668 207.87 68.668 207.87 69.668 207.87 70.668 207.86 71.668 207.86 72.668 207.86 73.668 207.85 74.668 207.85 75.668 207.85 76.668 207.84 77.668 207.84 78.668 207.83 79.668 207.82 80.668 207.81 81.668 207.8 82.668 207.78 83.668 207.77 84.668 207.76 85.668 207.74 86.668 207.72 87.668 207.7 88.668 207.68 89.668 207.65 90.668 207.62 91.668 207.58 92.668 207.54 93.668 207.49 94.668 207.44 95.668 207.38 96.668 207.31 97.668 207.24 98.668 207.16 99.668 207.08 100.67 207 101.67 206.92 102.67 206.83 103.67 206.73 104.67 206.64 105.67 206.53 106.67 206.43 107.67 206.32 108.67 206.21 109.67 206.09 110.67 205.97 111.67 205.85 112.67 205.72 113.67 205.59 114.67 205.46 115.67 205.33 116.67 205.2 117.67 205.06 118.67 204.91 119.67 204.76 120.67 204.6 121.67 204.44 122.67 204.27 123.67 204.09 124.67 203.91 125.67 203.72 126.67 203.52 127.67 203.31 128.67 203.09 129.67 202.87 130.67 202.64 131.67 202.4 132.67 202.15 133.67 201.89 134.67 201.63 135.67 201.36 136.67 201.09 137.67 200.8 138.67 200.5 139.67 200.19 140.67 199.86 141.67 199.52 142.67 199.17 143.67 198.8 144.67 198.4 145.67 197.99 146.67 197.56 147.67 197.1 148.67 196.63 149.67 196.14 150.67 195.62 151.67 195.09 152.67 194.55 153.67 193.99 154.67 193.42 155.67 192.85 156.67 192.25 157.67 191.62 158.67 190.96 159.67 190.27 160.67 189.54 161.67 188.77 162.67 187.95 163.67 187.09 164.67 186.18 165.67 185.22 166.67 184.21 167.67 183.14 168.67 182.03 169.67 180.87 170.67 179.66 171.67 178.39 172.67 177.04 173.67 175.59 174.67 174.05 175.67 172.42 176.67 170.72 177.67 168.96 178.67 167.16 179.67 165.33 180.67 163.46 181.67 161.55 182.67 159.6 183.67 157.59 184.67 155.54 185.67 153.44 186.67 151.32 187.67 149.2 188.67 147.07 189.67 144.96 190.67 142.86 191.67 140.8 192.67 138.81 193.67 136.89 194.67 135.07 195.67 133.35 196.67 131.7 197.67 130.11 198.67 128.57 199.67 127.08 200.67 125.64 201.67 124.26 202.67 122.94 203.67 121.69 204.67 120.51 205.67 119.4 206.67 118.34 207.67 117.35 208.67 116.41 209.67 115.52 210.67 114.68 211.67 113.9 212.67 113.17 213.67 112.49 214.67 111.87 215.67 111.29 216.67 110.77 217.67 110.29 218.67 109.86 219.67 109.48 220.67 109.15 221.67 108.86 222.67 108.61 223.67 108.4 224.67 108.22 225.67 108.08 226.67 107.98 227.67 107.92 228.67 107.89 229.67 107.91 230.67 107.96 231.67 108.06 232.67 108.2 233.67 108.39 234.67 108.63 235.67 108.92 236.67 109.25 237.67 109.62 238.67 110.03 239.67 110.48 240.67 110.98 241.67 111.51 242.67 112.08 243.67 112.69 244.67 113.35 245.67 114.04 246.67 114.78 247.67 115.55 248.67 116.35 249.67 117.19 250.67 118.06 251.67 118.97 252.67 119.92 253.67 120.89 254.67 121.91 255.67 122.95 256.67 124.03 257.67 125.14 258.67 126.26 259.67 127.41 260.67 128.58 261.67 129.77 262.67 130.98 263.67 132.19 264.67 133.42 265.67 134.65 266.67 135.89 267.67 137.14 268.67 138.4 269.67 139.67 270.67 140.94 271.67 142.22 272.67 143.51 273.67 144.79 274.67 146.08 275.67 147.36 276.67 148.64 277.67 149.93 278.67 151.21 279.67 152.5 280.67 153.78 281.67 155.06 282.67 156.33 283.67 157.59 284.67 158.85 285.67 160.09 286.67 161.32 287.67 162.55 288.67 163.77 289.67 164.98 290.67 166.19 291.67 167.39 292.67 168.59 293.67 169.79 294.67 171 295.67 172.21 296.67 173.42 297.67 174.61 298.67 175.79 299.67 176.96 300.67 178.11 301.67 179.23 302.67 180.33 303.67 181.39 304.67 182.42 305.67 183.4 306.67 184.36 307.67 185.29 308.67 186.19 309.67 187.08 310.67 187.94 311.67 188.78 312.67 189.6 313.67 190.39 314.67 191.17 315.67 191.93 316.67 192.66 317.67 193.38 318.67 194.07 319.67 194.74 320.67 195.39 321.67 196.02 322.67 196.62 323.67 197.19 324.67 197.74 325.67 198.27 326.67 198.78 327.67 199.27 328.67 199.73 329.67 200.18 330.67 200.61 331.67 201.02 332.67 201.42 333.67 201.79 334.67 202.15 335.67 202.5 336.67 202.82 337.67 203.14 338.67 203.44 339.67 203.72 340.67 203.98 341.67 204.24 342.67 204.47 343.67 204.69 344.67 204.9 345.67 205.08 346.67 205.26 347.67 205.42 348.67 205.57 349.67 205.71 350.67 205.84 351.67 205.96 352.67 206.08 353.67 206.19 354.67 206.3 355.67 206.41 356.67 206.51 357.67 206.61 358.67 206.7 359.67 206.78 360.67 206.86 361.67 206.94 362.67 207.01 363.67 207.07 364.67 207.13 365.67 207.18 366.67 207.23 367.67 207.28 368.67 207.32 369.67 207.36 370.67 207.39 371.67 207.42 372.67 207.46 373.67 207.48 374.67 207.51 375.67 207.53 376.67 207.56 377.67 207.58 378.67 207.6 379.67 207.62 380.67 207.64 381.67 207.65 382.67 207.67 383.67 207.68 384.67 207.7 385.67 207.71 386.67 207.72 387.67 207.73 388.67 207.74 389.67 207.75 390.67 207.76 391.67 207.77 392.67 207.78 393.67 207.79 394.67 207.8 395.67 207.8 396.67 207.81 397.67 207.81 398.67 207.82 399.67 207.82 400.67 207.83 401.67 207.83 402.67 207.84 403.67 207.84 404.67 207.84 405.67 207.85 406.67 207.85 407.67 207.85 408.67 207.86 409.67 207.86 410.67 207.86 411.67 207.86 412.67 207.86 413.67 207.87 414.67 207.87 415.67 207.87 416.67 207.87 417.67 207.87 418.67 207.88 419.67 207.88 420.67 207.88 421.67 207.88 422.67 207.88 423.67 207.88"
         stroke="#00ff00"
         id="polyline15"
         style="fill:none;fill-opacity:1" /><polyline
         points="33.668 207.88 34.668 207.88 35.668 207.88 36.668 207.87 37.668 207.87 38.668 207.87 39.668 207.87 40.668 207.86 41.668 207.86 42.668 207.86 43.668 207.85 44.668 207.85 45.668 207.84 46.668 207.83 47.668 207.83 48.668 207.82 49.668 207.81 50.668 207.8 51.668 207.78 52.668 207.77 53.668 207.76 54.668 207.74 55.668 207.73 56.668 207.71 57.668 207.69 58.668 207.67 59.668 207.64 60.668 207.6 61.668 207.56 62.668 207.52 63.668 207.47 64.668 207.42 65.668 207.36 66.668 207.3 67.668 207.22 68.668 207.13 69.668 207.02 70.668 206.89 71.668 206.75 72.668 206.6 73.668 206.46 74.668 206.32 75.668 206.18 76.668 206.02 77.668 205.82 78.668 205.57 79.668 205.27 80.668 204.91 81.668 204.5 82.668 204.05 83.668 203.54 84.668 202.99 85.668 202.39 86.668 201.72 87.668 200.97 88.668 200.13 89.668 199.2 90.668 198.18 91.668 197.05 92.668 195.82 93.668 194.46 94.668 192.96 95.668 191.35 96.668 189.69 97.668 188.03 98.668 186.42 99.668 184.87 100.67 183.4 101.67 182.02 102.67 180.71 103.67 179.5 104.67 178.4 105.67 177.4 106.67 176.51 107.67 175.73 108.67 175.04 109.67 174.46 110.67 173.97 111.67 173.58 112.67 173.28 113.67 173.06 114.67 172.93 115.67 172.88 116.67 172.89 117.67 172.96 118.67 173.09 119.67 173.26 120.67 173.47 121.67 173.71 122.67 173.98 123.67 174.27 124.67 174.57 125.67 174.89 126.67 175.23 127.67 175.6 128.67 176.02 129.67 176.49 130.67 177 131.67 177.56 132.67 178.17 133.67 178.81 134.67 179.5 135.67 180.22 136.67 181 137.67 181.85 138.67 182.78 139.67 183.81 140.67 184.91 141.67 186.05 142.67 187.21 143.67 188.36 144.67 189.47 145.67 190.56 146.67 191.62 147.67 192.66 148.67 193.68 149.67 194.68 150.67 195.64 151.67 196.56 152.67 197.46 153.67 198.33 154.67 199.16 155.67 199.96 156.67 200.72 157.67 201.44 158.67 202.1 159.67 202.71 160.67 203.26 161.67 203.78 162.67 204.25 163.67 204.69 164.67 205.1 165.67 205.48 166.67 205.82 167.67 206.14 168.67 206.42 169.67 206.68 170.67 206.9 171.67 207.1 172.67 207.26 173.67 207.4 174.67 207.52 175.67 207.6 176.67 207.65 177.67 207.67 178.67 207.65 179.67 207.6 180.67 207.51 181.67 207.38 182.67 207.19 183.67 206.96 184.67 206.68 185.67 206.34 186.67 205.94 187.67 205.49 188.67 204.98 189.67 204.41 190.67 203.78 191.67 203.09 192.67 202.35 193.67 201.56 194.67 200.73 195.67 199.85 196.67 198.92 197.67 197.95 198.67 196.93 199.67 195.88 200.67 194.78 201.67 193.66 202.67 192.51 203.67 191.34 204.67 190.17 205.67 188.98 206.67 187.78 207.67 186.56 208.67 185.32 209.67 184.06 210.67 182.79 211.67 181.49 212.67 180.18 213.67 178.85 214.67 177.5 215.67 176.14 216.67 174.75 217.67 173.34 218.67 171.92 219.67 170.48 220.67 169.03 221.67 167.56 222.67 166.06 223.67 164.55 224.67 163.01 225.67 161.46 226.67 159.89 227.67 158.3 228.67 156.69 229.67 155.06 230.67 153.42 231.67 151.77 232.67 150.11 233.67 148.44 234.67 146.77 235.67 145.1 236.67 143.42 237.67 141.74 238.67 140.05 239.67 138.37 240.67 136.69 241.67 135.01 242.67 133.34 243.67 131.68 244.67 130.04 245.67 128.41 246.67 126.8 247.67 125.21 248.67 123.64 249.67 122.1 250.67 120.58 251.67 119.1 252.67 117.66 253.67 116.26 254.67 114.91 255.67 113.61 256.67 112.36 257.67 111.17 258.67 110.03 259.67 108.95 260.67 107.94 261.67 106.98 262.67 106.09 263.67 105.26 264.67 104.49 265.67 103.79 266.67 103.17 267.67 102.65 268.67 102.22 269.67 101.91 270.67 101.71 271.67 101.61 272.67 101.6 273.67 101.67 274.67 101.82 275.67 102.05 276.67 102.37 277.67 102.8 278.67 103.33 279.67 103.99 280.67 104.76 281.67 105.63 282.67 106.59 283.67 107.63 284.67 108.76 285.67 109.96 286.67 111.24 287.67 112.61 288.67 114.05 289.67 115.57 290.67 117.17 291.67 118.84 292.67 120.6 293.67 122.45 294.67 124.38 295.67 126.4 296.67 128.48 297.67 130.6 298.67 132.75 299.67 134.93 300.67 137.13 301.67 139.33 302.67 141.51 303.67 143.65 304.67 145.74 305.67 147.78 306.67 149.78 307.67 151.75 308.67 153.7 309.67 155.63 310.67 157.54 311.67 159.42 312.67 161.27 313.67 163.1 314.67 164.91 315.67 166.68 316.67 168.43 317.67 170.14 318.67 171.81 319.67 173.45 320.67 175.04 321.67 176.59 322.67 178.09 323.67 179.54 324.67 180.94 325.67 182.28 326.67 183.57 327.67 184.82 328.67 186.02 329.67 187.18 330.67 188.3 331.67 189.38 332.67 190.41 333.67 191.4 334.67 192.36 335.67 193.27 336.67 194.14 337.67 194.98 338.67 195.77 339.67 196.53 340.67 197.25 341.67 197.92 342.67 198.56 343.67 199.15 344.67 199.7 345.67 200.21 346.67 200.69 347.67 201.12 348.67 201.53 349.67 201.91 350.67 202.26 351.67 202.6 352.67 202.91 353.67 203.22 354.67 203.51 355.67 203.8 356.67 204.09 357.67 204.35 358.67 204.6 359.67 204.84 360.67 205.06 361.67 205.26 362.67 205.45 363.67 205.62 364.67 205.78 365.67 205.93 366.67 206.07 367.67 206.19 368.67 206.31 369.67 206.41 370.67 206.51 371.67 206.6 372.67 206.68 373.67 206.76 374.67 206.83 375.67 206.9 376.67 206.96 377.67 207.02 378.67 207.08 379.67 207.14 380.67 207.18 381.67 207.23 382.67 207.27 383.67 207.31 384.67 207.35 385.67 207.39 386.67 207.42 387.67 207.45 388.67 207.48 389.67 207.51 390.67 207.54 391.67 207.56 392.67 207.58 393.67 207.6 394.67 207.62 395.67 207.64 396.67 207.66 397.67 207.67 398.67 207.69 399.67 207.7 400.67 207.72 401.67 207.73 402.67 207.74 403.67 207.75 404.67 207.76 405.67 207.77 406.67 207.78 407.67 207.78 408.67 207.79 409.67 207.8 410.67 207.81 411.67 207.81 412.67 207.82 413.67 207.82 414.67 207.83 415.67 207.83 416.67 207.84 417.67 207.84 418.67 207.84 419.67 207.85 420.67 207.85 421.67 207.85 422.67 207.86 423.67 207.86"
         stroke="#ff0000"
         id="polyline17"
         style="fill:none;fill-opacity:1" /></g><g
       stroke="#000000"
       id="g147"
       style="fill:none;fill-opacity:1"><g
         stroke-width="1.5"
         id="g31"
         style="fill:none;fill-opacity:1"><polyline
           points="423.67 207.83 33.668 207.83 33.668 7.832"
           id="polyline21"
           style="fill:none;fill-opacity:1" /><line
           x1="373.67001"
           x2="373.67001"
           y1="215.33"
           y2="200.33"
           id="line23"
           style="fill:none;fill-opacity:1" /><line
           x1="273.67001"
           x2="273.67001"
           y1="215.33"
           y2="200.33"
           id="line25"
           style="fill:none;fill-opacity:1" /><line
           x1="173.67"
           x2="173.67"
           y1="215.33"
           y2="200.33"
           id="line27"
           style="fill:none;fill-opacity:1" /><line
           x1="73.667999"
           x2="73.667999"
           y1="215.33"
           y2="200.33"
           id="line29"
           style="fill:none;fill-opacity:1" /></g><line
         x1="83.667999"
         x2="83.667999"
         y1="211.58"
         y2="204.08"
         id="line33"
         style="fill:none;fill-opacity:1" /><line
         x1="63.667999"
         x2="63.667999"
         y1="211.58"
         y2="204.08"
         id="line35"
         style="fill:none;fill-opacity:1" /><line
         x1="53.667999"
         x2="53.667999"
         y1="211.58"
         y2="204.08"
         id="line37"
         style="fill:none;fill-opacity:1" /><line
         x1="43.667999"
         x2="43.667999"
         y1="211.58"
         y2="204.08"
         id="line39"
         style="fill:none;fill-opacity:1" /><line
         x1="93.667999"
         x2="93.667999"
         y1="211.58"
         y2="204.08"
         id="line41"
         style="fill:none;fill-opacity:1" /><line
         x1="103.67"
         x2="103.67"
         y1="211.58"
         y2="204.08"
         id="line43"
         style="fill:none;fill-opacity:1" /><line
         x1="113.67"
         x2="113.67"
         y1="211.58"
         y2="204.08"
         id="line45"
         style="fill:none;fill-opacity:1" /><line
         x1="123.67"
         x2="123.67"
         y1="211.58"
         y2="204.08"
         id="line47"
         style="fill:none;fill-opacity:1" /><line
         x1="133.67"
         x2="133.67"
         y1="211.58"
         y2="204.08"
         id="line49"
         style="fill:none;fill-opacity:1" /><line
         x1="143.67"
         x2="143.67"
         y1="211.58"
         y2="204.08"
         id="line51"
         style="fill:none;fill-opacity:1" /><line
         x1="153.67"
         x2="153.67"
         y1="211.58"
         y2="204.08"
         id="line53"
         style="fill:none;fill-opacity:1" /><line
         x1="163.67"
         x2="163.67"
         y1="211.58"
         y2="204.08"
         id="line55"
         style="fill:none;fill-opacity:1" /><line
         x1="183.67"
         x2="183.67"
         y1="211.58"
         y2="204.08"
         id="line57"
         style="fill:none;fill-opacity:1" /><line
         x1="193.67"
         x2="193.67"
         y1="211.58"
         y2="204.08"
         id="line59"
         style="fill:none;fill-opacity:1" /><line
         x1="203.67"
         x2="203.67"
         y1="211.58"
         y2="204.08"
         id="line61"
         style="fill:none;fill-opacity:1" /><line
         x1="213.67"
         x2="213.67"
         y1="211.58"
         y2="204.08"
         id="line63"
         style="fill:none;fill-opacity:1" /><line
         x1="223.67"
         x2="223.67"
         y1="211.58"
         y2="204.08"
         id="line65"
         style="fill:none;fill-opacity:1" /><line
         x1="233.67"
         x2="233.67"
         y1="211.58"
         y2="204.08"
         id="line67"
         style="fill:none;fill-opacity:1" /><line
         x1="243.67"
         x2="243.67"
         y1="211.58"
         y2="204.08"
         id="line69"
         style="fill:none;fill-opacity:1" /><line
         x1="253.67"
         x2="253.67"
         y1="211.58"
         y2="204.08"
         id="line71"
         style="fill:none;fill-opacity:1" /><line
         x1="263.67001"
         x2="263.67001"
         y1="211.58"
         y2="204.08"
         id="line73"
         style="fill:none;fill-opacity:1" /><line
         x1="283.67001"
         x2="283.67001"
         y1="211.58"
         y2="204.08"
         id="line75"
         style="fill:none;fill-opacity:1" /><line
         x1="293.67001"
         x2="293.67001"
         y1="211.58"
         y2="204.08"
         id="line77"
         style="fill:none;fill-opacity:1" /><line
         x1="303.67001"
         x2="303.67001"
         y1="211.58"
         y2="204.08"
         id="line79"
         style="fill:none;fill-opacity:1" /><line
         x1="313.67001"
         x2="313.67001"
         y1="211.58"
         y2="204.08"
         id="line81"
         style="fill:none;fill-opacity:1" /><line
         x1="323.67001"
         x2="323.67001"
         y1="211.58"
         y2="204.08"
         id="line83"
         style="fill:none;fill-opacity:1" /><line
         x1="333.67001"
         x2="333.67001"
         y1="211.58"
         y2="204.08"
         id="line85"
         style="fill:none;fill-opacity:1" /><line
         x1="343.67001"
         x2="343.67001"
         y1="211.58"
         y2="204.08"
         id="line87"
         style="fill:none;fill-opacity:1" /><line
         x1="353.67001"
         x2="353.67001"
         y1="211.58"
         y2="204.08"
         id="line89"
         style="fill:none;fill-opacity:1" /><line
         x1="363.67001"
         x2="363.67001"
         y1="211.58"
         y2="204.08"
         id="line91"
         style="fill:none;fill-opacity:1" /><line
         x1="383.67001"
         x2="383.67001"
         y1="211.58"
         y2="204.08"
         id="line93"
         style="fill:none;fill-opacity:1" /><line
         x1="393.67001"
         x2="393.67001"
         y1="211.58"
         y2="204.08"
         id="line95"
         style="fill:none;fill-opacity:1" /><line
         x1="403.67001"
         x2="403.67001"
         y1="211.58"
         y2="204.08"
         id="line97"
         style="fill:none;fill-opacity:1" /><line
         x1="413.67001"
         x2="413.67001"
         y1="211.58"
         y2="204.08"
         id="line99"
         style="fill:none;fill-opacity:1" /><line
         x1="423.67001"
         x2="423.67001"
         y1="211.58"
         y2="204.08"
         id="line101"
         style="fill:none;fill-opacity:1" /><g
         stroke-width="1.5"
         id="g113"
         style="fill:none;fill-opacity:1"><line
           x1="26.167999"
           x2="41.167999"
           y1="157.83"
           y2="157.83"
           id="line103"
           style="fill:none;fill-opacity:1" /><line
           x1="26.167999"
           x2="41.167999"
           y1="207.83"
           y2="207.83"
           id="line105"
           style="fill:none;fill-opacity:1" /><line
           x1="26.167999"
           x2="41.167999"
           y1="107.83"
           y2="107.83"
           id="line107"
           style="fill:none;fill-opacity:1" /><line
           x1="26.167999"
           x2="41.167999"
           y1="57.832001"
           y2="57.832001"
           id="line109"
           style="fill:none;fill-opacity:1" /><line
           x1="26.167999"
           x2="41.167999"
           y1="7.8319998"
           y2="7.8319998"
           id="line111"
           style="fill:none;fill-opacity:1" /></g><line
         x1="29.917999"
         x2="37.417999"
         y1="17.832001"
         y2="17.832001"
         id="line115"
         style="fill:none;fill-opacity:1" /><line
         x1="29.917999"
         x2="37.417999"
         y1="27.832001"
         y2="27.832001"
         id="line117"
         style="fill:none;fill-opacity:1" /><line
         x1="29.917999"
         x2="37.417999"
         y1="37.832001"
         y2="37.832001"
         id="line119"
         style="fill:none;fill-opacity:1" /><line
         x1="29.917999"
         x2="37.417999"
         y1="47.832001"
         y2="47.832001"
         id="line121"
         style="fill:none;fill-opacity:1" /><line
         x1="29.917999"
         x2="37.417999"
         y1="67.832001"
         y2="67.832001"
         id="line123"
         style="fill:none;fill-opacity:1" /><line
         x1="29.917999"
         x2="37.417999"
         y1="77.832001"
         y2="77.832001"
         id="line125"
         style="fill:none;fill-opacity:1" /><line
         x1="29.917999"
         x2="37.417999"
         y1="87.832001"
         y2="87.832001"
         id="line127"
         style="fill:none;fill-opacity:1" /><line
         x1="29.917999"
         x2="37.417999"
         y1="97.832001"
         y2="97.832001"
         id="line129"
         style="fill:none;fill-opacity:1" /><line
         x1="29.917999"
         x2="37.417999"
         y1="117.83"
         y2="117.83"
         id="line131"
         style="fill:none;fill-opacity:1" /><line
         x1="29.917999"
         x2="37.417999"
         y1="127.83"
         y2="127.83"
         id="line133"
         style="fill:none;fill-opacity:1" /><line
         x1="29.917999"
         x2="37.417999"
         y1="137.83"
         y2="137.83"
         id="line135"
         style="fill:none;fill-opacity:1" /><line
         x1="29.917999"
         x2="37.417999"
         y1="147.83"
         y2="147.83"
         id="line137"
         style="fill:none;fill-opacity:1" /><line
         x1="29.917999"
         x2="37.417999"
         y1="167.83"
         y2="167.83"
         id="line139"
         style="fill:none;fill-opacity:1" /><line
         x1="29.917999"
         x2="37.417999"
         y1="177.83"
         y2="177.83"
         id="line141"
         style="fill:none;fill-opacity:1" /><line
         x1="29.917999"
         x2="37.417999"
         y1="187.83"
         y2="187.83"
         id="line143"
         style="fill:none;fill-opacity:1" /><line
         x1="29.917999"
         x2="37.417999"
         y1="197.83"
         y2="197.83"
         id="line145"
         style="fill:none;fill-opacity:1" /></g></g><path
     d="m 4.344,163.46 c -1.125,0 -1.962,-0.442 -2.512,-1.328 -0.549,-0.885 -0.824,-2.229 -0.824,-4.031 0,-0.958 0.084,-1.786 0.254,-2.484 0.169,-0.698 0.406,-1.274 0.711,-1.73 0.305,-0.456 0.67,-0.793 1.098,-1.012 0.428,-0.219 0.893,-0.328 1.398,-0.328 1.141,0 1.99,0.44 2.547,1.32 0.557,0.88 0.836,2.211 0.836,3.992 0,1.844 -0.298,3.238 -0.895,4.184 -0.597,0.946 -1.467,1.417 -2.613,1.417 z m -1.813,-5.594 c 0,1.698 0.158,2.944 0.473,3.738 0.315,0.794 0.803,1.191 1.465,1.191 0.63,0 1.098,-0.374 1.402,-1.121 0.305,-0.747 0.457,-1.905 0.457,-3.473 0,-1.198 -0.078,-2.168 -0.234,-2.91 -0.156,-0.742 -0.374,-1.274 -0.652,-1.598 -0.279,-0.323 -0.616,-0.484 -1.012,-0.484 -0.359,0 -0.66,0.107 -0.902,0.32 -0.242,0.214 -0.438,0.521 -0.586,0.922 -0.148,0.401 -0.254,0.89 -0.316,1.465 -0.063,0.577 -0.095,1.227 -0.095,1.95 z"
     id="path151"
     transform="matrix(2.7778,0,0,2.7778,37.696,28.73)" /><path
     d="m 11.289,161.52 v 1.813 H 9.711 v -1.813 z"
     id="path153"
     transform="matrix(2.7778,0,0,2.7778,37.696,28.73)" /><path
     d="m 13.313,162.9 v -1.656 h 0.945 c 0.156,0.531 0.392,0.922 0.707,1.172 0.315,0.25 0.723,0.375 1.223,0.375 0.693,0 1.216,-0.208 1.57,-0.625 0.354,-0.417 0.531,-1.039 0.531,-1.867 0,-0.552 -0.094,-1.009 -0.281,-1.371 -0.188,-0.362 -0.44,-0.624 -0.758,-0.785 -0.318,-0.161 -0.688,-0.242 -1.109,-0.242 -0.354,0 -0.659,0.022 -0.914,0.066 -0.255,0.044 -0.529,0.113 -0.82,0.207 l -0.625,-0.367 v -5.141 h 4.305 c 0.177,0 0.305,-0.014 0.383,-0.043 0.078,-0.028 0.141,-0.073 0.188,-0.133 0.047,-0.06 0.102,-0.173 0.164,-0.34 h 0.609 l -0.117,1.813 H 14.82 v 3.43 c 0.271,-0.114 0.565,-0.2 0.883,-0.258 0.318,-0.057 0.635,-0.086 0.953,-0.086 0.62,0 1.169,0.126 1.648,0.379 0.479,0.253 0.849,0.612 1.109,1.078 0.26,0.466 0.391,1.007 0.391,1.621 0,0.698 -0.146,1.297 -0.438,1.797 -0.292,0.5 -0.713,0.88 -1.266,1.141 -0.552,0.261 -1.206,0.391 -1.961,0.391 -0.899,-10e-4 -1.842,-0.186 -2.826,-0.556 z"
     id="path155"
     transform="matrix(2.7778,0,0,2.7778,37.696,28.73)" /><path
     d="m 4.344,213.46 c -1.125,0 -1.962,-0.442 -2.512,-1.328 -0.549,-0.885 -0.824,-2.229 -0.824,-4.031 0,-0.958 0.084,-1.786 0.254,-2.484 0.169,-0.698 0.406,-1.274 0.711,-1.73 0.305,-0.456 0.67,-0.793 1.098,-1.012 0.428,-0.219 0.893,-0.328 1.398,-0.328 1.141,0 1.99,0.44 2.547,1.32 0.557,0.88 0.836,2.211 0.836,3.992 0,1.844 -0.298,3.238 -0.895,4.184 -0.597,0.946 -1.467,1.417 -2.613,1.417 z m -1.813,-5.594 c 0,1.698 0.158,2.944 0.473,3.738 0.315,0.794 0.803,1.191 1.465,1.191 0.63,0 1.098,-0.374 1.402,-1.121 0.305,-0.747 0.457,-1.905 0.457,-3.473 0,-1.198 -0.078,-2.168 -0.234,-2.91 -0.156,-0.742 -0.374,-1.274 -0.652,-1.598 -0.279,-0.323 -0.616,-0.484 -1.012,-0.484 -0.359,0 -0.66,0.107 -0.902,0.32 -0.242,0.214 -0.438,0.521 -0.586,0.922 -0.148,0.401 -0.254,0.89 -0.316,1.465 -0.063,0.577 -0.095,1.227 -0.095,1.95 z"
     id="path157"
     transform="matrix(2.7778,0,0,2.7778,37.696,28.73)" /><path
     d="m 11.289,211.52 v 1.813 H 9.711 v -1.813 z"
     id="path159"
     transform="matrix(2.7778,0,0,2.7778,37.696,28.73)" /><path
     d="m 16.484,213.46 c -1.125,0 -1.962,-0.442 -2.512,-1.328 -0.549,-0.885 -0.824,-2.229 -0.824,-4.031 0,-0.958 0.084,-1.786 0.254,-2.484 0.169,-0.698 0.406,-1.274 0.711,-1.73 0.305,-0.456 0.67,-0.793 1.098,-1.012 0.428,-0.219 0.893,-0.328 1.398,-0.328 1.141,0 1.99,0.44 2.547,1.32 0.557,0.88 0.836,2.211 0.836,3.992 0,1.844 -0.298,3.238 -0.895,4.184 -0.597,0.946 -1.467,1.417 -2.613,1.417 z m -1.812,-5.594 c 0,1.698 0.158,2.944 0.473,3.738 0.315,0.794 0.803,1.191 1.465,1.191 0.63,0 1.098,-0.374 1.402,-1.121 0.305,-0.747 0.457,-1.905 0.457,-3.473 0,-1.198 -0.078,-2.168 -0.234,-2.91 -0.156,-0.742 -0.374,-1.274 -0.652,-1.598 -0.279,-0.323 -0.616,-0.484 -1.012,-0.484 -0.359,0 -0.66,0.107 -0.902,0.32 -0.242,0.214 -0.438,0.521 -0.586,0.922 -0.148,0.401 -0.254,0.89 -0.316,1.465 -0.064,0.577 -0.095,1.227 -0.095,1.95 z"
     id="path161"
     transform="matrix(2.7778,0,0,2.7778,37.696,28.73)" /><path
     d="m 5.43,111.29 c 0,0.302 0.017,0.53 0.051,0.684 0.034,0.154 0.094,0.279 0.18,0.375 0.086,0.097 0.209,0.172 0.371,0.227 0.162,0.055 0.365,0.097 0.609,0.125 0.245,0.029 0.568,0.048 0.969,0.059 v 0.57 H 1.836 v -0.57 c 0.578,-0.026 0.991,-0.061 1.238,-0.105 0.248,-0.044 0.436,-0.11 0.566,-0.199 0.13,-0.088 0.225,-0.213 0.285,-0.375 0.06,-0.161 0.09,-0.424 0.09,-0.789 v -6.336 c 0,-0.208 -0.037,-0.36 -0.109,-0.457 -0.073,-0.096 -0.18,-0.145 -0.32,-0.145 -0.167,0 -0.404,0.086 -0.711,0.258 -0.307,0.172 -0.688,0.409 -1.141,0.711 l -0.344,-0.602 3.656,-2.18 h 0.43 c -0.031,0.5 -0.047,1.193 -0.047,2.078 v 6.671 z"
     id="path163"
     transform="matrix(2.7778,0,0,2.7778,37.696,28.73)" /><path
     d="m 11.289,111.52 v 1.813 H 9.711 v -1.813 z"
     id="path165"
     transform="matrix(2.7778,0,0,2.7778,37.696,28.73)" /><path
     d="m 16.484,113.46 c -1.125,0 -1.962,-0.442 -2.512,-1.328 -0.549,-0.885 -0.824,-2.229 -0.824,-4.031 0,-0.958 0.084,-1.786 0.254,-2.484 0.169,-0.698 0.406,-1.274 0.711,-1.73 0.305,-0.456 0.67,-0.793 1.098,-1.012 0.428,-0.219 0.893,-0.328 1.398,-0.328 1.141,0 1.99,0.44 2.547,1.32 0.557,0.88 0.836,2.211 0.836,3.992 0,1.844 -0.298,3.238 -0.895,4.184 -0.597,0.946 -1.467,1.417 -2.613,1.417 z m -1.812,-5.594 c 0,1.698 0.158,2.944 0.473,3.738 0.315,0.794 0.803,1.191 1.465,1.191 0.63,0 1.098,-0.374 1.402,-1.121 0.305,-0.747 0.457,-1.905 0.457,-3.473 0,-1.198 -0.078,-2.168 -0.234,-2.91 -0.156,-0.742 -0.374,-1.274 -0.652,-1.598 -0.279,-0.323 -0.616,-0.484 -1.012,-0.484 -0.359,0 -0.66,0.107 -0.902,0.32 -0.242,0.214 -0.438,0.521 -0.586,0.922 -0.148,0.401 -0.254,0.89 -0.316,1.465 -0.064,0.577 -0.095,1.227 -0.095,1.95 z"
     id="path167"
     transform="matrix(2.7778,0,0,2.7778,37.696,28.73)" /><path
     d="m 5.43,61.293 c 0,0.302 0.017,0.53 0.051,0.684 0.034,0.154 0.094,0.279 0.18,0.375 0.086,0.097 0.209,0.172 0.371,0.227 0.162,0.055 0.365,0.097 0.609,0.125 0.245,0.029 0.568,0.048 0.969,0.059 v 0.57 H 1.836 v -0.57 c 0.578,-0.026 0.991,-0.061 1.238,-0.105 0.248,-0.044 0.436,-0.11 0.566,-0.199 0.13,-0.088 0.225,-0.213 0.285,-0.375 0.06,-0.161 0.09,-0.424 0.09,-0.789 v -6.336 c 0,-0.208 -0.037,-0.36 -0.109,-0.457 -0.073,-0.096 -0.18,-0.145 -0.32,-0.145 -0.167,0 -0.404,0.086 -0.711,0.258 -0.307,0.172 -0.688,0.409 -1.141,0.711 L 1.39,54.724 5.046,52.544 h 0.43 c -0.031,0.5 -0.047,1.193 -0.047,2.078 v 6.671 z"
     id="path169"
     transform="matrix(2.7778,0,0,2.7778,37.696,28.73)" /><path
     d="m 11.289,61.52 v 1.813 H 9.711 V 61.52 Z"
     id="path171"
     transform="matrix(2.7778,0,0,2.7778,37.696,28.73)" /><path
     d="m 13.313,62.902 v -1.656 h 0.945 c 0.156,0.531 0.392,0.922 0.707,1.172 0.315,0.25 0.723,0.375 1.223,0.375 0.693,0 1.216,-0.208 1.57,-0.625 0.354,-0.417 0.531,-1.039 0.531,-1.867 0,-0.552 -0.094,-1.009 -0.281,-1.371 -0.188,-0.362 -0.44,-0.624 -0.758,-0.785 -0.318,-0.161 -0.688,-0.242 -1.109,-0.242 -0.354,0 -0.659,0.022 -0.914,0.066 -0.255,0.044 -0.529,0.113 -0.82,0.207 l -0.625,-0.367 v -5.141 h 4.305 c 0.177,0 0.305,-0.014 0.383,-0.043 0.078,-0.028 0.141,-0.073 0.188,-0.133 0.047,-0.06 0.102,-0.173 0.164,-0.34 h 0.609 l -0.117,1.813 H 14.82 v 3.43 c 0.271,-0.114 0.565,-0.2 0.883,-0.258 0.318,-0.057 0.635,-0.086 0.953,-0.086 0.62,0 1.169,0.126 1.648,0.379 0.479,0.253 0.849,0.612 1.109,1.078 0.26,0.466 0.391,1.007 0.391,1.621 0,0.698 -0.146,1.297 -0.438,1.797 -0.292,0.5 -0.713,0.88 -1.266,1.141 -0.552,0.261 -1.206,0.391 -1.961,0.391 -0.899,-10e-4 -1.842,-0.186 -2.826,-0.556 z"
     id="path173"
     transform="matrix(2.7778,0,0,2.7778,37.696,28.73)" /><path
     d="m 5.484,12.082 c 0.255,0 0.461,-0.016 0.617,-0.047 0.156,-0.031 0.281,-0.083 0.375,-0.156 0.094,-0.073 0.168,-0.168 0.223,-0.285 0.055,-0.117 0.124,-0.298 0.207,-0.543 H 7.57 L 7.437,13.332 H 1.007 V 12.957 C 1.231,12.41 1.533,11.851 1.913,11.277 2.293,10.704 2.832,10.03 3.53,9.254 4.135,8.587 4.57,8.082 4.836,7.738 5.128,7.363 5.345,7.039 5.488,6.765 5.631,6.491 5.734,6.234 5.797,5.992 5.86,5.75 5.891,5.507 5.891,5.262 5.891,4.871 5.828,4.527 5.703,4.227 5.578,3.927 5.387,3.691 5.129,3.52 4.871,3.349 4.547,3.262 4.156,3.262 3.182,3.262 2.526,3.804 2.187,4.887 H 1.242 v -1.5 C 1.872,3.09 2.462,2.875 3.012,2.742 3.562,2.609 4.055,2.543 4.492,2.543 5.461,2.543 6.193,2.755 6.687,3.18 7.182,3.604 7.43,4.22 7.43,5.027 7.43,5.303 7.403,5.557 7.348,5.789 7.293,6.021 7.207,6.25 7.09,6.477 6.973,6.704 6.815,6.947 6.617,7.207 6.419,7.468 6.201,7.732 5.961,8 5.721,8.269 5.307,8.715 4.719,9.34 c -0.99,1.047 -1.716,1.961 -2.18,2.742 z"
     id="path175"
     transform="matrix(2.7778,0,0,2.7778,37.696,28.73)" /><path
     d="m 11.289,11.52 v 1.813 H 9.711 V 11.52 Z"
     id="path177"
     transform="matrix(2.7778,0,0,2.7778,37.696,28.73)" /><path
     d="m 16.484,13.457 c -1.125,0 -1.962,-0.442 -2.512,-1.328 -0.549,-0.885 -0.824,-2.229 -0.824,-4.031 0,-0.958 0.084,-1.786 0.254,-2.484 0.169,-0.698 0.406,-1.274 0.711,-1.73 0.305,-0.456 0.67,-0.793 1.098,-1.012 0.428,-0.219 0.893,-0.328 1.398,-0.328 1.141,0 1.99,0.44 2.547,1.32 0.557,0.88 0.836,2.211 0.836,3.992 0,1.844 -0.298,3.238 -0.895,4.184 -0.597,0.946 -1.467,1.417 -2.613,1.417 z M 14.672,7.863 c 0,1.698 0.158,2.944 0.473,3.738 0.315,0.794 0.803,1.191 1.465,1.191 0.63,0 1.098,-0.374 1.402,-1.121 0.305,-0.747 0.457,-1.905 0.457,-3.473 C 18.469,7 18.391,6.03 18.235,5.288 18.079,4.546 17.861,4.014 17.583,3.69 17.304,3.367 16.967,3.206 16.571,3.206 c -0.359,0 -0.66,0.107 -0.902,0.32 -0.242,0.214 -0.438,0.521 -0.586,0.922 -0.148,0.401 -0.254,0.89 -0.316,1.465 -0.064,0.577 -0.095,1.227 -0.095,1.95 z"
     id="path179"
     transform="matrix(2.7778,0,0,2.7778,37.696,28.73)" /><path
     d="m 392.06,18.301 c -0.078,-0.411 -0.158,-0.807 -0.242,-1.188 -0.084,-0.38 -0.17,-0.734 -0.258,-1.063 -0.088,-0.329 -0.162,-0.543 -0.219,-0.645 -0.057,-0.102 -0.119,-0.172 -0.184,-0.211 -0.065,-0.039 -0.146,-0.059 -0.246,-0.059 -0.109,0 -0.209,0.025 -0.297,0.074 -0.088,0.05 -0.186,0.136 -0.289,0.258 -0.104,0.123 -0.242,0.314 -0.414,0.574 l -0.508,-0.336 c 0.328,-0.495 0.643,-0.864 0.945,-1.109 0.303,-0.245 0.658,-0.367 1.07,-0.367 0.162,0 0.303,0.019 0.426,0.055 0.123,0.037 0.23,0.093 0.324,0.168 0.094,0.076 0.178,0.173 0.25,0.293 0.072,0.12 0.143,0.283 0.211,0.488 0.068,0.206 0.131,0.461 0.191,0.766 0.06,0.305 0.113,0.621 0.16,0.949 h 0.078 c 0.5,-0.703 0.879,-1.217 1.137,-1.543 0.258,-0.325 0.475,-0.567 0.652,-0.727 0.178,-0.159 0.348,-0.271 0.512,-0.336 0.164,-0.065 0.381,-0.098 0.652,-0.098 0.244,0 0.445,0.031 0.602,0.094 l -0.313,1.414 h -0.547 c -0.031,-0.219 -0.123,-0.328 -0.273,-0.328 -0.047,0 -0.096,0.008 -0.148,0.023 -0.052,0.015 -0.115,0.05 -0.191,0.102 -0.076,0.052 -0.186,0.154 -0.332,0.305 -0.146,0.151 -0.311,0.336 -0.492,0.555 -0.181,0.219 -0.369,0.448 -0.563,0.688 l -0.531,0.664 c 0.094,0.5 0.182,0.933 0.266,1.297 0.084,0.365 0.158,0.668 0.223,0.91 0.065,0.242 0.123,0.434 0.172,0.574 0.049,0.14 0.104,0.246 0.16,0.316 0.056,0.07 0.115,0.12 0.176,0.148 0.061,0.029 0.129,0.043 0.207,0.043 0.141,0 0.277,-0.055 0.41,-0.164 0.133,-0.109 0.324,-0.356 0.574,-0.742 l 0.508,0.336 c -0.365,0.542 -0.693,0.923 -0.988,1.145 -0.295,0.222 -0.645,0.332 -1.051,0.332 -0.225,0 -0.414,-0.041 -0.57,-0.121 -0.156,-0.08 -0.291,-0.209 -0.406,-0.387 -0.115,-0.177 -0.217,-0.453 -0.305,-0.828 -0.162,-0.667 -0.26,-1.177 -0.297,-1.531 h -0.078 c -0.553,0.776 -0.963,1.333 -1.23,1.672 -0.268,0.339 -0.49,0.589 -0.664,0.75 -0.174,0.162 -0.344,0.275 -0.508,0.34 -0.164,0.065 -0.381,0.098 -0.652,0.098 -0.244,0 -0.445,-0.031 -0.602,-0.094 l 0.313,-1.414 h 0.547 c 0.031,0.219 0.123,0.328 0.273,0.328 0.072,0 0.15,-0.02 0.23,-0.059 0.08,-0.039 0.197,-0.133 0.348,-0.281 0.151,-0.148 0.359,-0.381 0.625,-0.699 0.265,-0.317 0.65,-0.793 1.156,-1.429 z"
     id="path181"
     transform="matrix(2.7778,0,0,2.7778,37.696,28.73)" /><path
     d="m 396.53,12.48 h -6.883 v -0.828 h 6.883 z"
     id="path183"
     transform="matrix(2.7778,0,0,2.7778,37.696,28.73)" /><path
     d="m 400.49,17.879 c 0,1.823 0.293,3.326 0.879,4.508 0.586,1.182 1.48,1.974 2.684,2.375 l -0.188,0.602 c -1.525,-0.401 -2.695,-1.265 -3.508,-2.59 -0.813,-1.325 -1.219,-2.931 -1.219,-4.816 0,-1.88 0.408,-3.485 1.223,-4.816 0.814,-1.331 1.982,-2.196 3.504,-2.598 l 0.211,0.602 c -1.219,0.401 -2.121,1.184 -2.707,2.348 -0.586,1.164 -0.879,2.625 -0.879,4.385 z"
     id="path185"
     transform="matrix(2.7778,0,0,2.7778,37.696,28.73)" /><path
     d="m 403.84,21.449 c 0.238,-0.292 0.479,-0.595 0.719,-0.91 0.238,-0.315 0.531,-0.715 0.875,-1.199 l 3.5,-4.969 c -0.006,-0.531 -0.029,-0.977 -0.07,-1.336 -0.043,-0.359 -0.1,-0.645 -0.172,-0.855 -0.074,-0.211 -0.17,-0.366 -0.289,-0.465 -0.121,-0.099 -0.285,-0.148 -0.492,-0.148 -0.172,0 -0.348,0.05 -0.523,0.148 -0.178,0.099 -0.436,0.302 -0.773,0.609 l -0.406,-0.453 c 0.479,-0.474 0.875,-0.795 1.191,-0.965 0.314,-0.169 0.629,-0.254 0.941,-0.254 0.4,0 0.707,0.094 0.922,0.281 0.213,0.188 0.363,0.483 0.453,0.887 0.088,0.404 0.133,0.994 0.133,1.77 0,0.255 -0.006,0.625 -0.016,1.109 l -0.031,1.234 c -0.043,1.172 -0.063,2.094 -0.063,2.766 0,0.542 0.012,0.965 0.035,1.27 0.023,0.305 0.061,0.535 0.113,0.691 0.051,0.156 0.117,0.262 0.195,0.316 0.078,0.054 0.174,0.082 0.289,0.082 0.135,0 0.279,-0.045 0.434,-0.137 0.152,-0.091 0.342,-0.256 0.566,-0.496 l 0.438,0.438 c -0.34,0.344 -0.674,0.612 -1.004,0.805 -0.332,0.192 -0.625,0.289 -0.879,0.289 -0.297,0 -0.523,-0.06 -0.68,-0.18 -0.157,-0.12 -0.27,-0.317 -0.34,-0.594 -0.07,-0.276 -0.105,-0.682 -0.105,-1.219 0,-0.739 0.055,-1.95 0.164,-3.633 h -0.078 c -1.563,2.292 -2.742,4.125 -3.539,5.5 h -1.586 z"
     id="path187"
     transform="matrix(2.7778,0,0,2.7778,37.696,28.73)" /><path
     d="m 415.4,17.879 c 0,-1.76 -0.292,-3.223 -0.875,-4.387 -0.583,-1.164 -1.487,-1.946 -2.711,-2.348 l 0.211,-0.602 c 1.521,0.401 2.688,1.267 3.504,2.598 0.815,1.331 1.223,2.937 1.223,4.816 0,1.886 -0.406,3.491 -1.219,4.816 -0.813,1.325 -1.981,2.188 -3.508,2.59 l -0.188,-0.602 c 1.203,-0.401 2.098,-1.193 2.684,-2.375 0.586,-1.182 0.879,-2.683 0.879,-4.506 z"
     id="path189"
     transform="matrix(2.7778,0,0,2.7778,37.696,28.73)" /><path
     d="m 392.15,43.348 c -0.15,-0.911 -0.357,-2.01 -0.617,-3.297 -0.275,-1.375 -0.459,-2.227 -0.547,-2.555 -0.109,-0.396 -0.225,-0.648 -0.344,-0.758 -0.072,-0.067 -0.164,-0.102 -0.273,-0.102 -0.166,0 -0.322,0.068 -0.469,0.203 -0.146,0.136 -0.326,0.37 -0.539,0.703 l -0.508,-0.336 c 0.359,-0.536 0.695,-0.915 1.008,-1.137 0.313,-0.221 0.662,-0.332 1.047,-0.332 0.213,0 0.396,0.029 0.547,0.086 0.104,0.042 0.209,0.111 0.313,0.207 0.104,0.097 0.197,0.23 0.277,0.402 0.08,0.172 0.15,0.365 0.211,0.578 0.061,0.214 0.127,0.521 0.199,0.922 0.125,0.672 0.246,1.379 0.363,2.121 0.117,0.742 0.217,1.431 0.301,2.066 0.506,-0.729 0.934,-1.442 1.285,-2.141 0.352,-0.698 0.604,-1.305 0.758,-1.82 0.154,-0.515 0.23,-0.935 0.23,-1.258 0,-0.245 -0.053,-0.411 -0.156,-0.5 -0.104,-0.088 -0.281,-0.141 -0.531,-0.156 l 0.078,-0.383 h 2.055 l 0.211,0.391 c -0.396,1.083 -0.932,2.242 -1.609,3.477 -0.666,1.208 -1.43,2.412 -2.289,3.609 -0.822,1.141 -1.508,1.966 -2.055,2.477 -0.381,0.349 -0.748,0.599 -1.102,0.75 -0.281,0.114 -0.58,0.172 -0.898,0.172 -0.109,0 -0.236,-0.009 -0.379,-0.027 -0.143,-0.019 -0.254,-0.043 -0.332,-0.074 l 0.336,-1.516 h 0.617 c 0,0.333 0.115,0.5 0.344,0.5 0.303,0 0.654,-0.189 1.055,-0.566 0.399,-0.377 0.872,-0.946 1.413,-1.706 z"
     id="path191"
     transform="matrix(2.7778,0,0,2.7778,37.696,28.73)" /><path
     d="m 396.97,33.98 h -6.883 v -0.828 h 6.883 z"
     id="path193"
     transform="matrix(2.7778,0,0,2.7778,37.696,28.73)" /><path
     d="m 400.93,39.379 c 0,1.823 0.293,3.326 0.879,4.508 0.586,1.182 1.48,1.974 2.684,2.375 l -0.188,0.602 c -1.525,-0.401 -2.695,-1.265 -3.508,-2.59 -0.813,-1.325 -1.219,-2.931 -1.219,-4.816 0,-1.88 0.408,-3.485 1.223,-4.816 0.814,-1.331 1.982,-2.196 3.504,-2.598 l 0.211,0.602 c -1.219,0.401 -2.121,1.184 -2.707,2.348 -0.586,1.164 -0.879,2.625 -0.879,4.385 z"
     id="path195"
     transform="matrix(2.7778,0,0,2.7778,37.696,28.73)" /><path
     d="m 404.28,42.949 c 0.238,-0.292 0.479,-0.595 0.719,-0.91 0.238,-0.315 0.531,-0.715 0.875,-1.199 l 3.5,-4.969 c -0.006,-0.531 -0.029,-0.977 -0.07,-1.336 -0.043,-0.359 -0.1,-0.645 -0.172,-0.855 -0.074,-0.211 -0.17,-0.366 -0.289,-0.465 -0.121,-0.099 -0.285,-0.148 -0.492,-0.148 -0.172,0 -0.348,0.05 -0.523,0.148 -0.178,0.099 -0.436,0.302 -0.773,0.609 l -0.406,-0.453 c 0.479,-0.474 0.875,-0.795 1.191,-0.965 0.314,-0.169 0.629,-0.254 0.941,-0.254 0.4,0 0.707,0.094 0.922,0.281 0.213,0.188 0.363,0.483 0.453,0.887 0.088,0.404 0.133,0.994 0.133,1.77 0,0.255 -0.006,0.625 -0.016,1.109 l -0.031,1.234 c -0.043,1.172 -0.063,2.094 -0.063,2.766 0,0.542 0.012,0.965 0.035,1.27 0.023,0.305 0.061,0.535 0.113,0.691 0.051,0.156 0.117,0.262 0.195,0.316 0.078,0.054 0.174,0.082 0.289,0.082 0.135,0 0.279,-0.045 0.434,-0.137 0.152,-0.091 0.342,-0.256 0.566,-0.496 l 0.438,0.438 c -0.34,0.344 -0.674,0.612 -1.004,0.805 -0.332,0.192 -0.625,0.289 -0.879,0.289 -0.297,0 -0.523,-0.06 -0.68,-0.18 -0.157,-0.12 -0.27,-0.317 -0.34,-0.594 -0.07,-0.276 -0.105,-0.682 -0.105,-1.219 0,-0.739 0.055,-1.95 0.164,-3.633 h -0.078 c -1.563,2.292 -2.742,4.125 -3.539,5.5 h -1.586 z"
     id="path197"
     transform="matrix(2.7778,0,0,2.7778,37.696,28.73)" /><path
     d="m 415.84,39.379 c 0,-1.76 -0.292,-3.223 -0.875,-4.387 -0.583,-1.164 -1.487,-1.946 -2.711,-2.348 l 0.211,-0.602 c 1.521,0.401 2.688,1.267 3.504,2.598 0.815,1.331 1.223,2.937 1.223,4.816 0,1.886 -0.406,3.491 -1.219,4.816 -0.813,1.325 -1.981,2.188 -3.508,2.59 l -0.188,-0.602 c 1.203,-0.401 2.098,-1.193 2.684,-2.375 0.586,-1.182 0.879,-2.683 0.879,-4.506 z"
     id="path199"
     transform="matrix(2.7778,0,0,2.7778,37.696,28.73)" /><path
     d="m 394.81,62.637 -0.477,2.195 h -5.656 l -0.148,-0.383 4.273,-4.922 c 0.604,-0.692 1.047,-1.185 1.328,-1.477 l -0.047,-0.055 h -1.828 c -0.271,0 -0.469,0.019 -0.594,0.055 -0.125,0.037 -0.25,0.101 -0.375,0.191 -0.125,0.091 -0.26,0.227 -0.402,0.406 -0.142,0.179 -0.303,0.437 -0.48,0.77 h -0.695 l 0.461,-2.055 h 5.555 l 0.148,0.391 -3.727,4.281 c -0.725,0.828 -1.352,1.531 -1.883,2.109 l 0.047,0.055 h 1.766 c 0.313,0 0.553,-0.017 0.719,-0.051 0.166,-0.034 0.313,-0.098 0.438,-0.191 0.125,-0.093 0.254,-0.235 0.387,-0.426 0.133,-0.19 0.299,-0.488 0.496,-0.895 h 0.694 z"
     id="path201"
     transform="matrix(2.7778,0,0,2.7778,37.696,28.73)" /><path
     d="m 395.75,55.48 h -6.883 v -0.828 h 6.883 z"
     id="path203"
     transform="matrix(2.7778,0,0,2.7778,37.696,28.73)" /><path
     d="m 399.71,60.879 c 0,1.823 0.293,3.326 0.879,4.508 0.586,1.182 1.48,1.974 2.684,2.375 l -0.188,0.602 c -1.525,-0.401 -2.695,-1.265 -3.508,-2.59 -0.813,-1.325 -1.219,-2.931 -1.219,-4.816 0,-1.88 0.408,-3.485 1.223,-4.816 0.814,-1.331 1.982,-2.196 3.504,-2.598 l 0.211,0.602 c -1.219,0.401 -2.121,1.184 -2.707,2.348 -0.586,1.164 -0.879,2.625 -0.879,4.385 z"
     id="path205"
     transform="matrix(2.7778,0,0,2.7778,37.696,28.73)" /><path
     d="m 403.06,64.449 c 0.238,-0.292 0.479,-0.595 0.719,-0.91 0.238,-0.315 0.531,-0.715 0.875,-1.199 l 3.5,-4.969 c -0.006,-0.531 -0.029,-0.977 -0.07,-1.336 -0.043,-0.359 -0.1,-0.645 -0.172,-0.855 -0.074,-0.211 -0.17,-0.366 -0.289,-0.465 -0.121,-0.099 -0.285,-0.148 -0.492,-0.148 -0.172,0 -0.348,0.05 -0.523,0.148 -0.178,0.099 -0.436,0.302 -0.773,0.609 l -0.406,-0.453 c 0.479,-0.474 0.875,-0.795 1.191,-0.965 0.314,-0.169 0.629,-0.254 0.941,-0.254 0.4,0 0.707,0.094 0.922,0.281 0.213,0.188 0.363,0.483 0.453,0.887 0.088,0.404 0.133,0.994 0.133,1.77 0,0.255 -0.006,0.625 -0.016,1.109 l -0.031,1.234 c -0.043,1.172 -0.063,2.094 -0.063,2.766 0,0.542 0.012,0.965 0.035,1.27 0.023,0.305 0.061,0.535 0.113,0.691 0.051,0.156 0.117,0.262 0.195,0.316 0.078,0.054 0.174,0.082 0.289,0.082 0.135,0 0.279,-0.045 0.434,-0.137 0.152,-0.091 0.342,-0.256 0.566,-0.496 l 0.438,0.438 c -0.34,0.344 -0.674,0.612 -1.004,0.805 -0.332,0.192 -0.625,0.289 -0.879,0.289 -0.297,0 -0.523,-0.06 -0.68,-0.18 -0.157,-0.12 -0.27,-0.317 -0.34,-0.594 -0.07,-0.276 -0.105,-0.682 -0.105,-1.219 0,-0.739 0.055,-1.95 0.164,-3.633 h -0.078 c -1.563,2.292 -2.742,4.125 -3.539,5.5 h -1.586 z"
     id="path207"
     transform="matrix(2.7778,0,0,2.7778,37.696,28.73)" /><path
     d="m 414.62,60.879 c 0,-1.76 -0.292,-3.223 -0.875,-4.387 -0.583,-1.164 -1.487,-1.946 -2.711,-2.348 l 0.211,-0.602 c 1.521,0.401 2.688,1.267 3.504,2.598 0.815,1.331 1.223,2.937 1.223,4.816 0,1.886 -0.406,3.491 -1.219,4.816 -0.813,1.325 -1.981,2.188 -3.508,2.59 l -0.188,-0.602 c 1.203,-0.401 2.098,-1.193 2.684,-2.375 0.586,-1.182 0.879,-2.683 0.879,-4.506 z"
     id="path209"
     transform="matrix(2.7778,0,0,2.7778,37.696,28.73)" /><path
     d="m 64.411,231.5 c 0.323,-0.083 0.539,-0.176 0.648,-0.277 0.109,-0.101 0.181,-0.246 0.215,-0.434 0.034,-0.188 0.051,-0.474 0.051,-0.859 v -1.281 h -4.344 v -0.586 l 4.57,-6.898 h 1.117 v 6.727 h 0.164 c 0.302,0 0.518,-0.022 0.648,-0.066 0.13,-0.044 0.238,-0.122 0.324,-0.234 0.086,-0.112 0.165,-0.296 0.238,-0.551 h 0.594 l -0.094,1.609 h -1.875 v 1.281 c 0,0.349 0.012,0.604 0.035,0.766 0.023,0.162 0.063,0.289 0.117,0.383 0.054,0.094 0.135,0.172 0.242,0.234 0.106,0.063 0.28,0.125 0.52,0.188 v 0.383 H 64.409 V 231.5 Z m -2.141,-3.609 h 3.055 v -1.945 c 0,-0.489 0.008,-1.038 0.023,-1.645 0.015,-0.607 0.034,-1.063 0.055,-1.371 h -0.078 l -3.055,4.852 z"
     id="path211"
     transform="matrix(2.7778,0,0,2.7778,37.696,28.73)" /><path
     d="m 73.583,232.01 c -1.125,0 -1.962,-0.442 -2.512,-1.328 -0.55,-0.886 -0.824,-2.229 -0.824,-4.031 0,-0.958 0.084,-1.786 0.254,-2.484 0.169,-0.698 0.406,-1.274 0.711,-1.73 0.305,-0.456 0.67,-0.793 1.098,-1.012 0.427,-0.219 0.893,-0.328 1.398,-0.328 1.141,0 1.989,0.44 2.547,1.32 0.557,0.88 0.836,2.211 0.836,3.992 0,1.844 -0.298,3.238 -0.895,4.184 -0.597,0.944 -1.468,1.417 -2.613,1.417 z m -1.813,-5.594 c 0,1.698 0.157,2.944 0.473,3.738 0.315,0.794 0.803,1.191 1.465,1.191 0.63,0 1.098,-0.374 1.402,-1.121 0.304,-0.747 0.457,-1.905 0.457,-3.473 0,-1.198 -0.078,-2.168 -0.234,-2.91 -0.156,-0.742 -0.374,-1.274 -0.652,-1.598 -0.279,-0.323 -0.616,-0.484 -1.012,-0.484 -0.359,0 -0.66,0.106 -0.902,0.32 -0.242,0.214 -0.438,0.521 -0.586,0.922 -0.148,0.401 -0.254,0.89 -0.316,1.465 -0.062,0.575 -0.095,1.226 -0.095,1.95 z"
     id="path213"
     transform="matrix(2.7778,0,0,2.7778,37.696,28.73)" /><path
     d="m 82.442,232.01 c -1.125,0 -1.962,-0.442 -2.512,-1.328 -0.55,-0.886 -0.824,-2.229 -0.824,-4.031 0,-0.958 0.084,-1.786 0.254,-2.484 0.169,-0.698 0.406,-1.274 0.711,-1.73 0.305,-0.456 0.67,-0.793 1.098,-1.012 0.427,-0.219 0.893,-0.328 1.398,-0.328 1.141,0 1.989,0.44 2.547,1.32 0.557,0.88 0.836,2.211 0.836,3.992 0,1.844 -0.298,3.238 -0.895,4.184 -0.597,0.944 -1.468,1.417 -2.613,1.417 z m -1.813,-5.594 c 0,1.698 0.157,2.944 0.473,3.738 0.315,0.794 0.803,1.191 1.465,1.191 0.63,0 1.098,-0.374 1.402,-1.121 0.304,-0.747 0.457,-1.905 0.457,-3.473 0,-1.198 -0.078,-2.168 -0.234,-2.91 -0.156,-0.742 -0.374,-1.274 -0.652,-1.598 -0.279,-0.323 -0.616,-0.484 -1.012,-0.484 -0.359,0 -0.66,0.106 -0.902,0.32 -0.242,0.214 -0.438,0.521 -0.586,0.922 -0.148,0.401 -0.254,0.89 -0.316,1.465 -0.062,0.575 -0.095,1.226 -0.095,1.95 z"
     id="path215"
     transform="matrix(2.7778,0,0,2.7778,37.696,28.73)" /><path
     d="m 161.55,231.46 v -1.656 h 0.945 c 0.156,0.531 0.392,0.922 0.707,1.172 0.315,0.25 0.723,0.375 1.223,0.375 0.692,0 1.216,-0.208 1.57,-0.625 0.354,-0.417 0.531,-1.039 0.531,-1.867 0,-0.552 -0.094,-1.009 -0.281,-1.371 -0.187,-0.362 -0.44,-0.624 -0.758,-0.785 -0.318,-0.161 -0.688,-0.242 -1.109,-0.242 -0.354,0 -0.659,0.022 -0.914,0.066 -0.255,0.044 -0.529,0.113 -0.82,0.207 l -0.625,-0.367 v -5.141 h 4.305 c 0.177,0 0.305,-0.015 0.383,-0.043 0.078,-0.028 0.141,-0.073 0.188,-0.133 0.047,-0.06 0.102,-0.173 0.164,-0.34 h 0.609 l -0.117,1.813 h -4.492 v 3.43 c 0.271,-0.114 0.565,-0.2 0.883,-0.258 0.317,-0.058 0.635,-0.086 0.953,-0.086 0.62,0 1.169,0.126 1.648,0.379 0.479,0.253 0.849,0.612 1.109,1.078 0.26,0.466 0.391,1.007 0.391,1.621 0,0.698 -0.146,1.297 -0.438,1.797 -0.292,0.5 -0.714,0.88 -1.266,1.141 -0.552,0.261 -1.206,0.391 -1.961,0.391 -0.901,-0.001 -1.843,-0.186 -2.828,-0.556 z"
     id="path217"
     transform="matrix(2.7778,0,0,2.7778,37.696,28.73)" /><path
     d="m 173.58,232.01 c -1.125,0 -1.962,-0.442 -2.512,-1.328 -0.55,-0.886 -0.824,-2.229 -0.824,-4.031 0,-0.958 0.084,-1.786 0.254,-2.484 0.169,-0.698 0.406,-1.274 0.711,-1.73 0.305,-0.456 0.67,-0.793 1.098,-1.012 0.427,-0.219 0.893,-0.328 1.398,-0.328 1.141,0 1.989,0.44 2.547,1.32 0.557,0.88 0.836,2.211 0.836,3.992 0,1.844 -0.298,3.238 -0.895,4.184 -0.597,0.944 -1.468,1.417 -2.613,1.417 z m -1.813,-5.594 c 0,1.698 0.157,2.944 0.473,3.738 0.315,0.794 0.803,1.191 1.465,1.191 0.63,0 1.098,-0.374 1.402,-1.121 0.304,-0.747 0.457,-1.905 0.457,-3.473 0,-1.198 -0.078,-2.168 -0.234,-2.91 -0.156,-0.742 -0.374,-1.274 -0.652,-1.598 -0.279,-0.323 -0.616,-0.484 -1.012,-0.484 -0.359,0 -0.66,0.106 -0.902,0.32 -0.242,0.214 -0.438,0.521 -0.586,0.922 -0.148,0.401 -0.254,0.89 -0.316,1.465 -0.062,0.575 -0.095,1.226 -0.095,1.95 z"
     id="path219"
     transform="matrix(2.7778,0,0,2.7778,37.696,28.73)" /><path
     d="m 182.44,232.01 c -1.125,0 -1.962,-0.442 -2.512,-1.328 -0.55,-0.886 -0.824,-2.229 -0.824,-4.031 0,-0.958 0.084,-1.786 0.254,-2.484 0.169,-0.698 0.406,-1.274 0.711,-1.73 0.305,-0.456 0.67,-0.793 1.098,-1.012 0.427,-0.219 0.893,-0.328 1.398,-0.328 1.141,0 1.989,0.44 2.547,1.32 0.557,0.88 0.836,2.211 0.836,3.992 0,1.844 -0.298,3.238 -0.895,4.184 -0.597,0.944 -1.468,1.417 -2.613,1.417 z m -1.813,-5.594 c 0,1.698 0.157,2.944 0.473,3.738 0.315,0.794 0.803,1.191 1.465,1.191 0.63,0 1.098,-0.374 1.402,-1.121 0.304,-0.747 0.457,-1.905 0.457,-3.473 0,-1.198 -0.078,-2.168 -0.234,-2.91 -0.156,-0.742 -0.374,-1.274 -0.652,-1.598 -0.279,-0.323 -0.616,-0.484 -1.012,-0.484 -0.359,0 -0.66,0.106 -0.902,0.32 -0.242,0.214 -0.438,0.521 -0.586,0.922 -0.148,0.401 -0.254,0.89 -0.316,1.465 -0.062,0.575 -0.095,1.226 -0.095,1.95 z"
     id="path221"
     transform="matrix(2.7778,0,0,2.7778,37.696,28.73)" /><path
     d="m 202.58,244.96 c 0.27,-0.328 0.539,-0.669 0.809,-1.023 0.27,-0.354 0.598,-0.805 0.984,-1.35 l 3.938,-5.59 c -0.006,-0.598 -0.032,-1.099 -0.079,-1.503 -0.047,-0.404 -0.111,-0.726 -0.193,-0.962 -0.082,-0.238 -0.19,-0.412 -0.325,-0.523 -0.135,-0.111 -0.319,-0.167 -0.554,-0.167 -0.193,0 -0.39,0.056 -0.589,0.167 -0.199,0.111 -0.489,0.34 -0.87,0.686 l -0.457,-0.51 c 0.539,-0.533 0.986,-0.895 1.34,-1.086 0.354,-0.189 0.708,-0.285 1.059,-0.285 0.451,0 0.797,0.105 1.037,0.316 0.24,0.211 0.41,0.544 0.51,0.998 0.1,0.454 0.149,1.117 0.149,1.99 0,0.287 -0.006,0.703 -0.018,1.248 l -0.035,1.389 c -0.047,1.318 -0.07,2.355 -0.07,3.111 0,0.609 0.013,1.086 0.04,1.428 0.026,0.344 0.069,0.603 0.127,0.778 0.058,0.175 0.132,0.294 0.22,0.356 0.088,0.061 0.196,0.092 0.325,0.092 0.152,0 0.315,-0.051 0.488,-0.154 0.173,-0.102 0.385,-0.288 0.637,-0.558 l 0.492,0.492 c -0.381,0.387 -0.757,0.688 -1.129,0.905 -0.372,0.217 -0.702,0.325 -0.989,0.325 -0.334,0 -0.589,-0.067 -0.765,-0.202 -0.176,-0.135 -0.303,-0.357 -0.382,-0.668 -0.079,-0.311 -0.119,-0.768 -0.119,-1.371 0,-0.832 0.062,-2.194 0.185,-4.087 h -0.088 c -1.758,2.578 -3.085,4.641 -3.981,6.188 h -1.784 z"
     id="path223"
     transform="matrix(2.7778,0,0,2.7778,37.696,28.73)" /><path
     d="m 219.72,232.81 -6.346,16.356 h -1.379 l 6.363,-16.356 z"
     id="path225"
     transform="matrix(2.7778,0,0,2.7778,37.696,28.73)" /><path
     d="m 229.23,245.39 h -3.463 v -0.431 c 0.229,-0.07 0.393,-0.132 0.492,-0.185 0.099,-0.053 0.183,-0.126 0.25,-0.22 0.067,-0.094 0.12,-0.238 0.158,-0.436 0.038,-0.195 0.057,-0.493 0.057,-0.892 v -2.303 c 0,-0.41 -0.012,-0.782 -0.035,-1.116 -0.023,-0.334 -0.063,-0.607 -0.119,-0.822 -0.056,-0.213 -0.123,-0.38 -0.202,-0.5 -0.079,-0.12 -0.173,-0.223 -0.281,-0.309 -0.108,-0.084 -0.233,-0.151 -0.374,-0.201 -0.141,-0.05 -0.325,-0.075 -0.554,-0.075 -0.229,0 -0.445,0.046 -0.65,0.136 -0.205,0.092 -0.431,0.248 -0.677,0.471 -0.246,0.223 -0.425,0.442 -0.536,0.659 -0.111,0.217 -0.167,0.466 -0.167,0.747 v 3.278 c 0,0.504 0.023,0.854 0.07,1.05 0.047,0.197 0.136,0.347 0.268,0.449 0.132,0.102 0.347,0.191 0.646,0.268 v 0.431 h -3.445 v -0.431 c 0.229,-0.07 0.391,-0.132 0.488,-0.185 0.097,-0.053 0.179,-0.126 0.246,-0.22 0.067,-0.094 0.12,-0.237 0.158,-0.431 0.038,-0.194 0.057,-0.495 0.057,-0.905 v -3.832 c 0,-0.375 -0.006,-0.677 -0.018,-0.905 -0.012,-0.228 -0.053,-0.411 -0.123,-0.55 -0.07,-0.137 -0.177,-0.239 -0.321,-0.307 -0.144,-0.068 -0.347,-0.125 -0.611,-0.172 v -0.466 l 2.057,-0.079 h 0.536 l -0.097,1.433 0.123,0.035 c 0.434,-0.439 0.784,-0.753 1.05,-0.94 0.266,-0.187 0.536,-0.332 0.809,-0.436 0.272,-0.102 0.561,-0.153 0.866,-0.153 0.316,0 0.599,0.037 0.848,0.11 0.249,0.073 0.469,0.186 0.659,0.338 0.19,0.152 0.347,0.342 0.47,0.566 0.123,0.227 0.215,0.497 0.277,0.813 0.062,0.316 0.092,0.718 0.092,1.204 v 3.313 c 0,0.404 0.012,0.697 0.035,0.879 0.023,0.182 0.064,0.322 0.123,0.422 0.059,0.1 0.144,0.184 0.255,0.251 0.111,0.067 0.305,0.139 0.58,0.215 v 0.434 z"
     id="path227"
     transform="matrix(2.7778,0,0,2.7778,37.696,28.73)" /><path
     d="m 233.23,238.34 0.123,0.035 c 0.352,-0.352 0.64,-0.616 0.866,-0.796 0.226,-0.178 0.444,-0.321 0.655,-0.43 0.211,-0.109 0.409,-0.187 0.593,-0.233 0.184,-0.046 0.374,-0.07 0.567,-0.07 0.586,0 1.063,0.135 1.433,0.404 0.37,0.269 0.624,0.683 0.765,1.239 0.439,-0.445 0.795,-0.773 1.068,-0.984 0.273,-0.211 0.551,-0.373 0.835,-0.488 0.284,-0.113 0.59,-0.171 0.918,-0.171 0.393,0 0.731,0.058 1.015,0.171 0.284,0.115 0.524,0.291 0.721,0.527 0.196,0.238 0.34,0.535 0.431,0.893 0.091,0.358 0.136,0.838 0.136,1.441 v 3.313 c 0,0.445 0.015,0.753 0.044,0.923 0.029,0.17 0.072,0.302 0.127,0.396 0.055,0.094 0.139,0.175 0.25,0.241 0.111,0.068 0.299,0.137 0.563,0.207 v 0.431 h -3.454 v -0.431 c 0.229,-0.07 0.393,-0.132 0.492,-0.185 0.099,-0.053 0.183,-0.126 0.25,-0.22 0.067,-0.094 0.12,-0.238 0.158,-0.436 0.038,-0.195 0.057,-0.493 0.057,-0.892 v -2.303 c 0,-0.498 -0.013,-0.909 -0.04,-1.235 -0.026,-0.324 -0.067,-0.584 -0.123,-0.777 -0.056,-0.193 -0.123,-0.346 -0.202,-0.457 -0.079,-0.111 -0.168,-0.208 -0.268,-0.29 -0.1,-0.082 -0.217,-0.146 -0.352,-0.193 -0.135,-0.047 -0.313,-0.07 -0.536,-0.07 -0.234,0 -0.453,0.047 -0.655,0.141 -0.202,0.094 -0.422,0.252 -0.659,0.475 -0.237,0.223 -0.409,0.447 -0.514,0.673 -0.105,0.226 -0.158,0.49 -0.158,0.795 v 3.208 c 0,0.445 0.015,0.753 0.044,0.923 0.029,0.17 0.072,0.302 0.127,0.396 0.055,0.094 0.139,0.175 0.25,0.241 0.111,0.068 0.299,0.137 0.563,0.207 v 0.431 h -3.454 v -0.431 c 0.229,-0.07 0.393,-0.132 0.492,-0.185 0.099,-0.053 0.183,-0.126 0.25,-0.22 0.067,-0.094 0.12,-0.238 0.158,-0.436 0.038,-0.195 0.057,-0.493 0.057,-0.892 v -2.303 c 0,-0.521 -0.015,-0.946 -0.044,-1.274 -0.029,-0.328 -0.075,-0.592 -0.136,-0.791 -0.061,-0.199 -0.141,-0.36 -0.237,-0.483 -0.096,-0.123 -0.195,-0.217 -0.294,-0.281 -0.099,-0.064 -0.217,-0.112 -0.352,-0.146 -0.135,-0.031 -0.287,-0.048 -0.457,-0.048 -0.24,0 -0.466,0.055 -0.677,0.163 -0.211,0.108 -0.426,0.265 -0.646,0.47 -0.22,0.205 -0.385,0.419 -0.497,0.642 -0.112,0.223 -0.167,0.463 -0.167,0.721 v 3.296 c 0,0.334 0.009,0.589 0.026,0.765 0.017,0.176 0.045,0.313 0.083,0.413 0.038,0.1 0.086,0.181 0.145,0.241 0.059,0.063 0.142,0.121 0.25,0.176 0.108,0.057 0.271,0.113 0.488,0.172 v 0.431 h -3.445 v -0.431 c 0.223,-0.07 0.382,-0.132 0.479,-0.185 0.097,-0.053 0.18,-0.126 0.25,-0.22 0.07,-0.094 0.123,-0.237 0.158,-0.431 0.035,-0.194 0.053,-0.495 0.053,-0.905 v -3.832 c 0,-0.375 -0.006,-0.677 -0.018,-0.905 -0.012,-0.228 -0.053,-0.411 -0.123,-0.55 -0.07,-0.137 -0.177,-0.239 -0.321,-0.307 -0.144,-0.068 -0.347,-0.125 -0.611,-0.172 v -0.466 l 2.057,-0.079 h 0.536 z"
     id="path229"
     transform="matrix(2.7778,0,0,2.7778,37.696,28.73)" /><path
     d="m 267.5,221.53 v 0.383 c -0.802,0 -1.513,0.172 -2.133,0.516 -0.62,0.344 -1.134,0.849 -1.543,1.516 -0.409,0.667 -0.697,1.458 -0.863,2.375 l 0.078,0.031 c 0.438,-0.313 0.868,-0.542 1.293,-0.688 0.424,-0.146 0.884,-0.219 1.379,-0.219 0.588,0 1.09,0.129 1.504,0.387 0.414,0.258 0.725,0.62 0.934,1.086 0.208,0.466 0.313,1.012 0.313,1.637 0,0.677 -0.13,1.274 -0.391,1.793 -0.261,0.519 -0.663,0.926 -1.207,1.223 -0.544,0.297 -1.215,0.445 -2.012,0.445 -1.141,0 -2.001,-0.354 -2.582,-1.063 -0.581,-0.708 -0.871,-1.753 -0.871,-3.133 0,-0.927 0.146,-1.794 0.438,-2.602 0.292,-0.808 0.706,-1.512 1.242,-2.113 0.536,-0.602 1.159,-1.075 1.867,-1.422 0.708,-0.347 1.453,-0.54 2.234,-0.582 z m -2.329,4.735 c -0.255,0 -0.501,0.028 -0.738,0.086 -0.237,0.058 -0.46,0.141 -0.668,0.25 -0.208,0.109 -0.412,0.247 -0.609,0.414 -0.063,0.058 -0.109,0.117 -0.141,0.18 -0.052,0.099 -0.086,0.222 -0.102,0.367 -0.016,0.145 -0.023,0.391 -0.023,0.734 0,0.995 0.167,1.753 0.5,2.273 0.333,0.521 0.838,0.781 1.516,0.781 0.391,0 0.719,-0.067 0.984,-0.203 0.265,-0.136 0.48,-0.321 0.645,-0.559 0.165,-0.238 0.281,-0.516 0.352,-0.836 0.071,-0.32 0.105,-0.668 0.105,-1.043 0,-0.771 -0.159,-1.371 -0.477,-1.801 -0.318,-0.428 -0.765,-0.643 -1.344,-0.643 z"
     id="path231"
     transform="matrix(2.7778,0,0,2.7778,37.696,28.73)" /><path
     d="m 273.58,232.01 c -1.125,0 -1.962,-0.442 -2.512,-1.328 -0.55,-0.886 -0.824,-2.229 -0.824,-4.031 0,-0.958 0.084,-1.786 0.254,-2.484 0.169,-0.698 0.406,-1.274 0.711,-1.73 0.305,-0.456 0.67,-0.793 1.098,-1.012 0.427,-0.219 0.893,-0.328 1.398,-0.328 1.141,0 1.989,0.44 2.547,1.32 0.557,0.88 0.836,2.211 0.836,3.992 0,1.844 -0.298,3.238 -0.895,4.184 -0.597,0.944 -1.468,1.417 -2.613,1.417 z m -1.813,-5.594 c 0,1.698 0.157,2.944 0.473,3.738 0.315,0.794 0.803,1.191 1.465,1.191 0.63,0 1.098,-0.374 1.402,-1.121 0.304,-0.747 0.457,-1.905 0.457,-3.473 0,-1.198 -0.078,-2.168 -0.234,-2.91 -0.156,-0.742 -0.374,-1.274 -0.652,-1.598 -0.279,-0.323 -0.616,-0.484 -1.012,-0.484 -0.359,0 -0.66,0.106 -0.902,0.32 -0.242,0.214 -0.438,0.521 -0.586,0.922 -0.148,0.401 -0.254,0.89 -0.316,1.465 -0.062,0.575 -0.095,1.226 -0.095,1.95 z"
     id="path233"
     transform="matrix(2.7778,0,0,2.7778,37.696,28.73)" /><path
     d="m 282.44,232.01 c -1.125,0 -1.962,-0.442 -2.512,-1.328 -0.55,-0.886 -0.824,-2.229 -0.824,-4.031 0,-0.958 0.084,-1.786 0.254,-2.484 0.169,-0.698 0.406,-1.274 0.711,-1.73 0.305,-0.456 0.67,-0.793 1.098,-1.012 0.427,-0.219 0.893,-0.328 1.398,-0.328 1.141,0 1.989,0.44 2.547,1.32 0.557,0.88 0.836,2.211 0.836,3.992 0,1.844 -0.298,3.238 -0.895,4.184 -0.597,0.944 -1.468,1.417 -2.613,1.417 z m -1.813,-5.594 c 0,1.698 0.157,2.944 0.473,3.738 0.315,0.794 0.803,1.191 1.465,1.191 0.63,0 1.098,-0.374 1.402,-1.121 0.304,-0.747 0.457,-1.905 0.457,-3.473 0,-1.198 -0.078,-2.168 -0.234,-2.91 -0.156,-0.742 -0.374,-1.274 -0.652,-1.598 -0.279,-0.323 -0.616,-0.484 -1.012,-0.484 -0.359,0 -0.66,0.106 -0.902,0.32 -0.242,0.214 -0.438,0.521 -0.586,0.922 -0.148,0.401 -0.254,0.89 -0.316,1.465 -0.062,0.575 -0.095,1.226 -0.095,1.95 z"
     id="path235"
     transform="matrix(2.7778,0,0,2.7778,37.696,28.73)" /><path
     d="m 368.4,221.6 -4.547,10.344 h -1.133 v -0.383 l 4.211,-8.914 v -0.117 h -3.438 c -0.214,0 -0.384,0.02 -0.512,0.059 -0.128,0.039 -0.234,0.095 -0.32,0.168 -0.086,0.073 -0.157,0.169 -0.215,0.289 -0.058,0.12 -0.136,0.356 -0.234,0.711 h -0.672 l 0.156,-2.531 h 6.703 v 0.374 z"
     id="path237"
     transform="matrix(2.7778,0,0,2.7778,37.696,28.73)" /><path
     d="m 373.58,232.01 c -1.125,0 -1.962,-0.442 -2.512,-1.328 -0.55,-0.886 -0.824,-2.229 -0.824,-4.031 0,-0.958 0.085,-1.786 0.254,-2.484 0.169,-0.698 0.406,-1.274 0.711,-1.73 0.305,-0.456 0.671,-0.793 1.098,-1.012 0.427,-0.219 0.894,-0.328 1.398,-0.328 1.141,0 1.989,0.44 2.547,1.32 0.558,0.88 0.836,2.211 0.836,3.992 0,1.844 -0.298,3.238 -0.895,4.184 -0.597,0.946 -1.468,1.417 -2.613,1.417 z m -1.813,-5.594 c 0,1.698 0.157,2.944 0.473,3.738 0.316,0.794 0.804,1.191 1.465,1.191 0.63,0 1.098,-0.374 1.402,-1.121 0.304,-0.747 0.457,-1.905 0.457,-3.473 0,-1.198 -0.078,-2.168 -0.234,-2.91 -0.156,-0.742 -0.374,-1.274 -0.652,-1.598 -0.278,-0.324 -0.616,-0.484 -1.012,-0.484 -0.359,0 -0.66,0.106 -0.902,0.32 -0.242,0.214 -0.438,0.521 -0.586,0.922 -0.148,0.401 -0.254,0.89 -0.316,1.465 -0.062,0.575 -0.095,1.226 -0.095,1.95 z"
     id="path239"
     transform="matrix(2.7778,0,0,2.7778,37.696,28.73)" /><path
     d="m 382.44,232.01 c -1.125,0 -1.962,-0.442 -2.512,-1.328 -0.55,-0.886 -0.824,-2.229 -0.824,-4.031 0,-0.958 0.085,-1.786 0.254,-2.484 0.169,-0.698 0.406,-1.274 0.711,-1.73 0.305,-0.456 0.671,-0.793 1.098,-1.012 0.427,-0.219 0.894,-0.328 1.398,-0.328 1.141,0 1.989,0.44 2.547,1.32 0.558,0.88 0.836,2.211 0.836,3.992 0,1.844 -0.298,3.238 -0.895,4.184 -0.597,0.946 -1.468,1.417 -2.613,1.417 z m -1.813,-5.594 c 0,1.698 0.157,2.944 0.473,3.738 0.316,0.794 0.804,1.191 1.465,1.191 0.63,0 1.098,-0.374 1.402,-1.121 0.304,-0.747 0.457,-1.905 0.457,-3.473 0,-1.198 -0.078,-2.168 -0.234,-2.91 -0.156,-0.742 -0.374,-1.274 -0.652,-1.598 -0.278,-0.324 -0.616,-0.484 -1.012,-0.484 -0.359,0 -0.66,0.106 -0.902,0.32 -0.242,0.214 -0.438,0.521 -0.586,0.922 -0.148,0.401 -0.254,0.89 -0.316,1.465 -0.062,0.575 -0.095,1.226 -0.095,1.95 z"
     id="path241"
     transform="matrix(2.7778,0,0,2.7778,37.696,28.73)" /><g
     fill="none"
     stroke-width="1.75"
     id="g249"
     transform="matrix(2.7778,0,0,2.7778,37.696,28.73)"><line
       x1="378.32999"
       x2="348.32999"
       y1="17.332001"
       y2="17.332001"
       stroke="#ff0000"
       id="line243" /><line
       x1="378.32999"
       x2="348.32999"
       y1="38.832001"
       y2="38.832001"
       stroke="#00ff00"
       id="line245" /><line
       x1="378.32999"
       x2="348.32999"
       y1="60.332001"
       y2="60.332001"
       stroke="#0000ff"
       id="line247" /></g></g></svg>
