<?xml version="1.0" encoding="UTF-8"?>
<svg width="1280" height="760" enable-background="new -9.144 -15.712 446 271" version="1.1" viewBox="-9.144 -15.712 1280 760" xml:space="preserve" xmlns="http://www.w3.org/2000/svg" xmlns:cc="http://creativecommons.org/ns#" xmlns:dc="http://purl.org/dc/elements/1.1/" xmlns:rdf="http://www.w3.org/1999/02/22-rdf-syntax-ns#"><metadata><rdf:RDF><cc:Work rdf:about=""><dc:format>image/svg+xml</dc:format><dc:type rdf:resource="http://purl.org/dc/dcmitype/StillImage"/><dc:title/></cc:Work></rdf:RDF></metadata>
<defs>
<filter id="filter1342" x="-9.501e-7" y="-1.6283e-6" width="1" height="1" color-interpolation-filters="sRGB"><feGaussianBlur stdDeviation="0.00046479263"/></filter></defs>
















































































<g display="none"><rect x="-115.13" y="-105.08" width="1515" height="972.61" fill="#fff" opacity=".999" stroke-dasharray="30, 30" stroke-dashoffset="42" stroke-width="30" style="paint-order:fill markers stroke"/></g><g filter="url(#filter1342)"><g transform="matrix(2.7778 0 0 2.7778 37.696 28.73)"><g fill="none"><g stroke-width="1.75"><polyline points="33.668 207.83 34.668 207.82 35.668 207.82 36.668 207.81 37.668 207.8 38.668 207.78 39.668 207.77 40.668 207.76 41.668 207.74 42.668 207.72 43.668 207.7 44.668 207.68 45.668 207.65 46.668 207.62 47.668 207.58 48.668 207.54 49.668 207.5 50.668 207.44 51.668 207.38 52.668 207.31 53.668 207.25 54.668 207.18 55.668 207.12 56.668 207.04 57.668 206.95 58.668 206.84 59.668 206.7 60.668 206.53 61.668 206.33 62.668 206.12 63.668 205.89 64.668 205.64 65.668 205.37 66.668 205.06 67.668 204.7 68.668 204.27 69.668 203.75 70.668 203.14 71.668 202.48 72.668 201.79 73.668 201.11 74.668 200.44 75.668 199.76 76.668 198.98 77.668 198.04 78.668 196.87 79.668 195.43 80.668 193.72 81.668 191.76 82.668 189.57 83.668 187.15 84.668 184.52 85.668 181.63 86.668 178.42 87.668 174.81 88.668 170.76 89.668 166.27 90.668 161.35 91.668 155.92 92.668 149.94 93.668 143.33 94.668 136.04 95.668 128.22 96.668 120.11 97.668 111.95 98.668 103.99 99.668 96.356 100.67 89.043 101.67 82.08 102.67 75.5 103.67 69.333 104.67 63.629 105.67 58.412 106.67 53.673 107.67 49.404 108.67 45.597 109.67 42.252 110.67 39.363 111.67 36.905 112.67 34.854 113.67 33.187 114.67 31.888 115.67 30.93 116.67 30.266 117.67 29.849 118.67 29.633 119.67 29.596 120.67 29.723 121.67 29.973 122.67 30.306 123.67 30.682 124.67 31.067 125.67 31.489 126.67 31.998 127.67 32.646 128.67 33.482 129.67 34.537 130.67 35.807 131.67 37.299 132.67 39.019 133.67 40.973 134.67 43.14 135.67 45.551 136.67 48.291 137.67 51.44 138.67 55.083 139.67 59.281 140.67 63.94 141.67 68.905 142.67 74.019 143.67 79.128 144.67 84.15 145.67 89.11 146.67 94.017 147.67 98.878 148.67 103.7 149.67 108.47 150.67 113.16 151.67 117.75 152.67 122.23 153.67 126.6 154.67 130.84 155.67 134.95 156.67 138.9 157.67 142.68 158.67 146.27 159.67 149.66 160.67 152.85 161.67 155.86 162.67 158.7 163.67 161.38 164.67 163.9 165.67 166.27 166.67 168.5 167.67 170.6 168.67 172.56 169.67 174.41 170.67 176.14 171.67 177.76 172.67 179.28 173.67 180.69 174.67 182.01 175.67 183.24 176.67 184.42 177.67 185.55 178.67 186.66 179.67 187.78 180.67 188.88 181.67 189.97 182.67 191.04 183.67 192.07 184.67 193.08 185.67 194.06 186.67 194.99 187.67 195.88 188.67 196.72 189.67 197.5 190.67 198.23 191.67 198.9 192.67 199.51 193.67 200.07 194.67 200.57 195.67 201.02 196.67 201.44 197.67 201.81 198.67 202.17 199.67 202.5 200.67 202.82 201.67 203.12 202.67 203.4 203.67 203.68 204.67 203.94 205.67 204.2 206.67 204.45 207.67 204.68 208.67 204.91 209.67 205.12 210.67 205.32 211.67 205.51 212.67 205.69 213.67 205.86 214.67 206.02 215.67 206.17 216.67 206.31 217.67 206.43 218.67 206.55 219.67 206.66 220.67 206.76 221.67 206.86 222.67 206.94 223.67 207.02 224.67 207.09 225.67 207.15 226.67 207.21 227.67 207.27 228.67 207.32 229.67 207.36 230.67 207.4 231.67 207.44 232.67 207.47 233.67 207.5 234.67 207.53 235.67 207.56 236.67 207.58 237.67 207.6 238.67 207.62 239.67 207.64 240.67 207.65 241.67 207.66 242.67 207.67 243.67 207.68 244.67 207.69 245.67 207.7 246.67 207.7 247.67 207.71 248.67 207.71 249.67 207.72 250.67 207.72 251.67 207.72 252.67 207.72 253.67 207.73 254.67 207.73 255.67 207.74 256.67 207.74 257.67 207.75 258.67 207.75 259.67 207.76 260.67 207.77 261.67 207.77 262.67 207.78 263.67 207.78 264.67 207.78 265.67 207.79 266.67 207.79 267.67 207.79 268.67 207.79 269.67 207.8 270.67 207.8 271.67 207.8 272.67 207.81 273.67 207.81 274.67 207.82 275.67 207.82 276.67 207.82 277.67 207.83 278.67 207.83 279.67 207.84 280.67 207.84 281.67 207.85 282.67 207.85 283.67 207.86 284.67 207.86 285.67 207.86 286.67 207.87 287.67 207.87 288.67 207.87 289.67 207.87 290.67 207.87 291.67 207.87 292.67 207.87 293.67 207.87 294.67 207.88 295.67 207.88 296.67 207.88 297.67 207.88 298.67 207.88 299.67 207.88 300.67 207.88 301.67 207.89 302.67 207.89 303.67 207.89 304.67 207.89 305.67 207.89 306.67 207.89 307.67 207.89 308.67 207.89 309.67 207.89 310.67 207.89 311.67 207.89 312.67 207.89 313.67 207.89 314.67 207.89 315.67 207.89 316.67 207.89 317.67 207.89 318.67 207.89 319.67 207.89 320.67 207.89 321.67 207.89 322.67 207.89 323.67 207.89 324.67 207.89 325.67 207.89 326.67 207.89 327.67 207.89 328.67 207.89 329.67 207.89 330.67 207.89 331.67 207.89 332.67 207.89 333.67 207.89 334.67 207.89 335.67 207.89 336.67 207.89 337.67 207.89 338.67 207.89 339.67 207.89 340.67 207.89 341.67 207.89 342.67 207.89 343.67 207.89 344.67 207.89 345.67 207.89 346.67 207.89 347.67 207.89 348.67 207.89 349.67 207.89 350.67 207.89 351.67 207.89 352.67 207.89 353.67 207.89 354.67 207.89 355.67 207.89 356.67 207.89 357.67 207.89 358.67 207.89 359.67 207.89 360.67 207.89 361.67 207.89 362.67 207.89 363.67 207.89 364.67 207.89 365.67 207.89 366.67 207.89 367.67 207.89 368.67 207.89 369.67 207.89 370.67 207.89 371.67 207.89 372.67 207.89 373.67 207.89 374.67 207.89 375.67 207.89 376.67 207.89 377.67 207.89 378.67 207.89 379.67 207.89 380.67 207.89 381.67 207.89 382.67 207.89 383.67 207.89 384.67 207.89 385.67 207.89 386.67 207.89 387.67 207.89 388.67 207.89 389.67 207.89 390.67 207.89 391.67 207.89 392.67 207.89 393.67 207.89 394.67 207.89 395.67 207.89 396.67 207.89 397.67 207.89 398.67 207.89 399.67 207.89 400.67 207.89 401.67 207.89 402.67 207.89 403.67 207.89 404.67 207.89 405.67 207.89 406.67 207.89 407.67 207.89 408.67 207.89 409.67 207.89 410.67 207.89 411.67 207.89 412.67 207.89 413.67 207.89 414.67 207.89 415.67 207.89 416.67 207.89 417.67 207.89 418.67 207.89 419.67 207.89 420.67 207.89 421.67 207.89 422.67 207.89 423.67 207.89" stroke="#00f"/><polyline points="33.668 207.89 34.668 207.89 35.668 207.89 36.668 207.89 37.668 207.89 38.668 207.89 39.668 207.89 40.668 207.89 41.668 207.89 42.668 207.89 43.668 207.89 44.668 207.89 45.668 207.89 46.668 207.89 47.668 207.89 48.668 207.89 49.668 207.89 50.668 207.89 51.668 207.89 52.668 207.89 53.668 207.89 54.668 207.89 55.668 207.89 56.668 207.89 57.668 207.89 58.668 207.89 59.668 207.88 60.668 207.88 61.668 207.88 62.668 207.88 63.668 207.88 64.668 207.88 65.668 207.88 66.668 207.88 67.668 207.87 68.668 207.87 69.668 207.87 70.668 207.86 71.668 207.86 72.668 207.86 73.668 207.85 74.668 207.85 75.668 207.85 76.668 207.84 77.668 207.84 78.668 207.83 79.668 207.82 80.668 207.81 81.668 207.8 82.668 207.78 83.668 207.77 84.668 207.76 85.668 207.74 86.668 207.72 87.668 207.7 88.668 207.68 89.668 207.65 90.668 207.62 91.668 207.58 92.668 207.54 93.668 207.49 94.668 207.44 95.668 207.38 96.668 207.31 97.668 207.24 98.668 207.16 99.668 207.08 100.67 207 101.67 206.92 102.67 206.83 103.67 206.73 104.67 206.64 105.67 206.53 106.67 206.43 107.67 206.32 108.67 206.21 109.67 206.09 110.67 205.97 111.67 205.85 112.67 205.72 113.67 205.59 114.67 205.46 115.67 205.33 116.67 205.2 117.67 205.06 118.67 204.91 119.67 204.76 120.67 204.6 121.67 204.44 122.67 204.27 123.67 204.09 124.67 203.91 125.67 203.72 126.67 203.52 127.67 203.31 128.67 203.09 129.67 202.87 130.67 202.64 131.67 202.4 132.67 202.15 133.67 201.89 134.67 201.63 135.67 201.36 136.67 201.09 137.67 200.8 138.67 200.5 139.67 200.19 140.67 199.86 141.67 199.52 142.67 199.17 143.67 198.8 144.67 198.4 145.67 197.99 146.67 197.56 147.67 197.1 148.67 196.63 149.67 196.14 150.67 195.62 151.67 195.09 152.67 194.55 153.67 193.99 154.67 193.42 155.67 192.85 156.67 192.25 157.67 191.62 158.67 190.96 159.67 190.27 160.67 189.54 161.67 188.77 162.67 187.95 163.67 187.09 164.67 186.18 165.67 185.22 166.67 184.21 167.67 183.14 168.67 182.03 169.67 180.87 170.67 179.66 171.67 178.39 172.67 177.04 173.67 175.59 174.67 174.05 175.67 172.42 176.67 170.72 177.67 168.96 178.67 167.16 179.67 165.33 180.67 163.46 181.67 161.55 182.67 159.6 183.67 157.59 184.67 155.54 185.67 153.44 186.67 151.32 187.67 149.2 188.67 147.07 189.67 144.96 190.67 142.86 191.67 140.8 192.67 138.81 193.67 136.89 194.67 135.07 195.67 133.35 196.67 131.7 197.67 130.11 198.67 128.57 199.67 127.08 200.67 125.64 201.67 124.26 202.67 122.94 203.67 121.69 204.67 120.51 205.67 119.4 206.67 118.34 207.67 117.35 208.67 116.41 209.67 115.52 210.67 114.68 211.67 113.9 212.67 113.17 213.67 112.49 214.67 111.87 215.67 111.29 216.67 110.77 217.67 110.29 218.67 109.86 219.67 109.48 220.67 109.15 221.67 108.86 222.67 108.61 223.67 108.4 224.67 108.22 225.67 108.08 226.67 107.98 227.67 107.92 228.67 107.89 229.67 107.91 230.67 107.96 231.67 108.06 232.67 108.2 233.67 108.39 234.67 108.63 235.67 108.92 236.67 109.25 237.67 109.62 238.67 110.03 239.67 110.48 240.67 110.98 241.67 111.51 242.67 112.08 243.67 112.69 244.67 113.35 245.67 114.04 246.67 114.78 247.67 115.55 248.67 116.35 249.67 117.19 250.67 118.06 251.67 118.97 252.67 119.92 253.67 120.89 254.67 121.91 255.67 122.95 256.67 124.03 257.67 125.14 258.67 126.26 259.67 127.41 260.67 128.58 261.67 129.77 262.67 130.98 263.67 132.19 264.67 133.42 265.67 134.65 266.67 135.89 267.67 137.14 268.67 138.4 269.67 139.67 270.67 140.94 271.67 142.22 272.67 143.51 273.67 144.79 274.67 146.08 275.67 147.36 276.67 148.64 277.67 149.93 278.67 151.21 279.67 152.5 280.67 153.78 281.67 155.06 282.67 156.33 283.67 157.59 284.67 158.85 285.67 160.09 286.67 161.32 287.67 162.55 288.67 163.77 289.67 164.98 290.67 166.19 291.67 167.39 292.67 168.59 293.67 169.79 294.67 171 295.67 172.21 296.67 173.42 297.67 174.61 298.67 175.79 299.67 176.96 300.67 178.11 301.67 179.23 302.67 180.33 303.67 181.39 304.67 182.42 305.67 183.4 306.67 184.36 307.67 185.29 308.67 186.19 309.67 187.08 310.67 187.94 311.67 188.78 312.67 189.6 313.67 190.39 314.67 191.17 315.67 191.93 316.67 192.66 317.67 193.38 318.67 194.07 319.67 194.74 320.67 195.39 321.67 196.02 322.67 196.62 323.67 197.19 324.67 197.74 325.67 198.27 326.67 198.78 327.67 199.27 328.67 199.73 329.67 200.18 330.67 200.61 331.67 201.02 332.67 201.42 333.67 201.79 334.67 202.15 335.67 202.5 336.67 202.82 337.67 203.14 338.67 203.44 339.67 203.72 340.67 203.98 341.67 204.24 342.67 204.47 343.67 204.69 344.67 204.9 345.67 205.08 346.67 205.26 347.67 205.42 348.67 205.57 349.67 205.71 350.67 205.84 351.67 205.96 352.67 206.08 353.67 206.19 354.67 206.3 355.67 206.41 356.67 206.51 357.67 206.61 358.67 206.7 359.67 206.78 360.67 206.86 361.67 206.94 362.67 207.01 363.67 207.07 364.67 207.13 365.67 207.18 366.67 207.23 367.67 207.28 368.67 207.32 369.67 207.36 370.67 207.39 371.67 207.42 372.67 207.46 373.67 207.48 374.67 207.51 375.67 207.53 376.67 207.56 377.67 207.58 378.67 207.6 379.67 207.62 380.67 207.64 381.67 207.65 382.67 207.67 383.67 207.68 384.67 207.7 385.67 207.71 386.67 207.72 387.67 207.73 388.67 207.74 389.67 207.75 390.67 207.76 391.67 207.77 392.67 207.78 393.67 207.79 394.67 207.8 395.67 207.8 396.67 207.81 397.67 207.81 398.67 207.82 399.67 207.82 400.67 207.83 401.67 207.83 402.67 207.84 403.67 207.84 404.67 207.84 405.67 207.85 406.67 207.85 407.67 207.85 408.67 207.86 409.67 207.86 410.67 207.86 411.67 207.86 412.67 207.86 413.67 207.87 414.67 207.87 415.67 207.87 416.67 207.87 417.67 207.87 418.67 207.88 419.67 207.88 420.67 207.88 421.67 207.88 422.67 207.88 423.67 207.88" stroke="#0f0"/><polyline points="33.668 207.88 34.668 207.88 35.668 207.88 36.668 207.87 37.668 207.87 38.668 207.87 39.668 207.87 40.668 207.86 41.668 207.86 42.668 207.86 43.668 207.85 44.668 207.85 45.668 207.84 46.668 207.83 47.668 207.83 48.668 207.82 49.668 207.81 50.668 207.8 51.668 207.78 52.668 207.77 53.668 207.76 54.668 207.74 55.668 207.73 56.668 207.71 57.668 207.69 58.668 207.67 59.668 207.64 60.668 207.6 61.668 207.56 62.668 207.52 63.668 207.47 64.668 207.42 65.668 207.36 66.668 207.3 67.668 207.22 68.668 207.13 69.668 207.02 70.668 206.89 71.668 206.75 72.668 206.6 73.668 206.46 74.668 206.32 75.668 206.18 76.668 206.02 77.668 205.82 78.668 205.57 79.668 205.27 80.668 204.91 81.668 204.5 82.668 204.05 83.668 203.54 84.668 202.99 85.668 202.39 86.668 201.72 87.668 200.97 88.668 200.13 89.668 199.2 90.668 198.18 91.668 197.05 92.668 195.82 93.668 194.46 94.668 192.96 95.668 191.35 96.668 189.69 97.668 188.03 98.668 186.42 99.668 184.87 100.67 183.4 101.67 182.02 102.67 180.71 103.67 179.5 104.67 178.4 105.67 177.4 106.67 176.51 107.67 175.73 108.67 175.04 109.67 174.46 110.67 173.97 111.67 173.58 112.67 173.28 113.67 173.06 114.67 172.93 115.67 172.88 116.67 172.89 117.67 172.96 118.67 173.09 119.67 173.26 120.67 173.47 121.67 173.71 122.67 173.98 123.67 174.27 124.67 174.57 125.67 174.89 126.67 175.23 127.67 175.6 128.67 176.02 129.67 176.49 130.67 177 131.67 177.56 132.67 178.17 133.67 178.81 134.67 179.5 135.67 180.22 136.67 181 137.67 181.85 138.67 182.78 139.67 183.81 140.67 184.91 141.67 186.05 142.67 187.21 143.67 188.36 144.67 189.47 145.67 190.56 146.67 191.62 147.67 192.66 148.67 193.68 149.67 194.68 150.67 195.64 151.67 196.56 152.67 197.46 153.67 198.33 154.67 199.16 155.67 199.96 156.67 200.72 157.67 201.44 158.67 202.1 159.67 202.71 160.67 203.26 161.67 203.78 162.67 204.25 163.67 204.69 164.67 205.1 165.67 205.48 166.67 205.82 167.67 206.14 168.67 206.42 169.67 206.68 170.67 206.9 171.67 207.1 172.67 207.26 173.67 207.4 174.67 207.52 175.67 207.6 176.67 207.65 177.67 207.67 178.67 207.65 179.67 207.6 180.67 207.51 181.67 207.38 182.67 207.19 183.67 206.96 184.67 206.68 185.67 206.34 186.67 205.94 187.67 205.49 188.67 204.98 189.67 204.41 190.67 203.78 191.67 203.09 192.67 202.35 193.67 201.56 194.67 200.73 195.67 199.85 196.67 198.92 197.67 197.95 198.67 196.93 199.67 195.88 200.67 194.78 201.67 193.66 202.67 192.51 203.67 191.34 204.67 190.17 205.67 188.98 206.67 187.78 207.67 186.56 208.67 185.32 209.67 184.06 210.67 182.79 211.67 181.49 212.67 180.18 213.67 178.85 214.67 177.5 215.67 176.14 216.67 174.75 217.67 173.34 218.67 171.92 219.67 170.48 220.67 169.03 221.67 167.56 222.67 166.06 223.67 164.55 224.67 163.01 225.67 161.46 226.67 159.89 227.67 158.3 228.67 156.69 229.67 155.06 230.67 153.42 231.67 151.77 232.67 150.11 233.67 148.44 234.67 146.77 235.67 145.1 236.67 143.42 237.67 141.74 238.67 140.05 239.67 138.37 240.67 136.69 241.67 135.01 242.67 133.34 243.67 131.68 244.67 130.04 245.67 128.41 246.67 126.8 247.67 125.21 248.67 123.64 249.67 122.1 250.67 120.58 251.67 119.1 252.67 117.66 253.67 116.26 254.67 114.91 255.67 113.61 256.67 112.36 257.67 111.17 258.67 110.03 259.67 108.95 260.67 107.94 261.67 106.98 262.67 106.09 263.67 105.26 264.67 104.49 265.67 103.79 266.67 103.17 267.67 102.65 268.67 102.22 269.67 101.91 270.67 101.71 271.67 101.61 272.67 101.6 273.67 101.67 274.67 101.82 275.67 102.05 276.67 102.37 277.67 102.8 278.67 103.33 279.67 103.99 280.67 104.76 281.67 105.63 282.67 106.59 283.67 107.63 284.67 108.76 285.67 109.96 286.67 111.24 287.67 112.61 288.67 114.05 289.67 115.57 290.67 117.17 291.67 118.84 292.67 120.6 293.67 122.45 294.67 124.38 295.67 126.4 296.67 128.48 297.67 130.6 298.67 132.75 299.67 134.93 300.67 137.13 301.67 139.33 302.67 141.51 303.67 143.65 304.67 145.74 305.67 147.78 306.67 149.78 307.67 151.75 308.67 153.7 309.67 155.63 310.67 157.54 311.67 159.42 312.67 161.27 313.67 163.1 314.67 164.91 315.67 166.68 316.67 168.43 317.67 170.14 318.67 171.81 319.67 173.45 320.67 175.04 321.67 176.59 322.67 178.09 323.67 179.54 324.67 180.94 325.67 182.28 326.67 183.57 327.67 184.82 328.67 186.02 329.67 187.18 330.67 188.3 331.67 189.38 332.67 190.41 333.67 191.4 334.67 192.36 335.67 193.27 336.67 194.14 337.67 194.98 338.67 195.77 339.67 196.53 340.67 197.25 341.67 197.92 342.67 198.56 343.67 199.15 344.67 199.7 345.67 200.21 346.67 200.69 347.67 201.12 348.67 201.53 349.67 201.91 350.67 202.26 351.67 202.6 352.67 202.91 353.67 203.22 354.67 203.51 355.67 203.8 356.67 204.09 357.67 204.35 358.67 204.6 359.67 204.84 360.67 205.06 361.67 205.26 362.67 205.45 363.67 205.62 364.67 205.78 365.67 205.93 366.67 206.07 367.67 206.19 368.67 206.31 369.67 206.41 370.67 206.51 371.67 206.6 372.67 206.68 373.67 206.76 374.67 206.83 375.67 206.9 376.67 206.96 377.67 207.02 378.67 207.08 379.67 207.14 380.67 207.18 381.67 207.23 382.67 207.27 383.67 207.31 384.67 207.35 385.67 207.39 386.67 207.42 387.67 207.45 388.67 207.48 389.67 207.51 390.67 207.54 391.67 207.56 392.67 207.58 393.67 207.6 394.67 207.62 395.67 207.64 396.67 207.66 397.67 207.67 398.67 207.69 399.67 207.7 400.67 207.72 401.67 207.73 402.67 207.74 403.67 207.75 404.67 207.76 405.67 207.77 406.67 207.78 407.67 207.78 408.67 207.79 409.67 207.8 410.67 207.81 411.67 207.81 412.67 207.82 413.67 207.82 414.67 207.83 415.67 207.83 416.67 207.84 417.67 207.84 418.67 207.84 419.67 207.85 420.67 207.85 421.67 207.85 422.67 207.86 423.67 207.86" stroke="#f00"/></g><g stroke="#000"><g stroke-width="1.5"><polyline points="423.67 207.83 33.668 207.83 33.668 7.832"/><line x1="373.67" x2="373.67" y1="215.33" y2="200.33"/><line x1="273.67" x2="273.67" y1="215.33" y2="200.33"/><line x1="173.67" x2="173.67" y1="215.33" y2="200.33"/><line x1="73.668" x2="73.668" y1="215.33" y2="200.33"/></g><line x1="83.668" x2="83.668" y1="211.58" y2="204.08"/><line x1="63.668" x2="63.668" y1="211.58" y2="204.08"/><line x1="53.668" x2="53.668" y1="211.58" y2="204.08"/><line x1="43.668" x2="43.668" y1="211.58" y2="204.08"/><line x1="93.668" x2="93.668" y1="211.58" y2="204.08"/><line x1="103.67" x2="103.67" y1="211.58" y2="204.08"/><line x1="113.67" x2="113.67" y1="211.58" y2="204.08"/><line x1="123.67" x2="123.67" y1="211.58" y2="204.08"/><line x1="133.67" x2="133.67" y1="211.58" y2="204.08"/><line x1="143.67" x2="143.67" y1="211.58" y2="204.08"/><line x1="153.67" x2="153.67" y1="211.58" y2="204.08"/><line x1="163.67" x2="163.67" y1="211.58" y2="204.08"/><line x1="183.67" x2="183.67" y1="211.58" y2="204.08"/><line x1="193.67" x2="193.67" y1="211.58" y2="204.08"/><line x1="203.67" x2="203.67" y1="211.58" y2="204.08"/><line x1="213.67" x2="213.67" y1="211.58" y2="204.08"/><line x1="223.67" x2="223.67" y1="211.58" y2="204.08"/><line x1="233.67" x2="233.67" y1="211.58" y2="204.08"/><line x1="243.67" x2="243.67" y1="211.58" y2="204.08"/><line x1="253.67" x2="253.67" y1="211.58" y2="204.08"/><line x1="263.67" x2="263.67" y1="211.58" y2="204.08"/><line x1="283.67" x2="283.67" y1="211.58" y2="204.08"/><line x1="293.67" x2="293.67" y1="211.58" y2="204.08"/><line x1="303.67" x2="303.67" y1="211.58" y2="204.08"/><line x1="313.67" x2="313.67" y1="211.58" y2="204.08"/><line x1="323.67" x2="323.67" y1="211.58" y2="204.08"/><line x1="333.67" x2="333.67" y1="211.58" y2="204.08"/><line x1="343.67" x2="343.67" y1="211.58" y2="204.08"/><line x1="353.67" x2="353.67" y1="211.58" y2="204.08"/><line x1="363.67" x2="363.67" y1="211.58" y2="204.08"/><line x1="383.67" x2="383.67" y1="211.58" y2="204.08"/><line x1="393.67" x2="393.67" y1="211.58" y2="204.08"/><line x1="403.67" x2="403.67" y1="211.58" y2="204.08"/><line x1="413.67" x2="413.67" y1="211.58" y2="204.08"/><line x1="423.67" x2="423.67" y1="211.58" y2="204.08"/><g stroke-width="1.5"><line x1="26.168" x2="41.168" y1="157.83" y2="157.83"/><line x1="26.168" x2="41.168" y1="207.83" y2="207.83"/><line x1="26.168" x2="41.168" y1="107.83" y2="107.83"/><line x1="26.168" x2="41.168" y1="57.832" y2="57.832"/><line x1="26.168" x2="41.168" y1="7.832" y2="7.832"/></g><line x1="29.918" x2="37.418" y1="17.832" y2="17.832"/><line x1="29.918" x2="37.418" y1="27.832" y2="27.832"/><line x1="29.918" x2="37.418" y1="37.832" y2="37.832"/><line x1="29.918" x2="37.418" y1="47.832" y2="47.832"/><line x1="29.918" x2="37.418" y1="67.832" y2="67.832"/><line x1="29.918" x2="37.418" y1="77.832" y2="77.832"/><line x1="29.918" x2="37.418" y1="87.832" y2="87.832"/><line x1="29.918" x2="37.418" y1="97.832" y2="97.832"/><line x1="29.918" x2="37.418" y1="117.83" y2="117.83"/><line x1="29.918" x2="37.418" y1="127.83" y2="127.83"/><line x1="29.918" x2="37.418" y1="137.83" y2="137.83"/><line x1="29.918" x2="37.418" y1="147.83" y2="147.83"/><line x1="29.918" x2="37.418" y1="167.83" y2="167.83"/><line x1="29.918" x2="37.418" y1="177.83" y2="177.83"/><line x1="29.918" x2="37.418" y1="187.83" y2="187.83"/><line x1="29.918" x2="37.418" y1="197.83" y2="197.83"/></g></g>
	<path d="m4.344 163.46c-1.125 0-1.962-0.442-2.512-1.328-0.549-0.885-0.824-2.229-0.824-4.031 0-0.958 0.084-1.786 0.254-2.484 0.169-0.698 0.406-1.274 0.711-1.73s0.67-0.793 1.098-1.012 0.893-0.328 1.398-0.328c1.141 0 1.99 0.44 2.547 1.32s0.836 2.211 0.836 3.992c0 1.844-0.298 3.238-0.895 4.184s-1.467 1.417-2.613 1.417zm-1.813-5.594c0 1.698 0.158 2.944 0.473 3.738s0.803 1.191 1.465 1.191c0.63 0 1.098-0.374 1.402-1.121 0.305-0.747 0.457-1.905 0.457-3.473 0-1.198-0.078-2.168-0.234-2.91s-0.374-1.274-0.652-1.598c-0.279-0.323-0.616-0.484-1.012-0.484-0.359 0-0.66 0.107-0.902 0.32-0.242 0.214-0.438 0.521-0.586 0.922s-0.254 0.89-0.316 1.465c-0.063 0.577-0.095 1.227-0.095 1.95z"/>
	<path d="m11.289 161.52v1.813h-1.578v-1.813z"/>
	<path d="m13.313 162.9v-1.656h0.945c0.156 0.531 0.392 0.922 0.707 1.172s0.723 0.375 1.223 0.375c0.693 0 1.216-0.208 1.57-0.625s0.531-1.039 0.531-1.867c0-0.552-0.094-1.009-0.281-1.371-0.188-0.362-0.44-0.624-0.758-0.785s-0.688-0.242-1.109-0.242c-0.354 0-0.659 0.022-0.914 0.066s-0.529 0.113-0.82 0.207l-0.625-0.367v-5.141h4.305c0.177 0 0.305-0.014 0.383-0.043 0.078-0.028 0.141-0.073 0.188-0.133s0.102-0.173 0.164-0.34h0.609l-0.117 1.813h-4.494v3.43c0.271-0.114 0.565-0.2 0.883-0.258 0.318-0.057 0.635-0.086 0.953-0.086 0.62 0 1.169 0.126 1.648 0.379s0.849 0.612 1.109 1.078 0.391 1.007 0.391 1.621c0 0.698-0.146 1.297-0.438 1.797s-0.713 0.88-1.266 1.141c-0.552 0.261-1.206 0.391-1.961 0.391-0.899-1e-3 -1.842-0.186-2.826-0.556z"/>

	<path d="m4.344 213.46c-1.125 0-1.962-0.442-2.512-1.328-0.549-0.885-0.824-2.229-0.824-4.031 0-0.958 0.084-1.786 0.254-2.484 0.169-0.698 0.406-1.274 0.711-1.73s0.67-0.793 1.098-1.012 0.893-0.328 1.398-0.328c1.141 0 1.99 0.44 2.547 1.32s0.836 2.211 0.836 3.992c0 1.844-0.298 3.238-0.895 4.184s-1.467 1.417-2.613 1.417zm-1.813-5.594c0 1.698 0.158 2.944 0.473 3.738s0.803 1.191 1.465 1.191c0.63 0 1.098-0.374 1.402-1.121 0.305-0.747 0.457-1.905 0.457-3.473 0-1.198-0.078-2.168-0.234-2.91s-0.374-1.274-0.652-1.598c-0.279-0.323-0.616-0.484-1.012-0.484-0.359 0-0.66 0.107-0.902 0.32-0.242 0.214-0.438 0.521-0.586 0.922s-0.254 0.89-0.316 1.465c-0.063 0.577-0.095 1.227-0.095 1.95z"/>
	<path d="m11.289 211.52v1.813h-1.578v-1.813z"/>
	<path d="m16.484 213.46c-1.125 0-1.962-0.442-2.512-1.328-0.549-0.885-0.824-2.229-0.824-4.031 0-0.958 0.084-1.786 0.254-2.484 0.169-0.698 0.406-1.274 0.711-1.73s0.67-0.793 1.098-1.012 0.893-0.328 1.398-0.328c1.141 0 1.99 0.44 2.547 1.32s0.836 2.211 0.836 3.992c0 1.844-0.298 3.238-0.895 4.184s-1.467 1.417-2.613 1.417zm-1.812-5.594c0 1.698 0.158 2.944 0.473 3.738s0.803 1.191 1.465 1.191c0.63 0 1.098-0.374 1.402-1.121 0.305-0.747 0.457-1.905 0.457-3.473 0-1.198-0.078-2.168-0.234-2.91s-0.374-1.274-0.652-1.598c-0.279-0.323-0.616-0.484-1.012-0.484-0.359 0-0.66 0.107-0.902 0.32-0.242 0.214-0.438 0.521-0.586 0.922s-0.254 0.89-0.316 1.465c-0.064 0.577-0.095 1.227-0.095 1.95z"/>

	<path d="m5.43 111.29c0 0.302 0.017 0.53 0.051 0.684s0.094 0.279 0.18 0.375c0.086 0.097 0.209 0.172 0.371 0.227s0.365 0.097 0.609 0.125c0.245 0.029 0.568 0.048 0.969 0.059v0.57h-5.774v-0.57c0.578-0.026 0.991-0.061 1.238-0.105 0.248-0.044 0.436-0.11 0.566-0.199 0.13-0.088 0.225-0.213 0.285-0.375 0.06-0.161 0.09-0.424 0.09-0.789v-6.336c0-0.208-0.037-0.36-0.109-0.457-0.073-0.096-0.18-0.145-0.32-0.145-0.167 0-0.404 0.086-0.711 0.258s-0.688 0.409-1.141 0.711l-0.344-0.602 3.656-2.18h0.43c-0.031 0.5-0.047 1.193-0.047 2.078v6.671z"/>
	<path d="m11.289 111.52v1.813h-1.578v-1.813z"/>
	<path d="m16.484 113.46c-1.125 0-1.962-0.442-2.512-1.328-0.549-0.885-0.824-2.229-0.824-4.031 0-0.958 0.084-1.786 0.254-2.484 0.169-0.698 0.406-1.274 0.711-1.73s0.67-0.793 1.098-1.012 0.893-0.328 1.398-0.328c1.141 0 1.99 0.44 2.547 1.32s0.836 2.211 0.836 3.992c0 1.844-0.298 3.238-0.895 4.184s-1.467 1.417-2.613 1.417zm-1.812-5.594c0 1.698 0.158 2.944 0.473 3.738s0.803 1.191 1.465 1.191c0.63 0 1.098-0.374 1.402-1.121 0.305-0.747 0.457-1.905 0.457-3.473 0-1.198-0.078-2.168-0.234-2.91s-0.374-1.274-0.652-1.598c-0.279-0.323-0.616-0.484-1.012-0.484-0.359 0-0.66 0.107-0.902 0.32-0.242 0.214-0.438 0.521-0.586 0.922s-0.254 0.89-0.316 1.465c-0.064 0.577-0.095 1.227-0.095 1.95z"/>

	<path d="m5.43 61.293c0 0.302 0.017 0.53 0.051 0.684s0.094 0.279 0.18 0.375c0.086 0.097 0.209 0.172 0.371 0.227s0.365 0.097 0.609 0.125c0.245 0.029 0.568 0.048 0.969 0.059v0.57h-5.774v-0.57c0.578-0.026 0.991-0.061 1.238-0.105 0.248-0.044 0.436-0.11 0.566-0.199 0.13-0.088 0.225-0.213 0.285-0.375 0.06-0.161 0.09-0.424 0.09-0.789v-6.336c0-0.208-0.037-0.36-0.109-0.457-0.073-0.096-0.18-0.145-0.32-0.145-0.167 0-0.404 0.086-0.711 0.258s-0.688 0.409-1.141 0.711l-0.344-0.602 3.656-2.18h0.43c-0.031 0.5-0.047 1.193-0.047 2.078v6.671z"/>
	<path d="m11.289 61.52v1.813h-1.578v-1.813z"/>
	<path d="m13.313 62.902v-1.656h0.945c0.156 0.531 0.392 0.922 0.707 1.172s0.723 0.375 1.223 0.375c0.693 0 1.216-0.208 1.57-0.625s0.531-1.039 0.531-1.867c0-0.552-0.094-1.009-0.281-1.371-0.188-0.362-0.44-0.624-0.758-0.785s-0.688-0.242-1.109-0.242c-0.354 0-0.659 0.022-0.914 0.066s-0.529 0.113-0.82 0.207l-0.625-0.367v-5.141h4.305c0.177 0 0.305-0.014 0.383-0.043 0.078-0.028 0.141-0.073 0.188-0.133s0.102-0.173 0.164-0.34h0.609l-0.117 1.813h-4.494v3.43c0.271-0.114 0.565-0.2 0.883-0.258 0.318-0.057 0.635-0.086 0.953-0.086 0.62 0 1.169 0.126 1.648 0.379s0.849 0.612 1.109 1.078 0.391 1.007 0.391 1.621c0 0.698-0.146 1.297-0.438 1.797s-0.713 0.88-1.266 1.141c-0.552 0.261-1.206 0.391-1.961 0.391-0.899-1e-3 -1.842-0.186-2.826-0.556z"/>

	<path d="m5.484 12.082c0.255 0 0.461-0.016 0.617-0.047s0.281-0.083 0.375-0.156 0.168-0.168 0.223-0.285 0.124-0.298 0.207-0.543h0.664l-0.133 2.281h-6.43v-0.375c0.224-0.547 0.526-1.106 0.906-1.68 0.38-0.573 0.919-1.247 1.617-2.023 0.605-0.667 1.04-1.172 1.306-1.516 0.292-0.375 0.509-0.699 0.652-0.973s0.246-0.531 0.309-0.773 0.094-0.485 0.094-0.73c0-0.391-0.063-0.735-0.188-1.035s-0.316-0.536-0.574-0.707-0.582-0.258-0.973-0.258c-0.974 0-1.63 0.542-1.969 1.625h-0.945v-1.5c0.63-0.297 1.22-0.512 1.77-0.645s1.043-0.199 1.48-0.199c0.969 0 1.701 0.212 2.195 0.637 0.495 0.424 0.743 1.04 0.743 1.847 0 0.276-0.027 0.53-0.082 0.762s-0.141 0.461-0.258 0.688-0.275 0.47-0.473 0.73c-0.198 0.261-0.416 0.525-0.656 0.793-0.24 0.269-0.654 0.715-1.242 1.34-0.99 1.047-1.716 1.961-2.18 2.742z"/>
	<path d="m11.289 11.52v1.813h-1.578v-1.813z"/>
	<path d="m16.484 13.457c-1.125 0-1.962-0.442-2.512-1.328-0.549-0.885-0.824-2.229-0.824-4.031 0-0.958 0.084-1.786 0.254-2.484 0.169-0.698 0.406-1.274 0.711-1.73s0.67-0.793 1.098-1.012 0.893-0.328 1.398-0.328c1.141 0 1.99 0.44 2.547 1.32s0.836 2.211 0.836 3.992c0 1.844-0.298 3.238-0.895 4.184s-1.467 1.417-2.613 1.417zm-1.812-5.594c0 1.698 0.158 2.944 0.473 3.738s0.803 1.191 1.465 1.191c0.63 0 1.098-0.374 1.402-1.121 0.305-0.747 0.457-1.905 0.457-3.473 0-1.198-0.078-2.168-0.234-2.91s-0.374-1.274-0.652-1.598c-0.279-0.323-0.616-0.484-1.012-0.484-0.359 0-0.66 0.107-0.902 0.32-0.242 0.214-0.438 0.521-0.586 0.922s-0.254 0.89-0.316 1.465c-0.064 0.577-0.095 1.227-0.095 1.95z"/>

	<path d="m392.06 18.301c-0.078-0.411-0.158-0.807-0.242-1.188-0.084-0.38-0.17-0.734-0.258-1.063s-0.162-0.543-0.219-0.645-0.119-0.172-0.184-0.211-0.146-0.059-0.246-0.059c-0.109 0-0.209 0.025-0.297 0.074-0.088 0.05-0.186 0.136-0.289 0.258-0.104 0.123-0.242 0.314-0.414 0.574l-0.508-0.336c0.328-0.495 0.643-0.864 0.945-1.109 0.303-0.245 0.658-0.367 1.07-0.367 0.162 0 0.303 0.019 0.426 0.055 0.123 0.037 0.23 0.093 0.324 0.168 0.094 0.076 0.178 0.173 0.25 0.293s0.143 0.283 0.211 0.488c0.068 0.206 0.131 0.461 0.191 0.766s0.113 0.621 0.16 0.949h0.078c0.5-0.703 0.879-1.217 1.137-1.543 0.258-0.325 0.475-0.567 0.652-0.727 0.178-0.159 0.348-0.271 0.512-0.336s0.381-0.098 0.652-0.098c0.244 0 0.445 0.031 0.602 0.094l-0.313 1.414h-0.547c-0.031-0.219-0.123-0.328-0.273-0.328-0.047 0-0.096 8e-3 -0.148 0.023s-0.115 0.05-0.191 0.102-0.186 0.154-0.332 0.305-0.311 0.336-0.492 0.555-0.369 0.448-0.563 0.688l-0.531 0.664c0.094 0.5 0.182 0.933 0.266 1.297 0.084 0.365 0.158 0.668 0.223 0.91s0.123 0.434 0.172 0.574 0.104 0.246 0.16 0.316 0.115 0.12 0.176 0.148c0.061 0.029 0.129 0.043 0.207 0.043 0.141 0 0.277-0.055 0.41-0.164s0.324-0.356 0.574-0.742l0.508 0.336c-0.365 0.542-0.693 0.923-0.988 1.145s-0.645 0.332-1.051 0.332c-0.225 0-0.414-0.041-0.57-0.121s-0.291-0.209-0.406-0.387c-0.115-0.177-0.217-0.453-0.305-0.828-0.162-0.667-0.26-1.177-0.297-1.531h-0.078c-0.553 0.776-0.963 1.333-1.23 1.672-0.268 0.339-0.49 0.589-0.664 0.75-0.174 0.162-0.344 0.275-0.508 0.34s-0.381 0.098-0.652 0.098c-0.244 0-0.445-0.031-0.602-0.094l0.313-1.414h0.547c0.031 0.219 0.123 0.328 0.273 0.328 0.072 0 0.15-0.02 0.23-0.059s0.197-0.133 0.348-0.281 0.359-0.381 0.625-0.699c0.265-0.317 0.65-0.793 1.156-1.429z"/>
	<path d="m396.53 12.48h-6.883v-0.828h6.883z"/>
	<path d="m400.49 17.879c0 1.823 0.293 3.326 0.879 4.508s1.48 1.974 2.684 2.375l-0.188 0.602c-1.525-0.401-2.695-1.265-3.508-2.59s-1.219-2.931-1.219-4.816c0-1.88 0.408-3.485 1.223-4.816 0.814-1.331 1.982-2.196 3.504-2.598l0.211 0.602c-1.219 0.401-2.121 1.184-2.707 2.348s-0.879 2.625-0.879 4.385z"/>
	<path d="m403.84 21.449c0.238-0.292 0.479-0.595 0.719-0.91 0.238-0.315 0.531-0.715 0.875-1.199l3.5-4.969c-6e-3 -0.531-0.029-0.977-0.07-1.336-0.043-0.359-0.1-0.645-0.172-0.855-0.074-0.211-0.17-0.366-0.289-0.465-0.121-0.099-0.285-0.148-0.492-0.148-0.172 0-0.348 0.05-0.523 0.148-0.178 0.099-0.436 0.302-0.773 0.609l-0.406-0.453c0.479-0.474 0.875-0.795 1.191-0.965 0.314-0.169 0.629-0.254 0.941-0.254 0.4 0 0.707 0.094 0.922 0.281 0.213 0.188 0.363 0.483 0.453 0.887 0.088 0.404 0.133 0.994 0.133 1.77 0 0.255-6e-3 0.625-0.016 1.109l-0.031 1.234c-0.043 1.172-0.063 2.094-0.063 2.766 0 0.542 0.012 0.965 0.035 1.27s0.061 0.535 0.113 0.691c0.051 0.156 0.117 0.262 0.195 0.316s0.174 0.082 0.289 0.082c0.135 0 0.279-0.045 0.434-0.137 0.152-0.091 0.342-0.256 0.566-0.496l0.438 0.438c-0.34 0.344-0.674 0.612-1.004 0.805-0.332 0.192-0.625 0.289-0.879 0.289-0.297 0-0.523-0.06-0.68-0.18s-0.27-0.317-0.34-0.594c-0.07-0.276-0.105-0.682-0.105-1.219 0-0.739 0.055-1.95 0.164-3.633h-0.078c-1.563 2.292-2.742 4.125-3.539 5.5h-1.586z"/>
	<path d="m415.4 17.879c0-1.76-0.292-3.223-0.875-4.387s-1.487-1.946-2.711-2.348l0.211-0.602c1.521 0.401 2.688 1.267 3.504 2.598 0.815 1.331 1.223 2.937 1.223 4.816 0 1.886-0.406 3.491-1.219 4.816s-1.981 2.188-3.508 2.59l-0.188-0.602c1.203-0.401 2.098-1.193 2.684-2.375s0.879-2.683 0.879-4.506z"/>

	<path d="m392.15 43.348c-0.15-0.911-0.357-2.01-0.617-3.297-0.275-1.375-0.459-2.227-0.547-2.555-0.109-0.396-0.225-0.648-0.344-0.758-0.072-0.067-0.164-0.102-0.273-0.102-0.166 0-0.322 0.068-0.469 0.203-0.146 0.136-0.326 0.37-0.539 0.703l-0.508-0.336c0.359-0.536 0.695-0.915 1.008-1.137 0.313-0.221 0.662-0.332 1.047-0.332 0.213 0 0.396 0.029 0.547 0.086 0.104 0.042 0.209 0.111 0.313 0.207 0.104 0.097 0.197 0.23 0.277 0.402s0.15 0.365 0.211 0.578c0.061 0.214 0.127 0.521 0.199 0.922 0.125 0.672 0.246 1.379 0.363 2.121s0.217 1.431 0.301 2.066c0.506-0.729 0.934-1.442 1.285-2.141 0.352-0.698 0.604-1.305 0.758-1.82s0.23-0.935 0.23-1.258c0-0.245-0.053-0.411-0.156-0.5-0.104-0.088-0.281-0.141-0.531-0.156l0.078-0.383h2.055l0.211 0.391c-0.396 1.083-0.932 2.242-1.609 3.477-0.666 1.208-1.43 2.412-2.289 3.609-0.822 1.141-1.508 1.966-2.055 2.477-0.381 0.349-0.748 0.599-1.102 0.75-0.281 0.114-0.58 0.172-0.898 0.172-0.109 0-0.236-9e-3 -0.379-0.027-0.143-0.019-0.254-0.043-0.332-0.074l0.336-1.516h0.617c0 0.333 0.115 0.5 0.344 0.5 0.303 0 0.654-0.189 1.055-0.566 0.399-0.377 0.872-0.946 1.413-1.706z"/>
	<path d="m396.97 33.98h-6.883v-0.828h6.883z"/>
	<path d="m400.93 39.379c0 1.823 0.293 3.326 0.879 4.508s1.48 1.974 2.684 2.375l-0.188 0.602c-1.525-0.401-2.695-1.265-3.508-2.59s-1.219-2.931-1.219-4.816c0-1.88 0.408-3.485 1.223-4.816 0.814-1.331 1.982-2.196 3.504-2.598l0.211 0.602c-1.219 0.401-2.121 1.184-2.707 2.348s-0.879 2.625-0.879 4.385z"/>
	<path d="m404.28 42.949c0.238-0.292 0.479-0.595 0.719-0.91 0.238-0.315 0.531-0.715 0.875-1.199l3.5-4.969c-6e-3 -0.531-0.029-0.977-0.07-1.336-0.043-0.359-0.1-0.645-0.172-0.855-0.074-0.211-0.17-0.366-0.289-0.465-0.121-0.099-0.285-0.148-0.492-0.148-0.172 0-0.348 0.05-0.523 0.148-0.178 0.099-0.436 0.302-0.773 0.609l-0.406-0.453c0.479-0.474 0.875-0.795 1.191-0.965 0.314-0.169 0.629-0.254 0.941-0.254 0.4 0 0.707 0.094 0.922 0.281 0.213 0.188 0.363 0.483 0.453 0.887 0.088 0.404 0.133 0.994 0.133 1.77 0 0.255-6e-3 0.625-0.016 1.109l-0.031 1.234c-0.043 1.172-0.063 2.094-0.063 2.766 0 0.542 0.012 0.965 0.035 1.27s0.061 0.535 0.113 0.691c0.051 0.156 0.117 0.262 0.195 0.316s0.174 0.082 0.289 0.082c0.135 0 0.279-0.045 0.434-0.137 0.152-0.091 0.342-0.256 0.566-0.496l0.438 0.438c-0.34 0.344-0.674 0.612-1.004 0.805-0.332 0.192-0.625 0.289-0.879 0.289-0.297 0-0.523-0.06-0.68-0.18s-0.27-0.317-0.34-0.594c-0.07-0.276-0.105-0.682-0.105-1.219 0-0.739 0.055-1.95 0.164-3.633h-0.078c-1.563 2.292-2.742 4.125-3.539 5.5h-1.586z"/>
	<path d="m415.84 39.379c0-1.76-0.292-3.223-0.875-4.387s-1.487-1.946-2.711-2.348l0.211-0.602c1.521 0.401 2.688 1.267 3.504 2.598 0.815 1.331 1.223 2.937 1.223 4.816 0 1.886-0.406 3.491-1.219 4.816s-1.981 2.188-3.508 2.59l-0.188-0.602c1.203-0.401 2.098-1.193 2.684-2.375s0.879-2.683 0.879-4.506z"/>

	<path d="m394.81 62.637-0.477 2.195h-5.656l-0.148-0.383 4.273-4.922c0.604-0.692 1.047-1.185 1.328-1.477l-0.047-0.055h-1.828c-0.271 0-0.469 0.019-0.594 0.055-0.125 0.037-0.25 0.101-0.375 0.191-0.125 0.091-0.26 0.227-0.402 0.406s-0.303 0.437-0.48 0.77h-0.695l0.461-2.055h5.555l0.148 0.391-3.727 4.281c-0.725 0.828-1.352 1.531-1.883 2.109l0.047 0.055h1.766c0.313 0 0.553-0.017 0.719-0.051s0.313-0.098 0.438-0.191 0.254-0.235 0.387-0.426c0.133-0.19 0.299-0.488 0.496-0.895h0.694z"/>
	<path d="m395.75 55.48h-6.883v-0.828h6.883z"/>
	<path d="m399.71 60.879c0 1.823 0.293 3.326 0.879 4.508s1.48 1.974 2.684 2.375l-0.188 0.602c-1.525-0.401-2.695-1.265-3.508-2.59s-1.219-2.931-1.219-4.816c0-1.88 0.408-3.485 1.223-4.816 0.814-1.331 1.982-2.196 3.504-2.598l0.211 0.602c-1.219 0.401-2.121 1.184-2.707 2.348s-0.879 2.625-0.879 4.385z"/>
	<path d="m403.06 64.449c0.238-0.292 0.479-0.595 0.719-0.91 0.238-0.315 0.531-0.715 0.875-1.199l3.5-4.969c-6e-3 -0.531-0.029-0.977-0.07-1.336-0.043-0.359-0.1-0.645-0.172-0.855-0.074-0.211-0.17-0.366-0.289-0.465-0.121-0.099-0.285-0.148-0.492-0.148-0.172 0-0.348 0.05-0.523 0.148-0.178 0.099-0.436 0.302-0.773 0.609l-0.406-0.453c0.479-0.474 0.875-0.795 1.191-0.965 0.314-0.169 0.629-0.254 0.941-0.254 0.4 0 0.707 0.094 0.922 0.281 0.213 0.188 0.363 0.483 0.453 0.887 0.088 0.404 0.133 0.994 0.133 1.77 0 0.255-6e-3 0.625-0.016 1.109l-0.031 1.234c-0.043 1.172-0.063 2.094-0.063 2.766 0 0.542 0.012 0.965 0.035 1.27s0.061 0.535 0.113 0.691c0.051 0.156 0.117 0.262 0.195 0.316s0.174 0.082 0.289 0.082c0.135 0 0.279-0.045 0.434-0.137 0.152-0.091 0.342-0.256 0.566-0.496l0.438 0.438c-0.34 0.344-0.674 0.612-1.004 0.805-0.332 0.192-0.625 0.289-0.879 0.289-0.297 0-0.523-0.06-0.68-0.18s-0.27-0.317-0.34-0.594c-0.07-0.276-0.105-0.682-0.105-1.219 0-0.739 0.055-1.95 0.164-3.633h-0.078c-1.563 2.292-2.742 4.125-3.539 5.5h-1.586z"/>
	<path d="m414.62 60.879c0-1.76-0.292-3.223-0.875-4.387s-1.487-1.946-2.711-2.348l0.211-0.602c1.521 0.401 2.688 1.267 3.504 2.598 0.815 1.331 1.223 2.937 1.223 4.816 0 1.886-0.406 3.491-1.219 4.816s-1.981 2.188-3.508 2.59l-0.188-0.602c1.203-0.401 2.098-1.193 2.684-2.375s0.879-2.683 0.879-4.506z"/>

	<path d="m64.411 231.5c0.323-0.083 0.539-0.176 0.648-0.277s0.181-0.246 0.215-0.434 0.051-0.474 0.051-0.859v-1.281h-4.344v-0.586l4.57-6.898h1.117v6.727h0.164c0.302 0 0.518-0.022 0.648-0.066s0.238-0.122 0.324-0.234 0.165-0.296 0.238-0.551h0.594l-0.094 1.609h-1.875v1.281c0 0.349 0.012 0.604 0.035 0.766s0.063 0.289 0.117 0.383 0.135 0.172 0.242 0.234c0.106 0.063 0.28 0.125 0.52 0.188v0.383h-3.172v-0.385zm-2.141-3.609h3.055v-1.945c0-0.489 8e-3 -1.038 0.023-1.645s0.034-1.063 0.055-1.371h-0.078l-3.055 4.852z"/>
	<path d="m73.583 232.01c-1.125 0-1.962-0.442-2.512-1.328s-0.824-2.229-0.824-4.031c0-0.958 0.084-1.786 0.254-2.484 0.169-0.698 0.406-1.274 0.711-1.73s0.67-0.793 1.098-1.012c0.427-0.219 0.893-0.328 1.398-0.328 1.141 0 1.989 0.44 2.547 1.32 0.557 0.88 0.836 2.211 0.836 3.992 0 1.844-0.298 3.238-0.895 4.184-0.597 0.944-1.468 1.417-2.613 1.417zm-1.813-5.594c0 1.698 0.157 2.944 0.473 3.738 0.315 0.794 0.803 1.191 1.465 1.191 0.63 0 1.098-0.374 1.402-1.121s0.457-1.905 0.457-3.473c0-1.198-0.078-2.168-0.234-2.91s-0.374-1.274-0.652-1.598c-0.279-0.323-0.616-0.484-1.012-0.484-0.359 0-0.66 0.106-0.902 0.32s-0.438 0.521-0.586 0.922-0.254 0.89-0.316 1.465-0.095 1.226-0.095 1.95z"/>
	<path d="m82.442 232.01c-1.125 0-1.962-0.442-2.512-1.328s-0.824-2.229-0.824-4.031c0-0.958 0.084-1.786 0.254-2.484 0.169-0.698 0.406-1.274 0.711-1.73s0.67-0.793 1.098-1.012c0.427-0.219 0.893-0.328 1.398-0.328 1.141 0 1.989 0.44 2.547 1.32 0.557 0.88 0.836 2.211 0.836 3.992 0 1.844-0.298 3.238-0.895 4.184-0.597 0.944-1.468 1.417-2.613 1.417zm-1.813-5.594c0 1.698 0.157 2.944 0.473 3.738 0.315 0.794 0.803 1.191 1.465 1.191 0.63 0 1.098-0.374 1.402-1.121s0.457-1.905 0.457-3.473c0-1.198-0.078-2.168-0.234-2.91s-0.374-1.274-0.652-1.598c-0.279-0.323-0.616-0.484-1.012-0.484-0.359 0-0.66 0.106-0.902 0.32s-0.438 0.521-0.586 0.922-0.254 0.89-0.316 1.465-0.095 1.226-0.095 1.95z"/>

	<path d="m161.55 231.46v-1.656h0.945c0.156 0.531 0.392 0.922 0.707 1.172s0.723 0.375 1.223 0.375c0.692 0 1.216-0.208 1.57-0.625s0.531-1.039 0.531-1.867c0-0.552-0.094-1.009-0.281-1.371s-0.44-0.624-0.758-0.785-0.688-0.242-1.109-0.242c-0.354 0-0.659 0.022-0.914 0.066s-0.529 0.113-0.82 0.207l-0.625-0.367v-5.141h4.305c0.177 0 0.305-0.015 0.383-0.043s0.141-0.073 0.188-0.133 0.102-0.173 0.164-0.34h0.609l-0.117 1.813h-4.492v3.43c0.271-0.114 0.565-0.2 0.883-0.258 0.317-0.058 0.635-0.086 0.953-0.086 0.62 0 1.169 0.126 1.648 0.379s0.849 0.612 1.109 1.078 0.391 1.007 0.391 1.621c0 0.698-0.146 1.297-0.438 1.797s-0.714 0.88-1.266 1.141-1.206 0.391-1.961 0.391c-0.901-1e-3 -1.843-0.186-2.828-0.556z"/>
	<path d="m173.58 232.01c-1.125 0-1.962-0.442-2.512-1.328s-0.824-2.229-0.824-4.031c0-0.958 0.084-1.786 0.254-2.484 0.169-0.698 0.406-1.274 0.711-1.73s0.67-0.793 1.098-1.012c0.427-0.219 0.893-0.328 1.398-0.328 1.141 0 1.989 0.44 2.547 1.32 0.557 0.88 0.836 2.211 0.836 3.992 0 1.844-0.298 3.238-0.895 4.184-0.597 0.944-1.468 1.417-2.613 1.417zm-1.813-5.594c0 1.698 0.157 2.944 0.473 3.738 0.315 0.794 0.803 1.191 1.465 1.191 0.63 0 1.098-0.374 1.402-1.121s0.457-1.905 0.457-3.473c0-1.198-0.078-2.168-0.234-2.91s-0.374-1.274-0.652-1.598c-0.279-0.323-0.616-0.484-1.012-0.484-0.359 0-0.66 0.106-0.902 0.32s-0.438 0.521-0.586 0.922-0.254 0.89-0.316 1.465-0.095 1.226-0.095 1.95z"/>
	<path d="m182.44 232.01c-1.125 0-1.962-0.442-2.512-1.328s-0.824-2.229-0.824-4.031c0-0.958 0.084-1.786 0.254-2.484 0.169-0.698 0.406-1.274 0.711-1.73s0.67-0.793 1.098-1.012c0.427-0.219 0.893-0.328 1.398-0.328 1.141 0 1.989 0.44 2.547 1.32 0.557 0.88 0.836 2.211 0.836 3.992 0 1.844-0.298 3.238-0.895 4.184-0.597 0.944-1.468 1.417-2.613 1.417zm-1.813-5.594c0 1.698 0.157 2.944 0.473 3.738 0.315 0.794 0.803 1.191 1.465 1.191 0.63 0 1.098-0.374 1.402-1.121s0.457-1.905 0.457-3.473c0-1.198-0.078-2.168-0.234-2.91s-0.374-1.274-0.652-1.598c-0.279-0.323-0.616-0.484-1.012-0.484-0.359 0-0.66 0.106-0.902 0.32s-0.438 0.521-0.586 0.922-0.254 0.89-0.316 1.465-0.095 1.226-0.095 1.95z"/>

	<path d="m202.58 244.96c0.27-0.328 0.539-0.669 0.809-1.023s0.598-0.805 0.984-1.35l3.938-5.59c-6e-3 -0.598-0.032-1.099-0.079-1.503s-0.111-0.726-0.193-0.962c-0.082-0.238-0.19-0.412-0.325-0.523s-0.319-0.167-0.554-0.167c-0.193 0-0.39 0.056-0.589 0.167s-0.489 0.34-0.87 0.686l-0.457-0.51c0.539-0.533 0.986-0.895 1.34-1.086 0.354-0.189 0.708-0.285 1.059-0.285 0.451 0 0.797 0.105 1.037 0.316s0.41 0.544 0.51 0.998 0.149 1.117 0.149 1.99c0 0.287-6e-3 0.703-0.018 1.248l-0.035 1.389c-0.047 1.318-0.07 2.355-0.07 3.111 0 0.609 0.013 1.086 0.04 1.428 0.026 0.344 0.069 0.603 0.127 0.778s0.132 0.294 0.22 0.356c0.088 0.061 0.196 0.092 0.325 0.092 0.152 0 0.315-0.051 0.488-0.154 0.173-0.102 0.385-0.288 0.637-0.558l0.492 0.492c-0.381 0.387-0.757 0.688-1.129 0.905s-0.702 0.325-0.989 0.325c-0.334 0-0.589-0.067-0.765-0.202s-0.303-0.357-0.382-0.668-0.119-0.768-0.119-1.371c0-0.832 0.062-2.194 0.185-4.087h-0.088c-1.758 2.578-3.085 4.641-3.981 6.188h-1.784z"/>
	<path d="m219.72 232.81-6.346 16.356h-1.379l6.363-16.356z"/>
	<path d="m229.23 245.39h-3.463v-0.431c0.229-0.07 0.393-0.132 0.492-0.185s0.183-0.126 0.25-0.22 0.12-0.238 0.158-0.436c0.038-0.195 0.057-0.493 0.057-0.892v-2.303c0-0.41-0.012-0.782-0.035-1.116s-0.063-0.607-0.119-0.822c-0.056-0.213-0.123-0.38-0.202-0.5s-0.173-0.223-0.281-0.309c-0.108-0.084-0.233-0.151-0.374-0.201s-0.325-0.075-0.554-0.075-0.445 0.046-0.65 0.136c-0.205 0.092-0.431 0.248-0.677 0.471s-0.425 0.442-0.536 0.659-0.167 0.466-0.167 0.747v3.278c0 0.504 0.023 0.854 0.07 1.05 0.047 0.197 0.136 0.347 0.268 0.449s0.347 0.191 0.646 0.268v0.431h-3.445v-0.431c0.229-0.07 0.391-0.132 0.488-0.185s0.179-0.126 0.246-0.22 0.12-0.237 0.158-0.431 0.057-0.495 0.057-0.905v-3.832c0-0.375-6e-3 -0.677-0.018-0.905s-0.053-0.411-0.123-0.55c-0.07-0.137-0.177-0.239-0.321-0.307s-0.347-0.125-0.611-0.172v-0.466l2.057-0.079h0.536l-0.097 1.433 0.123 0.035c0.434-0.439 0.784-0.753 1.05-0.94s0.536-0.332 0.809-0.436c0.272-0.102 0.561-0.153 0.866-0.153 0.316 0 0.599 0.037 0.848 0.11s0.469 0.186 0.659 0.338 0.347 0.342 0.47 0.566c0.123 0.227 0.215 0.497 0.277 0.813s0.092 0.718 0.092 1.204v3.313c0 0.404 0.012 0.697 0.035 0.879s0.064 0.322 0.123 0.422 0.144 0.184 0.255 0.251 0.305 0.139 0.58 0.215v0.434z"/>
	<path d="m233.23 238.34 0.123 0.035c0.352-0.352 0.64-0.616 0.866-0.796 0.226-0.178 0.444-0.321 0.655-0.43s0.409-0.187 0.593-0.233 0.374-0.07 0.567-0.07c0.586 0 1.063 0.135 1.433 0.404s0.624 0.683 0.765 1.239c0.439-0.445 0.795-0.773 1.068-0.984s0.551-0.373 0.835-0.488c0.284-0.113 0.59-0.171 0.918-0.171 0.393 0 0.731 0.058 1.015 0.171 0.284 0.115 0.524 0.291 0.721 0.527 0.196 0.238 0.34 0.535 0.431 0.893s0.136 0.838 0.136 1.441v3.313c0 0.445 0.015 0.753 0.044 0.923s0.072 0.302 0.127 0.396 0.139 0.175 0.25 0.241c0.111 0.068 0.299 0.137 0.563 0.207v0.431h-3.454v-0.431c0.229-0.07 0.393-0.132 0.492-0.185s0.183-0.126 0.25-0.22 0.12-0.238 0.158-0.436c0.038-0.195 0.057-0.493 0.057-0.892v-2.303c0-0.498-0.013-0.909-0.04-1.235-0.026-0.324-0.067-0.584-0.123-0.777s-0.123-0.346-0.202-0.457-0.168-0.208-0.268-0.29-0.217-0.146-0.352-0.193-0.313-0.07-0.536-0.07c-0.234 0-0.453 0.047-0.655 0.141s-0.422 0.252-0.659 0.475-0.409 0.447-0.514 0.673-0.158 0.49-0.158 0.795v3.208c0 0.445 0.015 0.753 0.044 0.923s0.072 0.302 0.127 0.396 0.139 0.175 0.25 0.241c0.111 0.068 0.299 0.137 0.563 0.207v0.431h-3.454v-0.431c0.229-0.07 0.393-0.132 0.492-0.185s0.183-0.126 0.25-0.22 0.12-0.238 0.158-0.436c0.038-0.195 0.057-0.493 0.057-0.892v-2.303c0-0.521-0.015-0.946-0.044-1.274s-0.075-0.592-0.136-0.791-0.141-0.36-0.237-0.483-0.195-0.217-0.294-0.281-0.217-0.112-0.352-0.146c-0.135-0.031-0.287-0.048-0.457-0.048-0.24 0-0.466 0.055-0.677 0.163s-0.426 0.265-0.646 0.47-0.385 0.419-0.497 0.642-0.167 0.463-0.167 0.721v3.296c0 0.334 9e-3 0.589 0.026 0.765s0.045 0.313 0.083 0.413 0.086 0.181 0.145 0.241c0.059 0.063 0.142 0.121 0.25 0.176 0.108 0.057 0.271 0.113 0.488 0.172v0.431h-3.445v-0.431c0.223-0.07 0.382-0.132 0.479-0.185s0.18-0.126 0.25-0.22 0.123-0.237 0.158-0.431 0.053-0.495 0.053-0.905v-3.832c0-0.375-6e-3 -0.677-0.018-0.905s-0.053-0.411-0.123-0.55c-0.07-0.137-0.177-0.239-0.321-0.307s-0.347-0.125-0.611-0.172v-0.466l2.057-0.079h0.536z"/>

	<path d="m267.5 221.53v0.383c-0.802 0-1.513 0.172-2.133 0.516s-1.134 0.849-1.543 1.516-0.697 1.458-0.863 2.375l0.078 0.031c0.438-0.313 0.868-0.542 1.293-0.688 0.424-0.146 0.884-0.219 1.379-0.219 0.588 0 1.09 0.129 1.504 0.387s0.725 0.62 0.934 1.086c0.208 0.466 0.313 1.012 0.313 1.637 0 0.677-0.13 1.274-0.391 1.793s-0.663 0.926-1.207 1.223-1.215 0.445-2.012 0.445c-1.141 0-2.001-0.354-2.582-1.063-0.581-0.708-0.871-1.753-0.871-3.133 0-0.927 0.146-1.794 0.438-2.602s0.706-1.512 1.242-2.113c0.536-0.602 1.159-1.075 1.867-1.422s1.453-0.54 2.234-0.582zm-2.329 4.735c-0.255 0-0.501 0.028-0.738 0.086s-0.46 0.141-0.668 0.25-0.412 0.247-0.609 0.414c-0.063 0.058-0.109 0.117-0.141 0.18-0.052 0.099-0.086 0.222-0.102 0.367s-0.023 0.391-0.023 0.734c0 0.995 0.167 1.753 0.5 2.273 0.333 0.521 0.838 0.781 1.516 0.781 0.391 0 0.719-0.067 0.984-0.203s0.48-0.321 0.645-0.559 0.281-0.516 0.352-0.836 0.105-0.668 0.105-1.043c0-0.771-0.159-1.371-0.477-1.801-0.318-0.428-0.765-0.643-1.344-0.643z"/>
	<path d="m273.58 232.01c-1.125 0-1.962-0.442-2.512-1.328s-0.824-2.229-0.824-4.031c0-0.958 0.084-1.786 0.254-2.484 0.169-0.698 0.406-1.274 0.711-1.73s0.67-0.793 1.098-1.012c0.427-0.219 0.893-0.328 1.398-0.328 1.141 0 1.989 0.44 2.547 1.32 0.557 0.88 0.836 2.211 0.836 3.992 0 1.844-0.298 3.238-0.895 4.184-0.597 0.944-1.468 1.417-2.613 1.417zm-1.813-5.594c0 1.698 0.157 2.944 0.473 3.738 0.315 0.794 0.803 1.191 1.465 1.191 0.63 0 1.098-0.374 1.402-1.121s0.457-1.905 0.457-3.473c0-1.198-0.078-2.168-0.234-2.91s-0.374-1.274-0.652-1.598c-0.279-0.323-0.616-0.484-1.012-0.484-0.359 0-0.66 0.106-0.902 0.32s-0.438 0.521-0.586 0.922-0.254 0.89-0.316 1.465-0.095 1.226-0.095 1.95z"/>
	<path d="m282.44 232.01c-1.125 0-1.962-0.442-2.512-1.328s-0.824-2.229-0.824-4.031c0-0.958 0.084-1.786 0.254-2.484 0.169-0.698 0.406-1.274 0.711-1.73s0.67-0.793 1.098-1.012c0.427-0.219 0.893-0.328 1.398-0.328 1.141 0 1.989 0.44 2.547 1.32 0.557 0.88 0.836 2.211 0.836 3.992 0 1.844-0.298 3.238-0.895 4.184-0.597 0.944-1.468 1.417-2.613 1.417zm-1.813-5.594c0 1.698 0.157 2.944 0.473 3.738 0.315 0.794 0.803 1.191 1.465 1.191 0.63 0 1.098-0.374 1.402-1.121s0.457-1.905 0.457-3.473c0-1.198-0.078-2.168-0.234-2.91s-0.374-1.274-0.652-1.598c-0.279-0.323-0.616-0.484-1.012-0.484-0.359 0-0.66 0.106-0.902 0.32s-0.438 0.521-0.586 0.922-0.254 0.89-0.316 1.465-0.095 1.226-0.095 1.95z"/>

	<path d="m368.4 221.6-4.547 10.344h-1.133v-0.383l4.211-8.914v-0.117h-3.438c-0.214 0-0.384 0.02-0.512 0.059s-0.234 0.095-0.32 0.168-0.157 0.169-0.215 0.289-0.136 0.356-0.234 0.711h-0.672l0.156-2.531h6.703v0.374z"/>
	<path d="m373.58 232.01c-1.125 0-1.962-0.442-2.512-1.328s-0.824-2.229-0.824-4.031c0-0.958 0.085-1.786 0.254-2.484s0.406-1.274 0.711-1.73 0.671-0.793 1.098-1.012 0.894-0.328 1.398-0.328c1.141 0 1.989 0.44 2.547 1.32s0.836 2.211 0.836 3.992c0 1.844-0.298 3.238-0.895 4.184s-1.468 1.417-2.613 1.417zm-1.813-5.594c0 1.698 0.157 2.944 0.473 3.738s0.804 1.191 1.465 1.191c0.63 0 1.098-0.374 1.402-1.121s0.457-1.905 0.457-3.473c0-1.198-0.078-2.168-0.234-2.91s-0.374-1.274-0.652-1.598-0.616-0.484-1.012-0.484c-0.359 0-0.66 0.106-0.902 0.32s-0.438 0.521-0.586 0.922-0.254 0.89-0.316 1.465-0.095 1.226-0.095 1.95z"/>
	<path d="m382.44 232.01c-1.125 0-1.962-0.442-2.512-1.328s-0.824-2.229-0.824-4.031c0-0.958 0.085-1.786 0.254-2.484s0.406-1.274 0.711-1.73 0.671-0.793 1.098-1.012 0.894-0.328 1.398-0.328c1.141 0 1.989 0.44 2.547 1.32s0.836 2.211 0.836 3.992c0 1.844-0.298 3.238-0.895 4.184s-1.468 1.417-2.613 1.417zm-1.813-5.594c0 1.698 0.157 2.944 0.473 3.738s0.804 1.191 1.465 1.191c0.63 0 1.098-0.374 1.402-1.121s0.457-1.905 0.457-3.473c0-1.198-0.078-2.168-0.234-2.91s-0.374-1.274-0.652-1.598-0.616-0.484-1.012-0.484c-0.359 0-0.66 0.106-0.902 0.32s-0.438 0.521-0.586 0.922-0.254 0.89-0.316 1.465-0.095 1.226-0.095 1.95z"/>
<g fill="none" stroke-width="1.75"><line x1="378.33" x2="348.33" y1="17.332" y2="17.332" stroke="#f00"/><line x1="378.33" x2="348.33" y1="38.832" y2="38.832" stroke="#0f0"/><line x1="378.33" x2="348.33" y1="60.332" y2="60.332" stroke="#00f"/></g></g></g></svg>
