<?xml version="1.0" encoding="UTF-8" standalone="no"?>
<svg
   xmlns:dc="http://purl.org/dc/elements/1.1/"
   xmlns:cc="http://creativecommons.org/ns#"
   xmlns:rdf="http://www.w3.org/1999/02/22-rdf-syntax-ns#"
   xmlns:svg="http://www.w3.org/2000/svg"
   xmlns="http://www.w3.org/2000/svg"
   xmlns:sodipodi="http://sodipodi.sourceforge.net/DTD/sodipodi-0.dtd"
   xmlns:inkscape="http://www.inkscape.org/namespaces/inkscape"
   version="1.1"
   viewBox="0 0 1920 1080"
   fill="none"
   stroke="none"
   stroke-linecap="square"
   stroke-miterlimit="10"
   id="svg127"
   sodipodi:docname="Linear_transformation_index.svg"
   width="1920"
   height="1080"
   inkscape:version="1.0.1 (3bc2e813f5, 2020-09-07)">
  <metadata
     id="metadata133">
    <rdf:RDF>
      <cc:Work
         rdf:about="">
        <dc:format>image/svg+xml</dc:format>
        <dc:type
           rdf:resource="http://purl.org/dc/dcmitype/StillImage" />
        <dc:title />
      </cc:Work>
    </rdf:RDF>
  </metadata>
  <defs
     id="defs131" />
  <sodipodi:namedview
     pagecolor="#ffffff"
     bordercolor="#666666"
     borderopacity="1"
     objecttolerance="10"
     gridtolerance="10"
     guidetolerance="10"
     inkscape:pageopacity="0"
     inkscape:pageshadow="2"
     inkscape:window-width="1920"
     inkscape:window-height="1001"
     id="namedview129"
     showgrid="false"
     inkscape:zoom="0.40756849"
     inkscape:cx="805.62976"
     inkscape:cy="700.2973"
     inkscape:window-x="-9"
     inkscape:window-y="-9"
     inkscape:window-maximized="1"
     inkscape:current-layer="svg127"
     inkscape:document-rotation="0" />
  <clipPath
     id="p.0">
    <path
       d="M 0,0 H 960 V 720 H 0 Z"
       clip-rule="nonzero"
       id="path2" />
  </clipPath>
  <g
     clip-path="url(#p.0)"
     id="g125"
     transform="matrix(1.650879,0,0,1.4985679,167.043,17.028)">
    <path
       fill="#000000"
       fill-opacity="0"
       d="M 0,0 H 960 V 720 H 0 Z"
       fill-rule="nonzero"
       id="path5" />
    <path
       fill="#cfe2f3"
       d="m 90,108.21843 v 0 c 0,-15.968742 12.94522,-28.91397 28.91396,-28.91397 h 196.53427 c 7.66846,0 15.02283,3.046288 20.44525,8.468704 5.42243,5.422424 8.46872,12.776806 8.46872,20.445266 v 115.65239 c 0,15.96874 -12.94522,28.91396 -28.91397,28.91396 H 118.91396 C 102.94522,252.78478 90,239.83956 90,223.87082 Z"
       fill-rule="nonzero"
       id="path7" />
    <path
       stroke="#000000"
       stroke-width="2"
       stroke-linejoin="round"
       stroke-linecap="butt"
       d="m 90,108.21843 v 0 c 0,-15.968742 12.94522,-28.91397 28.91396,-28.91397 h 196.53427 c 7.66846,0 15.02283,3.046288 20.44525,8.468704 5.42243,5.422424 8.46872,12.776806 8.46872,20.445266 v 115.65239 c 0,15.96874 -12.94522,28.91396 -28.91397,28.91396 H 118.91396 C 102.94522,252.78478 90,239.83956 90,223.87082 Z"
       fill-rule="nonzero"
       id="path9" />
    <path
       fill="#cfe2f3"
       d="m 598.0866,108.21843 v 0 c 0,-15.968742 12.94525,-28.91397 28.91394,-28.91397 h 196.5343 c 7.66846,0 15.02283,3.046288 20.44525,8.468704 5.42243,5.422424 8.46869,12.776806 8.46869,20.445266 v 115.65239 c 0,15.96874 -12.94519,28.91396 -28.91394,28.91396 h -196.5343 c -15.96869,0 -28.91394,-12.94522 -28.91394,-28.91396 z"
       fill-rule="nonzero"
       id="path11" />
    <path
       stroke="#000000"
       stroke-width="2"
       stroke-linejoin="round"
       stroke-linecap="butt"
       d="m 598.0866,108.21843 v 0 c 0,-15.968742 12.94525,-28.91397 28.91394,-28.91397 h 196.5343 c 7.66846,0 15.02283,3.046288 20.44525,8.468704 5.42243,5.422424 8.46869,12.776806 8.46869,20.445266 v 115.65239 c 0,15.96874 -12.94519,28.91396 -28.91394,28.91396 h -196.5343 c -15.96869,0 -28.91394,-12.94522 -28.91394,-28.91396 z"
       fill-rule="nonzero"
       id="path13" />
    <path
       fill="#000000"
       fill-opacity="0"
       d="M 660.7008,101.47769 H 789.83465 V 230.61154 H 660.7008 Z"
       fill-rule="nonzero"
       id="path15" />
    <path
       fill="#000000"
       d="m 689.4439,174.10837 h -6.875 v -28.01563 h 6.875 v 1.23438 h -4.53125 v 25.5625 h 4.53125 z"
       fill-rule="nonzero"
       id="path17" />
    <path
       fill="#000000"
       d="m 695.28766,146.57712 h 16.09375 l -1.73438,5.625 h -0.59375 q 0.29688,-1.23438 0.29688,-2.20313 0,-1.14062 -0.70313,-1.71875 -0.53125,-0.4375 -2.73437,-0.4375 h -1.67188 l -4.1875,14.59375 q -0.79687,2.75 -0.79687,3.39063 0,0.59375 0.5,0.98437 0.5,0.375 1.76562,0.375 h 0.71875 l -0.1875,0.57813 h -9.21875 l 0.17188,-0.57813 h 0.40625 q 1.21875,0 1.875,-0.39062 0.45312,-0.26563 0.8125,-0.95313 0.375,-0.70312 1.03125,-2.95312 l 4.39062,-15.04688 h -1.26562 q -1.82813,0 -2.95313,0.46875 -1.10937,0.46875 -1.79687,1.35938 -0.6875,0.89062 -1.125,2.53125 h -0.57813 z"
       fill-rule="nonzero"
       id="path19" />
    <path
       fill="#000000"
       d="m 718.33453,174.03024 v 0.57812 q -2.35938,-1.1875 -3.9375,-2.78125 -2.25,-2.26562 -3.46875,-5.34375 -1.21875,-3.07812 -1.21875,-6.39062 0,-4.84375 2.39062,-8.82813 2.39063,-4 6.23438,-5.71875 v 0.65625 q -1.92188,1.0625 -3.15625,2.90625 -1.23438,1.84375 -1.84375,4.67188 -0.60938,2.82812 -0.60938,5.90625 0,3.34375 0.51563,6.07812 0.40625,2.15625 0.98437,3.45313 0.57813,1.3125 1.54688,2.51562 0.98437,1.20313 2.5625,2.29688 z"
       fill-rule="nonzero"
       id="path21" />
    <path
       fill="#000000"
       d="m 734.5689,153.01462 v 0.76562 q -0.73438,0.0625 -1.09375,0.39063 -0.34375,0.3125 -0.76563,1.375 l -5.10937,12.67187 h -0.82813 l -3.84375,-9.48437 q -0.35937,-0.92188 -1.1875,-2.6875 -0.82812,-1.78125 -0.89062,-1.78125 -0.26563,-0.35938 -1.125,-0.48438 v -0.76562 h 8 v 0.76562 q -0.51563,0.0625 -0.57813,0.0625 -1.125,0.0937 -1.125,0.76563 0,0.23437 0.29688,1 l 2.53125,6.5 2.29687,-5.82813 q 0.35938,-0.90625 0.35938,-1.4375 0,-0.57812 -0.375,-0.78125 -0.35938,-0.21875 -1.39063,-0.28125 v -0.76562 z"
       fill-rule="nonzero"
       id="path23" />
    <path
       fill="#000000"
       d="m 735.7721,146.20212 v -0.65625 q 2.375,1.17187 3.95313,2.76562 2.23437,2.28125 3.45312,5.35938 1.21875,3.0625 1.21875,6.39062 0,4.84375 -2.39062,8.82813 -2.375,4 -6.23438,5.71875 v -0.57813 q 1.92188,-1.07812 3.15625,-2.92187 1.25,-1.82813 1.84375,-4.65625 0.60938,-2.84375 0.60938,-5.92188 0,-3.32812 -0.51563,-6.07812 -0.39062,-2.15625 -0.98437,-3.45313 -0.57813,-1.29687 -1.54688,-2.5 -0.96875,-1.20312 -2.5625,-2.29687 z m 11.10938,-0.10938 h 6.875 v 28.03125 h -6.875 v -1.23437 h 4.53125 v -25.5625 h -4.53125 z"
       fill-rule="nonzero"
       id="path25" />
    <path
       fill="#000000"
       d="m 766.069,172.67087 q 1.4375,0.3125 2.15625,0.98437 1,0.9375 1,2.3125 0,1.03125 -0.65625,1.98438 -0.65625,0.9375 -1.79688,1.375 -1.14062,0.4375 -3.5,0.4375 h -6.5625 v -0.375 h 0.53125 q 0.875,0 1.25,-0.5625 0.23438,-0.35938 0.23438,-1.53125 v -8.96875 q 0,-1.29688 -0.29688,-1.64063 -0.40625,-0.45312 -1.1875,-0.45312 h -0.53125 v -0.375 h 6.01563 q 1.6875,0 2.6875,0.25 1.54687,0.35937 2.35937,1.3125 0.8125,0.9375 0.8125,2.15625 0,1.04687 -0.64062,1.875 -0.64063,0.8125 -1.875,1.21875 z m -5.375,-0.5625 q 0.375,0.0781 0.85937,0.125 0.5,0.0312 1.07813,0.0312 1.5,0 2.25,-0.32813 0.75,-0.32812 1.14062,-0.98437 0.40625,-0.67188 0.40625,-1.46875 0,-1.21875 -1,-2.07813 -0.98437,-0.85937 -2.89062,-0.85937 -1.03125,0 -1.84375,0.23437 z m 0,6.65625 q 1.1875,0.26562 2.34375,0.26562 1.85937,0 2.82812,-0.82812 0.98438,-0.84375 0.98438,-2.0625 0,-0.8125 -0.45313,-1.5625 -0.4375,-0.75 -1.4375,-1.17188 -0.98437,-0.4375 -2.45312,-0.4375 -0.64063,0 -1.09375,0.0312 -0.4375,0.0156 -0.71875,0.0625 z"
       fill-rule="nonzero"
       id="path27" />
    <path
       fill="#cfe2f3"
       d="m 598.0866,503.6961 v 0 c 0,-15.96872 12.94525,-28.91394 28.91394,-28.91394 h 196.5343 c 7.66846,0 15.02283,3.04626 20.44525,8.46869 5.42243,5.42242 8.46869,12.77679 8.46869,20.44525 v 115.6524 c 0,15.96875 -12.94519,28.91394 -28.91394,28.91394 h -196.5343 c -15.96869,0 -28.91394,-12.94519 -28.91394,-28.91394 z"
       fill-rule="nonzero"
       id="path29" />
    <path
       stroke="#000000"
       stroke-width="2"
       stroke-linejoin="round"
       stroke-linecap="butt"
       d="m 598.0866,503.6961 v 0 c 0,-15.96872 12.94525,-28.91394 28.91394,-28.91394 h 196.5343 c 7.66846,0 15.02283,3.04626 20.44525,8.46869 5.42243,5.42242 8.46869,12.77679 8.46869,20.44525 v 115.6524 c 0,15.96875 -12.94519,28.91394 -28.91394,28.91394 h -196.5343 c -15.96869,0 -28.91394,-12.94519 -28.91394,-28.91394 z"
       fill-rule="nonzero"
       id="path31" />
    <path
       fill="#000000"
       fill-opacity="0"
       d="M 660.7008,496.95538 H 789.83465 V 626.08923 H 660.7008 Z"
       fill-rule="nonzero"
       id="path33" />
    <path
       fill="#000000"
       d="m 687.11115,569.58606 h -6.875 v -28.01563 h 6.875 v 1.23438 h -4.53125 v 25.5625 h 4.53125 z"
       fill-rule="nonzero"
       id="path35" />
    <path
       fill="#000000"
       d="m 692.9549,542.0548 h 16.09375 l -1.73438,5.625 h -0.59375 q 0.29688,-1.23438 0.29688,-2.20313 0,-1.14062 -0.70313,-1.71875 -0.53125,-0.4375 -2.73437,-0.4375 h -1.67188 l -4.1875,14.59375 q -0.79687,2.75 -0.79687,3.39063 0,0.59375 0.5,0.98437 0.5,0.375 1.76562,0.375 h 0.71875 l -0.1875,0.57813 h -9.21875 l 0.17188,-0.57813 h 0.40625 q 1.21875,0 1.875,-0.39062 0.45312,-0.26563 0.8125,-0.95313 0.375,-0.70312 1.03125,-2.95312 l 4.39062,-15.04688 h -1.26562 q -1.82813,0 -2.95313,0.46875 -1.10937,0.46875 -1.79687,1.35938 -0.6875,0.89062 -1.125,2.53125 h -0.57813 z"
       fill-rule="nonzero"
       id="path37" />
    <path
       fill="#000000"
       d="m 716.0018,569.50793 v 0.57812 q -2.35938,-1.1875 -3.9375,-2.78125 -2.25,-2.26562 -3.46875,-5.34375 -1.21875,-3.07812 -1.21875,-6.39062 0,-4.84375 2.39062,-8.82813 2.39063,-4 6.23438,-5.71875 v 0.65625 q -1.92188,1.0625 -3.15625,2.90625 -1.23438,1.84375 -1.84375,4.67188 -0.60938,2.82812 -0.60938,5.90625 0,3.34375 0.51563,6.07812 0.40625,2.15625 0.98437,3.45313 0.57813,1.3125 1.54688,2.51562 0.98437,1.20313 2.5625,2.29688 z"
       fill-rule="nonzero"
       id="path39" />
    <path
       fill="#000000"
       d="m 732.23615,548.4923 v 0.76562 q -0.73438,0.0625 -1.09375,0.39063 -0.34375,0.3125 -0.76563,1.375 l -5.10937,12.67187 h -0.82813 l -3.84375,-9.48437 q -0.35937,-0.92188 -1.1875,-2.6875 -0.82812,-1.78125 -0.89062,-1.78125 -0.26563,-0.35938 -1.125,-0.48438 v -0.76562 h 8 v 0.76562 q -0.51563,0.0625 -0.57813,0.0625 -1.125,0.0937 -1.125,0.76563 0,0.23437 0.29688,1 l 2.53125,6.5 2.29687,-5.82813 q 0.35938,-0.90625 0.35938,-1.4375 0,-0.57812 -0.375,-0.78125 -0.35938,-0.21875 -1.39063,-0.28125 v -0.76562 z"
       fill-rule="nonzero"
       id="path41" />
    <path
       fill="#000000"
       d="m 733.43933,541.6798 v -0.65625 q 2.375,1.17187 3.95313,2.76562 2.23437,2.28125 3.45312,5.35938 1.21875,3.0625 1.21875,6.39062 0,4.84375 -2.39062,8.82813 -2.375,4 -6.23438,5.71875 v -0.57813 q 1.92188,-1.07812 3.15625,-2.92187 1.25,-1.82813 1.84375,-4.65625 0.60938,-2.84375 0.60938,-5.92188 0,-3.32812 -0.51563,-6.07812 -0.39062,-2.15625 -0.98437,-3.45313 -0.57813,-1.29687 -1.54688,-2.5 -0.96875,-1.20312 -2.5625,-2.29687 z m 11.10938,-0.10938 h 6.875 v 28.03125 h -6.875 v -1.23437 h 4.53125 v -25.5625 h -4.53125 z"
       fill-rule="nonzero"
       id="path43" />
    <path
       fill="#000000"
       d="m 763.7362,568.14856 q 1.4375,0.3125 2.15625,0.98437 1,0.9375 1,2.3125 0,1.03125 -0.65625,1.98438 -0.65625,0.9375 -1.79687,1.375 -1.14063,0.4375 -3.5,0.4375 h -6.5625 v -0.375 h 0.53125 q 0.875,0 1.25,-0.5625 0.23437,-0.35938 0.23437,-1.53125 v -8.96875 q 0,-1.29688 -0.29687,-1.64063 -0.40625,-0.45312 -1.1875,-0.45312 h -0.53125 v -0.375 h 6.01562 q 1.6875,0 2.6875,0.25 1.54688,0.35937 2.35938,1.3125 0.8125,0.9375 0.8125,2.15625 0,1.04687 -0.64063,1.875 -0.64062,0.8125 -1.875,1.21875 z m -5.375,-0.5625 q 0.375,0.0781 0.85938,0.125 0.5,0.0312 1.07812,0.0312 1.5,0 2.25,-0.32813 0.75,-0.32812 1.14063,-0.98437 0.40625,-0.67188 0.40625,-1.46875 0,-1.21875 -1,-2.07813 -0.98438,-0.85937 -2.89063,-0.85937 -1.03125,0 -1.84375,0.23437 z m 0,6.65625 q 1.1875,0.26562 2.34375,0.26562 1.85938,0 2.82813,-0.82812 0.98437,-0.84375 0.98437,-2.0625 0,-0.8125 -0.45312,-1.5625 -0.4375,-0.75 -1.4375,-1.17188 -0.98438,-0.4375 -2.45313,-0.4375 -0.64062,0 -1.09375,0.0312 -0.4375,0.0156 -0.71875,0.0625 z m 11.30377,-7.23438 0.3125,-3.03125 q 0.14063,-1.3125 0.26563,-1.75 0.20312,-0.64062 0.54687,-0.92187 0.35938,-0.28125 0.79688,-0.28125 0.375,0 0.57812,0.20312 0.21875,0.20313 0.21875,0.51563 0,0.23437 -0.0937,0.51562 -0.14062,0.40625 -0.76562,1.71875 l -1.40625,3.03125 z"
       fill-rule="nonzero"
       id="path45" />
    <path
       fill="#cfe2f3"
       d="m 90,503.69348 v 0 c 0,-15.96872 12.94522,-28.91394 28.91396,-28.91394 h 196.53427 c 7.66846,0 15.02283,3.04626 20.44525,8.46869 5.42243,5.42242 8.46872,12.77679 8.46872,20.44525 v 115.6524 c 0,15.96875 -12.94522,28.91394 -28.91397,28.91394 H 118.91396 C 102.94522,648.25982 90,635.31463 90,619.34588 Z"
       fill-rule="nonzero"
       id="path47" />
    <path
       stroke="#000000"
       stroke-width="2"
       stroke-linejoin="round"
       stroke-linecap="butt"
       d="m 90,503.69348 v 0 c 0,-15.96872 12.94522,-28.91394 28.91396,-28.91394 h 196.53427 c 7.66846,0 15.02283,3.04626 20.44525,8.46869 5.42243,5.42242 8.46872,12.77679 8.46872,20.44525 v 115.6524 c 0,15.96875 -12.94522,28.91394 -28.91397,28.91394 H 118.91396 C 102.94522,648.25982 90,635.31463 90,619.34588 Z"
       fill-rule="nonzero"
       id="path49" />
    <path
       fill="#000000"
       fill-opacity="0"
       d="M 152.61417,496.95276 H 281.74802 V 626.08661 H 152.61417 Z"
       fill-rule="nonzero"
       id="path51" />
    <path
       fill="#000000"
       d="m 198.57922,569.58344 h -6.875 v -28.01563 h 6.875 v 1.23438 h -4.53125 v 25.5625 h 4.53125 z"
       fill-rule="nonzero"
       id="path53" />
    <path
       fill="#000000"
       d="m 215.2511,548.4897 v 0.76562 q -0.73438,0.0625 -1.09375,0.39063 -0.34375,0.3125 -0.76563,1.375 l -5.10937,12.67187 h -0.82813 l -3.84375,-9.48437 q -0.35937,-0.92188 -1.1875,-2.6875 -0.82812,-1.78125 -0.89062,-1.78125 -0.26563,-0.35938 -1.125,-0.48438 v -0.76562 h 8 v 0.76562 q -0.51563,0.0625 -0.57813,0.0625 -1.125,0.0937 -1.125,0.76563 0,0.23437 0.29688,1 l 2.53125,6.5 2.29687,-5.82813 q 0.35938,-0.90625 0.35938,-1.4375 0,-0.57812 -0.375,-0.78125 -0.35938,-0.21875 -1.39063,-0.28125 v -0.76562 z"
       fill-rule="nonzero"
       id="path55" />
    <path
       fill="#000000"
       d="m 216.90738,541.5678 h 6.875 v 28.03125 h -6.875 v -1.23437 h 4.53125 v -25.5625 h -4.53125 z"
       fill-rule="nonzero"
       id="path57" />
    <path
       fill="#000000"
       d="m 236.09488,568.14594 q 1.4375,0.3125 2.15625,0.98437 1,0.9375 1,2.3125 0,1.03125 -0.65625,1.98438 -0.65625,0.9375 -1.79688,1.375 -1.14062,0.4375 -3.5,0.4375 h -6.5625 v -0.375 h 0.53125 q 0.875,0 1.25,-0.5625 0.23438,-0.35938 0.23438,-1.53125 v -8.96875 q 0,-1.29688 -0.29688,-1.64063 -0.40625,-0.45312 -1.1875,-0.45312 h -0.53125 v -0.375 h 6.01563 q 1.6875,0 2.6875,0.25 1.54687,0.35937 2.35937,1.3125 0.8125,0.9375 0.8125,2.15625 0,1.04687 -0.64062,1.875 -0.64063,0.8125 -1.875,1.21875 z m -5.375,-0.5625 q 0.375,0.0781 0.85937,0.125 0.5,0.0312 1.07813,0.0312 1.5,0 2.25,-0.32813 0.75,-0.32812 1.14062,-0.98437 0.40625,-0.67188 0.40625,-1.46875 0,-1.21875 -1,-2.07813 -0.98437,-0.85937 -2.89062,-0.85937 -1.03125,0 -1.84375,0.23437 z m 0,6.65625 q 1.1875,0.26562 2.34375,0.26562 1.85937,0 2.82812,-0.82812 0.98438,-0.84375 0.98438,-2.0625 0,-0.8125 -0.45313,-1.5625 -0.4375,-0.75 -1.4375,-1.17188 -0.98437,-0.4375 -2.45312,-0.4375 -0.64063,0 -1.09375,0.0312 -0.4375,0.0156 -0.71875,0.0625 z m 11.30382,-7.23438 0.3125,-3.03125 q 0.14062,-1.3125 0.26562,-1.75 0.20313,-0.64062 0.54688,-0.92187 0.35937,-0.28125 0.79687,-0.28125 0.375,0 0.57813,0.20312 0.21875,0.20313 0.21875,0.51563 0,0.23437 -0.0937,0.51562 -0.14063,0.40625 -0.76563,1.71875 l -1.40625,3.03125 z"
       fill-rule="nonzero"
       id="path59" />
    <path
       fill="#cfe2f3"
       d="m 152.61417,336.33334 64.56694,-64.56692 64.56691,64.56692 H 249.46457 V 455.79791 H 184.89765 V 336.33334 Z"
       fill-rule="nonzero"
       id="path61" />
    <path
       stroke="#000000"
       stroke-width="2"
       stroke-linejoin="round"
       stroke-linecap="butt"
       d="m 152.61417,336.33334 64.56694,-64.56692 64.56691,64.56692 H 249.46457 V 455.79791 H 184.89765 V 336.33334 Z"
       fill-rule="nonzero"
       id="path63" />
    <path
       fill="#cfe2f3"
       d="m 660.7008,387.44882 64.56689,64.56693 64.56696,-64.56693 H 757.5512 V 267.98425 h -64.56695 v 119.46457 z"
       fill-rule="nonzero"
       id="path65" />
    <path
       stroke="#000000"
       stroke-width="2"
       stroke-linejoin="round"
       stroke-linecap="butt"
       d="m 660.7008,387.44882 64.56689,64.56693 64.56696,-64.56693 H 757.5512 V 267.98425 h -64.56695 v 119.46457 z"
       fill-rule="nonzero"
       id="path67" />
    <path
       fill="#cfe2f3"
       d="m 507.44882,101.47769 64.56693,64.56692 -64.56693,64.56693 V 198.32808 H 387.98425 v -64.56693 h 119.46457 z"
       fill-rule="nonzero"
       id="path69" />
    <path
       stroke="#000000"
       stroke-width="2"
       stroke-linejoin="round"
       stroke-linecap="butt"
       d="m 507.44882,101.47769 64.56693,64.56692 -64.56693,64.56693 V 198.32808 H 387.98425 v -64.56693 h 119.46457 z"
       fill-rule="nonzero"
       id="path71" />
    <path
       fill="#cfe2f3"
       d="m 507.44882,626.08923 64.56693,-64.5669 -64.56693,-64.56695 v 32.28345 H 387.98425 v 64.56695 h 119.46457 z"
       fill-rule="nonzero"
       id="path73" />
    <path
       stroke="#000000"
       stroke-width="2"
       stroke-linejoin="round"
       stroke-linecap="butt"
       d="m 507.44882,626.08923 64.56693,-64.5669 -64.56693,-64.56695 v 32.28345 H 387.98425 v 64.56695 h 119.46457 z"
       fill-rule="nonzero"
       id="path75" />
    <path
       fill="#000000"
       fill-opacity="0"
       d="M 152.61417,101.47769 H 281.74802 V 230.61154 H 152.61417 Z"
       fill-rule="nonzero"
       id="path77" />
    <path
       fill="#000000"
       d="m 200.91199,174.10837 h -6.875 v -28.01563 h 6.875 v 1.23438 h -4.53125 v 25.5625 h 4.53125 z"
       fill-rule="nonzero"
       id="path79" />
    <path
       fill="#000000"
       d="m 217.58386,153.01462 v 0.76562 q -0.73438,0.0625 -1.09375,0.39063 -0.34375,0.3125 -0.76563,1.375 l -5.10937,12.67187 h -0.82813 l -3.84375,-9.48437 q -0.35937,-0.92188 -1.1875,-2.6875 -0.82812,-1.78125 -0.89062,-1.78125 -0.26563,-0.35938 -1.125,-0.48438 v -0.76562 h 8 v 0.76562 q -0.51563,0.0625 -0.57813,0.0625 -1.125,0.0937 -1.125,0.76563 0,0.23437 0.29688,1 l 2.53125,6.5 2.29687,-5.82813 q 0.35938,-0.90625 0.35938,-1.4375 0,-0.57812 -0.375,-0.78125 -0.35938,-0.21875 -1.39063,-0.28125 v -0.76562 z"
       fill-rule="nonzero"
       id="path81" />
    <path
       fill="#000000"
       d="m 219.24014,146.09274 h 6.875 v 28.03125 h -6.875 v -1.23438 h 4.53125 v -25.5625 h -4.53125 z"
       fill-rule="nonzero"
       id="path83" />
    <path
       fill="#000000"
       d="m 238.42764,172.67087 q 1.4375,0.3125 2.15625,0.98437 1,0.9375 1,2.3125 0,1.03125 -0.65625,1.98438 -0.65625,0.9375 -1.79688,1.375 -1.14062,0.4375 -3.5,0.4375 h -6.5625 v -0.375 h 0.53125 q 0.875,0 1.25,-0.5625 0.23438,-0.35938 0.23438,-1.53125 v -8.96875 q 0,-1.29688 -0.29688,-1.64063 -0.40625,-0.45312 -1.1875,-0.45312 h -0.53125 v -0.375 h 6.01563 q 1.6875,0 2.6875,0.25 1.54687,0.35937 2.35937,1.3125 0.8125,0.9375 0.8125,2.15625 0,1.04687 -0.64062,1.875 -0.64063,0.8125 -1.875,1.21875 z m -5.375,-0.5625 q 0.375,0.0781 0.85937,0.125 0.5,0.0312 1.07813,0.0312 1.5,0 2.25,-0.32813 0.75,-0.32812 1.14062,-0.98437 0.40625,-0.67188 0.40625,-1.46875 0,-1.21875 -1,-2.07813 -0.98437,-0.85937 -2.89062,-0.85937 -1.03125,0 -1.84375,0.23437 z m 0,6.65625 q 1.1875,0.26562 2.34375,0.26562 1.85937,0 2.82812,-0.82812 0.98438,-0.84375 0.98438,-2.0625 0,-0.8125 -0.45313,-1.5625 -0.4375,-0.75 -1.4375,-1.17188 -0.98437,-0.4375 -2.45312,-0.4375 -0.64063,0 -1.09375,0.0312 -0.4375,0.0156 -0.71875,0.0625 z"
       fill-rule="nonzero"
       id="path85" />
    <path
       fill="#000000"
       fill-opacity="0"
       d="m 440.57874,139.30446 h 61.29135 v 53.48032 h -61.29135 z"
       fill-rule="nonzero"
       id="path87" />
    <path
       fill="#000000"
       d="m 474.31033,170.67087 h -8.20312 l -1.4375,3.34375 q -0.53125,1.23437 -0.53125,1.84375 0,0.48437 0.45312,0.85937 0.46875,0.35938 2,0.46875 v 0.57813 h -6.67187 v -0.57813 q 1.32812,-0.23437 1.71875,-0.60937 0.79687,-0.75 1.76562,-3.04688 l 7.45313,-17.4375 h 0.54687 l 7.375,17.625 q 0.89063,2.125 1.60938,2.76563 0.73437,0.625 2.03125,0.70312 v 0.57813 h -8.35938 v -0.57813 q 1.26563,-0.0625 1.70313,-0.42187 0.45312,-0.35938 0.45312,-0.875 0,-0.6875 -0.625,-2.17188 z m -0.4375,-1.15625 -3.59375,-8.5625 -3.6875,8.5625 z"
       fill-rule="nonzero"
       id="path89" />
    <path
       fill="#000000"
       fill-opacity="0"
       d="m 186.53543,337.0433 h 61.29134 v 53.48032 h -61.29134 z"
       fill-rule="nonzero"
       id="path91" />
    <path
       fill="#000000"
       d="m 214.84517,365.58157 v 6.17187 q 0,2 0.4375,2.48438 0.59375,0.6875 1.79687,0.6875 h 0.8125 v 0.57812 h -9.07812 v -0.57812 h 0.79687 q 1.34375,0 1.92188,-0.875 0.3125,-0.48438 0.3125,-2.29688 v -13.6875 q 0,-2 -0.42188,-2.48437 -0.60937,-0.6875 -1.8125,-0.6875 h -0.79687 v -0.57813 h 7.76562 q 2.84375,0 4.48438,0.59375 1.64062,0.57813 2.76562,1.96875 1.125,1.39063 1.125,3.29688 0,2.59375 -1.71875,4.21875 -1.70312,1.625 -4.82812,1.625 -0.76563,0 -1.65625,-0.10938 -0.89063,-0.10937 -1.90625,-0.32812 z m 0,-0.89063 q 0.82812,0.15625 1.46875,0.23438 0.64062,0.0781 1.09375,0.0781 1.625,0 2.79687,-1.25 1.1875,-1.26562 1.1875,-3.26562 0,-1.375 -0.5625,-2.54688 -0.5625,-1.1875 -1.59375,-1.76562 -1.03125,-0.59375 -2.34375,-0.59375 -0.79687,0 -2.04687,0.29687 z"
       fill-rule="nonzero"
       id="path93" />
    <path
       fill="#000000"
       fill-opacity="0"
       d="m 440.58005,534.78217 h 61.29135 v 53.48029 h -61.29135 z"
       fill-rule="nonzero"
       id="path95" />
    <path
       fill="#000000"
       d="m 470.81165,566.14856 h -8.20313 l -1.4375,3.34375 q -0.53125,1.23437 -0.53125,1.84375 0,0.48437 0.45313,0.85937 0.46875,0.35938 2,0.46875 v 0.57813 h -6.67188 v -0.57813 q 1.32813,-0.23437 1.71875,-0.60937 0.79688,-0.75 1.76563,-3.04688 l 7.45312,-17.4375 h 0.54688 l 7.375,17.625 q 0.89062,2.125 1.60937,2.76563 0.73438,0.625 2.03125,0.70312 v 0.57813 h -8.35937 v -0.57813 q 1.26562,-0.0625 1.70312,-0.42187 0.45313,-0.35938 0.45313,-0.875 0,-0.6875 -0.625,-2.17188 z m -0.4375,-1.15625 -3.59375,-8.5625 -3.6875,8.5625 z m 11.04687,-4.29688 0.48438,-4.625 q 0.20312,-1.98437 0.40625,-2.67187 0.29687,-0.96875 0.82812,-1.39063 0.54688,-0.4375 1.21875,-0.4375 0.5625,0 0.89063,0.3125 0.32812,0.3125 0.32812,0.79688 0,0.35937 -0.15625,0.78125 -0.20312,0.60937 -1.15625,2.625 l -2.15625,4.60937 z"
       fill-rule="nonzero"
       id="path97" />
    <path
       fill="#000000"
       fill-opacity="0"
       d="m 694.6247,333.25986 h 61.29132 v 53.48029 H 694.6247 Z"
       fill-rule="nonzero"
       id="path99" />
    <path
       fill="#000000"
       d="m 714.05115,361.79813 v 6.17188 q 0,2 0.4375,2.48437 0.59375,0.6875 1.79687,0.6875 h 0.8125 v 0.57813 h -9.07812 v -0.57813 h 0.79687 q 1.34375,0 1.92188,-0.875 0.3125,-0.48437 0.3125,-2.29687 v -13.6875 q 0,-2 -0.42188,-2.48438 -0.60937,-0.6875 -1.8125,-0.6875 h -0.79687 v -0.57812 h 7.76562 q 2.84375,0 4.48438,0.59375 1.64062,0.57812 2.76562,1.96875 1.125,1.39062 1.125,3.29687 0,2.59375 -1.71875,4.21875 -1.70312,1.625 -4.82812,1.625 -0.76563,0 -1.65625,-0.10937 -0.89063,-0.10938 -1.90625,-0.32813 z m 0,-0.89062 q 0.82812,0.15625 1.46875,0.23437 0.64062,0.0781 1.09375,0.0781 1.625,0 2.79687,-1.25 1.1875,-1.26563 1.1875,-3.26563 0,-1.375 -0.5625,-2.54687 -0.5625,-1.1875 -1.59375,-1.76563 -1.03125,-0.59375 -2.34375,-0.59375 -0.79687,0 -2.04687,0.29688 z"
       fill-rule="nonzero"
       id="path101" />
    <path
       fill="#000000"
       d="m 726.1293,354.23563 h 5.3125 v 1.54688 h -5.3125 z m 8.72742,-7.0625 3.375,-1.64062 h 0.34375 v 11.73437 q 0,1.17188 0.0937,1.46875 0.0937,0.28125 0.40625,0.4375 0.3125,0.14063 1.25,0.17188 v 0.375 h -5.23438 v -0.375 q 0.98438,-0.0312 1.26563,-0.17188 0.29687,-0.15625 0.40625,-0.40625 0.10937,-0.25 0.10937,-1.5 v -7.5 q 0,-1.51562 -0.0937,-1.95312 -0.0781,-0.32813 -0.26562,-0.48438 -0.1875,-0.15625 -0.45313,-0.15625 -0.375,0 -1.0625,0.32813 z"
       fill-rule="nonzero"
       id="path103" />
    <path
       fill="#000000"
       fill-opacity="0"
       d="m 434.7047,314.2244 h 73.03937 v 61.29135 H 434.7047 Z"
       fill-rule="nonzero"
       id="path105" />
    <path
       fill="#000000"
       d="m 466.31033,357.07446 1.75,-17.64063 q 0.125,-1.34375 0.125,-1.8125 0,-0.70312 -0.53125,-1.17187 -0.51562,-0.46875 -1.64062,-0.46875 h -0.5625 l 0.15625,-0.57813 h 8.35937 l -0.17187,0.57813 q -1.35938,0.0156 -1.875,0.28125 -0.5,0.26562 -0.79688,0.90625 -0.15625,0.34375 -0.32812,1.95312 l -1.25,12.64063 8.26562,-11.28125 q 1.34375,-1.82813 1.6875,-2.54688 0.23438,-0.48437 0.23438,-0.84375 0,-0.42187 -0.35938,-0.73437 -0.35937,-0.3125 -1.34375,-0.375 l 0.1875,-0.57813 h 6.375 l -0.15625,0.57813 q -0.76562,0.0625 -1.21875,0.29687 -0.85937,0.40625 -1.71875,1.23438 -0.84375,0.82812 -2.6875,3.34375 l -11.9375,16.21875 z"
       fill-rule="nonzero"
       id="path107" />
    <path
       fill="#000000"
       fill-opacity="0"
       d="M 349.27036,53.225723 H 593.17585 V 101.47769 H 349.27036 Z"
       fill-rule="nonzero"
       id="path109" />
    <path
       fill="#000000"
       d="m 422.05905,95.33733 v 0.578125 q -2.35937,-1.1875 -3.9375,-2.78125 -2.25,-2.265625 -3.46875,-5.34375 -1.21875,-3.078125 -1.21875,-6.390625 0,-4.84375 2.39063,-8.828125 2.39062,-4 6.23437,-5.71875 v 0.65625 q -1.92187,1.0625 -3.15625,2.90625 -1.23437,1.84375 -1.84375,4.671875 -0.60937,2.828125 -0.60937,5.90625 0,3.34375 0.51562,6.078125 0.40625,2.15625 0.98438,3.453125 0.57812,1.3125 1.54687,2.515625 0.98438,1.203125 2.5625,2.296875 z m 15.5,-17.078125 q 2.20313,0.46875 3.29688,1.5 1.51562,1.4375 1.51562,3.515625 0,1.578125 -1,3.03125 -1,1.4375 -2.75,2.109375 -1.73437,0.65625 -5.3125,0.65625 h -10 V 88.49358 h 0.79688 q 1.32812,0 1.90625,-0.84375 0.35937,-0.546875 0.35937,-2.328125 v -13.6875 q 0,-1.96875 -0.45312,-2.484375 -0.60938,-0.6875 -1.8125,-0.6875 h -0.79688 v -0.578125 h 9.15625 q 2.5625,0 4.10938,0.375 2.34375,0.5625 3.57812,2 1.23438,1.421875 1.23438,3.28125 0,1.59375 -0.96875,2.859375 -0.96875,1.25 -2.85938,1.859375 z m -8.1875,-0.84375 q 0.57813,0.109375 1.3125,0.171875 0.75,0.04687 1.64063,0.04687 2.28125,0 3.42187,-0.484375 1.15625,-0.5 1.76563,-1.515625 0.60937,-1.015625 0.60937,-2.21875 0,-1.859375 -1.51562,-3.171875 -1.51563,-1.3125 -4.42188,-1.3125 -1.5625,0 -2.8125,0.34375 z m 0,10.125 q 1.8125,0.421875 3.57813,0.421875 2.82812,0 4.3125,-1.265625 1.48437,-1.28125 1.48437,-3.15625 0,-1.234375 -0.67187,-2.375 -0.67188,-1.140625 -2.1875,-1.796875 -1.51563,-0.65625 -3.75,-0.65625 -0.96875,0 -1.65625,0.03125 -0.6875,0.03125 -1.10938,0.109375 z m 23.85938,-0.53125 q -2.20313,1.703125 -2.76563,1.96875 -0.84375,0.390625 -1.79687,0.390625 -1.48438,0 -2.45313,-1.015625 -0.95312,-1.015625 -0.95312,-2.671875 0,-1.046875 0.46875,-1.8125 0.64062,-1.0625 2.21875,-2 1.59375,-0.9375 5.28125,-2.28125 v -0.5625 q 0,-2.140625 -0.6875,-2.9375 -0.67188,-0.796875 -1.96875,-0.796875 -0.98438,0 -1.5625,0.53125 -0.59375,0.53125 -0.59375,1.21875 l 0.0312,0.90625 q 0,0.71875 -0.375,1.109375 -0.35938,0.390625 -0.95313,0.390625 -0.57812,0 -0.95312,-0.40625 -0.35938,-0.40625 -0.35938,-1.109375 0,-1.34375 1.375,-2.46875 1.375,-1.125 3.85938,-1.125 1.90625,0 3.125,0.640625 0.92187,0.484375 1.35937,1.515625 0.28125,0.671875 0.28125,2.75 v 4.859375 q 0,2.046875 0.0781,2.515625 0.0781,0.453125 0.25,0.609375 0.1875,0.15625 0.42187,0.15625 0.25,0 0.4375,-0.109375 0.32813,-0.203125 1.26563,-1.140625 v 0.875 q -1.75,2.34375 -3.34375,2.34375 -0.76563,0 -1.21875,-0.53125 -0.45313,-0.53125 -0.46875,-1.8125 z m 0,-1.015625 v -5.453125 q -2.35938,0.9375 -3.04688,1.328125 -1.23437,0.6875 -1.76562,1.4375 -0.53125,0.75 -0.53125,1.640625 0,1.125 0.67187,1.875 0.67188,0.734375 1.54688,0.734375 1.1875,0 3.125,-1.5625 z m 15.34375,-11.65625 v 4.875 h -0.51563 q -0.59375,-2.296875 -1.53125,-3.125 -0.92187,-0.828125 -2.35937,-0.828125 -1.09375,0 -1.76563,0.578125 -0.67187,0.578125 -0.67187,1.28125 0,0.875 0.5,1.5 0.48437,0.640625 1.96875,1.359375 l 2.28125,1.109375 q 3.17187,1.546875 3.17187,4.078125 0,1.953125 -1.48437,3.15625 -1.46875,1.1875 -3.29688,1.1875 -1.3125,0 -3,-0.46875 -0.51562,-0.15625 -0.84375,-0.15625 -0.35937,0 -0.5625,0.40625 h -0.51562 V 84.18108 h 0.51562 q 0.4375,2.1875 1.67188,3.296875 1.23437,1.109375 2.76562,1.109375 1.07813,0 1.75,-0.625 0.6875,-0.640625 0.6875,-1.53125 0,-1.078125 -0.76562,-1.8125 -0.75,-0.734375 -3.01563,-1.859375 -2.26562,-1.125 -2.96875,-2.03125 -0.70312,-0.890625 -0.70312,-2.25 0,-1.765625 1.20312,-2.953125 1.21875,-1.1875 3.14063,-1.1875 0.84375,0 2.04687,0.359375 0.79688,0.234375 1.0625,0.234375 0.25,0 0.39063,-0.109375 0.14062,-0.109375 0.32812,-0.484375 z m 6.84375,-7.484375 q 0.65625,0 1.10937,0.46875 0.46875,0.453125 0.46875,1.109375 0,0.65625 -0.46875,1.125 -0.45312,0.46875 -1.10937,0.46875 -0.65625,0 -1.125,-0.46875 -0.46875,-0.46875 -0.46875,-1.125 0,-0.65625 0.45312,-1.109375 0.46875,-0.46875 1.14063,-0.46875 z m 1.29687,7.484375 v 11.5 q 0,1.34375 0.1875,1.796875 0.20313,0.4375 0.57813,0.65625 0.39062,0.21875 1.40625,0.21875 v 0.5625 h -6.95313 v -0.5625 q 1.04688,0 1.40625,-0.203125 0.35938,-0.203125 0.5625,-0.671875 0.21875,-0.46875 0.21875,-1.796875 v -5.515625 q 0,-2.328125 -0.14062,-3.015625 -0.10938,-0.5 -0.34375,-0.6875 -0.23438,-0.203125 -0.64063,-0.203125 -0.4375,0 -1.0625,0.234375 l -0.21875,-0.5625 4.3125,-1.75 z m 13.20313,0 v 4.875 h -0.51563 q -0.59375,-2.296875 -1.53125,-3.125 -0.92187,-0.828125 -2.35937,-0.828125 -1.09375,0 -1.76563,0.578125 -0.67187,0.578125 -0.67187,1.28125 0,0.875 0.5,1.5 0.48437,0.640625 1.96875,1.359375 l 2.28125,1.109375 q 3.17187,1.546875 3.17187,4.078125 0,1.953125 -1.48437,3.15625 -1.46875,1.1875 -3.29688,1.1875 -1.3125,0 -3,-0.46875 -0.51562,-0.15625 -0.84375,-0.15625 -0.35937,0 -0.5625,0.40625 h -0.51562 V 84.18108 h 0.51562 q 0.4375,2.1875 1.67188,3.296875 1.23437,1.109375 2.76562,1.109375 1.07813,0 1.75,-0.625 0.6875,-0.640625 0.6875,-1.53125 0,-1.078125 -0.76562,-1.8125 -0.75,-0.734375 -3.01563,-1.859375 -2.26562,-1.125 -2.96875,-2.03125 -0.70312,-0.890625 -0.70312,-2.25 0,-1.765625 1.20312,-2.953125 1.21875,-1.1875 3.14063,-1.1875 0.84375,0 2.04687,0.359375 0.79688,0.234375 1.0625,0.234375 0.25,0 0.39063,-0.109375 0.14062,-0.109375 0.32812,-0.484375 z"
       fill-rule="nonzero"
       id="path111" />
    <path
       fill="#000000"
       d="m 504.85593,68.46233 0.21875,-0.578125 h 7.56247 q 1.90625,0 3.39062,0.59375 1.5,0.59375 2.23438,1.65625 0.75,1.0625 0.75,2.25 0,1.828125 -1.32813,3.3125 -1.3125,1.46875 -4.29687,2.171875 1.92187,0.71875 2.82812,1.90625 0.90625,1.1875 0.90625,2.609375 0,1.578125 -0.8125,3.015625 -0.8125,1.4375 -2.09375,2.234375 -1.26562,0.796875 -3.06247,1.171875 -1.28125,0.265625 -4,0.265625 h -7.76562 l 0.20312,-0.578125 q 1.21875,-0.03125 1.65625,-0.234375 0.625,-0.265625 0.89063,-0.703125 0.375,-0.59375 1,-2.71875 l 3.79687,-12.828125 q 0.48438,-1.625 0.48438,-2.28125 0,-0.578125 -0.4375,-0.90625 -0.42188,-0.34375 -1.625,-0.34375 -0.26563,0 -0.5,-0.01563 z m 3.17187,8.796875 q 1.01563,0.03125 1.46875,0.03125 3.24997,0 4.8281,-1.40625 1.59375,-1.421875 1.59375,-3.546875 0,-1.609375 -0.96875,-2.5 -0.96875,-0.90625 -3.09372,-0.90625 -0.5625,0 -1.4375,0.1875 z m -3.07812,10.4375 q 1.6875,0.21875 2.64062,0.21875 2.4375,0 4.3125,-1.46875 1.8906,-1.46875 1.8906,-3.984375 0,-1.921875 -1.17188,-3 -1.15622,-1.078125 -3.74997,-1.078125 -0.5,0 -1.21875,0.04687 z"
       fill-rule="nonzero"
       id="path113" />
    <path
       fill="#000000"
       d="m 520.38715,67.50921 v -0.65625 q 2.375,1.171875 3.95313,2.765625 2.23437,2.28125 3.45312,5.359375 1.21875,3.0625 1.21875,6.390625 0,4.84375 -2.39062,8.828125 -2.375,4 -6.23438,5.71875 v -0.578125 q 1.92188,-1.078125 3.15625,-2.921875 1.25,-1.828125 1.84375,-4.65625 0.60938,-2.84375 0.60938,-5.921875 0,-3.328125 -0.51563,-6.078125 -0.39062,-2.15625 -0.98437,-3.453125 -0.57813,-1.296875 -1.54688,-2.5 -0.96875,-1.203125 -2.5625,-2.296875 z"
       fill-rule="nonzero"
       id="path115" />
    <path
       fill="#000000"
       fill-opacity="0"
       d="m 349.27167,448.7034 h 243.90552 v 48.25198 H 349.27167 Z"
       fill-rule="nonzero"
       id="path117" />
    <path
       fill="#000000"
       d="m 418.56036,490.81503 v 0.57812 q -2.35938,-1.1875 -3.9375,-2.78125 -2.25,-2.26562 -3.46875,-5.34375 -1.21875,-3.07812 -1.21875,-6.39062 0,-4.84375 2.39062,-8.82813 2.39063,-4 6.23438,-5.71875 v 0.65625 q -1.92188,1.0625 -3.15625,2.90625 -1.23438,1.84375 -1.84375,4.67188 -0.60938,2.82812 -0.60938,5.90625 0,3.34375 0.51563,6.07812 0.40625,2.15625 0.98437,3.45313 0.57813,1.3125 1.54688,2.51562 0.98437,1.20313 2.5625,2.29688 z m 15.5,-17.07813 q 2.20312,0.46875 3.29687,1.5 1.51563,1.4375 1.51563,3.51563 0,1.57812 -1,3.03125 -1,1.4375 -2.75,2.10937 -1.73438,0.65625 -5.3125,0.65625 h -10 v -0.57812 h 0.79687 q 1.32813,0 1.90625,-0.84375 0.35938,-0.54688 0.35938,-2.32813 v -13.6875 q 0,-1.96875 -0.45313,-2.48437 -0.60937,-0.6875 -1.8125,-0.6875 h -0.79687 v -0.57813 h 9.15625 q 2.5625,0 4.10937,0.375 2.34375,0.5625 3.57813,2 1.23437,1.42188 1.23437,3.28125 0,1.59375 -0.96875,2.85938 -0.96875,1.25 -2.85937,1.85937 z m -8.1875,-0.84375 q 0.57812,0.10938 1.3125,0.17188 0.75,0.0469 1.64062,0.0469 2.28125,0 3.42188,-0.48437 1.15625,-0.5 1.76562,-1.51563 0.60938,-1.01562 0.60938,-2.21875 0,-1.85937 -1.51563,-3.17187 -1.51562,-1.3125 -4.42187,-1.3125 -1.5625,0 -2.8125,0.34375 z m 0,10.125 q 1.8125,0.42188 3.57812,0.42188 2.82813,0 4.3125,-1.26563 1.48438,-1.28125 1.48438,-3.15625 0,-1.23437 -0.67188,-2.375 -0.67187,-1.14062 -2.1875,-1.79687 -1.51562,-0.65625 -3.75,-0.65625 -0.96875,0 -1.65625,0.0312 -0.6875,0.0312 -1.10937,0.10937 z m 23.85937,-0.53125 q -2.20312,1.70313 -2.76562,1.96875 -0.84375,0.39063 -1.79688,0.39063 -1.48437,0 -2.45312,-1.01563 -0.95313,-1.01562 -0.95313,-2.67187 0,-1.04688 0.46875,-1.8125 0.64063,-1.0625 2.21875,-2 1.59375,-0.9375 5.28125,-2.28125 v -0.5625 q 0,-2.14063 -0.6875,-2.9375 -0.67187,-0.79688 -1.96875,-0.79688 -0.98437,0 -1.5625,0.53125 -0.59375,0.53125 -0.59375,1.21875 l 0.0312,0.90625 q 0,0.71875 -0.375,1.10938 -0.35937,0.39062 -0.95312,0.39062 -0.57813,0 -0.95313,-0.40625 -0.35937,-0.40625 -0.35937,-1.10937 0,-1.34375 1.375,-2.46875 1.375,-1.125 3.85937,-1.125 1.90625,0 3.125,0.64062 0.92188,0.48438 1.35938,1.51563 0.28125,0.67187 0.28125,2.75 v 4.85937 q 0,2.04688 0.0781,2.51563 0.0781,0.45312 0.25,0.60937 0.1875,0.15625 0.42188,0.15625 0.25,0 0.4375,-0.10937 0.32812,-0.20313 1.26562,-1.14063 v 0.875 q -1.75,2.34375 -3.34375,2.34375 -0.76562,0 -1.21875,-0.53125 -0.45312,-0.53125 -0.46875,-1.8125 z m 0,-1.01562 v -5.45313 q -2.35937,0.9375 -3.04687,1.32813 -1.23438,0.6875 -1.76563,1.4375 -0.53125,0.75 -0.53125,1.64062 0,1.125 0.67188,1.875 0.67187,0.73438 1.54687,0.73438 1.1875,0 3.125,-1.5625 z m 15.34375,-11.65625 v 4.875 h -0.51562 q -0.59375,-2.29688 -1.53125,-3.125 -0.92188,-0.82813 -2.35938,-0.82813 -1.09375,0 -1.76562,0.57813 -0.67188,0.57812 -0.67188,1.28125 0,0.875 0.5,1.5 0.48438,0.64062 1.96875,1.35937 l 2.28125,1.10938 q 3.17188,1.54687 3.17188,4.07812 0,1.95313 -1.48438,3.15625 -1.46875,1.1875 -3.29687,1.1875 -1.3125,0 -3,-0.46875 -0.51563,-0.15625 -0.84375,-0.15625 -0.35938,0 -0.5625,0.40625 h -0.51563 v -5.10937 h 0.51563 q 0.4375,2.1875 1.67187,3.29687 1.23438,1.10938 2.76563,1.10938 1.07812,0 1.75,-0.625 0.6875,-0.64063 0.6875,-1.53125 0,-1.07813 -0.76563,-1.8125 -0.75,-0.73438 -3.01562,-1.85938 -2.26563,-1.125 -2.96875,-2.03125 -0.70313,-0.89062 -0.70313,-2.25 0,-1.76562 1.20313,-2.95312 1.21875,-1.1875 3.14062,-1.1875 0.84375,0 2.04688,0.35937 0.79687,0.23438 1.0625,0.23438 0.25,0 0.39062,-0.10938 0.14063,-0.10937 0.32813,-0.48437 z m 6.84375,-7.48438 q 0.65625,0 1.10938,0.46875 0.46875,0.45313 0.46875,1.10938 0,0.65625 -0.46875,1.125 -0.45313,0.46875 -1.10938,0.46875 -0.65625,0 -1.125,-0.46875 -0.46875,-0.46875 -0.46875,-1.125 0,-0.65625 0.45313,-1.10938 0.46875,-0.46875 1.14062,-0.46875 z m 1.29688,7.48438 v 11.5 q 0,1.34375 0.1875,1.79687 0.20312,0.4375 0.57812,0.65625 0.39063,0.21875 1.40625,0.21875 v 0.5625 h -6.95312 v -0.5625 q 1.04687,0 1.40625,-0.20312 0.35937,-0.20313 0.5625,-0.67188 0.21875,-0.46875 0.21875,-1.79687 v -5.51563 q 0,-2.32812 -0.14063,-3.01562 -0.10937,-0.5 -0.34375,-0.6875 -0.23437,-0.20313 -0.64062,-0.20313 -0.4375,0 -1.0625,0.23438 l -0.21875,-0.5625 4.3125,-1.75 z m 13.20312,0 v 4.875 h -0.51562 q -0.59375,-2.29688 -1.53125,-3.125 -0.92188,-0.82813 -2.35938,-0.82813 -1.09375,0 -1.76562,0.57813 -0.67188,0.57812 -0.67188,1.28125 0,0.875 0.5,1.5 0.48438,0.64062 1.96875,1.35937 l 2.28125,1.10938 q 3.17188,1.54687 3.17188,4.07812 0,1.95313 -1.48438,3.15625 -1.46875,1.1875 -3.29687,1.1875 -1.3125,0 -3,-0.46875 -0.51563,-0.15625 -0.84375,-0.15625 -0.35938,0 -0.5625,0.40625 h -0.51563 v -5.10937 h 0.51563 q 0.4375,2.1875 1.67187,3.29687 1.23438,1.10938 2.76563,1.10938 1.07812,0 1.75,-0.625 0.6875,-0.64063 0.6875,-1.53125 0,-1.07813 -0.76563,-1.8125 -0.75,-0.73438 -3.01562,-1.85938 -2.26563,-1.125 -2.96875,-2.03125 -0.70313,-0.89062 -0.70313,-2.25 0,-1.76562 1.20313,-2.95312 1.21875,-1.1875 3.14062,-1.1875 0.84375,0 2.04688,0.35937 0.79687,0.23438 1.0625,0.23438 0.25,0 0.39062,-0.10938 0.14063,-0.10937 0.32813,-0.48437 z"
       fill-rule="nonzero"
       id="path119" />
    <path
       fill="#000000"
       d="m 501.35724,463.94003 0.21875,-0.57813 h 7.5625 q 1.90625,0 3.39063,0.59375 1.5,0.59375 2.23437,1.65625 0.75,1.0625 0.75,2.25 0,1.82813 -1.32812,3.3125 -1.3125,1.46875 -4.29688,2.17188 1.92188,0.71875 2.82813,1.90625 0.90625,1.1875 0.90625,2.60937 0,1.57813 -0.8125,3.01563 -0.8125,1.4375 -2.09375,2.23437 -1.26563,0.79688 -3.0625,1.17188 -1.28125,0.26562 -4,0.26562 h -7.76563 l 0.20313,-0.57812 q 1.21875,-0.0312 1.65625,-0.23438 0.625,-0.26562 0.89062,-0.70312 0.375,-0.59375 1,-2.71875 l 3.79688,-12.82813 q 0.48437,-1.625 0.48437,-2.28125 0,-0.57812 -0.4375,-0.90625 -0.42187,-0.34375 -1.625,-0.34375 -0.26562,0 -0.5,-0.0156 z m 3.17187,8.79687 q 1.01563,0.0312 1.46875,0.0312 3.25,0 4.82813,-1.40625 1.59375,-1.42187 1.59375,-3.54687 0,-1.60938 -0.96875,-2.5 -0.96875,-0.90625 -3.09375,-0.90625 -0.5625,0 -1.4375,0.1875 z m -3.07812,10.4375 q 1.6875,0.21875 2.64062,0.21875 2.4375,0 4.3125,-1.46875 1.89063,-1.46875 1.89063,-3.98437 0,-1.92188 -1.17188,-3 -1.15625,-1.07813 -3.75,-1.07813 -0.5,0 -1.21875,0.0469 z"
       fill-rule="nonzero"
       id="path121" />
    <path
       fill="#000000"
       d="m 518.31036,472.00253 0.48437,-4.625 q 0.20313,-1.98438 0.40625,-2.67188 0.29688,-0.96875 0.82813,-1.39062 0.54687,-0.4375 1.21875,-0.4375 0.5625,0 0.89062,0.3125 0.32813,0.3125 0.32813,0.79687 0,0.35938 -0.15625,0.78125 -0.20313,0.60938 -1.15625,2.625 l -2.15625,4.60938 z m 5.57812,-9.01563 v -0.65625 q 2.375,1.17188 3.95313,2.76563 2.23437,2.28125 3.45312,5.35937 1.21875,3.0625 1.21875,6.39063 0,4.84375 -2.39062,8.82812 -2.375,4 -6.23438,5.71875 v -0.57812 q 1.92188,-1.07813 3.15625,-2.92188 1.25,-1.82812 1.84375,-4.65625 0.60938,-2.84375 0.60938,-5.92187 0,-3.32813 -0.51563,-6.07813 -0.39062,-2.15625 -0.98437,-3.45312 -0.57813,-1.29688 -1.54688,-2.5 -0.96875,-1.20313 -2.5625,-2.29688 z"
       fill-rule="nonzero"
       id="path123" />
  </g>
</svg>
