<?xml version="1.0" encoding="UTF-8" standalone="no"?>
<svg
   xmlns:dc="http://purl.org/dc/elements/1.1/"
   xmlns:cc="http://creativecommons.org/ns#"
   xmlns:rdf="http://www.w3.org/1999/02/22-rdf-syntax-ns#"
   xmlns:svg="http://www.w3.org/2000/svg"
   xmlns="http://www.w3.org/2000/svg"
   xmlns:xlink="http://www.w3.org/1999/xlink"
   xmlns:sodipodi="http://sodipodi.sourceforge.net/DTD/sodipodi-0.dtd"
   xmlns:inkscape="http://www.inkscape.org/namespaces/inkscape"
   version="1.1"
   width="612pt"
   height="400pt"
   viewBox="0 0 612 400"
   id="svg254"
   sodipodi:docname="volume_rendering_3.svg"
   inkscape:version="1.0.1 (3bc2e813f5, 2020-09-07)">
  <metadata
     id="metadata260">
    <rdf:RDF>
      <cc:Work
         rdf:about="">
        <dc:format>image/svg+xml</dc:format>
        <dc:type
           rdf:resource="http://purl.org/dc/dcmitype/StillImage" />
        <dc:title></dc:title>
      </cc:Work>
    </rdf:RDF>
  </metadata>
  <defs
     id="defs258" />
  <sodipodi:namedview
     pagecolor="#ffffff"
     bordercolor="#666666"
     borderopacity="1"
     objecttolerance="10"
     gridtolerance="10"
     guidetolerance="10"
     inkscape:pageopacity="1"
     inkscape:pageshadow="2"
     inkscape:window-width="1920"
     inkscape:window-height="1001"
     id="namedview256"
     showgrid="false"
     inkscape:zoom="0.78598485"
     inkscape:cx="407.96755"
     inkscape:cy="374.93117"
     inkscape:window-x="-9"
     inkscape:window-y="-9"
     inkscape:window-maximized="1"
     inkscape:current-layer="svg254" />
  <g
     enable-background="new"
     id="g252"
     transform="matrix(2.1977358,0,0,2.1977358,-395.0205,-312.80358)">
    <clipPath
       id="cp0">
      <path
         transform="matrix(0.1,0,0,-0.1,0,792)"
         d="M 1887.93,4726.07 H 4482.19 V 6441.1599 H 1887.93 Z"
         id="path2" />
    </clipPath>
    <g
       clip-path="url(#cp0)"
       id="g9">
      <path
         transform="matrix(0.1,0,0,-0.1,416.177,233.27796)"
         stroke-width="7.206"
         stroke-linecap="square"
         stroke-miterlimit="3.25"
         stroke-linejoin="miter"
         fill="none"
         stroke="#3f3f99"
         d="m 0,0 v 1.87 l -0.01,1.86 -0.02,1.86 -0.02,1.87 -0.03,1.86 -0.05,1.87 -0.04,1.86 -0.06,1.87 -0.05,1.86 -0.08,1.86 -0.07,1.87 -0.08,1.86 -0.09,1.86 -0.1,1.86 -0.22,3.73 -0.12,1.86 -0.12,1.86 -0.27,3.72 -0.15,1.86 -0.15,1.86 -0.33,3.71 -0.18,1.86 -0.18,1.86 -0.39,3.71 -0.86,7.4 -0.23,1.85 -0.24,1.85 -0.51,3.7 -1.08,7.38 -0.29,1.84 -0.29,1.84 -0.62,3.68 -1.32,7.34 -0.34,1.83 -0.35,1.83 -0.72,3.67 -1.55,7.29 -3.4,14.53 -0.5,1.95 -0.5,1.96 -1.04,3.91 -2.16,7.79 -4.7,15.47 -0.63,1.93 -0.63,1.91 -1.28,3.84 -2.67,7.63 -5.7,15.13 -0.75,1.87 -0.76,1.87 -1.53,3.74 -3.16,7.45 -6.67,14.71 -14.74,28.75 -0.91,1.64 -0.92,1.64 -1.87,3.28 -3.8,6.51 -7.87,12.84 -1.01,1.6 -1.03,1.58 -2.05,3.16 -4.17,6.27 -8.6,12.34 -1.1,1.53 -1.11,1.52 -2.23,3.02 -4.52,6.02 -9.29,11.81 -19.55,22.77 -1.24,1.35 -1.24,1.36 -2.5,2.69 -5.05,5.33 -10.3,10.44 -21.4,19.99 -1.37,1.2 -1.37,1.21 -2.76,2.4 -5.56,4.72 -11.28,9.22 -23.22,17.49 -1.6,1.14 -1.61,1.13 -3.21,2.25 -6.49,4.42 -13.12,8.57 -1.64,1.05 -1.66,1.03 -3.32,2.06 -6.68,4.04 -13.46,7.79 -1.71,0.95 -1.69,0.94 -3.4,1.87 -6.83,3.65 -13.77,7.02 -27.89,12.88 -1.63,0.71 -1.64,0.7 -3.28,1.38 -6.58,2.7 -13.19,5.15 -1.65,0.63 -1.66,0.62 -3.31,1.21 -6.63,2.38 -13.29,4.51 -1.66,0.54 -1.66,0.54 -3.32,1.06 -6.66,2.05 -13.32,3.87 -1.66,0.47 -1.68,0.45 -3.33,0.9 -6.65,1.75 -13.32,3.26 -1.8,0.42 -1.8,0.41 -3.6,0.81 -7.19,1.56 -1.8,0.37 -1.79,0.37 -3.59,0.73 -7.17,1.38 -1.8,0.34 -1.78,0.33 -3.58,0.64 -7.14,1.22 -14.23,2.2 -1.77,0.25 -1.79,0.25 -3.53,0.48 -7.06,0.91 -1.76,0.22 -1.77,0.2 -3.52,0.41 -7.01,0.75 -1.76,0.19 -1.74,0.17 -3.49,0.33 -1.74,0.16 -1.74,0.16 -3.48,0.29 -1.74,0.14 -1.73,0.14 -3.46,0.26 -6.9,0.48 -1.69,0.1 -1.69,0.11 -3.37,0.18 -1.68,0.1 -1.68,0.08 -3.35,0.16 -1.68,0.07 -1.67,0.08 -1.66,0.06 -1.67,0.07 -1.67,0.06 -1.66,0.05 -3.32,0.1 -1.66,0.04 -1.65,0.05 -1.65,0.04 -1.66,0.03 -1.64,0.03 -1.65,0.02 -1.64,0.03 -1.64,0.02 -1.64,0.01 -1.64,0.01 -1.63,0.01 -1.63,0.01 -1.64,0.01 -1.62,-0.01 h -1.62 l -1.62,-0.01 -1.62,-0.01 -1.62,-0.02 -1.61,-0.01 -1.61,-0.03 -1.62,-0.01 -1.61,-0.03 -1.59,-0.03 -1.61,-0.04 -1.6,-0.03 -1.59,-0.05 -1.61,-0.04 -1.59,-0.04 -1.58,-0.05 -1.6,-0.05 -3.16,-0.11 -1.58,-0.06 -1.58,-0.06 -3.14,-0.14 -1.57,-0.08 -1.57,-0.07 -3.12,-0.16 -1.56,-0.07 -1.55,-0.09 -3.11,-0.18 -6.16,-0.38 -1.44,-0.1 -1.44,-0.1 -2.85,-0.2 -5.68,-0.43 -1.41,-0.12 -1.41,-0.11 -2.82,-0.23 -5.6,-0.49 -1.39,-0.13 -1.4,-0.13 -2.77,-0.26 -5.53,-0.55 -10.92,-1.18 -1.35,-0.15 -1.35,-0.15 -2.7,-0.32 -5.36,-0.65 -10.59,-1.35 -20.7,-2.92 -1.38,-0.21 -1.38,-0.2 -2.74,-0.41 -5.45,-0.85 -10.76,-1.72 -20.95,-3.54 -39.77,-7.11 -1.11,-0.2 -1.12,-0.2 -2.23,-0.4 -4.42,-0.8 -8.76,-1.57 -17.12,-2.97 -1.05,-0.18 -1.05,-0.17 -2.1,-0.36 -4.17,-0.69 -8.27,-1.33 -16.23,-2.42 -0.98,-0.13 -0.98,-0.13 -1.95,-0.28 -3.9,-0.52 -7.75,-0.96 -0.95,-0.12 -0.96,-0.11 -1.92,-0.22 -3.82,-0.43 -7.6,-0.78 -0.95,-0.09 -0.94,-0.08 -1.89,-0.17 -3.77,-0.33 -0.93,-0.08 -0.94,-0.08 -1.88,-0.14 -3.74,-0.28 -0.95,-0.06 -0.92,-0.06 -1.87,-0.12 -0.93,-0.06 -0.93,-0.06 -1.86,-0.1 -0.93,-0.05 -0.93,-0.05 -1.85,-0.09 -0.93,-0.05 -0.93,-0.04 -1.85,-0.08 -1,-0.03 -1.01,-0.04 -1.01,-0.04 -1,-0.03 -1,-0.03 -1.01,-0.03 -2,-0.06 -1,-0.02 -1.01,-0.02 -1,-0.01 -1,-0.03 -1.01,-0.01 -1,-0.01 -0.99,-0.01 -1,-0.01 -1,-0.01 h -1.01 -1 l -1,-0.01 -1,0.01 h -1.01 -1 l -1,0.01 -1,0.01 -1,0.01 -1,0.02 -1,0.01 -1.01,0.02 -1,0.02 -1,0.03 -1,0.02 -1,0.03 -1.01,0.03 -1,0.03 -1,0.02 -1.01,0.04 -1,0.03 -2.02,0.09 -1,0.04 -1.01,0.04 -2.01,0.1 -4.03,0.21 -1.01,0.07 -1.01,0.05 -2.02,0.13 -4.06,0.29 -1.01,0.07 -1.02,0.07 -2.04,0.16 -4.08,0.34 -0.95,0.09 -0.95,0.09 -1.91,0.17 -3.84,0.37 -7.71,0.82 -0.98,0.11 -0.97,0.11 -1.94,0.23 -3.9,0.47 -7.86,1.02 -0.99,0.13 -0.99,0.14 -1.98,0.27 -3.99,0.57 -8.03,1.18 -16.39,2.61 -1.12,0.19 -1.12,0.19 -2.26,0.38 -4.55,0.78 -9.2,1.6 -18.87,3.36 -1.2,0.22 -1.2,0.22 -2.41,0.43 -4.86,0.88 -9.84,1.78 -20.2,3.59 -1.27,0.23 -1.26,0.21 -2.54,0.44 -5.11,0.88 -10.36,1.74 -21.28,3.39 -1.36,0.2 -1.35,0.21 -2.73,0.4 -5.48,0.8 -11.1,1.54 -1.4,0.19 -1.41,0.19 -2.81,0.37 -5.67,0.72 -11.48,1.37 -1.35,0.15 -1.35,0.15 -2.71,0.3 -5.46,0.58 -1.37,0.15 -1.37,0.13 -2.75,0.28 -5.54,0.52 -1.39,0.13 -1.4,0.12 -2.79,0.25 -5.61,0.47 -1.41,0.11 -1.42,0.1 -2.83,0.22 -5.69,0.41 -1.43,0.09 -1.43,0.09 -2.87,0.18 -1.43,0.1 -1.44,0.07 -2.9,0.17 -1.44,0.08 -1.45,0.07 -2.91,0.15 -5.85,0.26 -1.46,0.06 -1.47,0.05 -2.94,0.11 -1.48,0.05 -1.48,0.04 -2.96,0.09 -1.48,0.03 -1.49,0.04 -1.49,0.04 -1.49,0.03 -1.49,0.03 -1.49,0.02 -1.5,0.02 -1.5,0.02 -1.63,0.02 -1.63,0.02 -1.63,0.01 -1.64,0.01 h -1.63 l -1.65,0.01 -1.64,-0.01 h -1.65 l -1.65,-0.02 h -1.64 l -1.66,-0.02 -1.65,-0.02 -1.66,-0.02 -1.66,-0.03 -1.66,-0.03 -1.67,-0.03 -1.66,-0.04 -1.67,-0.05 -1.68,-0.04 -1.67,-0.05 -1.67,-0.05 -1.68,-0.05 -3.36,-0.13 -1.68,-0.06 -1.69,-0.08 -3.38,-0.15 -1.69,-0.08 -1.7,-0.09 -3.39,-0.19 -1.7,-0.1 -1.7,-0.1 -3.42,-0.22 -1.7,-0.11 -1.71,-0.12 -3.43,-0.25 -1.71,-0.13 -1.72,-0.14 -3.44,-0.29 -6.9,-0.63 -1.73,-0.16 -1.73,-0.17 -3.47,-0.36 -6.95,-0.76 -1.75,-0.2 -1.74,-0.21 -3.49,-0.43 -7,-0.92 -1.64,-0.23 -1.64,-0.22 -3.27,-0.47 -6.57,-0.98 -13.19,-2.18 -1.65,-0.3 -1.66,-0.3 -3.31,-0.6 -6.62,-1.27 -13.29,-2.75 -1.65,-0.36 -1.67,-0.37 -3.33,-0.75 -6.66,-1.56 -13.34,-3.34 -26.69,-7.61 -1.8,-0.56 -1.81,-0.57 -3.61,-1.15 -7.22,-2.37 -14.41,-5.02 -1.79,-0.66 -1.8,-0.66 -3.59,-1.34 -7.17,-2.75 -14.29,-5.8 -1.78,-0.75 -1.78,-0.76 -3.56,-1.54 -7.09,-3.14 -14.11,-6.58 -27.84,-14.34 -1.69,-0.93 -1.69,-0.95 -3.37,-1.89 -6.7,-3.86 -13.29,-8.01 -26.03,-17.15 -1.59,-1.13 -1.61,-1.12 -3.17,-2.28 -6.33,-4.62 -12.46,-9.51 -24.19,-20.14 -1.38,-1.22 -1.37,-1.22 -2.73,-2.47 -5.43,-4.98 -10.65,-10.2 -20.49,-21.28 -1.24,-1.37 -1.24,-1.38 -2.46,-2.76 -4.88,-5.57 -9.5,-11.36 -18.06,-23.55 -1.17,-1.62 -1.18,-1.64 -2.32,-3.29 -4.56,-6.64 -8.82,-13.48 -1.06,-1.7 -1.07,-1.72 -2.12,-3.43 -4.14,-6.92 -7.96,-14.02 -0.96,-1.77 -0.96,-1.78 -1.89,-3.56 -3.7,-7.18 -7.05,-14.51 -0.85,-1.84 -0.84,-1.82 -1.66,-3.69 -3.23,-7.39 -6.11,-14.96 -0.68,-1.75 -0.67,-1.76 -1.33,-3.53 -2.57,-7.08 -4.83,-14.3 -0.57,-1.79 -0.56,-1.8 -1.12,-3.6 -2.13,-7.23 -3.94,-14.57 -0.46,-1.82 -0.46,-1.83 -0.88,-3.67 -1.69,-7.35 -0.4,-1.84 -0.4,-1.84 -0.77,-3.7 -1.46,-7.39 -0.35,-1.86 -0.34,-1.85 -0.66,-3.71 -1.23,-7.45 -0.29,-1.86 -0.28,-1.87 -0.54,-3.73 -1,-7.47 -0.23,-1.84 -0.21,-1.83 -0.43,-3.67 -0.2,-1.84 -0.19,-1.85 -0.36,-3.67 -0.17,-1.85 -0.17,-1.83 -0.3,-3.68 -0.15,-1.85 -0.13,-1.85 -0.25,-3.68 -0.12,-1.85 -0.1,-1.85 -0.1,-1.84 -0.1,-1.84 -0.08,-1.85 -0.08,-1.85 -0.07,-1.85 -0.07,-1.85 -0.06,-1.84 -0.05,-1.85 -0.05,-1.85 -0.03,-1.84 -0.03,-1.86 -0.02,-1.84 -0.01,-1.85 -0.02,-1.85 v -1.85 l 0.01,-1.84 0.01,-1.86 0.01,-1.84 0.03,-1.85 0.04,-1.85 0.04,-1.85 0.05,-1.84 0.05,-1.86 0.06,-1.84 0.07,-1.85 0.07,-1.85 0.09,-1.84 0.09,-1.85 0.2,-3.69 0.11,-1.85 0.12,-1.85 0.26,-3.68 0.14,-1.84 0.14,-1.85 0.32,-3.68 0.16,-1.84 0.18,-1.84 0.37,-3.68 0.82,-7.35 0.25,-1.99 0.24,-1.99 0.53,-3.97 1.15,-7.94 0.31,-1.99 0.32,-1.98 0.65,-3.95 1.42,-7.9 0.37,-1.97 0.39,-1.97 0.79,-3.93 1.67,-7.85 3.72,-15.6 0.51,-1.94 0.51,-1.94 1.04,-3.87 2.18,-7.71 4.74,-15.33 0.63,-1.9 0.64,-1.91 1.29,-3.79 2.68,-7.56 5.72,-14.98 0.7,-1.74 0.71,-1.72 1.43,-3.46 2.94,-6.89 6.19,-13.61 0.8,-1.69 0.81,-1.69 1.63,-3.36 3.34,-6.69 6.98,-13.22 0.9,-1.64 0.91,-1.64 1.83,-3.25 3.73,-6.48 7.73,-12.78 16.57,-24.83 1.18,-1.65 1.17,-1.64 2.38,-3.27 4.82,-6.48 9.96,-12.73 1.27,-1.56 1.27,-1.56 2.58,-3.11 5.2,-6.16 10.69,-12.06 1.36,-1.49 1.36,-1.47 2.75,-2.95 5.56,-5.82 11.36,-11.37 23.65,-21.65 1.49,-1.28 1.49,-1.27 3,-2.54 6.05,-4.99 12.28,-9.73 1.56,-1.19 1.55,-1.18 3.12,-2.35 6.29,-4.64 12.75,-8.98 1.61,-1.09 1.61,-1.09 3.23,-2.17 6.5,-4.25 13.14,-8.23 26.79,-15.31 1.58,-0.85 1.58,-0.84 3.17,-1.67 6.36,-3.27 12.8,-6.29 1.61,-0.76 1.61,-0.76 3.22,-1.5 6.46,-2.94 12.98,-5.64 1.63,-0.68 1.62,-0.67 3.26,-1.34 6.54,-2.61 13.1,-4.99 26.33,-9.01 1.79,-0.56 1.79,-0.57 3.58,-1.1 7.15,-2.14 14.33,-4 1.79,-0.48 1.79,-0.46 3.57,-0.93 7.16,-1.78 14.3,-3.31 1.78,-0.38 1.78,-0.39 3.57,-0.75 7.12,-1.44 1.78,-0.34 1.78,-0.34 3.55,-0.67 7.1,-1.28 1.78,-0.3 1.77,-0.3 3.53,-0.59 7.07,-1.12 14.06,-1.99 1.64,-0.22 1.64,-0.2 3.27,-0.41 6.51,-0.77 1.63,-0.18 1.62,-0.18 3.25,-0.34 6.47,-0.64 1.62,-0.14 1.61,-0.16 3.22,-0.28 1.61,-0.13 1.61,-0.13 3.21,-0.25 1.6,-0.12 1.6,-0.12 3.2,-0.22 6.37,-0.39 1.59,-0.1 1.59,-0.08 3.17,-0.17 1.58,-0.07 1.58,-0.08 3.15,-0.14 1.58,-0.06 1.57,-0.06 1.57,-0.06 1.57,-0.05 1.57,-0.05 1.57,-0.04 3.12,-0.09 1.56,-0.04 1.56,-0.03 1.56,-0.03 1.54,-0.03 1.55,-0.02 1.56,-0.02 1.54,-0.03 1.55,-0.01 1.54,-0.01 h 1.55 l 1.53,-0.01 1.54,-0.01 1.54,0.01 h 1.52 l 1.54,0.01 h 1.53 l 1.49,0.02 1.5,0.01 1.49,0.02 1.49,0.02 1.49,0.02 1.48,0.03 1.49,0.03 1.48,0.03 1.48,0.03 1.47,0.04 1.48,0.04 1.47,0.04 1.47,0.04 1.47,0.04 2.93,0.11 1.47,0.05 1.45,0.06 2.92,0.12 1.45,0.06 1.45,0.07 2.9,0.13 1.45,0.08 1.44,0.07 2.87,0.16 5.72,0.34 1.43,0.09 1.42,0.1 2.84,0.19 5.65,0.41 1.41,0.11 1.4,0.1 2.8,0.23 5.57,0.47 1.39,0.12 1.39,0.13 2.76,0.25 5.5,0.53 10.86,1.13 1.46,0.17 1.47,0.17 2.91,0.33 5.78,0.68 11.43,1.44 22.29,3.13 1.36,0.2 1.37,0.21 2.71,0.41 5.42,0.84 10.66,1.71 20.79,3.51 1.19,0.2 1.19,0.21 2.37,0.42 4.71,0.83 9.29,1.65 18.15,3.28 1.11,0.2 1.12,0.2 2.22,0.41 4.41,0.79 8.73,1.56 17.05,2.99 1.15,0.2 1.13,0.19 2.27,0.38 4.51,0.75 8.91,1.45 1.11,0.17 1.1,0.18 2.2,0.34 4.37,0.68 8.68,1.26 1.08,0.15 1.08,0.15 2.15,0.29 4.26,0.57 8.47,1.06 1.07,0.12 1.05,0.12 2.09,0.24 4.19,0.46 8.31,0.82 0.97,0.09 0.97,0.08 1.92,0.17 3.85,0.32 0.96,0.07 0.96,0.08 1.91,0.13 3.83,0.26 0.95,0.06 0.95,0.07 1.91,0.1 0.95,0.06 0.96,0.05 1.9,0.1 0.95,0.04 0.95,0.05 1.9,0.08 0.94,0.04 0.95,0.04 1.89,0.06 0.96,0.04 0.94,0.03 0.94,0.03 0.95,0.02 0.95,0.03 0.94,0.02 0.95,0.02 0.95,0.01 0.94,0.03 0.95,0.01 0.94,0.01 0.95,0.01 0.94,0.02 0.94,0.01 h 0.94 0.95 0.95 0.95 0.94 0.94 0.95 l 0.93,-0.01 0.96,-0.01 0.94,-0.02 h 0.94 l 0.95,-0.02 0.95,-0.01 0.94,-0.02 0.94,-0.02 0.95,-0.03 1.9,-0.04 0.92,-0.03 0.93,-0.02 1.86,-0.07 0.93,-0.03 0.92,-0.04 1.87,-0.08 0.93,-0.04 0.93,-0.03 1.86,-0.1 3.74,-0.2 0.93,-0.05 0.93,-0.06 1.87,-0.11 3.75,-0.26 0.94,-0.07 0.93,-0.07 1.89,-0.14 3.77,-0.32 0.95,-0.07 0.94,-0.08 1.9,-0.18 3.79,-0.36 7.64,-0.8 0.95,-0.1 0.97,-0.11 1.92,-0.22 3.87,-0.46 7.77,-0.99 1.06,-0.14 1.06,-0.15 2.13,-0.28 4.28,-0.6 8.63,-1.28 17.63,-2.81 36.86,-6.47 1.12,-0.19 1.12,-0.21 2.23,-0.4 4.5,-0.81 9.1,-1.65 18.66,-3.33 1.18,-0.2 1.19,-0.21 2.38,-0.42 4.8,-0.83 9.72,-1.65 19.93,-3.21 1.37,-0.22 1.37,-0.21 2.77,-0.43 5.56,-0.82 11.26,-1.61 1.43,-0.2 1.42,-0.2 2.86,-0.38 5.76,-0.75 11.66,-1.45 1.47,-0.17 1.46,-0.17 2.96,-0.33 5.95,-0.66 1.5,-0.16 1.5,-0.16 3.01,-0.3 6.04,-0.59 1.52,-0.14 1.52,-0.14 3.05,-0.27 6.14,-0.53 1.54,-0.12 1.55,-0.13 3.1,-0.23 6.24,-0.45 1.53,-0.1 1.54,-0.1 3.09,-0.19 1.55,-0.1 1.55,-0.09 3.11,-0.17 1.56,-0.09 1.56,-0.07 3.13,-0.16 1.58,-0.07 1.57,-0.06 3.15,-0.13 1.58,-0.07 1.58,-0.05 1.58,-0.06 1.59,-0.04 1.6,-0.06 1.59,-0.04 3.19,-0.09 1.6,-0.03 1.61,-0.03 1.6,-0.04 1.61,-0.02 1.6,-0.03 1.62,-0.02 1.62,-0.02 1.62,-0.01 1.62,-0.01 1.62,-0.01 h 1.63 l 1.62,-0.01 1.63,0.01 h 1.64 l 1.63,0.01 1.64,0.01 1.64,0.02 1.64,0.02 1.64,0.02 1.65,0.03 1.65,0.03 1.65,0.03 1.65,0.04 1.66,0.04 1.66,0.05 1.66,0.05 1.65,0.05 1.67,0.05 1.67,0.06 1.67,0.06 3.34,0.14 1.67,0.07 1.68,0.09 3.36,0.16 6.74,0.38 1.58,0.1 1.58,0.1 3.15,0.22 6.35,0.47 1.58,0.13 1.6,0.13 3.19,0.27 6.39,0.59 1.6,0.16 1.6,0.16 3.21,0.33 6.43,0.71 12.94,1.62 1.62,0.22 1.62,0.23 3.25,0.46 6.51,0.96 13.08,2.14 1.63,0.29 1.64,0.29 3.27,0.6 6.58,1.24 13.16,2.69 1.79,0.39 1.79,0.39 3.57,0.81 7.16,1.66 14.34,3.6 1.79,0.46 1.8,0.49 3.58,0.98 7.18,2.02 14.34,4.31 1.79,0.56 1.79,0.57 3.58,1.16 7.15,2.38 14.29,5.05 28.4,11.24 1.65,0.71 1.64,0.7 3.29,1.44 6.57,2.92 13.06,6.1 25.8,13.24 1.6,0.88 1.59,0.88 3.19,1.77 6.34,3.6 12.58,7.47 24.66,15.95 1.5,1.02 1.48,1.03 2.96,2.07 5.89,4.2 11.64,8.63 22.65,18.22 1.39,1.18 1.38,1.18 2.75,2.39 5.47,4.82 10.75,9.88 20.72,20.66 1.37,1.45 1.35,1.44 2.71,2.91 5.35,5.89 10.44,12.03 1.28,1.53 1.27,1.53 2.54,3.07 5,6.22 9.7,12.66 1.19,1.6 1.18,1.61 2.35,3.23 4.61,6.52 8.93,13.25 16.61,27.33 0.91,1.63 0.91,1.63 1.8,3.27 3.53,6.58 6.76,13.32 0.83,1.67 0.82,1.68 1.6,3.38 3.14,6.78 5.97,13.7 0.71,1.72 0.71,1.73 1.4,3.46 2.72,6.97 5.14,14.04 0.61,1.76 0.61,1.77 1.19,3.55 2.3,7.11 4.27,14.32 0.56,2.02 0.56,2.01 1.08,4.02 2.06,8.1 0.49,2.02 0.47,2.03 0.96,4.07 1.78,8.16 0.42,2.03 0.42,2.05 0.8,4.1 1.5,8.21 0.35,2.05 0.35,2.06 0.66,4.12 1.22,8.27 0.27,2.06 0.28,2.07 0.52,4.14 0.25,2.07 0.23,2.07 0.46,4.15 0.21,2.08 0.2,2.08 0.37,4.15 0.18,2.08 0.17,2.09 0.3,4.16 0.15,2.08 0.12,2.08 0.12,2.08 0.12,2.09 0.1,2.08 0.09,2.09 0.09,2.08 0.08,2.09 0.06,2.08 0.07,2.09 0.04,2.09 0.04,2.09 0.03,2.08 0.02,2.09 L 0,-2.09 V 0"
         id="path5" />
      <path
         transform="matrix(0.1,0,0,-0.1,197.80101,233.27796)"
         stroke-width="2.883"
         stroke-linecap="butt"
         stroke-miterlimit="3.25"
         stroke-linejoin="miter"
         fill="none"
         stroke="#231f20"
         d="M 0,0 V 28.82"
         id="path7" />
    </g>
    <clipPath
       id="cp1">
      <path
         transform="matrix(0.1,0,0,-0.1,0,792)"
         d="m 1887.93,5468.32 h 194.57 v 108.094 h -194.57 z"
         id="path11" />
    </clipPath>
    <g
       clip-path="url(#cp1)"
       id="g19">
      <symbol
         id="font_2_b1">
        <path
           d="M 0.51708987,0 H 0 v 0.03564453 h 0.51708987 z"
           id="path14" />
      </symbol>
      <use
         xlink:href="#font_2_b1"
         transform="matrix(7.206,0,0,-7.206,188.72966,241.0521)"
         fill="#030404"
         id="use17"
         x="0"
         y="0"
         width="100%"
         height="100%" />
    </g>
    <clipPath
       id="cp3">
      <path
         transform="matrix(0.1,0,0,-0.1,0,792)"
         d="M 1887.93,4726.07 H 4482.19 V 6441.1599 H 1887.93 Z"
         id="path21" />
    </clipPath>
    <g
       clip-path="url(#cp3)"
       id="g152">
      <symbol
         id="font_2_13">
        <path
           d="M 0,0.3388672 C 0,0.41438804 0.01139323,0.47932945 0.03417969,0.5336914 0.05696615,0.5883789 0.08723959,0.62906906 0.125,0.6557617 0.15429688,0.6769206 0.18457031,0.6875 0.21582031,0.6875 c 0.0507813,0 0.0963542,-0.0258789 0.13671876,-0.0776367 0.0504557,-0.0641276 0.0756836,-0.15104167 0.0756836,-0.2607422 0,-0.0768229 -0.0110677,-0.14208985 -0.0332031,-0.19580079 C 0.37288413,0.09960938 0.3445638,0.06054688 0.3100586,0.03613281 0.2758789,0.01204427 0.24283855,0 0.2109375,0 0.14778646,0 0.09521485,0.03727214 0.05322266,0.11181641 0.01774089,0.17464192 0,0.25032554 0,0.3388672 m 0.09570313,-0.012207 c 0,-0.0911458 0.01123047,-0.16552736 0.0336914,-0.22314454 0.0185547,-0.04850261 0.046224,-0.07275391 0.0830078,-0.07275391 0.0175781,0 0.0358073,0.0078125 0.0546875,0.0234375 0.0188802,0.01595052 0.0332031,0.04248047 0.0429687,0.07958984 0.014974,0.0559896 0.0224609,0.13492839 0.0224609,0.23681642 0,0.0755208 -0.007813,0.13850911 -0.0234375,0.18896482 -0.0117188,0.0374349 -0.0268555,0.0639649 -0.0454102,0.0795899 -0.0133463,0.0107422 -0.0294596,0.0161133 -0.0483399,0.0161133 -0.0221354,0 -0.0418294,-0.009928 -0.059082,-0.0297852 C 0.1328125,0.59847006 0.11686198,0.55598959 0.10839844,0.49804688 0.0999349,0.44010417 0.09570313,0.38297526 0.09570313,0.3266602 Z"
           id="path24" />
      </symbol>
      <symbol
         id="font_2_11">
        <path
           d="m 0.05419922,0.10839844 c 0.01529948,0 0.02815755,-0.005371 0.03857422,-0.01611328 0.01041666,-0.01041667 0.015625,-0.02311198 0.015625,-0.03808594 0,-0.01497396 -0.005371,-0.02783203 -0.01611328,-0.03857422 C 0.08186849,0.00520833 0.06917318,0 0.05419922,0 0.03922526,0 0.02636719,0.00520833 0.015625,0.015625 0.00520833,0.02636719 0,0.03922526 0,0.05419922 0,0.0694987 0.00520833,0.08235677 0.015625,0.09277344 c 0.01074219,0.01041666 0.02360026,0.015625 0.03857422,0.015625 z"
           id="path27" />
      </symbol>
      <symbol
         id="font_2_14">
        <path
           d="m 0,0.59716799 0.16113281,0.0786133 H 0.1772461 V 0.11669922 c 0,-0.03710937 0.001465,-0.06022136 0.004395,-0.06933594 C 0.1848961,0.03824868 0.1914071,0.03125 0.2011724,0.02636719 0.2109384,0.02148439 0.2307948,0.01871749 0.2607427,0.01806639 V 0 H 0.01171875 v 0.01806641 c 0.03125,6.5104e-4 0.05143229,0.0032552 0.06054688,0.0078125 0.0091146,0.0048828 0.01546224,0.01123047 0.01904297,0.01904297 0.0035807,0.008138 0.0053711,0.0320638 0.0053711,0.07177734 V 0.4741211 c 0,0.0481771 -0.0016276,0.0791016 -0.0048828,0.0927735 -0.0022786,0.0104166 -0.0065104,0.0180664 -0.01269532,0.0229492 -0.0058594,0.004883 -0.01302083,0.007324 -0.02148437,0.007324 -0.01204427,0 -0.0288086,-0.005046 -0.05029297,-0.0151367 z"
           id="path30" />
      </symbol>
      <symbol
         id="font_2_18">
        <path
           d="M 0.38623048,0.6738281 0.34814454,0.5908203 H 0.14892578 L 0.10546878,0.5019531 C 0.19173178,0.4892578 0.2600912,0.457194 0.31054691,0.4057617 c 0.0432943,-0.0442708 0.0649414,-0.0963542 0.0649414,-0.15625001 0,-0.0348307 -0.007161,-0.0670573 -0.0214844,-0.0966797 C 0.3400065,0.12320963 0.32226563,0.09798177 0.30078126,0.07714844 0.27929688,0.05631511 0.2553711,0.03955078 0.2290039,0.02685547 0.19156902,0.00895182 0.15315755,0 0.11376953,0 0.07405599,0 0.04508464,0.00667318 0.02685547,0.02001953 0.00895182,0.03369141 0,0.04866536 0,0.06494141 c 0,0.0091146 0.00374349,0.01708984 0.01123047,0.02392578 0.007487,0.0071615 0.01692708,0.01074219 0.02832031,0.01074219 0.0084635,0 0.01578776,-0.0013021 0.02197266,-0.0039063 0.0065104,-0.0026042 0.01741537,-0.0092774 0.03271484,-0.02001953 0.02441407,-0.01692709 0.04915364,-0.02539063 0.07421875,-0.02539063 0.0380859,0 0.0714518,0.01432291 0.10009767,0.04296875 0.0289713,0.02897135 0.043457,0.06412761 0.043457,0.10546875 0,0.0400391 -0.0128581,0.0773112 -0.0385742,0.11181641 -0.0257161,0.0348307 -0.0611979,0.0616862 -0.10644531,0.0805664 -0.0354818,0.0146484 -0.08382162,0.023112 -0.14501953,0.0253906 l 0.12695312,0.2573242 z"
           id="path33" />
      </symbol>
      <use
         xlink:href="#font_2_13"
         transform="matrix(7.206,0,0,-7.206,194.09838,242.73044)"
         fill="#030404"
         id="use36"
         x="0"
         y="0"
         width="100%"
         height="100%" />
      <use
         xlink:href="#font_2_11"
         transform="matrix(7.206,0,0,-7.206,197.97269,242.74452)"
         fill="#030404"
         id="use38"
         x="0"
         y="0"
         width="100%"
         height="100%" />
      <use
         xlink:href="#font_2_14"
         transform="matrix(7.206,0,0,-7.206,200.11545,242.646)"
         fill="#030404"
         id="use40"
         x="0"
         y="0"
         width="100%"
         height="100%" />
      <use
         xlink:href="#font_2_18"
         transform="matrix(7.206,0,0,-7.206,203.24031,242.73044)"
         fill="#030404"
         id="use42"
         x="0"
         y="0"
         width="100%"
         height="100%" />
      <path
         transform="matrix(0.1,0,0,-0.1,205.908,233.27796)"
         stroke-width="2.883"
         stroke-linecap="butt"
         stroke-miterlimit="3.25"
         stroke-linejoin="miter"
         fill="none"
         stroke="#231f20"
         d="M 0,0 V 17.3"
         id="path44" />
      <path
         transform="matrix(0.1,0,0,-0.1,214.015,233.27796)"
         stroke-width="2.883"
         stroke-linecap="butt"
         stroke-miterlimit="3.25"
         stroke-linejoin="miter"
         fill="none"
         stroke="#231f20"
         d="M 0,0 V 17.3"
         id="path46" />
      <path
         transform="matrix(0.1,0,0,-0.1,222.122,233.27796)"
         stroke-width="2.883"
         stroke-linecap="butt"
         stroke-miterlimit="3.25"
         stroke-linejoin="miter"
         fill="none"
         stroke="#231f20"
         d="M 0,0 V 17.3"
         id="path48" />
      <path
         transform="matrix(0.1,0,0,-0.1,230.229,233.27796)"
         stroke-width="2.883"
         stroke-linecap="butt"
         stroke-miterlimit="3.25"
         stroke-linejoin="miter"
         fill="none"
         stroke="#231f20"
         d="M 0,0 V 17.3"
         id="path50" />
      <path
         transform="matrix(0.1,0,0,-0.1,238.33602,233.27796)"
         stroke-width="2.883"
         stroke-linecap="butt"
         stroke-miterlimit="3.25"
         stroke-linejoin="miter"
         fill="none"
         stroke="#231f20"
         d="M 0,0 V 28.82"
         id="path52" />
      <use
         xlink:href="#font_2_b1"
         transform="matrix(7.206,0,0,-7.206,229.26467,241.0521)"
         fill="#030404"
         id="use54"
         x="0"
         y="0"
         width="100%"
         height="100%" />
      <use
         xlink:href="#font_2_13"
         transform="matrix(7.206,0,0,-7.206,234.63272,242.73044)"
         fill="#030404"
         id="use56"
         x="0"
         y="0"
         width="100%"
         height="100%" />
      <use
         xlink:href="#font_2_11"
         transform="matrix(7.206,0,0,-7.206,238.50704,242.74452)"
         fill="#030404"
         id="use58"
         x="0"
         y="0"
         width="100%"
         height="100%" />
      <use
         xlink:href="#font_2_14"
         transform="matrix(7.206,0,0,-7.206,240.6498,242.646)"
         fill="#030404"
         id="use60"
         x="0"
         y="0"
         width="100%"
         height="100%" />
      <use
         xlink:href="#font_2_13"
         transform="matrix(7.206,0,0,-7.206,243.69022,242.73044)"
         fill="#030404"
         id="use62"
         x="0"
         y="0"
         width="100%"
         height="100%" />
      <path
         transform="matrix(0.1,0,0,-0.1,246.443,233.27796)"
         stroke-width="2.883"
         stroke-linecap="butt"
         stroke-miterlimit="3.25"
         stroke-linejoin="miter"
         fill="none"
         stroke="#231f20"
         d="M 0,0 V 17.3"
         id="path64" />
      <path
         transform="matrix(0.1,0,0,-0.1,254.55,233.27796)"
         stroke-width="2.883"
         stroke-linecap="butt"
         stroke-miterlimit="3.25"
         stroke-linejoin="miter"
         fill="none"
         stroke="#231f20"
         d="M 0,0 V 17.3"
         id="path66" />
      <path
         transform="matrix(0.1,0,0,-0.1,262.657,233.27796)"
         stroke-width="2.883"
         stroke-linecap="butt"
         stroke-miterlimit="3.25"
         stroke-linejoin="miter"
         fill="none"
         stroke="#231f20"
         d="M 0,0 V 17.3"
         id="path68" />
      <path
         transform="matrix(0.1,0,0,-0.1,270.764,233.27796)"
         stroke-width="2.883"
         stroke-linecap="butt"
         stroke-miterlimit="3.25"
         stroke-linejoin="miter"
         fill="none"
         stroke="#231f20"
         d="M 0,0 V 17.3"
         id="path70" />
      <path
         transform="matrix(0.1,0,0,-0.1,278.871,233.27796)"
         stroke-width="2.883"
         stroke-linecap="butt"
         stroke-miterlimit="3.25"
         stroke-linejoin="miter"
         fill="none"
         stroke="#231f20"
         d="M 0,0 V 28.82"
         id="path72" />
      <use
         xlink:href="#font_2_b1"
         transform="matrix(7.206,0,0,-7.206,269.8007,241.0521)"
         fill="#030404"
         id="use74"
         x="0"
         y="0"
         width="100%"
         height="100%" />
      <use
         xlink:href="#font_2_13"
         transform="matrix(7.206,0,0,-7.206,275.16874,242.73044)"
         fill="#030404"
         id="use76"
         x="0"
         y="0"
         width="100%"
         height="100%" />
      <use
         xlink:href="#font_2_11"
         transform="matrix(7.206,0,0,-7.206,279.04307,242.74452)"
         fill="#030404"
         id="use78"
         x="0"
         y="0"
         width="100%"
         height="100%" />
      <use
         xlink:href="#font_2_13"
         transform="matrix(7.206,0,0,-7.206,280.60176,242.73044)"
         fill="#030404"
         id="use80"
         x="0"
         y="0"
         width="100%"
         height="100%" />
      <use
         xlink:href="#font_2_18"
         transform="matrix(7.206,0,0,-7.206,284.3107,242.73044)"
         fill="#030404"
         id="use82"
         x="0"
         y="0"
         width="100%"
         height="100%" />
      <path
         transform="matrix(0.1,0,0,-0.1,286.979,233.27796)"
         stroke-width="2.883"
         stroke-linecap="butt"
         stroke-miterlimit="3.25"
         stroke-linejoin="miter"
         fill="none"
         stroke="#231f20"
         d="M 0,0 V 17.3"
         id="path84" />
      <path
         transform="matrix(0.1,0,0,-0.1,295.08604,233.27796)"
         stroke-width="2.883"
         stroke-linecap="butt"
         stroke-miterlimit="3.25"
         stroke-linejoin="miter"
         fill="none"
         stroke="#231f20"
         d="M 0,0 V 17.3"
         id="path86" />
      <path
         transform="matrix(0.1,0,0,-0.1,303.193,233.27796)"
         stroke-width="2.883"
         stroke-linecap="butt"
         stroke-miterlimit="3.25"
         stroke-linejoin="miter"
         fill="none"
         stroke="#231f20"
         d="M 0,0 V 17.3"
         id="path88" />
      <path
         transform="matrix(0.1,0,0,-0.1,311.30003,233.27796)"
         stroke-width="2.883"
         stroke-linecap="butt"
         stroke-miterlimit="3.25"
         stroke-linejoin="miter"
         fill="none"
         stroke="#231f20"
         d="M 0,0 V 17.3"
         id="path90" />
      <path
         transform="matrix(0.1,0,0,-0.1,319.407,233.27796)"
         stroke-width="2.883"
         stroke-linecap="butt"
         stroke-miterlimit="3.25"
         stroke-linejoin="miter"
         fill="none"
         stroke="#231f20"
         d="M 0,0 V 28.82"
         id="path92" />
      <path
         transform="matrix(0.1,0,0,-0.1,327.514,233.27796)"
         stroke-width="2.883"
         stroke-linecap="butt"
         stroke-miterlimit="3.25"
         stroke-linejoin="miter"
         fill="none"
         stroke="#231f20"
         d="M 0,0 V 17.3"
         id="path94" />
      <path
         transform="matrix(0.1,0,0,-0.1,335.621,233.27796)"
         stroke-width="2.883"
         stroke-linecap="butt"
         stroke-miterlimit="3.25"
         stroke-linejoin="miter"
         fill="none"
         stroke="#231f20"
         d="M 0,0 V 17.3"
         id="path96" />
      <path
         transform="matrix(0.1,0,0,-0.1,343.728,233.27796)"
         stroke-width="2.883"
         stroke-linecap="butt"
         stroke-miterlimit="3.25"
         stroke-linejoin="miter"
         fill="none"
         stroke="#231f20"
         d="M 0,0 V 17.3"
         id="path98" />
      <path
         transform="matrix(0.1,0,0,-0.1,351.83503,233.27796)"
         stroke-width="2.883"
         stroke-linecap="butt"
         stroke-miterlimit="3.25"
         stroke-linejoin="miter"
         fill="none"
         stroke="#231f20"
         d="M 0,0 V 17.3"
         id="path100" />
      <path
         transform="matrix(0.1,0,0,-0.1,359.942,233.27796)"
         stroke-width="2.883"
         stroke-linecap="butt"
         stroke-miterlimit="3.25"
         stroke-linejoin="miter"
         fill="none"
         stroke="#231f20"
         d="M 0,0 V 28.82"
         id="path102" />
      <use
         xlink:href="#font_2_13"
         transform="matrix(7.206,0,0,-7.206,353.71638,242.73044)"
         fill="#030404"
         id="use104"
         x="0"
         y="0"
         width="100%"
         height="100%" />
      <use
         xlink:href="#font_2_11"
         transform="matrix(7.206,0,0,-7.206,357.5907,242.74452)"
         fill="#030404"
         id="use106"
         x="0"
         y="0"
         width="100%"
         height="100%" />
      <use
         xlink:href="#font_2_13"
         transform="matrix(7.206,0,0,-7.206,359.14939,242.73044)"
         fill="#030404"
         id="use108"
         x="0"
         y="0"
         width="100%"
         height="100%" />
      <use
         xlink:href="#font_2_18"
         transform="matrix(7.206,0,0,-7.206,362.85835,242.73044)"
         fill="#030404"
         id="use110"
         x="0"
         y="0"
         width="100%"
         height="100%" />
      <path
         transform="matrix(0.1,0,0,-0.1,368.049,233.27796)"
         stroke-width="2.883"
         stroke-linecap="butt"
         stroke-miterlimit="3.25"
         stroke-linejoin="miter"
         fill="none"
         stroke="#231f20"
         d="M 0,0 V 17.3"
         id="path112" />
      <path
         transform="matrix(0.1,0,0,-0.1,376.156,233.27796)"
         stroke-width="2.883"
         stroke-linecap="butt"
         stroke-miterlimit="3.25"
         stroke-linejoin="miter"
         fill="none"
         stroke="#231f20"
         d="M 0,0 V 17.3"
         id="path114" />
      <path
         transform="matrix(0.1,0,0,-0.1,384.263,233.27796)"
         stroke-width="2.883"
         stroke-linecap="butt"
         stroke-miterlimit="3.25"
         stroke-linejoin="miter"
         fill="none"
         stroke="#231f20"
         d="M 0,0 V 17.3"
         id="path116" />
      <path
         transform="matrix(0.1,0,0,-0.1,392.37,233.27796)"
         stroke-width="2.883"
         stroke-linecap="butt"
         stroke-miterlimit="3.25"
         stroke-linejoin="miter"
         fill="none"
         stroke="#231f20"
         d="M 0,0 V 17.3"
         id="path118" />
      <path
         transform="matrix(0.1,0,0,-0.1,400.47703,233.27796)"
         stroke-width="2.883"
         stroke-linecap="butt"
         stroke-miterlimit="3.25"
         stroke-linejoin="miter"
         fill="none"
         stroke="#231f20"
         d="M 0,0 V 28.82"
         id="path120" />
      <use
         xlink:href="#font_2_13"
         transform="matrix(7.206,0,0,-7.206,394.25138,242.73044)"
         fill="#030404"
         id="use122"
         x="0"
         y="0"
         width="100%"
         height="100%" />
      <use
         xlink:href="#font_2_11"
         transform="matrix(7.206,0,0,-7.206,398.1257,242.74452)"
         fill="#030404"
         id="use124"
         x="0"
         y="0"
         width="100%"
         height="100%" />
      <use
         xlink:href="#font_2_14"
         transform="matrix(7.206,0,0,-7.206,400.26847,242.646)"
         fill="#030404"
         id="use126"
         x="0"
         y="0"
         width="100%"
         height="100%" />
      <use
         xlink:href="#font_2_13"
         transform="matrix(7.206,0,0,-7.206,403.3089,242.73044)"
         fill="#030404"
         id="use128"
         x="0"
         y="0"
         width="100%"
         height="100%" />
      <path
         transform="matrix(0.1,0,0,-0.1,408.584,233.27796)"
         stroke-width="2.883"
         stroke-linecap="butt"
         stroke-miterlimit="3.25"
         stroke-linejoin="miter"
         fill="none"
         stroke="#231f20"
         d="M 0,0 V 17.3"
         id="path130" />
      <path
         transform="matrix(0.1,0,0,-0.1,416.691,233.27796)"
         stroke-width="2.883"
         stroke-linecap="butt"
         stroke-miterlimit="3.25"
         stroke-linejoin="miter"
         fill="none"
         stroke="#231f20"
         d="M 0,0 V 17.3"
         id="path132" />
      <path
         transform="matrix(0.1,0,0,-0.1,424.798,233.27796)"
         stroke-width="2.883"
         stroke-linecap="butt"
         stroke-miterlimit="3.25"
         stroke-linejoin="miter"
         fill="none"
         stroke="#231f20"
         d="M 0,0 V 17.3"
         id="path134" />
      <path
         transform="matrix(0.1,0,0,-0.1,432.905,233.27796)"
         stroke-width="2.883"
         stroke-linecap="butt"
         stroke-miterlimit="3.25"
         stroke-linejoin="miter"
         fill="none"
         stroke="#231f20"
         d="M 0,0 V 17.3"
         id="path136" />
      <path
         transform="matrix(0.1,0,0,-0.1,441.013,233.27796)"
         stroke-width="2.883"
         stroke-linecap="butt"
         stroke-miterlimit="3.25"
         stroke-linejoin="miter"
         fill="none"
         stroke="#231f20"
         d="M 0,0 V 28.82"
         id="path138" />
      <use
         xlink:href="#font_2_13"
         transform="matrix(7.206,0,0,-7.206,434.78739,242.73044)"
         fill="#030404"
         id="use140"
         x="0"
         y="0"
         width="100%"
         height="100%" />
      <use
         xlink:href="#font_2_11"
         transform="matrix(7.206,0,0,-7.206,438.6617,242.74452)"
         fill="#030404"
         id="use142"
         x="0"
         y="0"
         width="100%"
         height="100%" />
      <use
         xlink:href="#font_2_14"
         transform="matrix(7.206,0,0,-7.206,440.80448,242.646)"
         fill="#030404"
         id="use144"
         x="0"
         y="0"
         width="100%"
         height="100%" />
      <use
         xlink:href="#font_2_18"
         transform="matrix(7.206,0,0,-7.206,443.92936,242.73044)"
         fill="#030404"
         id="use146"
         x="0"
         y="0"
         width="100%"
         height="100%" />
      <path
         transform="matrix(0.1,0,0,-0.1,192.734,233.27796)"
         stroke-width="2.883"
         stroke-linecap="butt"
         stroke-miterlimit="3.25"
         stroke-linejoin="miter"
         fill="none"
         stroke="#231f20"
         d="M 0,0 H 2533.45"
         id="path148" />
      <path
         transform="matrix(0.1,0,0,-0.1,319.407,314.348)"
         stroke-width="2.883"
         stroke-linecap="butt"
         stroke-miterlimit="3.25"
         stroke-linejoin="miter"
         fill="none"
         stroke="#231f20"
         d="M 0,0 H 28.82"
         id="path150" />
    </g>
    <clipPath
       id="cp4">
      <path
         transform="matrix(0.1,0,0,-0.1,0,792)"
         d="m 2983.28,4726.07 h 201.7772 v 100.887 H 2983.28 Z"
         id="path154" />
    </clipPath>
    <g
       clip-path="url(#cp4)"
       id="g167">
      <use
         xlink:href="#font_2_b1"
         transform="matrix(7.206,0,0,-7.206,299.16569,315.6371)"
         fill="#030404"
         id="use157"
         x="0"
         y="0"
         width="100%"
         height="100%" />
      <use
         xlink:href="#font_2_13"
         transform="matrix(7.206,0,0,-7.206,304.53373,317.31544)"
         fill="#030404"
         id="use159"
         x="0"
         y="0"
         width="100%"
         height="100%" />
      <use
         xlink:href="#font_2_11"
         transform="matrix(7.206,0,0,-7.206,308.40806,317.3295)"
         fill="#030404"
         id="use161"
         x="0"
         y="0"
         width="100%"
         height="100%" />
      <use
         xlink:href="#font_2_14"
         transform="matrix(7.206,0,0,-7.206,310.5508,317.231)"
         fill="#030404"
         id="use163"
         x="0"
         y="0"
         width="100%"
         height="100%" />
      <use
         xlink:href="#font_2_13"
         transform="matrix(7.206,0,0,-7.206,313.59126,317.31544)"
         fill="#030404"
         id="use165"
         x="0"
         y="0"
         width="100%"
         height="100%" />
    </g>
    <clipPath
       id="cp5">
      <path
         transform="matrix(0.1,0,0,-0.1,0,792)"
         d="M 1887.93,4726.07 H 4482.19 V 6441.1599 H 1887.93 Z"
         id="path169" />
    </clipPath>
    <g
       clip-path="url(#cp5)"
       id="g230">
      <path
         transform="matrix(0.1,0,0,-0.1,319.407,306.241)"
         stroke-width="2.883"
         stroke-linecap="butt"
         stroke-miterlimit="3.25"
         stroke-linejoin="miter"
         fill="none"
         stroke="#231f20"
         d="M 0,0 H 17.29"
         id="path172" />
      <path
         transform="matrix(0.1,0,0,-0.1,319.407,298.13398)"
         stroke-width="2.883"
         stroke-linecap="butt"
         stroke-miterlimit="3.25"
         stroke-linejoin="miter"
         fill="none"
         stroke="#231f20"
         d="M 0,0 H 17.29"
         id="path174" />
      <path
         transform="matrix(0.1,0,0,-0.1,319.407,290.027)"
         stroke-width="2.883"
         stroke-linecap="butt"
         stroke-miterlimit="3.25"
         stroke-linejoin="miter"
         fill="none"
         stroke="#231f20"
         d="M 0,0 H 17.29"
         id="path176" />
      <path
         transform="matrix(0.1,0,0,-0.1,319.407,281.92)"
         stroke-width="2.883"
         stroke-linecap="butt"
         stroke-miterlimit="3.25"
         stroke-linejoin="miter"
         fill="none"
         stroke="#231f20"
         d="M 0,0 H 17.29"
         id="path178" />
      <path
         transform="matrix(0.1,0,0,-0.1,319.407,273.813)"
         stroke-width="2.883"
         stroke-linecap="butt"
         stroke-miterlimit="3.25"
         stroke-linejoin="miter"
         fill="none"
         stroke="#231f20"
         d="M 0,0 H 28.82"
         id="path180" />
      <use
         xlink:href="#font_2_b1"
         transform="matrix(7.206,0,0,-7.206,299.16569,275.10209)"
         fill="#030404"
         id="use182"
         x="0"
         y="0"
         width="100%"
         height="100%" />
      <use
         xlink:href="#font_2_13"
         transform="matrix(7.206,0,0,-7.206,304.53373,276.78044)"
         fill="#030404"
         id="use184"
         x="0"
         y="0"
         width="100%"
         height="100%" />
      <use
         xlink:href="#font_2_11"
         transform="matrix(7.206,0,0,-7.206,308.40806,276.7945)"
         fill="#030404"
         id="use186"
         x="0"
         y="0"
         width="100%"
         height="100%" />
      <use
         xlink:href="#font_2_13"
         transform="matrix(7.206,0,0,-7.206,309.96675,276.78044)"
         fill="#030404"
         id="use188"
         x="0"
         y="0"
         width="100%"
         height="100%" />
      <use
         xlink:href="#font_2_18"
         transform="matrix(7.206,0,0,-7.206,313.6757,276.78044)"
         fill="#030404"
         id="use190"
         x="0"
         y="0"
         width="100%"
         height="100%" />
      <path
         transform="matrix(0.1,0,0,-0.1,319.407,265.706)"
         stroke-width="2.883"
         stroke-linecap="butt"
         stroke-miterlimit="3.25"
         stroke-linejoin="miter"
         fill="none"
         stroke="#231f20"
         d="M 0,0 H 17.29"
         id="path192" />
      <path
         transform="matrix(0.1,0,0,-0.1,319.407,257.599)"
         stroke-width="2.883"
         stroke-linecap="butt"
         stroke-miterlimit="3.25"
         stroke-linejoin="miter"
         fill="none"
         stroke="#231f20"
         d="M 0,0 H 17.29"
         id="path194" />
      <path
         transform="matrix(0.1,0,0,-0.1,319.407,249.492)"
         stroke-width="2.883"
         stroke-linecap="butt"
         stroke-miterlimit="3.25"
         stroke-linejoin="miter"
         fill="none"
         stroke="#231f20"
         d="M 0,0 H 17.29"
         id="path196" />
      <path
         transform="matrix(0.1,0,0,-0.1,319.407,241.38501)"
         stroke-width="2.883"
         stroke-linecap="butt"
         stroke-miterlimit="3.25"
         stroke-linejoin="miter"
         fill="none"
         stroke="#231f20"
         d="M 0,0 H 17.29"
         id="path198" />
      <path
         transform="matrix(0.1,0,0,-0.1,319.407,233.27796)"
         stroke-width="2.883"
         stroke-linecap="butt"
         stroke-miterlimit="3.25"
         stroke-linejoin="miter"
         fill="none"
         stroke="#231f20"
         d="M 0,0 H 28.82"
         id="path200" />
      <path
         transform="matrix(0.1,0,0,-0.1,319.407,225.17096)"
         stroke-width="2.883"
         stroke-linecap="butt"
         stroke-miterlimit="3.25"
         stroke-linejoin="miter"
         fill="none"
         stroke="#231f20"
         d="M 0,0 H 17.29"
         id="path202" />
      <path
         transform="matrix(0.1,0,0,-0.1,319.407,217.06403)"
         stroke-width="2.883"
         stroke-linecap="butt"
         stroke-miterlimit="3.25"
         stroke-linejoin="miter"
         fill="none"
         stroke="#231f20"
         d="M 0,0 H 17.29"
         id="path204" />
      <path
         transform="matrix(0.1,0,0,-0.1,319.407,208.95697)"
         stroke-width="2.883"
         stroke-linecap="butt"
         stroke-miterlimit="3.25"
         stroke-linejoin="miter"
         fill="none"
         stroke="#231f20"
         d="M 0,0 H 17.29"
         id="path206" />
      <path
         transform="matrix(0.1,0,0,-0.1,319.407,200.84998)"
         stroke-width="2.883"
         stroke-linecap="butt"
         stroke-miterlimit="3.25"
         stroke-linejoin="miter"
         fill="none"
         stroke="#231f20"
         d="M 0,0 H 17.29"
         id="path208" />
      <path
         transform="matrix(0.1,0,0,-0.1,319.407,192.74298)"
         stroke-width="2.883"
         stroke-linecap="butt"
         stroke-miterlimit="3.25"
         stroke-linejoin="miter"
         fill="none"
         stroke="#231f20"
         d="M 0,0 H 28.82"
         id="path210" />
      <use
         xlink:href="#font_2_13"
         transform="matrix(7.206,0,0,-7.206,304.5334,195.70944)"
         fill="#030404"
         id="use212"
         x="0"
         y="0"
         width="100%"
         height="100%" />
      <use
         xlink:href="#font_2_11"
         transform="matrix(7.206,0,0,-7.206,308.4077,195.72353)"
         fill="#030404"
         id="use214"
         x="0"
         y="0"
         width="100%"
         height="100%" />
      <use
         xlink:href="#font_2_13"
         transform="matrix(7.206,0,0,-7.206,309.9664,195.70944)"
         fill="#030404"
         id="use216"
         x="0"
         y="0"
         width="100%"
         height="100%" />
      <use
         xlink:href="#font_2_18"
         transform="matrix(7.206,0,0,-7.206,313.67536,195.70944)"
         fill="#030404"
         id="use218"
         x="0"
         y="0"
         width="100%"
         height="100%" />
      <path
         transform="matrix(0.1,0,0,-0.1,319.407,184.63599)"
         stroke-width="2.883"
         stroke-linecap="butt"
         stroke-miterlimit="3.25"
         stroke-linejoin="miter"
         fill="none"
         stroke="#231f20"
         d="M 0,0 H 17.29"
         id="path220" />
      <path
         transform="matrix(0.1,0,0,-0.1,319.407,176.52899)"
         stroke-width="2.883"
         stroke-linecap="butt"
         stroke-miterlimit="3.25"
         stroke-linejoin="miter"
         fill="none"
         stroke="#231f20"
         d="M 0,0 H 17.29"
         id="path222" />
      <path
         transform="matrix(0.1,0,0,-0.1,319.407,168.422)"
         stroke-width="2.883"
         stroke-linecap="butt"
         stroke-miterlimit="3.25"
         stroke-linejoin="miter"
         fill="none"
         stroke="#231f20"
         d="M 0,0 H 17.29"
         id="path224" />
      <path
         transform="matrix(0.1,0,0,-0.1,319.407,160.31403)"
         stroke-width="2.883"
         stroke-linecap="butt"
         stroke-miterlimit="3.25"
         stroke-linejoin="miter"
         fill="none"
         stroke="#231f20"
         d="M 0,0 H 17.29"
         id="path226" />
      <path
         transform="matrix(0.1,0,0,-0.1,319.407,152.20697)"
         stroke-width="2.883"
         stroke-linecap="butt"
         stroke-miterlimit="3.25"
         stroke-linejoin="miter"
         fill="none"
         stroke="#231f20"
         d="M 0,0 H 28.82"
         id="path228" />
    </g>
    <clipPath
       id="cp6">
      <path
         transform="matrix(0.1,0,0,-0.1,0,792)"
         d="m 3033.73,6340.27 h 151.332 v 100.887 H 3033.73 Z"
         id="path232" />
    </clipPath>
    <g
       clip-path="url(#cp6)"
       id="g243">
      <use
         xlink:href="#font_2_13"
         transform="matrix(7.206,0,0,-7.206,304.5334,155.17447)"
         fill="#030404"
         id="use235"
         x="0"
         y="0"
         width="100%"
         height="100%" />
      <use
         xlink:href="#font_2_11"
         transform="matrix(7.206,0,0,-7.206,308.4077,155.18856)"
         fill="#030404"
         id="use237"
         x="0"
         y="0"
         width="100%"
         height="100%" />
      <use
         xlink:href="#font_2_14"
         transform="matrix(7.206,0,0,-7.206,310.55049,155.09003)"
         fill="#030404"
         id="use239"
         x="0"
         y="0"
         width="100%"
         height="100%" />
      <use
         xlink:href="#font_2_13"
         transform="matrix(7.206,0,0,-7.206,313.5909,155.17447)"
         fill="#030404"
         id="use241"
         x="0"
         y="0"
         width="100%"
         height="100%" />
    </g>
    <clipPath
       id="cp7">
      <path
         transform="matrix(0.1,0,0,-0.1,0,792)"
         d="M 1887.93,4726.07 H 4482.19 V 6441.1599 H 1887.93 Z"
         id="path245" />
    </clipPath>
    <g
       clip-path="url(#cp7)"
       id="g250">
      <path
         transform="matrix(0.1,0,0,-0.1,319.407,317.727)"
         stroke-width="2.883"
         stroke-linecap="butt"
         stroke-miterlimit="3.25"
         stroke-linejoin="miter"
         fill="none"
         stroke="#231f20"
         d="M 0,0 V 1688.97"
         id="path248" />
    </g>
  </g>
</svg>
