<?xml version="1.0" encoding="UTF-8" standalone="no"?>
<svg
   xmlns:dc="http://purl.org/dc/elements/1.1/"
   xmlns:cc="http://creativecommons.org/ns#"
   xmlns:rdf="http://www.w3.org/1999/02/22-rdf-syntax-ns#"
   xmlns:svg="http://www.w3.org/2000/svg"
   xmlns="http://www.w3.org/2000/svg"
   xmlns:xlink="http://www.w3.org/1999/xlink"
   xmlns:sodipodi="http://sodipodi.sourceforge.net/DTD/sodipodi-0.dtd"
   xmlns:inkscape="http://www.inkscape.org/namespaces/inkscape"
   version="1.1"
   width="622pt"
   height="300pt"
   viewBox="0 0 622 300"
   id="svg277"
   sodipodi:docname="volume_rendering_4.svg"
   inkscape:version="1.0.1 (3bc2e813f5, 2020-09-07)">
  <metadata
     id="metadata283">
    <rdf:RDF>
      <cc:Work
         rdf:about="">
        <dc:format>image/svg+xml</dc:format>
        <dc:type
           rdf:resource="http://purl.org/dc/dcmitype/StillImage" />
        <dc:title />
      </cc:Work>
    </rdf:RDF>
  </metadata>
  <defs
     id="defs281" />
  <sodipodi:namedview
     pagecolor="#ffffff"
     bordercolor="#666666"
     borderopacity="1"
     objecttolerance="10"
     gridtolerance="10"
     guidetolerance="10"
     inkscape:pageopacity="0"
     inkscape:pageshadow="2"
     inkscape:window-width="1920"
     inkscape:window-height="1001"
     id="namedview279"
     showgrid="false"
     inkscape:zoom="0.78598485"
     inkscape:cx="377.6977"
     inkscape:cy="205.37633"
     inkscape:window-x="-9"
     inkscape:window-y="-9"
     inkscape:window-maximized="1"
     inkscape:current-layer="layer1"
     inkscape:document-rotation="0" />
  <g
     inkscape:groupmode="layer"
     id="layer1"
     inkscape:label="Layer 1"
     style="display:inline">
    <rect
       style="opacity:0.999;fill:#ffffff;stroke-width:22.5;stroke-dasharray:22.5, 22.5;stroke-dashoffset:31.5;paint-order:fill markers stroke"
       id="rect1125"
       width="723.29639"
       height="366.41928"
       x="-22.901205"
       y="-32.443375" />
  </g>
  <g
     inkscape:groupmode="layer"
     id="layer2"
     inkscape:label="Layer 2"
     style="display:inline">
    <g
       enable-background="new"
       id="g275"
       transform="matrix(1.9938275,0,0,1.9938275,-273.9769,-257.57817)">
      <clipPath
         id="cp0">
        <path
           transform="matrix(0.1,0,0,-0.1,0,792)"
           d="M 1452.5,5312.84 H 4417.4299 V 6441.1599 H 1452.5 Z"
           id="path2" />
      </clipPath>
      <g
         clip-path="url(#cp0)"
         id="g29">
        <path
           transform="matrix(0.1,0,0,-0.1,202.677,203.83795)"
           stroke-width="8.236"
           stroke-linecap="square"
           stroke-miterlimit="3.25"
           stroke-linejoin="miter"
           fill="none"
           stroke="#3853a4"
           d="m 0,0 v 0.5 0.49 1 l -0.01,0.49 v 0.49 l -0.01,0.5 -0.01,0.5 -0.01,0.5 v 0.49 l -0.01,0.49 -0.02,0.5 -0.01,0.49 -0.01,0.51 -0.03,0.98 -0.01,0.5 -0.02,0.49 -0.03,1 -0.03,0.49 -0.02,0.5 -0.04,0.99 -0.03,0.49 -0.02,0.49 -0.06,1 -0.11,1.98 -0.02,0.49 -0.04,0.49 -0.06,0.99 -0.15,1.98 -0.04,0.49 -0.04,0.5 -0.08,0.99 -0.18,1.97 -0.04,0.5 -0.05,0.49 -0.1,0.99 -0.2,1.97 -0.46,3.94 -0.07,0.53 -0.07,0.54 -0.14,1.06 -0.29,2.13 -0.63,4.25 -0.09,0.54 -0.08,0.52 -0.18,1.07 -0.36,2.11 -0.77,4.23 -0.11,0.53 -0.1,0.53 -0.21,1.05 -0.43,2.1 -0.92,4.2 -2.05,8.36 -0.13,0.48 -0.13,0.49 -0.26,0.97 -0.53,1.93 -1.11,3.86 -2.41,7.66 -0.15,0.48 -0.16,0.47 -0.32,0.95 -0.65,1.9 -1.35,3.78 -2.88,7.5 -0.19,0.46 -0.17,0.45 -0.38,0.92 -0.75,1.81 -1.55,3.61 -3.27,7.17 -0.21,0.45 -0.21,0.44 -0.43,0.89 -0.87,1.76 -1.76,3.52 -3.7,6.95 -0.26,0.47 -0.26,0.46 -0.52,0.93 -1.05,1.86 -2.16,3.68 -4.49,7.27 -0.29,0.44 -0.29,0.45 -0.57,0.9 -1.18,1.78 -2.4,3.54 -4.97,6.94 -0.29,0.4 -0.3,0.4 -0.59,0.79 -1.2,1.59 -2.45,3.15 -5.03,6.18 -0.32,0.38 -0.33,0.38 -0.65,0.76 -1.29,1.51 -2.63,2.99 -5.41,5.85 -0.37,0.39 -0.38,0.39 -0.75,0.78 -1.5,1.55 -3.06,3.05 -6.27,5.94 -0.39,0.36 -0.4,0.37 -0.8,0.72 -1.61,1.44 -3.25,2.85 -6.65,5.5 -0.41,0.34 -0.41,0.33 -0.84,0.65 -1.67,1.31 -3.37,2.57 -6.87,4.97 -0.44,0.3 -0.43,0.3 -0.87,0.6 -1.76,1.2 -3.53,2.33 -7.18,4.51 -0.43,0.25 -0.42,0.26 -0.85,0.51 -1.7,1 -3.44,1.96 -6.94,3.79 -0.44,0.23 -0.44,0.22 -0.88,0.45 -1.75,0.9 -3.55,1.75 -7.17,3.35 -0.49,0.21 -0.49,0.22 -0.98,0.43 -1.97,0.85 -3.96,1.65 -7.99,3.11 -0.5,0.19 -0.51,0.18 -1.01,0.36 -2.02,0.73 -4.05,1.38 -8.18,2.57 -0.48,0.14 -0.49,0.14 -0.95,0.28 -1.93,0.55 -3.86,1.04 -0.49,0.12 -0.48,0.13 -0.98,0.24 -1.93,0.49 -3.9,0.92 -0.49,0.12 -0.49,0.1 -0.97,0.23 -1.96,0.42 -3.92,0.8 -0.49,0.1 -0.49,0.09 -0.99,0.19 -1.96,0.37 -3.95,0.67 -0.49,0.08 -0.47,0.08 -0.98,0.15 -1.93,0.3 -0.49,0.07 -0.48,0.07 -0.98,0.14 -1.94,0.26 -0.49,0.07 -0.48,0.07 -0.98,0.12 -1.95,0.24 -3.9,0.43 -0.48,0.05 -0.49,0.05 -0.98,0.09 -1.95,0.18 -0.49,0.04 -0.49,0.04 -0.97,0.07 -1.96,0.15 -0.49,0.04 -0.5,0.04 -0.98,0.05 -0.48,0.04 -0.5,0.03 -0.98,0.06 -0.48,0.02 -0.49,0.03 -0.98,0.05 -0.49,0.02 -0.49,0.03 -0.98,0.04 -0.53,0.01 -0.54,0.03 -0.52,0.01 -0.54,0.02 -0.53,0.02 -0.53,0.02 -1.06,0.03 h -0.54 l -0.53,0.02 -0.53,0.01 -0.54,0.01 -0.52,0.01 -0.54,0.01 h -0.53 -0.53 -0.54 l -0.53,0.01 h -0.53 -0.54 -0.52 -0.54 l -0.53,-0.01 h -0.53 -0.54 l -0.52,-0.01 -0.54,-0.01 -0.53,-0.01 -0.53,-0.01 -0.54,-0.01 -0.52,-0.01 -0.54,-0.01 -0.53,-0.02 -0.53,-0.02 -0.54,-0.01 -0.52,-0.02 -0.54,-0.01 -0.53,-0.02 -1.07,-0.04 -0.52,-0.02 -0.54,-0.03 -1.06,-0.05 -2.13,-0.12 -0.52,-0.03 -0.54,-0.03 -1.06,-0.08 -2.13,-0.15 -0.52,-0.03 -0.54,-0.05 -1.05,-0.08 -2.13,-0.19 -0.49,-0.04 -0.5,-0.05 -0.98,-0.1 -1.98,-0.2 -0.49,-0.05 -0.5,-0.06 -0.99,-0.11 -1.97,-0.23 -0.49,-0.06 -0.49,-0.07 -0.99,-0.12 -1.96,-0.27 -3.94,-0.57 -0.49,-0.09 -0.49,-0.07 -0.98,-0.16 -1.96,-0.33 -3.91,-0.69 -7.78,-1.58 -0.53,-0.12 -0.53,-0.11 -1.05,-0.24 -2.09,-0.49 -4.19,-1.02 -0.52,-0.13 -0.52,-0.13 -1.04,-0.27 -2.09,-0.56 -4.14,-1.16 -0.52,-0.15 -0.52,-0.16 -1.03,-0.3 -2.06,-0.63 -4.1,-1.3 -8.14,-2.81 -0.51,-0.18 -0.49,-0.18 -0.99,-0.37 -1.97,-0.75 -3.94,-1.54 -7.79,-3.28 -0.49,-0.21 -0.49,-0.22 -0.96,-0.43 -1.91,-0.88 -3.84,-1.79 -7.55,-3.79 -0.44,-0.22 -0.44,-0.23 -0.87,-0.46 -1.74,-0.94 -3.45,-1.9 -6.82,-3.96 -0.42,-0.25 -0.42,-0.26 -0.85,-0.51 -1.67,-1.04 -3.34,-2.11 -6.55,-4.37 -0.45,-0.3 -0.43,-0.31 -0.88,-0.61 -1.75,-1.23 -3.46,-2.52 -6.79,-5.19 -0.41,-0.34 -0.43,-0.33 -0.83,-0.67 -1.66,-1.35 -3.29,-2.73 -6.43,-5.64 -0.37,-0.33 -0.37,-0.34 -0.73,-0.67 -1.47,-1.36 -2.89,-2.75 -5.66,-5.63 -0.36,-0.35 -0.34,-0.37 -0.69,-0.71 -1.38,-1.45 -2.71,-2.92 -5.31,-5.97 -0.34,-0.41 -0.36,-0.41 -0.7,-0.83 -1.39,-1.65 -2.74,-3.35 -5.3,-6.83 -0.33,-0.44 -0.32,-0.43 -0.64,-0.87 -1.28,-1.75 -2.5,-3.52 -4.84,-7.17 -0.29,-0.45 -0.28,-0.44 -0.57,-0.9 -1.14,-1.8 -2.22,-3.61 -4.27,-7.34 -0.26,-0.47 -0.26,-0.46 -0.51,-0.93 -1.01,-1.86 -1.98,-3.76 -3.78,-7.61 -0.21,-0.44 -0.22,-0.46 -0.41,-0.89 -0.83,-1.8 -1.62,-3.61 -3.07,-7.31 -0.18,-0.46 -0.18,-0.46 -0.37,-0.91 -0.72,-1.86 -1.39,-3.71 -2.61,-7.47 -0.18,-0.52 -0.16,-0.51 -0.33,-1.02 -0.66,-2.04 -1.25,-4.11 -0.15,-0.51 -0.15,-0.52 -0.3,-1.03 -0.58,-2.06 -1.11,-4.16 -0.14,-0.52 -0.13,-0.52 -0.27,-1.04 -0.51,-2.08 -0.98,-4.19 -1.74,-8.4 -0.09,-0.5 -0.09,-0.49 -0.18,-0.98 -0.35,-1.98 -0.65,-3.95 -0.09,-0.51 -0.07,-0.49 -0.15,-0.99 -0.29,-1.99 -0.53,-3.97 -0.06,-0.5 -0.07,-0.49 -0.11,-1 -0.23,-1.99 -0.05,-0.5 -0.06,-0.5 -0.1,-0.99 -0.19,-2 -0.05,-0.5 -0.05,-0.5 -0.09,-1 -0.16,-2 -0.03,-0.49 -0.05,-0.51 -0.07,-0.99 -0.13,-2 -0.03,-0.5 -0.03,-0.48 -0.06,-0.99 -0.02,-0.49 -0.03,-0.49 -0.04,-0.98 -0.03,-0.49 -0.02,-0.49 -0.04,-0.98 -0.02,-0.5 -0.02,-0.49 -0.03,-0.98 -0.02,-0.49 -0.01,-0.49 -0.01,-0.49 -0.02,-0.49 -0.01,-0.5 V 5.28 l -0.02,-0.49 -0.01,-0.49 -0.01,-0.49 V 3.32 l -0.01,-0.49 V 2.33 1.84 l -0.01,-0.49 V 0.86 0.37 -0.12 -0.62 -1.1 l 0.01,-0.5 v -0.49 -0.49 -0.49 l 0.01,-0.5 0.01,-0.48 0.01,-0.5 v -0.49 l 0.02,-0.49 0.01,-0.49 0.01,-0.49 0.02,-0.98 0.02,-0.5 0.02,-0.48 0.03,-0.98 0.01,-0.5 0.03,-0.49 0.04,-0.98 0.02,-0.5 0.02,-0.48 0.05,-0.98 0.12,-1.97 0.03,-0.53 0.03,-0.53 0.07,-1.07 0.16,-2.12 0.04,-0.54 0.04,-0.52 0.09,-1.07 0.19,-2.12 0.05,-0.54 0.05,-0.52 0.1,-1.07 0.23,-2.11 0.5,-4.24 0.07,-0.53 0.06,-0.53 0.14,-1.05 0.3,-2.12 0.64,-4.21 0.08,-0.53 0.09,-0.53 0.18,-1.04 0.36,-2.11 0.78,-4.19 0.1,-0.49 0.09,-0.49 0.2,-0.98 0.4,-1.94 0.85,-3.9 0.11,-0.47 0.11,-0.49 0.23,-0.97 0.46,-1.94 0.98,-3.85 0.12,-0.49 0.13,-0.48 0.25,-0.96 0.52,-1.92 1.09,-3.83 2.37,-7.6 0.16,-0.51 0.17,-0.51 0.34,-1.02 0.7,-2.04 1.44,-4.07 3.09,-8.06 0.21,-0.49 0.2,-0.5 0.41,-1 0.83,-1.99 1.71,-3.96 3.62,-7.83 0.23,-0.48 0.24,-0.48 0.46,-0.94 0.95,-1.89 1.94,-3.78 4.05,-7.43 0.26,-0.46 0.27,-0.46 0.53,-0.91 1.07,-1.83 2.17,-3.63 4.54,-7.15 0.27,-0.41 0.28,-0.42 0.54,-0.82 1.11,-1.64 2.25,-3.24 4.63,-6.4 0.3,-0.39 0.3,-0.39 0.59,-0.8 1.21,-1.56 2.44,-3.11 5.03,-6.09 0.34,-0.41 0.35,-0.41 0.7,-0.81 1.41,-1.61 2.86,-3.19 5.86,-6.24 0.38,-0.38 0.37,-0.39 0.75,-0.77 1.52,-1.51 3.06,-2.99 6.27,-5.84 0.36,-0.34 0.38,-0.33 0.75,-0.67 1.5,-1.31 3.03,-2.61 6.19,-5.06 0.4,-0.31 0.38,-0.32 0.79,-0.62 1.58,-1.21 3.19,-2.42 6.49,-4.67 0.41,-0.28 0.4,-0.28 0.8,-0.56 1.63,-1.09 3.26,-2.17 6.63,-4.18 0.42,-0.26 0.42,-0.25 0.84,-0.51 1.69,-1 3.39,-1.96 6.87,-3.77 0.47,-0.25 0.47,-0.25 0.95,-0.49 1.89,-0.97 3.8,-1.89 7.72,-3.61 0.48,-0.22 0.49,-0.2 0.97,-0.43 1.95,-0.85 3.93,-1.64 7.92,-3.08 0.47,-0.17 0.46,-0.18 0.93,-0.33 1.87,-0.67 3.76,-1.29 7.56,-2.41 0.47,-0.14 0.49,-0.14 0.94,-0.28 1.91,-0.55 3.82,-1.05 7.7,-1.94 0.52,-0.12 0.53,-0.13 1.04,-0.24 2.11,-0.46 4.21,-0.88 0.53,-0.1 0.53,-0.11 1.05,-0.2 2.12,-0.39 4.23,-0.75 0.54,-0.08 0.52,-0.09 1.07,-0.17 2.12,-0.32 0.54,-0.08 0.53,-0.09 1.06,-0.14 2.14,-0.29 0.52,-0.07 0.54,-0.07 1.07,-0.13 2.13,-0.25 4.28,-0.46 0.5,-0.04 0.5,-0.05 1,-0.09 2,-0.17 0.5,-0.04 0.5,-0.04 1.01,-0.08 2,-0.14 0.5,-0.03 0.51,-0.03 0.99,-0.06 0.51,-0.03 0.5,-0.03 1,-0.05 0.5,-0.02 0.51,-0.03 0.99,-0.06 h 0.51 l 0.5,-0.03 1,-0.03 0.51,-0.02 0.5,-0.01 0.5,-0.02 0.5,-0.02 0.5,-0.01 0.51,-0.01 0.5,-0.01 0.5,-0.01 0.5,-0.01 h 0.51 l 0.5,-0.01 0.5,-0.01 h 0.5 l 0.51,-0.01 h 0.5 l 0.49,-0.01 h 0.51 0.5 0.5 0.5 l 0.5,0.01 h 0.51 l 0.5,0.01 0.5,0.01 h 0.51 l 0.5,0.01 h 0.5 l 0.5,0.01 0.5,0.02 0.51,0.01 1,0.02 0.49,0.02 0.49,0.01 0.99,0.04 0.49,0.01 0.49,0.02 0.99,0.04 0.49,0.03 0.49,0.02 0.99,0.05 1.95,0.11 0.5,0.02 0.49,0.04 0.98,0.05 1.97,0.14 0.49,0.04 0.49,0.04 0.98,0.08 1.96,0.16 0.5,0.04 0.48,0.05 0.99,0.09 1.95,0.2 0.5,0.06 0.48,0.05 0.98,0.11 1.96,0.23 0.49,0.05 0.49,0.06 0.98,0.13 1.95,0.25 3.89,0.56 0.53,0.09 0.53,0.08 1.05,0.16 2.11,0.35 4.21,0.75 0.52,0.1 0.52,0.09 1.06,0.2 2.09,0.42 4.19,0.88 0.52,0.12 0.51,0.12 1.05,0.23 2.08,0.49 4.14,1.02 8.25,2.25 0.48,0.14 0.47,0.13 0.96,0.3 1.9,0.57 3.81,1.2 7.54,2.59 0.47,0.16 0.47,0.18 0.93,0.34 1.87,0.7 3.72,1.43 7.37,3.05 0.5,0.21 0.49,0.22 0.99,0.43 1.98,0.88 3.92,1.81 7.75,3.82 0.47,0.24 0.49,0.25 0.96,0.5 1.91,1.02 3.78,2.06 7.49,4.34 0.45,0.27 0.46,0.27 0.9,0.55 1.8,1.12 3.58,2.28 7.04,4.72 0.44,0.31 0.44,0.3 0.86,0.61 1.73,1.23 3.42,2.51 6.72,5.18 0.39,0.31 0.38,0.31 0.77,0.62 1.53,1.25 3.04,2.54 5.95,5.22 0.37,0.33 0.36,0.33 0.73,0.67 1.45,1.34 2.88,2.72 5.62,5.58 0.37,0.38 0.38,0.38 0.74,0.78 1.48,1.55 2.93,3.13 5.68,6.43 0.35,0.42 0.34,0.4 0.7,0.82 1.37,1.65 2.71,3.32 5.25,6.8 0.3,0.4 0.29,0.4 0.59,0.81 1.18,1.62 2.32,3.26 4.48,6.64 0.28,0.42 0.28,0.42 0.54,0.85 1.07,1.69 2.12,3.4 4.06,6.9 0.23,0.43 0.24,0.43 0.49,0.85 0.95,1.73 1.86,3.45 3.56,7.01 0.21,0.43 0.21,0.45 0.43,0.88 0.84,1.78 1.65,3.56 3.13,7.2 0.2,0.49 0.2,0.5 0.41,0.98 0.79,1.99 1.54,3.96 2.88,8.03 0.16,0.5 0.18,0.5 0.34,1.01 0.66,2.03 1.26,4.07 2.35,8.18 0.12,0.49 0.14,0.48 0.24,0.96 0.5,1.93 0.94,3.86 0.11,0.48 0.11,0.49 0.22,0.97 0.44,1.93 0.81,3.9 0.1,0.49 0.1,0.47 0.19,0.99 0.37,1.95 0.7,3.92 0.08,0.48 0.08,0.5 0.17,0.98 0.31,1.96 0.58,3.93 0.07,0.56 0.08,0.54 0.15,1.1 0.27,2.2 0.06,0.55 0.07,0.55 0.13,1.11 0.24,2.2 0.05,0.56 0.06,0.55 0.1,1.1 0.21,2.21 0.04,0.54 0.05,0.56 0.09,1.12 0.16,2.2 0.04,0.56 0.03,0.55 0.07,1.11 0.04,0.55 0.03,0.56 0.06,1.1 0.02,0.55 0.04,0.57 0.05,1.1 0.02,0.56 0.02,0.55 0.04,1.11 0.02,0.55 0.01,0.56 0.02,0.55 0.01,0.56 0.02,0.55 0.01,0.56 0.02,0.55 v 0.55 l 0.01,0.56 0.01,0.55 0.01,0.56 0.01,0.56 v 0.55 0.55 0.56 V 0"
           id="path5" />
        <path
           transform="matrix(0.1,0,0,-0.1,245.202,203.83795)"
           stroke-width="8.236"
           stroke-linecap="square"
           stroke-miterlimit="3.25"
           stroke-linejoin="miter"
           fill="none"
           stroke="#3853a4"
           d="m 0,0 -0.01,1.32 -0.01,1.31 -0.02,1.32 -0.02,1.31 -0.03,1.32 -0.04,1.31 -0.05,1.32 -0.05,1.31 -0.06,1.32 -0.07,1.31 -0.08,1.32 -0.08,1.3 -0.09,1.32 -0.1,1.31 -0.21,2.62 -0.12,1.32 -0.12,1.31 -0.27,2.62 -0.15,1.31 -0.16,1.3 -0.33,2.62 -0.17,1.3 -0.19,1.31 -0.38,2.6 -0.86,5.21 -0.23,1.3 -0.24,1.29 -0.5,2.59 -1.08,5.17 -0.29,1.29 -0.3,1.29 -0.61,2.57 -1.3,5.13 -0.35,1.28 -0.34,1.28 -0.73,2.54 -1.52,5.08 -3.37,10.08 -0.49,1.35 -0.49,1.36 -1.02,2.69 -2.13,5.37 -4.61,10.62 -0.61,1.31 -0.62,1.31 -1.25,2.61 -2.61,5.2 -5.55,10.23 -0.72,1.27 -0.73,1.26 -1.49,2.51 -3.04,4.98 -6.42,9.8 -14.03,18.86 -0.86,1.07 -0.87,1.06 -1.77,2.12 -3.57,4.2 -7.37,8.2 -0.95,1.01 -0.95,1 -1.91,2.01 -3.86,3.94 -7.95,7.71 -1.01,0.95 -1.02,0.94 -2.04,1.86 -4.13,3.7 -8.44,7.19 -17.55,13.55 -1.1,0.8 -1.1,0.79 -2.22,1.58 -4.46,3.08 -9.05,5.98 -1.15,0.74 -1.14,0.72 -2.3,1.43 -4.62,2.83 -9.34,5.44 -1.18,0.66 -1.18,0.66 -2.35,1.31 -4.74,2.55 -9.57,4.91 -19.4,9.03 -1.33,0.57 -1.32,0.57 -2.66,1.12 -5.33,2.19 -10.68,4.16 -1.34,0.49 -1.34,0.49 -2.68,0.98 -5.37,1.89 -10.75,3.55 -1.35,0.43 -1.34,0.42 -2.69,0.82 -5.38,1.6 -10.76,2.97 -1.35,0.36 -1.34,0.35 -2.68,0.68 -5.37,1.31 -10.7,2.43 -1.25,0.27 -1.25,0.26 -2.48,0.52 -4.98,0.98 -1.24,0.24 -1.24,0.24 -2.48,0.45 -4.94,0.87 -1.23,0.22 -1.24,0.2 -2.46,0.4 -4.92,0.76 -9.77,1.38 -1.22,0.15 -1.22,0.15 -2.43,0.3 -4.85,0.56 -1.21,0.13 -1.2,0.13 -2.41,0.24 -4.8,0.45 -1.2,0.11 -1.19,0.11 -2.39,0.2 -1.19,0.09 -1.2,0.09 -2.37,0.17 -1.19,0.08 -1.18,0.08 -2.36,0.15 -1.18,0.08 -1.18,0.06 -2.36,0.14 -1.26,0.06 -1.28,0.06 -1.27,0.06 -1.26,0.05 -1.27,0.06 -1.26,0.04 -2.52,0.08 -1.26,0.05 -1.25,0.03 -1.25,0.03 -1.26,0.03 -1.25,0.02 -1.24,0.03 -1.24,0.01 -1.25,0.02 -1.24,0.01 -1.24,0.02 h -1.23 -1.24 l -1.23,0.01 -1.23,-0.01 h -1.23 -1.22 l -1.23,-0.02 -1.22,-0.01 -1.23,-0.02 -1.21,-0.02 -1.22,-0.02 -1.21,-0.02 -1.21,-0.03 -1.21,-0.04 -1.21,-0.03 -1.2,-0.04 -1.2,-0.03 -1.21,-0.05 -1.19,-0.04 -1.19,-0.06 -2.4,-0.09 -1.18,-0.06 -1.19,-0.06 -2.37,-0.12 -4.7,-0.28 -1.17,-0.08 -1.17,-0.08 -2.33,-0.17 -4.63,-0.36 -1.15,-0.11 -1.15,-0.09 -2.3,-0.21 -4.54,-0.43 -1.11,-0.12 -1.11,-0.11 -2.22,-0.24 -4.39,-0.51 -1.09,-0.13 -1.09,-0.14 -2.18,-0.27 -4.32,-0.57 -1.07,-0.15 -1.07,-0.15 -2.14,-0.31 -4.24,-0.63 -8.37,-1.36 -1.03,-0.18 -1.04,-0.18 -2.06,-0.36 -4.08,-0.76 -8.06,-1.59 -15.63,-3.49 -0.9,-0.21 -0.89,-0.22 -1.77,-0.44 -3.51,-0.88 -6.95,-1.84 -13.47,-3.86 -0.83,-0.26 -0.82,-0.24 -1.64,-0.51 -3.24,-1.02 -6.4,-2.1 -12.41,-4.34 -0.82,-0.29 -0.81,-0.31 -1.64,-0.6 -3.23,-1.23 -6.35,-2.48 -12.26,-5.11 -0.75,-0.32 -0.75,-0.33 -1.47,-0.65 -2.94,-1.32 -5.77,-2.64 -11.11,-5.4 -0.63,-0.32 -0.63,-0.32 -1.25,-0.63 -2.49,-1.29 -4.88,-2.57 -9.41,-5.2 -17.53,-10.55 -0.51,-0.32 -0.5,-0.33 -1.01,-0.65 -2.01,-1.31 -3.94,-2.61 -7.6,-5.22 -14.12,-10.44 -0.45,-0.35 -0.45,-0.36 -0.9,-0.71 -1.79,-1.41 -3.5,-2.81 -6.71,-5.62 -12.37,-11.11 -0.33,-0.32 -0.34,-0.32 -0.68,-0.65 -1.34,-1.27 -2.63,-2.56 -5.03,-5.07 -9.34,-9.99 -0.3,-0.34 -0.3,-0.34 -0.59,-0.66 -1.18,-1.34 -2.29,-2.65 -4.4,-5.25 -8.09,-10.31 -0.23,-0.31 -0.23,-0.31 -0.46,-0.62 -0.92,-1.24 -1.8,-2.47 -3.42,-4.89 -6.3,-9.56 -0.17,-0.28 -0.18,-0.27 -0.34,-0.54 -0.68,-1.1 -1.32,-2.18 -2.56,-4.31 -4.7,-8.45 -0.15,-0.28 -0.14,-0.29 -0.3,-0.56 -0.6,-1.13 -1.15,-2.23 -2.2,-4.43 -4.01,-8.67 -0.1,-0.25 -0.11,-0.26 -0.23,-0.49 -0.42,-0.99 -0.84,-1.98 -1.61,-3.92 -2.93,-7.7 -0.1,-0.26 -0.09,-0.25 -0.18,-0.52 -0.36,-1.02 -0.72,-2.05 -1.34,-4.05 -0.09,-0.25 -0.08,-0.25 -0.15,-0.5 -0.32,-1.01 -0.61,-1.99 -1.18,-3.96 -0.06,-0.24 -0.07,-0.25 -0.13,-0.48 -0.27,-0.96 -0.53,-1.92 -0.98,-3.81 -0.05,-0.24 -0.06,-0.23 -0.12,-0.48 -0.23,-0.95 -0.44,-1.87 -0.84,-3.74 -0.04,-0.23 -0.05,-0.21 -0.09,-0.43 -0.18,-0.87 -0.35,-1.73 -0.66,-3.44 -0.04,-0.21 -0.04,-0.21 -0.08,-0.43 -0.15,-0.86 -0.29,-1.7 -0.55,-3.39 -0.03,-0.23 -0.03,-0.23 -0.08,-0.46 -0.13,-0.91 -0.25,-1.83 -0.03,-0.22 -0.03,-0.23 -0.06,-0.46 -0.12,-0.91 -0.23,-1.81 -0.03,-0.23 -0.02,-0.23 -0.06,-0.45 -0.1,-0.91 -0.19,-1.8 -0.35,-3.61 -0.02,-0.2 -0.01,-0.22 -0.05,-0.42 -0.06,-0.83 -0.13,-1.68 -0.01,-0.2 -0.02,-0.21 -0.03,-0.42 -0.06,-0.84 -0.1,-1.66 -0.01,-0.22 -0.01,-0.2 -0.03,-0.42 -0.04,-0.83 -0.02,-0.21 v -0.22 l -0.02,-0.41 -0.04,-0.83 -0.01,-0.21 -0.01,-0.21 -0.01,-0.41 -0.03,-0.83 -0.01,-0.22 -0.01,-0.2 -0.02,-0.41 -0.02,-0.84 -0.01,-0.2 V 6.26 l -0.02,-0.4 V 5.65 5.45 L -789,5.04 V 4.84 4.63 l -0.01,-0.4 V 4.02 l -0.01,-0.21 -0.01,-0.4 V 3.2 3.01 L -789.04,2.8 V 2.59 2.39 2.19 1.99 1.78 1.58 1.38 1.17 0.97 l -0.01,-0.2 v -0.21 -0.2 -0.2 -0.21 -0.2 -0.21 -0.2 l 0.01,-0.2 v -0.21 -0.2 -0.2 -0.21 -0.21 -0.19 -0.21 -0.2 -0.21 l 0.01,-0.4 v -0.21 l 0.01,-0.2 v -0.41 l 0.01,-0.2 v -0.2 l 0.01,-0.41 v -0.2 -0.21 l 0.02,-0.41 0.02,-0.82 0.01,-0.21 V -6.8 l 0.01,-0.44 0.04,-0.89 0.01,-0.22 v -0.22 l 0.02,-0.45 0.03,-0.88 0.02,-0.22 0.01,-0.22 0.01,-0.45 0.05,-0.89 0.1,-1.77 0.01,-0.22 0.01,-0.22 0.03,-0.45 0.06,-0.89 0.12,-1.78 0.02,-0.22 0.02,-0.22 0.04,-0.44 0.06,-0.89 0.16,-1.78 0.01,-0.22 0.03,-0.2 0.04,-0.43 0.07,-0.82 0.18,-1.68 0.02,-0.2 0.02,-0.22 0.05,-0.42 0.09,-0.83 0.2,-1.68 0.02,-0.21 0.03,-0.21 0.05,-0.42 0.1,-0.84 0.23,-1.69 0.48,-3.38 0.03,-0.23 0.04,-0.24 0.07,-0.46 0.14,-0.92 0.31,-1.85 0.65,-3.71 0.04,-0.24 0.04,-0.23 0.09,-0.46 0.17,-0.95 0.37,-1.87 0.79,-3.77 0.05,-0.23 0.05,-0.24 0.11,-0.46 0.21,-0.94 0.43,-1.87 0.92,-3.77 0.06,-0.24 0.06,-0.23 0.12,-0.48 0.24,-0.95 0.51,-1.91 1.07,-3.84 0.07,-0.23 0.07,-0.22 0.13,-0.45 0.26,-0.91 0.55,-1.81 1.15,-3.66 2.53,-7.44 0.1,-0.25 0.09,-0.26 0.17,-0.51 0.38,-1.02 0.77,-2.06 1.62,-4.15 3.56,-8.46 0.11,-0.26 0.11,-0.25 0.22,-0.5 0.46,-1.01 0.92,-2.02 1.94,-4.08 4.21,-8.33 9.79,-16.98 13.31,-19.48 15.52,-19.17 0.29,-0.33 0.29,-0.34 0.59,-0.66 1.2,-1.34 2.43,-2.68 5.08,-5.41 11.07,-11.01 0.34,-0.33 0.35,-0.32 0.69,-0.66 1.39,-1.3 2.84,-2.61 5.92,-5.25 12.78,-10.6 0.41,-0.32 0.41,-0.33 0.83,-0.65 1.68,-1.31 3.43,-2.62 7.11,-5.24 15.32,-10.48 0.54,-0.36 0.55,-0.35 1.1,-0.71 2.23,-1.42 4.53,-2.83 9.44,-5.62 0.61,-0.35 0.61,-0.35 1.22,-0.69 2.47,-1.4 5.03,-2.77 10.46,-5.5 0.62,-0.31 0.63,-0.32 1.27,-0.63 2.54,-1.27 5.18,-2.5 10.73,-4.93 0.7,-0.3 0.69,-0.31 1.38,-0.6 2.79,-1.2 5.68,-2.38 11.75,-4.64 0.81,-0.32 0.82,-0.3 1.64,-0.61 3.31,-1.22 6.74,-2.38 13.96,-4.58 0.89,-0.28 0.89,-0.28 1.8,-0.54 3.63,-1.08 7.38,-2.11 15.25,-3.95 0.95,-0.23 0.97,-0.23 1.92,-0.46 3.88,-0.89 7.88,-1.71 1,-0.2 1,-0.21 2,-0.4 4.04,-0.79 8.2,-1.5 1.03,-0.18 1.04,-0.17 2.09,-0.35 4.19,-0.68 1.05,-0.15 1.06,-0.17 2.12,-0.32 4.27,-0.61 1.09,-0.15 1.07,-0.15 2.16,-0.29 4.35,-0.54 8.81,-1 1.04,-0.1 1.05,-0.1 2.08,-0.21 4.19,-0.38 1.06,-0.09 1.05,-0.09 2.12,-0.17 4.26,-0.31 1.07,-0.08 1.07,-0.07 2.15,-0.14 1.08,-0.06 1.07,-0.08 2.17,-0.1 1.09,-0.06 1.08,-0.05 2.19,-0.11 1.08,-0.04 1.1,-0.05 2.2,-0.08 1.1,-0.04 1.1,-0.03 1.1,-0.03 1.11,-0.04 1.11,-0.03 1.11,-0.03 1.11,-0.02 1.11,-0.02 1.12,-0.02 1.11,-0.02 1.12,-0.01 1.12,-0.01 1.13,-0.01 1.12,-0.01 h 1.13 1.12 1.14 1.13 l 1.13,0.01 1.13,0.01 1.14,0.01 1.14,0.01 1.14,0.02 1.14,0.02 1.14,0.02 1.15,0.02 1.14,0.03 1.15,0.02 1.15,0.03 1.15,0.04 2.32,0.08 1.25,0.04 1.25,0.05 2.52,0.12 1.26,0.05 1.26,0.06 2.53,0.14 1.27,0.08 1.27,0.07 2.55,0.16 5.11,0.37 1.28,0.1 1.29,0.1 2.57,0.21 5.16,0.48 1.3,0.13 1.3,0.13 2.59,0.27 5.22,0.59 1.3,0.16 1.32,0.16 2.61,0.33 5.26,0.71 1.32,0.19 1.32,0.18 2.64,0.4 5.29,0.83 1.33,0.22 1.33,0.22 2.66,0.46 5.32,0.96 10.71,2.11 1.25,0.27 1.25,0.26 2.52,0.55 5.02,1.14 10.07,2.44 1.26,0.33 1.26,0.33 2.51,0.66 5.06,1.39 10.09,2.93 1.26,0.39 1.26,0.39 2.53,0.79 5.05,1.63 10.08,3.46 20.06,7.69 1.23,0.51 1.22,0.52 2.45,1.02 4.87,2.12 9.69,4.43 1.21,0.57 1.21,0.57 2.4,1.17 4.8,2.38 9.53,4.95 1.18,0.64 1.19,0.64 2.35,1.3 4.7,2.65 9.29,5.48 18.16,11.78 1.2,0.84 1.21,0.84 2.4,1.7 4.76,3.45 9.35,7.14 1.16,0.91 1.14,0.92 2.29,1.86 4.52,3.75 8.85,7.75 1.09,0.99 1.09,1 2.15,2 4.25,4.05 8.27,8.33 15.57,17.5 0.86,1.06 0.85,1.05 1.71,2.12 3.35,4.29 6.45,8.75 0.78,1.11 0.78,1.1 1.54,2.24 3.01,4.5 5.75,9.16 0.69,1.16 0.69,1.16 1.36,2.32 2.64,4.7 5,9.53 0.6,1.2 0.59,1.2 1.16,2.42 2.25,4.86 4.2,9.85 0.56,1.38 0.54,1.38 1.06,2.79 2.03,5.59 0.49,1.41 0.48,1.4 0.93,2.83 1.77,5.66 0.42,1.42 0.4,1.43 0.8,2.85 1.49,5.73 0.35,1.43 0.34,1.45 0.66,2.88 1.22,5.79 0.28,1.45 0.27,1.45 0.52,2.9 0.25,1.46 0.23,1.46 0.45,2.92 0.21,1.45 0.2,1.46 0.38,2.93 0.18,1.46 0.16,1.47 0.31,2.92 0.14,1.47 0.13,1.46 0.12,1.48 0.11,1.46 0.11,1.48 0.09,1.46 0.09,1.47 0.07,1.47 0.07,1.47 0.06,1.47 0.04,1.48 0.05,1.46 0.03,1.48 0.02,1.47 0.01,1.47 L 0,0"
           id="path7" />
        <path
           transform="matrix(0.1,0,0,-0.1,434.201,203.83795)"
           stroke-width="8.236"
           stroke-linecap="square"
           stroke-miterlimit="3.25"
           stroke-linejoin="miter"
           fill="none"
           stroke="#3853a4"
           d="m 0,0 -0.07,4.96 -0.17,4.96 -0.28,4.95 -0.42,4.96 -0.53,4.94 -0.64,4.95 -0.76,4.95 -0.88,4.94 -0.99,4.93 -1.11,4.93 -1.21,4.92 -1.35,4.92 -1.45,4.9 -1.57,4.9 -3.49,9.77 -1.91,4.87 -2.02,4.86 -4.39,9.69 -2.36,4.82 -2.48,4.81 -5.29,9.59 -2.8,4.77 -2.91,4.75 -6.16,9.46 -13.6,18.71 -3.65,4.63 -3.77,4.6 -7.84,9.16 -16.9,18.06 -4.46,4.45 -4.57,4.44 -9.43,8.79 -19.97,17.29 -5.22,4.25 -5.31,4.23 -10.88,8.37 -22.81,16.4 -49.48,31.34 -7.08,4.1 -7.15,4.06 -14.58,7.99 -30.09,15.51 -7.71,3.77 -7.79,3.75 -15.77,7.35 -32.36,14.2 -8.26,3.46 -8.3,3.41 -16.8,6.69 -34.24,12.86 -70.77,23.68 -9.03,2.76 -9.07,2.73 -18.24,5.33 -36.86,10.14 -9.28,2.42 -9.31,2.39 -18.69,4.64 -37.63,8.8 -9.45,2.1 -9.47,2.05 -18.97,3.99 -38.07,7.48 -9.54,1.77 -9.55,1.74 -19.09,3.35 -38.22,6.23 -8.92,1.37 -8.92,1.34 -17.81,2.57 -35.57,4.76 -8.88,1.11 -8.88,1.09 -17.71,2.06 -35.27,3.79 -8.79,0.87 -8.77,0.84 -17.5,1.59 -8.73,0.76 -8.71,0.73 -17.37,1.37 -8.65,0.64 -8.64,0.63 -17.22,1.16 -8.58,0.54 -8.56,0.51 -17.04,0.95 -8.51,0.43 -8.47,0.41 -8.44,0.39 -8.43,0.36 -8.39,0.34 -8.38,0.32 -16.67,0.55 -8.3,0.25 -8.28,0.22 -8.24,0.2 -8.22,0.17 -8.2,0.16 -8.16,0.13 -8.14,0.12 -8.11,0.08 -8.09,0.08 -8.04,0.04 -8.03,0.03 h -7.98 l -7.98,-0.01 -7.93,-0.03 -7.91,-0.06 -7.88,-0.07 -7.83,-0.09 -7.81,-0.11 -7.79,-0.13 -7.75,-0.14 -7.73,-0.18 -7.68,-0.18 -7.66,-0.19 -7.63,-0.23 -7.44,-0.23 -7.41,-0.24 -14.74,-0.54 -7.31,-0.3 -7.29,-0.31 -14.48,-0.66 -7.2,-0.35 -7.16,-0.37 -14.22,-0.79 -28.06,-1.73 -6.93,-0.46 -6.91,-0.47 -13.7,-1 -27.01,-2.13 -6.67,-0.57 -6.64,-0.57 -13.18,-1.18 -25.95,-2.48 -6.41,-0.66 -6.38,-0.66 -12.64,-1.34 -24.9,-2.8 -48.22,-6 -5.89,-0.79 -5.84,-0.79 -11.61,-1.61 -22.81,-3.3 -44.11,-6.89 -5.83,-0.95 -5.78,-0.98 -11.48,-1.94 -22.5,-3.98 -43.31,-8.17 -5.27,-1.03 -5.21,-1.05 -10.35,-2.1 -20.28,-4.23 -38.98,-8.62 -4.73,-1.09 -4.69,-1.08 -9.3,-2.19 -18.22,-4.37 -34.97,-8.84 -64.43,-17.74 -3.55,-1.04 -3.52,-1.03 -6.97,-2.07 -13.67,-4.12 -26.3,-8.22 -48.62,-16.22 -2.88,-1.01 -2.84,-1 -5.66,-1.99 -11.08,-3.98 -21.32,-7.87 -39.39,-15.36 -2.53,-1.03 -2.5,-1.02 -4.96,-2.02 -9.7,-4.04 -18.59,-7.95 -34.17,-15.37 -57.81,-28.65 -1.57,-0.84 -1.56,-0.83 -3.11,-1.66 -6.08,-3.27 -11.67,-6.44 -21.54,-12.36 -36.76,-22.84 -0.97,-0.64 -0.94,-0.63 -1.9,-1.24 -3.71,-2.48 -7.16,-4.85 -13.32,-9.33 -23.13,-17.29 -0.71,-0.56 -0.71,-0.55 -1.39,-1.1 -2.74,-2.19 -5.29,-4.26 -9.8,-8.19 -16.93,-15.08 -24.09,-24.17 -16.75,-19.54 -12.93,-17.58 -8.65,-13.73 -6.79,-12.61 -4.83,-10.57 -0.06,-0.14 -0.06,-0.14 -0.11,-0.29 -0.24,-0.57 -0.45,-1.11 -0.85,-2.18 -1.54,-4.16 -0.05,-0.14 -0.05,-0.13 -0.09,-0.28 -0.19,-0.54 -0.36,-1.07 -0.69,-2.08 -1.22,-3.99 -0.03,-0.11 -0.03,-0.12 -0.07,-0.22 -0.13,-0.46 -0.25,-0.87 -0.47,-1.74 -0.84,-3.35 -0.02,-0.12 -0.03,-0.11 -0.05,-0.22 -0.1,-0.44 -0.2,-0.87 -0.37,-1.71 -0.03,-0.11 -0.01,-0.1 -0.05,-0.22 -0.09,-0.41 -0.16,-0.84 -0.32,-1.62 -0.02,-0.11 -0.02,-0.09 -0.03,-0.21 -0.07,-0.39 -0.14,-0.78 -0.26,-1.55 -0.01,-0.09 -0.02,-0.1 -0.03,-0.19 -0.06,-0.38 -0.11,-0.75 -0.22,-1.49 -0.01,-0.09 -0.01,-0.09 -0.03,-0.17 -0.04,-0.34 -0.09,-0.68 -0.17,-1.35 v -0.08 l -0.02,-0.09 -0.02,-0.17 -0.04,-0.33 -0.06,-0.66 -0.14,-1.32 -0.01,-0.09 -0.01,-0.09 -0.02,-0.18 -0.03,-0.35 -0.06,-0.7 -0.01,-0.09 -0.01,-0.09 -0.01,-0.18 -0.03,-0.35 -0.06,-0.69 v -0.09 l -0.01,-0.08 -0.01,-0.18 -0.03,-0.34 -0.05,-0.7 -0.08,-1.37 V 7.5 l -0.01,-0.08 -0.01,-0.16 -0.02,-0.33 -0.03,-0.63 V 6.23 l -0.01,-0.08 V 5.99 l -0.01,-0.32 -0.03,-0.64 -0.01,-0.07 V 4.88 4.72 l -0.01,-0.31 V 4.33 l -0.01,-0.08 V 4.09 l -0.01,-0.32 V 3.7 3.62 3.46 l -0.01,-0.31 V 3.07 l -0.01,-0.08 V 2.83 l -0.01,-0.31 V 2.44 2.36 2.21 l -0.01,-0.08 V 2.06 1.9 1.83 1.75 1.6 l -0.01,-0.08 V 1.44 1.29 1.21 1.14 1.06 0.98 0.91 0.83 0.75 0.68 0.59 0.52 l -0.01,-0.07 V 0.36 0.29 0.22 0.13 0.06 -0.01 -0.1 -0.17 -0.24 -0.33 -0.4 l 0.01,-0.08 v -0.08 -0.07 -0.08 -0.08 -0.07 -0.08 -0.08 -0.15 -0.08 -0.07 -0.15 -0.08 l 0.01,-0.08 v -0.15 -0.08 -0.07 -0.16 l 0.01,-0.31 v -0.09 -0.08 l 0.01,-0.16 0.01,-0.34 v -0.08 -0.08 l 0.01,-0.17 V -3.74 -3.82 -3.9 l 0.01,-0.17 0.01,-0.34 0.02,-0.67 v -0.08 l 0.01,-0.08 0.01,-0.18 0.01,-0.34 0.03,-0.66 v -0.09 l 0.01,-0.09 0.01,-0.17 0.02,-0.33 0.03,-0.68 v -0.08 l 0.01,-0.08 0.01,-0.16 0.02,-0.32 0.04,-0.64 0.01,-0.07 v -0.08 l 0.01,-0.17 0.03,-0.32 0.04,-0.64 0.01,-0.08 0.01,-0.08 0.01,-0.16 0.03,-0.32 0.05,-0.66 0.12,-1.3 0.01,-0.09 0.01,-0.09 0.01,-0.18 0.04,-0.36 0.07,-0.72 0.16,-1.45 0.02,-0.09 0.01,-0.09 0.02,-0.18 0.05,-0.37 0.09,-0.73 0.2,-1.5 0.01,-0.09 0.02,-0.1 0.02,-0.18 0.06,-0.37 0.11,-0.75 0.23,-1.52 0.02,-0.1 0.02,-0.09 0.03,-0.2 0.07,-0.38 0.13,-0.78 0.29,-1.57 0.01,-0.09 0.02,-0.09 0.03,-0.19 0.08,-0.37 0.14,-0.76 0.32,-1.52 0.71,-3.16 0.02,-0.11 0.03,-0.11 0.04,-0.22 0.11,-0.44 0.23,-0.9 0.46,-1.81 1.04,-3.79 0.04,-0.1 0.03,-0.12 0.07,-0.23 0.13,-0.46 0.29,-0.92 0.59,-1.9 1.32,-3.95 3.26,-8.49 4.78,-10.58 6.1,-11.46 9.13,-14.66 11.89,-16.36 16.23,-19.24 25.13,-25.45 0.43,-0.41 0.45,-0.42 0.89,-0.83 1.82,-1.68 3.78,-3.42 8.07,-7.11 18.54,-15.38 0.69,-0.55 0.71,-0.55 1.4,-1.11 2.86,-2.24 5.95,-4.57 12.85,-9.54 30.13,-20.77 1.03,-0.67 1.04,-0.68 2.09,-1.36 4.27,-2.75 8.87,-5.61 19.24,-11.7 1.26,-0.75 1.28,-0.76 2.59,-1.51 5.28,-3.06 10.98,-6.25 23.85,-13 1.47,-0.79 1.48,-0.78 2.99,-1.56 6.11,-3.17 12.67,-6.44 27.38,-13.33 1.81,-0.86 1.82,-0.85 3.67,-1.72 7.49,-3.46 15.57,-7.04 33.69,-14.49 2.41,-1 2.43,-1 4.91,-2.02 10.03,-4.07 20.94,-8.23 45.6,-16.91 3.03,-1.07 3.05,-1.08 6.16,-2.16 12.57,-4.33 26.27,-8.74 57.18,-17.72 3.54,-1.03 3.56,-1.04 7.2,-2.09 14.67,-4.16 30.52,-8.33 3.93,-1.04 3.95,-1.03 7.98,-2.09 16.28,-4.14 33.82,-8.25 4.36,-1.02 4.37,-1.03 8.84,-2.03 18.02,-4.06 37.42,-8 80.62,-15.42 5.19,-0.9 5.23,-0.91 10.55,-1.79 21.46,-3.54 44.44,-6.79 5.7,-0.82 5.74,-0.81 11.55,-1.61 23.5,-3.13 48.55,-5.89 6.22,-0.7 6.24,-0.68 12.6,-1.35 25.59,-2.58 6.47,-0.62 6.52,-0.61 13.12,-1.18 26.64,-2.24 6.75,-0.53 6.77,-0.52 13.65,-1 6.87,-0.48 6.9,-0.47 13.91,-0.9 7,-0.43 7.04,-0.41 14.17,-0.8 7.13,-0.37 7.16,-0.36 14.42,-0.67 7.88,-0.34 7.91,-0.33 7.97,-0.31 7.97,-0.28 8.03,-0.27 8.06,-0.25 8.09,-0.23 8.13,-0.21 8.17,-0.19 8.21,-0.16 8.23,-0.16 8.27,-0.12 8.31,-0.11 8.35,-0.09 8.37,-0.07 8.41,-0.04 8.45,-0.01 h 8.48 l 8.5,0.02 8.55,0.05 8.58,0.07 8.6,0.09 8.64,0.13 8.67,0.14 8.7,0.17 8.75,0.19 8.74,0.22 8.8,0.25 8.82,0.26 8.85,0.3 17.78,0.68 8.93,0.37 8.97,0.41 18,0.89 9.02,0.49 9.07,0.52 18.19,1.11 9.12,0.61 9.17,0.64 18.36,1.36 36.98,3.1 9.29,0.86 9.3,0.88 18.67,1.87 9.35,0.98 9.37,1.02 18.77,2.14 9.4,1.12 9.42,1.15 18.85,2.42 37.8,5.26 8.82,1.3 8.83,1.35 17.68,2.78 35.33,5.96 8.83,1.57 8.82,1.61 17.63,3.31 35.18,7.03 8.77,1.85 8.76,1.88 17.48,3.85 34.79,8.16 68.63,18.02 8.47,2.42 8.45,2.45 16.78,5.01 33.21,10.47 8.21,2.71 8.18,2.75 16.23,5.59 31.99,11.63 7.89,3 7.83,3.04 15.54,6.18 30.45,12.79 58.2,27.27 7.81,3.98 7.72,4.03 15.21,8.18 29.32,16.84 7.1,4.31 7.02,4.35 13.72,8.82 26.26,18.09 6.29,4.62 6.19,4.65 12.06,9.41 22.76,19.22 5.4,4.89 5.29,4.92 10.19,9.93 18.94,20.2 4.4,5.11 4.3,5.15 8.18,10.36 3.9,5.22 3.76,5.24 7.12,10.55 3.37,5.31 3.22,5.33 6.04,10.69 2.8,5.39 2.68,5.39 4.91,10.84 2.24,5.44 2.11,5.46 1.96,5.46 1.83,5.47 1.66,5.5 1.54,5.49 1.38,5.51 1.25,5.52 1.09,5.52 0.96,5.54 0.79,5.52 0.66,5.54 0.51,5.54 0.37,5.55 0.22,5.54 L 0,0"
           id="path9" />
        <path
           transform="matrix(0.1,0,0,-0.1,151.22702,203.83795)"
           stroke-width="8.236"
           stroke-linecap="square"
           stroke-miterlimit="3.25"
           stroke-linejoin="miter"
           fill="none"
           stroke="#ed1f24"
           d="m 0,0 v -0.99 l 0.01,-0.5 v -0.99 l 0.01,-0.49 0.01,-0.49 0.01,-0.5 0.01,-0.5 v -0.5 l 0.01,-0.49 0.01,-0.49 0.02,-0.5 0.01,-0.5 0.03,-0.99 0.01,-0.49 0.02,-0.5 0.03,-0.99 0.03,-0.5 0.01,-0.49 0.05,-0.99 0.02,-0.5 0.03,-0.49 0.04,-0.99 0.12,-1.98 0.03,-0.5 0.04,-0.49 0.06,-0.99 0.15,-1.98 0.03,-0.49 0.04,-0.5 0.09,-0.98 0.18,-1.98 0.04,-0.49 0.05,-0.5 0.1,-0.99 0.2,-1.96 0.46,-3.94 0.06,-0.53 0.08,-0.54 0.13,-1.06 0.3,-2.14 0.63,-4.25 0.08,-0.53 0.09,-0.53 0.17,-1.06 0.37,-2.12 0.77,-4.23 0.11,-0.53 0.1,-0.53 0.21,-1.05 0.43,-2.11 0.92,-4.19 2.05,-8.35 0.13,-0.5 0.12,-0.47 0.26,-0.97 0.54,-1.94 1.11,-3.85 2.4,-7.66 0.16,-0.48 0.16,-0.48 0.32,-0.95 0.65,-1.9 1.35,-3.78 2.87,-7.5 0.19,-0.45 0.19,-0.46 0.37,-0.91 0.75,-1.82 1.55,-3.61 3.26,-7.16 0.22,-0.45 0.21,-0.45 0.42,-0.88 0.87,-1.77 1.77,-3.51 3.7,-6.96 0.25,-0.46 0.27,-0.47 0.51,-0.93 1.06,-1.86 2.16,-3.68 4.49,-7.26 0.28,-0.45 0.3,-0.44 0.58,-0.9 1.18,-1.78 2.39,-3.54 4.96,-6.94 0.29,-0.41 0.31,-0.39 0.59,-0.8 1.21,-1.59 2.44,-3.15 5.03,-6.17 0.33,-0.38 0.32,-0.38 0.64,-0.77 1.3,-1.5 2.63,-3 5.41,-5.85 0.37,-0.39 0.38,-0.39 0.75,-0.78 1.5,-1.55 3.06,-3.04 6.26,-5.95 0.4,-0.36 0.4,-0.36 0.79,-0.73 1.61,-1.44 3.25,-2.84 6.66,-5.52 0.41,-0.32 0.41,-0.33 0.84,-0.66 1.67,-1.31 3.37,-2.57 6.86,-4.97 0.44,-0.3 0.44,-0.3 0.87,-0.59 1.76,-1.2 3.53,-2.34 7.18,-4.5 0.42,-0.26 0.43,-0.26 0.85,-0.51 1.7,-1 3.43,-1.96 6.95,-3.78 0.44,-0.22 0.44,-0.23 0.87,-0.46 1.76,-0.89 3.56,-1.76 7.16,-3.34 0.49,-0.22 0.49,-0.21 0.98,-0.44 1.97,-0.85 3.95,-1.65 8,-3.11 0.5,-0.19 0.5,-0.18 1.01,-0.36 2.02,-0.72 4.06,-1.39 8.18,-2.57 0.48,-0.14 0.48,-0.14 0.96,-0.28 1.93,-0.54 3.86,-1.05 0.49,-0.12 0.49,-0.12 0.96,-0.25 1.94,-0.49 3.9,-0.92 0.48,-0.12 0.5,-0.1 0.97,-0.22 1.96,-0.42 3.92,-0.81 0.49,-0.09 0.49,-0.1 0.99,-0.19 1.96,-0.36 3.94,-0.68 0.49,-0.08 0.49,-0.07 0.97,-0.16 1.93,-0.3 0.49,-0.07 0.48,-0.07 0.98,-0.14 1.94,-0.26 0.49,-0.07 0.48,-0.06 0.97,-0.12 1.95,-0.24 3.9,-0.43 0.49,-0.05 0.49,-0.05 0.97,-0.09 1.96,-0.18 0.49,-0.04 0.48,-0.05 0.98,-0.07 1.97,-0.15 0.48,-0.03 0.5,-0.04 0.97,-0.06 0.49,-0.03 0.49,-0.04 0.98,-0.05 0.49,-0.03 0.49,-0.02 0.98,-0.05 0.49,-0.03 0.49,-0.02 0.98,-0.04 0.53,-0.02 0.53,-0.02 0.54,-0.02 0.52,-0.02 0.54,-0.01 0.53,-0.02 1.07,-0.03 0.52,-0.01 0.54,-0.01 0.53,-0.02 h 0.53 l 0.54,-0.01 0.53,-0.01 h 0.53 l 0.53,-0.01 h 0.53 l 0.54,-0.01 h 0.53 0.53 0.53 l 0.54,0.01 h 0.53 0.53 l 0.53,0.01 0.53,0.01 0.54,0.01 h 0.53 l 0.53,0.01 0.53,0.01 0.53,0.02 h 0.54 l 0.53,0.02 0.53,0.02 0.53,0.01 0.53,0.02 0.54,0.02 0.53,0.01 1.06,0.04 0.53,0.03 0.53,0.02 1.07,0.06 2.13,0.11 0.52,0.03 0.54,0.04 1.06,0.07 2.12,0.15 0.53,0.04 0.53,0.04 1.06,0.08 2.13,0.19 0.49,0.04 0.5,0.05 0.99,0.1 1.97,0.21 0.49,0.04 0.5,0.06 0.98,0.11 1.98,0.24 0.49,0.06 0.5,0.06 0.98,0.13 1.96,0.27 3.93,0.57 0.5,0.08 0.49,0.07 0.98,0.16 1.96,0.32 3.91,0.71 7.79,1.57 0.52,0.12 0.53,0.11 1.04,0.24 2.11,0.49 4.18,1.02 0.52,0.13 0.53,0.14 1.03,0.26 2.09,0.57 4.14,1.16 0.52,0.15 0.51,0.15 1.04,0.3 2.06,0.63 4.1,1.3 8.14,2.81 0.49,0.18 0.5,0.18 1,0.37 1.97,0.75 3.94,1.54 7.79,3.28 0.49,0.21 0.47,0.22 0.98,0.44 1.92,0.87 3.83,1.79 7.56,3.79 0.43,0.23 0.44,0.23 0.87,0.46 1.74,0.93 3.45,1.9 6.82,3.96 0.42,0.26 0.42,0.25 0.84,0.52 1.68,1.03 3.33,2.12 6.56,4.37 0.45,0.3 0.43,0.3 0.88,0.62 1.74,1.23 3.46,2.52 6.8,5.2 0.42,0.32 0.42,0.33 0.83,0.68 1.66,1.34 3.29,2.74 6.43,5.64 0.37,0.33 0.36,0.33 0.74,0.68 1.46,1.36 2.9,2.75 5.66,5.62 0.34,0.36 0.35,0.36 0.7,0.72 1.38,1.45 2.71,2.92 5.3,5.96 0.35,0.41 0.36,0.42 0.7,0.82 1.39,1.66 2.73,3.35 5.31,6.82 0.32,0.44 0.32,0.44 0.65,0.86 1.27,1.75 2.51,3.52 4.84,7.18 0.28,0.44 0.29,0.45 0.57,0.89 1.14,1.8 2.22,3.62 4.27,7.33 0.26,0.47 0.26,0.46 0.51,0.94 1.01,1.86 1.98,3.76 3.78,7.6 0.21,0.46 0.21,0.44 0.42,0.9 0.83,1.79 1.62,3.62 3.06,7.31 0.2,0.46 0.17,0.46 0.37,0.91 0.71,1.85 1.41,3.71 2.6,7.48 0.17,0.51 0.17,0.51 0.33,1.02 0.65,2.04 1.25,4.11 0.16,0.52 0.15,0.51 0.3,1.03 0.58,2.07 1.11,4.15 0.14,0.52 0.14,0.52 0.26,1.04 0.51,2.09 0.97,4.18 1.75,8.41 0.09,0.49 0.09,0.5 0.18,0.98 0.35,1.98 0.65,3.95 0.08,0.5 0.08,0.5 0.15,0.98 0.29,1.98 0.53,3.98 0.06,0.5 0.06,0.49 0.12,1 0.22,1.99 0.06,0.5 0.05,0.5 0.11,0.99 0.19,2.01 0.05,0.49 0.04,0.5 0.09,1 0.16,2 0.04,0.5 0.05,0.5 0.06,1 0.14,2 0.03,0.49 0.03,0.49 0.06,0.98 0.02,0.49 0.03,0.49 0.04,0.98 0.03,0.49 0.02,0.5 0.04,0.98 0.02,0.49 0.02,0.49 0.03,0.98 0.02,0.5 0.01,0.49 0.01,0.49 0.01,0.49 0.02,0.49 v 0.49 l 0.01,0.5 0.01,0.48 0.01,0.5 0.01,0.48 0.01,0.5 v 0.49 l 0.01,0.49 v 0.49 0.5 0.48 0.5 0.49 0.49 0.49 0.49 l -0.01,0.49 -0.01,0.5 v 0.49 l -0.01,0.49 -0.01,0.49 -0.01,0.49 -0.01,0.49 -0.01,0.49 -0.01,0.5 -0.03,0.98 -0.01,0.49 -0.02,0.49 -0.03,0.99 -0.03,0.48 -0.01,0.5 -0.04,0.98 -0.03,0.49 -0.02,0.48 -0.05,0.98 -0.11,1.97 -0.03,0.53 -0.03,0.54 -0.07,1.06 -0.16,2.12 -0.04,0.54 -0.04,0.53 -0.09,1.06 -0.19,2.12 -0.05,0.54 -0.05,0.53 -0.1,1.06 -0.23,2.12 -0.5,4.24 -0.07,0.52 -0.06,0.53 -0.15,1.06 -0.29,2.11 -0.64,4.22 -0.08,0.53 -0.09,0.52 -0.17,1.05 -0.37,2.11 -0.78,4.19 -0.1,0.49 -0.1,0.48 -0.19,0.98 -0.4,1.95 -0.86,3.88 -0.11,0.49 -0.11,0.48 -0.22,0.97 -0.46,1.94 -0.98,3.86 -0.12,0.48 -0.13,0.48 -0.26,0.96 -0.51,1.92 -1.1,3.83 -2.36,7.6 -0.16,0.51 -0.17,0.51 -0.34,1.03 -0.7,2.04 -1.44,4.07 -3.09,8.05 -0.21,0.5 -0.2,0.5 -0.41,0.99 -0.83,2 -1.71,3.96 -3.62,7.82 -0.23,0.48 -0.24,0.48 -0.47,0.95 -0.94,1.89 -1.94,3.77 -4.06,7.43 -0.25,0.46 -0.27,0.46 -0.53,0.92 -1.07,1.82 -2.18,3.64 -4.53,7.15 -0.28,0.41 -0.27,0.41 -0.54,0.82 -1.11,1.64 -2.25,3.25 -4.64,6.4 -0.3,0.39 -0.29,0.39 -0.6,0.79 -1.2,1.57 -2.45,3.1 -5.02,6.1 -0.34,0.41 -0.35,0.4 -0.7,0.81 -1.41,1.62 -2.86,3.18 -5.87,6.25 -0.37,0.38 -0.37,0.39 -0.76,0.76 -1.5,1.52 -3.07,2.99 -6.27,5.84 -0.38,0.33 -0.37,0.33 -0.75,0.67 -1.49,1.32 -3.03,2.6 -6.19,5.07 -0.4,0.31 -0.39,0.31 -0.78,0.62 -1.58,1.22 -3.19,2.41 -6.49,4.67 -0.41,0.28 -0.4,0.28 -0.81,0.56 -1.62,1.09 -3.27,2.17 -6.63,4.19 -0.42,0.25 -0.41,0.26 -0.84,0.5 -1.69,1.01 -3.39,1.95 -6.87,3.78 -0.48,0.24 -0.47,0.25 -0.93,0.49 -1.9,0.98 -3.81,1.89 -7.7,3.6 -0.49,0.21 -0.49,0.22 -0.97,0.42 -1.95,0.86 -3.93,1.63 -7.92,3.08 -0.47,0.18 -0.47,0.17 -0.93,0.34 -1.87,0.66 -3.75,1.3 -7.57,2.4 -0.47,0.14 -0.47,0.14 -0.96,0.28 -1.9,0.55 -3.83,1.06 -7.69,1.93 -0.53,0.13 -0.52,0.12 -1.05,0.24 -2.1,0.47 -4.21,0.87 -0.53,0.11 -0.53,0.11 -1.05,0.2 -2.12,0.39 -4.24,0.74 -0.53,0.09 -0.53,0.08 -1.06,0.18 -2.13,0.32 -0.53,0.07 -0.53,0.08 -1.06,0.15 -2.14,0.29 -0.53,0.07 -0.54,0.07 -1.06,0.13 -2.13,0.26 -4.29,0.45 -0.5,0.05 -0.49,0.04 -1.01,0.1 -2,0.17 -0.5,0.03 -0.49,0.05 -1.01,0.07 -2,0.14 -0.5,0.03 -0.5,0.04 -1.01,0.05 -0.49,0.04 -0.51,0.02 -1,0.06 -0.5,0.02 -0.51,0.02 -1,0.05 -0.5,0.02 -0.51,0.02 -0.99,0.03 -0.5,0.02 -0.51,0.02 -0.5,0.02 -0.5,0.01 -0.51,0.01 -0.5,0.01 -0.5,0.01 -0.5,0.01 -0.5,0.01 -0.51,0.01 -0.5,0.01 -0.5,0.01 h -0.51 -0.5 -0.5 l -0.5,0.01 h -0.5 -0.51 -0.5 -0.5 l -0.5,-0.01 h -0.5 -0.51 -0.5 l -0.49,-0.01 -0.5,-0.01 -0.51,-0.01 -0.5,-0.01 -0.5,-0.02 h -0.51 l -1,-0.03 -0.5,-0.02 -0.49,-0.01 -0.98,-0.03 -0.5,-0.02 -0.49,-0.02 -0.98,-0.04 -0.49,-0.02 -0.5,-0.03 -0.98,-0.04 -1.97,-0.11 -0.48,-0.03 -0.5,-0.03 -0.98,-0.06 -1.96,-0.14 -0.49,-0.04 -0.49,-0.03 -0.98,-0.08 -1.96,-0.17 -0.5,-0.04 -0.48,-0.05 -0.99,-0.09 -1.96,-0.2 -0.49,-0.05 -0.49,-0.06 -0.97,-0.1 -1.96,-0.23 -0.49,-0.06 -0.49,-0.06 -0.98,-0.12 -1.95,-0.26 -3.89,-0.56 -0.53,-0.08 -0.53,-0.08 -1.06,-0.17 -2.1,-0.34 -4.21,-0.75 -0.53,-0.1 -0.52,-0.1 -1.05,-0.2 -2.09,-0.42 -4.18,-0.88 -0.52,-0.12 -0.52,-0.11 -1.05,-0.24 -2.07,-0.49 -4.15,-1.01 -8.25,-2.25 -0.48,-0.15 -0.47,-0.14 -0.96,-0.28 -1.91,-0.58 -3.8,-1.2 -7.54,-2.59 -0.47,-0.16 -0.47,-0.17 -0.94,-0.34 -1.86,-0.7 -3.72,-1.44 -7.38,-3.04 -0.49,-0.22 -0.49,-0.21 -0.99,-0.44 -1.98,-0.88 -3.92,-1.8 -7.75,-3.83 -0.48,-0.24 -0.48,-0.25 -0.96,-0.5 -1.91,-1.01 -3.8,-2.07 -7.47,-4.32 -0.46,-0.28 -0.45,-0.28 -0.9,-0.55 -1.81,-1.12 -3.57,-2.27 -7.05,-4.73 -0.44,-0.3 -0.43,-0.31 -0.87,-0.61 -1.72,-1.23 -3.43,-2.51 -6.71,-5.18 -0.39,-0.3 -0.39,-0.31 -0.77,-0.63 -1.53,-1.25 -3.03,-2.54 -5.95,-5.21 -0.37,-0.33 -0.37,-0.34 -0.73,-0.67 -1.45,-1.34 -2.88,-2.72 -5.61,-5.58 -0.37,-0.37 -0.38,-0.39 -0.74,-0.77 -1.49,-1.55 -2.92,-3.15 -5.68,-6.42 -0.35,-0.42 -0.35,-0.4 -0.69,-0.82 -1.37,-1.65 -2.71,-3.33 -5.25,-6.79 -0.29,-0.4 -0.3,-0.4 -0.59,-0.81 -1.19,-1.62 -2.31,-3.26 -4.49,-6.64 -0.27,-0.42 -0.28,-0.42 -0.54,-0.84 -1.07,-1.7 -2.12,-3.4 -4.06,-6.9 -0.23,-0.43 -0.25,-0.43 -0.48,-0.85 -0.95,-1.72 -1.86,-3.46 -3.56,-7 -0.22,-0.44 -0.21,-0.44 -0.42,-0.88 L 24.5,109.56 22.86,106 19.73,98.79 19.52,98.3 19.33,97.8 18.92,96.83 18.12,94.85 16.59,90.87 13.71,82.85 13.53,82.34 13.37,81.84 13.03,80.83 12.37,78.8 11.1,74.74 8.76,66.55 8.64,66.06 8.5,65.58 8.26,64.62 7.76,62.69 6.82,58.83 6.71,58.35 6.59,57.87 6.38,56.9 5.94,54.96 5.13,51.06 5.03,50.58 4.93,50.09 4.74,49.12 4.36,47.16 3.67,43.25 3.58,42.76 3.5,42.27 3.34,41.29 3.03,39.33 2.45,35.39 2.38,34.85 2.3,34.3 2.16,33.19 1.87,30.99 1.81,30.44 1.75,29.89 1.62,28.79 1.38,26.58 1.32,26.03 1.27,25.47 1.16,24.37 0.96,22.17 0.91,21.61 0.87,21.06 0.78,19.95 0.61,17.74 0.58,17.19 0.54,16.63 0.48,15.53 0.44,14.97 0.41,14.42 0.35,13.31 0.32,12.76 0.29,12.2 0.25,11.09 0.22,10.54 0.2,9.99 0.16,8.88 0.14,8.32 0.12,7.77 0.11,7.22 0.09,6.66 0.08,6.11 0.06,5.55 0.05,4.99 V 4.44 L 0.04,3.89 0.03,3.33 0.02,2.78 0.01,2.22 V 1.67 L 0,1.11 V 0.55 0"
           id="path11" />
        <path
           transform="matrix(0.1,0,0,-0.1,167.19902,203.83795)"
           stroke-width="8.236"
           stroke-linecap="square"
           stroke-miterlimit="3.25"
           stroke-linejoin="miter"
           fill="none"
           stroke="#ed1f24"
           d="M 0,0 V -1.88 L 0.01,-2.07 V -2.62 -3 -3.19 -3.38 L 0.02,-3.75 V -3.94 L 0.03,-4.13 V -4.51 L 0.04,-4.7 V -4.89 L 0.05,-5.26 0.06,-6.02 0.07,-6.21 V -6.39 L 0.08,-6.77 0.1,-7.53 0.11,-7.71 V -7.9 l 0.02,-0.38 0.02,-0.75 0.01,-0.19 0.01,-0.19 0.01,-0.37 0.03,-0.76 0.07,-1.52 v -0.2 l 0.02,-0.21 0.02,-0.4 0.04,-0.82 0.09,-1.65 0.02,-0.21 v -0.2 l 0.03,-0.42 0.06,-0.82 0.11,-1.65 0.02,-0.21 0.02,-0.21 0.02,-0.42 0.07,-0.82 0.14,-1.66 0.3,-3.35 0.02,-0.2 0.02,-0.19 0.04,-0.39 0.08,-0.78 0.18,-1.58 0.37,-3.17 0.02,-0.2 0.03,-0.19 0.05,-0.4 0.1,-0.8 0.22,-1.6 0.46,-3.22 0.03,-0.2 0.04,-0.21 0.06,-0.38 0.12,-0.8 0.25,-1.6 0.56,-3.22 0.03,-0.2 0.04,-0.2 0.07,-0.4 0.14,-0.82 0.31,-1.64 0.66,-3.29 0.04,-0.23 0.04,-0.22 0.1,-0.45 0.19,-0.9 0.39,-1.82 0.83,-3.67 0.06,-0.23 0.06,-0.23 0.11,-0.47 0.22,-0.93 0.47,-1.87 0.98,-3.78 0.06,-0.22 0.06,-0.22 0.12,-0.44 0.25,-0.9 0.5,-1.8 1.07,-3.63 2.36,-7.45 0.09,-0.25 0.08,-0.26 0.18,-0.52 0.35,-1.03 0.72,-2.08 1.54,-4.21 3.41,-8.67 0.12,-0.27 0.11,-0.27 0.23,-0.54 0.46,-1.09 0.96,-2.2 1.99,-4.47 4.43,-9.17 0.14,-0.27 0.14,-0.28 0.28,-0.55 0.56,-1.1 1.16,-2.21 2.43,-4.49 5.33,-9.2 0.19,-0.33 0.19,-0.32 0.39,-0.63 0.78,-1.28 1.62,-2.58 3.39,-5.24 7.48,-10.74 0.24,-0.32 0.23,-0.32 0.47,-0.65 0.95,-1.28 1.96,-2.59 4.07,-5.23 8.92,-10.71 0.28,-0.32 0.3,-0.34 0.58,-0.67 1.19,-1.33 2.41,-2.69 5.05,-5.42 11,-11.04 0.39,-0.38 0.4,-0.37 0.8,-0.76 1.61,-1.52 3.29,-3.04 6.91,-6.13 15.08,-12.35 0.46,-0.37 0.47,-0.36 0.94,-0.72 1.9,-1.45 3.88,-2.89 8.07,-5.79 0.52,-0.36 0.52,-0.37 1.04,-0.72 2.12,-1.44 4.31,-2.89 8.95,-5.74 0.63,-0.38 0.62,-0.39 1.26,-0.77 2.54,-1.54 5.19,-3.08 10.79,-6.07 0.71,-0.38 0.69,-0.37 1.4,-0.75 2.83,-1.5 5.76,-2.97 12,-5.81 0.75,-0.36 0.75,-0.34 1.53,-0.7 3.08,-1.4 6.26,-2.75 12.98,-5.32 0.83,-0.32 0.83,-0.34 1.68,-0.64 3.38,-1.27 6.87,-2.52 14.24,-4.8 0.84,-0.27 0.85,-0.26 1.71,-0.54 3.44,-1.05 6.99,-2.05 0.88,-0.26 0.88,-0.25 1.78,-0.49 3.59,-0.97 7.25,-1.89 0.93,-0.23 0.91,-0.23 1.85,-0.45 3.72,-0.88 7.53,-1.7 0.95,-0.2 0.95,-0.21 1.91,-0.4 3.86,-0.79 7.81,-1.49 1.06,-0.19 1.07,-0.18 2.15,-0.38 4.33,-0.73 1.09,-0.18 1.09,-0.18 2.19,-0.33 4.39,-0.66 1.12,-0.16 1.1,-0.15 2.22,-0.31 4.49,-0.58 1.12,-0.14 1.13,-0.13 2.26,-0.28 4.55,-0.5 1.15,-0.11 1.14,-0.13 2.3,-0.22 4.63,-0.43 1.16,-0.1 1.16,-0.09 2.34,-0.19 4.7,-0.33 1.17,-0.08 1.18,-0.07 2.37,-0.14 1.19,-0.07 1.18,-0.06 2.39,-0.12 1.2,-0.06 1.2,-0.05 1.19,-0.04 1.21,-0.06 1.2,-0.04 1.21,-0.04 1.2,-0.03 1.21,-0.03 1.14,-0.04 1.13,-0.03 1.13,-0.02 1.14,-0.02 1.14,-0.02 1.13,-0.01 1.15,-0.01 1.14,-0.02 1.15,-0.01 h 1.14 1.15 1.15 1.14 l 1.16,0.01 1.15,0.01 1.16,0.01 1.15,0.01 1.16,0.02 1.17,0.02 1.16,0.02 1.16,0.03 1.17,0.03 1.16,0.03 1.17,0.04 1.17,0.03 1.17,0.04 1.17,0.05 1.18,0.04 1.18,0.05 1.16,0.05 2.37,0.12 1.18,0.06 1.18,0.06 2.36,0.14 1.19,0.07 1.18,0.08 2.39,0.16 1.19,0.08 1.19,0.09 2.4,0.19 4.78,0.41 1.2,0.11 1.2,0.11 2.42,0.24 4.82,0.52 1.22,0.14 1.2,0.13 2.42,0.3 4.87,0.61 1.32,0.18 1.32,0.19 2.64,0.36 5.31,0.81 1.32,0.21 1.33,0.21 2.66,0.44 5.33,0.93 1.33,0.24 1.34,0.25 2.67,0.51 5.35,1.06 10.73,2.34 1.34,0.3 1.34,0.33 2.7,0.64 5.37,1.34 10.76,2.91 1.35,0.37 1.34,0.39 2.7,0.79 5.37,1.64 10.75,3.49 1.31,0.46 1.31,0.45 2.64,0.92 5.24,1.9 10.48,4.02 1.3,0.52 1.3,0.53 2.61,1.07 5.19,2.19 10.34,4.62 1.28,0.6 1.29,0.6 2.56,1.22 5.11,2.51 10.13,5.22 19.86,11.36 1.15,0.71 1.13,0.7 2.27,1.43 4.51,2.89 8.9,5.99 1.11,0.76 1.09,0.77 2.19,1.55 4.35,3.16 8.56,6.51 1.05,0.83 1.06,0.83 2.09,1.69 4.16,3.41 8.14,7.01 15.62,14.78 1.02,1.04 1.02,1.04 2.02,2.09 3.99,4.24 7.74,8.68 0.93,1.11 0.95,1.11 1.86,2.23 3.66,4.51 7.06,9.2 0.86,1.17 0.84,1.17 1.68,2.35 3.31,4.76 6.32,9.67 0.75,1.23 0.76,1.22 1.49,2.48 2.91,4.97 5.51,10.11 0.61,1.18 0.61,1.2 1.21,2.39 2.33,4.83 4.39,9.76 0.52,1.24 0.52,1.22 1.01,2.48 1.94,4.97 3.61,10.04 0.42,1.26 0.41,1.27 0.82,2.52 1.55,5.1 0.36,1.28 0.37,1.28 0.7,2.56 1.35,5.13 0.32,1.28 0.31,1.3 0.61,2.59 1.13,5.18 0.26,1.3 0.27,1.3 0.5,2.61 0.92,5.22 0.21,1.28 0.2,1.28 0.38,2.57 0.19,1.28 0.17,1.29 0.34,2.57 0.16,1.29 0.16,1.29 0.27,2.57 0.14,1.3 0.12,1.29 0.23,2.58 0.11,1.29 0.1,1.29 0.09,1.3 0.09,1.29 0.08,1.29 0.08,1.3 0.06,1.3 0.06,1.29 0.06,1.29 0.04,1.3 0.04,1.3 0.03,1.29 0.03,1.29 0.02,1.3 0.02,1.3 0.01,1.3 v 1.29 1.3 l -0.02,1.3 -0.02,1.29 -0.02,1.29 -0.03,1.3 -0.04,1.3 -0.05,1.29 -0.05,1.29 -0.05,1.3 -0.06,1.3 -0.08,1.29 -0.07,1.29 -0.08,1.3 -0.19,2.58 -0.1,1.29 -0.12,1.3 -0.23,2.58 -0.13,1.29 -0.14,1.29 -0.29,2.58 -0.14,1.29 -0.17,1.29 -0.34,2.57 -0.76,5.13 -0.23,1.4 -0.23,1.39 -0.48,2.78 -1.06,5.53 -0.28,1.38 -0.3,1.38 -0.6,2.76 -1.3,5.49 -0.35,1.37 -0.34,1.37 -0.73,2.73 -1.54,5.44 -3.42,10.8 -0.46,1.34 -0.46,1.34 -0.96,2.66 -1.99,5.32 -4.32,10.51 -0.57,1.3 -0.58,1.3 -1.17,2.59 -2.44,5.15 -5.18,10.17 -0.63,1.17 -0.64,1.17 -1.29,2.34 -2.65,4.63 -5.56,9.13 -0.72,1.13 -0.72,1.13 -1.46,2.24 -2.99,4.45 -6.22,8.74 -0.79,1.08 -0.81,1.08 -1.62,2.14 -3.3,4.24 -6.83,8.31 -14.51,15.95 -1.03,1.05 -1.02,1.04 -2.06,2.07 -4.19,4.08 -8.59,7.97 -1.09,0.97 -1.1,0.97 -2.2,1.92 -4.46,3.8 -9.1,7.36 -1.16,0.9 -1.16,0.9 -2.33,1.77 -4.69,3.49 -9.55,6.75 -19.66,12.56 -1.23,0.74 -1.23,0.72 -2.47,1.43 -4.96,2.82 -10.03,5.4 -1.26,0.66 -1.27,0.64 -2.53,1.29 -5.09,2.51 -10.24,4.8 -1.29,0.58 -1.29,0.58 -2.58,1.12 -5.17,2.22 -10.41,4.19 -20.95,7.51 -1.23,0.41 -1.23,0.39 -2.45,0.79 -4.91,1.53 -9.82,2.85 -1.24,0.34 -1.23,0.34 -2.45,0.66 -4.92,1.27 -9.82,2.38 -1.22,0.28 -1.23,0.28 -2.45,0.55 -4.9,1.03 -1.22,0.26 -1.22,0.25 -2.44,0.48 -4.88,0.94 -1.22,0.21 -1.22,0.23 -2.43,0.43 -4.86,0.81 -9.69,1.47 -1.31,0.18 -1.3,0.18 -2.62,0.35 -5.21,0.64 -1.3,0.16 -1.29,0.14 -2.6,0.29 -5.17,0.52 -1.3,0.12 -1.28,0.12 -2.57,0.22 -1.29,0.11 -1.28,0.11 -2.57,0.19 -1.27,0.09 -1.28,0.09 -2.55,0.17 -1.27,0.07 -1.27,0.08 -2.54,0.14 -1.27,0.06 -1.26,0.06 -1.26,0.06 -1.26,0.06 -1.26,0.05 -1.27,0.05 -2.51,0.08 -1.25,0.03 -1.25,0.04 -1.25,0.03 -1.25,0.03 -1.25,0.02 -1.24,0.02 -1.25,0.02 -1.24,0.02 h -1.23 l -1.24,0.01 h -1.23 l -1.24,0.01 -1.23,-0.01 h -1.23 l -1.23,-0.01 -1.23,-0.02 h -1.22 l -1.22,-0.03 -1.22,-0.01 -1.22,-0.03 -1.22,-0.02 -1.22,-0.03 -1.21,-0.04 -1.21,-0.03 -1.13,-0.04 -1.13,-0.04 -2.24,-0.08 -1.12,-0.05 -1.13,-0.05 -2.23,-0.1 -1.11,-0.06 -1.11,-0.06 -2.22,-0.12 -4.42,-0.29 -1.09,-0.08 -1.1,-0.07 -2.19,-0.16 -4.36,-0.37 -1.08,-0.09 -1.08,-0.09 -2.16,-0.2 -4.3,-0.44 -1.06,-0.11 -1.07,-0.11 -2.13,-0.24 -4.23,-0.5 -1.06,-0.14 -1.04,-0.13 -2.09,-0.27 -4.17,-0.57 -1.04,-0.14 -1.03,-0.15 -2.07,-0.3 -4.09,-0.63 -8.1,-1.36 -0.98,-0.17 -0.98,-0.18 -1.96,-0.35 -3.88,-0.74 -7.68,-1.54 -0.94,-0.21 -0.95,-0.2 -1.9,-0.41 -3.75,-0.84 -7.41,-1.75 -0.91,-0.22 -0.92,-0.23 -1.82,-0.45 -3.62,-0.94 -7.13,-1.92 -13.86,-4.1 -0.93,-0.29 -0.91,-0.29 -1.83,-0.58 -3.63,-1.18 -7.13,-2.43 -13.8,-5.07 -0.84,-0.32 -0.84,-0.34 -1.66,-0.64 -3.31,-1.33 -6.51,-2.69 -12.54,-5.54 -0.72,-0.33 -0.7,-0.33 -1.42,-0.66 -2.81,-1.33 -5.51,-2.69 -10.65,-5.46 -0.65,-0.34 -0.64,-0.35 -1.29,-0.69 -2.55,-1.38 -5.01,-2.8 -9.66,-5.64 -0.63,-0.39 -0.64,-0.39 -1.26,-0.77 -2.5,-1.54 -4.89,-3.11 -9.4,-6.24 -17.27,-12.53 -0.48,-0.37 -0.47,-0.36 -0.93,-0.73 -1.88,-1.47 -3.64,-2.92 -7.01,-5.82 -12.9,-11.55 -0.37,-0.34 -0.37,-0.36 -0.75,-0.7 -1.45,-1.39 -2.87,-2.79 -5.49,-5.53 -10.09,-10.88 -0.32,-0.37 -0.32,-0.36 -0.64,-0.72 -1.26,-1.45 -2.47,-2.88 -4.7,-5.7 -8.55,-11.11 -0.23,-0.33 -0.24,-0.32 -0.46,-0.63 -0.91,-1.27 -1.79,-2.52 -3.42,-4.98 -6.24,-9.69 -0.2,-0.32 -0.2,-0.33 -0.38,-0.64 -0.78,-1.28 -1.51,-2.54 -2.88,-5.02 -5.19,-9.74 -0.15,-0.3 -0.15,-0.28 -0.29,-0.59 -0.58,-1.16 -1.13,-2.32 -2.15,-4.55 -3.89,-8.85 -0.11,-0.26 -0.1,-0.25 -0.21,-0.51 -0.41,-1 -0.8,-2 -1.53,-3.95 -2.78,-7.69 -0.09,-0.26 -0.08,-0.26 -0.17,-0.51 -0.35,-1.01 -0.66,-2.03 -1.26,-4 L 10.92,73.77 10.84,73.52 10.69,73.03 10.4,72.05 9.82,70.09 8.74,66.23 8.69,66.01 8.63,65.77 8.51,65.33 8.28,64.44 7.81,62.67 6.95,59.17 6.89,58.95 6.84,58.73 6.74,58.29 6.54,57.43 6.14,55.71 5.4,52.3 5.36,52.09 5.32,51.88 5.22,51.47 5.06,50.65 4.73,49 4.12,45.73 4.07,45.53 4.04,45.33 3.97,44.92 3.83,44.11 3.55,42.5 3.03,39.31 2.99,39.09 2.96,38.88 2.9,38.45 2.76,37.59 2.52,35.88 2.06,32.49 2.03,32.27 2.01,32.06 1.95,31.64 1.85,30.79 1.65,29.11 1.29,25.77 1.27,25.58 1.25,25.38 1.22,25 1.14,24.22 0.99,22.68 0.98,22.49 0.96,22.3 0.93,21.91 0.86,21.14 0.74,19.6 0.73,19.42 0.71,19.22 0.69,18.84 0.63,18.07 0.53,16.55 0.51,16.36 0.5,16.17 0.47,15.78 0.43,15.02 0.35,13.5 0.33,13.29 V 13.08 L 0.3,12.65 0.27,11.81 0.25,11.6 0.24,11.38 0.23,10.96 0.19,10.11 V 9.9 L 0.18,9.7 0.16,9.27 0.13,8.43 V 8.21 L 0.12,8 0.1,7.58 0.08,6.74 V 6.52 L 0.07,6.32 0.06,5.9 0.05,5.68 V 5.47 5.05 L 0.04,4.84 V 4.63 L 0.03,4.21 0.02,4 V 3.79 L 0.01,3.37 V 3.16 2.95 2.74 2.53 2.32 2.1 L 0,1.9 V 1.68 1.48 1.26 1.06 0.84 0.64 0.42 0.22 0"
           id="path13" />
        <path
           transform="matrix(0.1,0,0,-0.1,174.27103,203.83795)"
           stroke-width="8.236"
           stroke-linecap="square"
           stroke-miterlimit="3.25"
           stroke-linejoin="miter"
           fill="none"
           stroke="#ed1f24"
           d="M 0,0 V -1.45 -1.66 -2.53 L 0.01,-2.58 V -2.69 -2.9 L 0.02,-3.32 V -3.37 -3.43 -3.55 -3.77 L 0.03,-4.23 V -4.29 -4.35 L 0.04,-4.46 V -4.69 L 0.05,-5.16 0.06,-5.21 V -5.27 -5.39 -5.62 L 0.07,-6.08 0.1,-7.02 v -0.05 l 0.01,-0.06 v -0.11 -0.22 l 0.02,-0.45 v -0.06 -0.05 l 0.01,-0.12 0.01,-0.22 0.01,-0.45 v -0.06 -0.05 l 0.01,-0.12 0.01,-0.23 0.02,-0.46 0.04,-0.94 v -0.06 -0.06 l 0.01,-0.11 0.02,-0.23 0.02,-0.47 0.05,-0.96 0.01,-0.06 v -0.06 l 0.01,-0.12 0.02,-0.25 0.03,-0.48 0.08,-1 v -0.07 -0.07 l 0.01,-0.14 0.02,-0.27 0.05,-0.56 0.1,-1.14 v -0.08 l 0.01,-0.06 0.01,-0.15 0.03,-0.3 0.06,-0.58 0.12,-1.22 0.01,-0.07 0.01,-0.07 0.02,-0.15 0.03,-0.29 0.07,-0.58 0.14,-1.21 0.01,-0.08 0.02,-0.07 0.01,-0.16 0.05,-0.3 0.08,-0.64 0.18,-1.28 0.02,-0.09 0.01,-0.08 0.03,-0.18 0.06,-0.37 0.11,-0.72 0.25,-1.51 0.01,-0.09 0.02,-0.1 0.04,-0.2 0.06,-0.39 0.15,-0.78 0.31,-1.64 0.02,-0.1 0.02,-0.1 0.04,-0.21 0.09,-0.41 0.18,-0.84 0.38,-1.74 0.02,-0.11 0.03,-0.12 0.05,-0.22 0.11,-0.45 0.21,-0.92 0.48,-1.91 0.03,-0.11 0.03,-0.12 0.07,-0.23 0.11,-0.46 0.25,-0.94 0.55,-1.93 1.27,-4.16 0.05,-0.14 0.05,-0.15 0.1,-0.3 0.19,-0.6 0.41,-1.23 0.9,-2.54 2.09,-5.5 0.07,-0.18 0.07,-0.16 0.14,-0.35 0.28,-0.68 0.58,-1.41 1.26,-2.92 2.94,-6.33 0.1,-0.2 0.1,-0.21 0.21,-0.41 0.41,-0.83 0.84,-1.7 1.85,-3.53 4.27,-7.67 0.15,-0.27 0.17,-0.28 0.32,-0.55 0.66,-1.13 1.39,-2.29 3,-4.8 7.06,-10.53 0.23,-0.33 0.23,-0.32 0.46,-0.66 0.95,-1.33 1.98,-2.73 4.27,-5.69 9.95,-12.44 0.37,-0.45 0.38,-0.45 0.77,-0.91 1.55,-1.83 3.25,-3.74 7.07,-7.88 16.76,-17.36 0.58,-0.58 0.58,-0.57 1.17,-1.14 2.4,-2.33 5.01,-4.76 10.89,-10 25.83,-21.97 0.84,-0.68 0.85,-0.68 1.72,-1.39 3.5,-2.78 7.29,-5.68 15.8,-11.88 1.04,-0.76 1.05,-0.77 2.12,-1.54 4.34,-3.11 9.02,-6.37 19.54,-13.25 1.4,-0.93 1.41,-0.93 2.86,-1.85 5.83,-3.78 12.19,-7.7 26.6,-16.03 1.77,-1.03 1.78,-1.04 3.6,-2.08 7.34,-4.2 15.36,-8.54 33.51,-17.74 2.07,-1.05 2.09,-1.06 4.22,-2.14 8.61,-4.29 17.93,-8.71 38.83,-17.89 2.56,-1.14 2.59,-1.14 5.21,-2.28 10.64,-4.6 22.13,-9.28 47.84,-18.87 3.42,-1.29 3.44,-1.29 6.96,-2.59 14.22,-5.18 29.62,-10.4 3.81,-1.31 3.84,-1.3 7.76,-2.61 15.84,-5.2 32.97,-10.39 4.24,-1.3 4.27,-1.3 8.63,-2.58 17.6,-5.14 36.58,-10.22 78.9,-19.82 5.1,-1.18 5.13,-1.18 10.35,-2.33 21.06,-4.62 43.6,-8.96 5.59,-1.08 5.62,-1.09 11.34,-2.14 23.04,-4.2 47.6,-7.98 6.09,-0.95 6.13,-0.95 12.34,-1.86 25.06,-3.6 6.34,-0.86 6.37,-0.87 12.84,-1.68 26.06,-3.23 6.6,-0.77 6.62,-0.77 13.34,-1.48 27.04,-2.8 6.85,-0.67 6.86,-0.65 13.82,-1.25 28,-2.32 6.61,-0.51 6.63,-0.49 13.32,-0.95 6.7,-0.43 6.73,-0.44 13.52,-0.81 6.79,-0.38 6.83,-0.37 13.71,-0.7 6.9,-0.32 6.92,-0.3 13.9,-0.55 6.99,-0.26 7.01,-0.24 7.03,-0.21 7.05,-0.2 7.09,-0.18 7.08,-0.16 7.13,-0.15 7.14,-0.13 7.17,-0.1 7.18,-0.09 7.21,-0.07 7.22,-0.05 7.24,-0.03 7.27,-0.01 7.28,0.01 7.3,0.03 7.32,0.05 7.35,0.07 7.37,0.09 7.37,0.12 7.4,0.13 7.41,0.16 7.43,0.17 7.46,0.21 7.46,0.21 7.47,0.25 7.5,0.26 7.52,0.29 7.53,0.31 7.54,0.33 15.13,0.74 7.58,0.41 7.6,0.43 15.25,0.92 7.63,0.5 7.65,0.52 15.33,1.13 7.68,0.6 7.7,0.62 15.42,1.32 30.92,2.97 8.41,0.87 8.41,0.91 16.84,1.91 33.75,4.2 8.45,1.12 8.45,1.18 16.9,2.42 33.81,5.27 8.44,1.4 8.45,1.43 16.88,2.98 33.68,6.36 8.38,1.7 8.4,1.71 16.74,3.54 33.34,7.52 8.3,1.98 8.28,2 16.52,4.12 32.78,8.7 8.15,2.27 8.12,2.3 16.17,4.72 32.01,9.88 7.93,2.57 7.9,2.61 15.7,5.32 31.01,11.08 60.11,23.97 6.85,2.95 6.78,2.98 13.47,6.07 26.43,12.5 6.48,3.2 6.45,3.23 12.75,6.57 24.89,13.49 6.1,3.45 6.03,3.47 11.93,7.05 23.17,14.44 43.51,30.22 5.15,3.9 5.09,3.92 9.99,7.94 19.16,16.15 4.62,4.1 4.55,4.12 8.88,8.32 16.89,16.9 4.03,4.28 3.96,4.31 7.7,8.66 14.46,17.57 3.42,4.43 3.34,4.46 6.43,8.96 11.9,18.13 2.71,4.48 2.65,4.48 5.02,9.03 2.39,4.54 2.31,4.55 4.38,9.12 2.07,4.58 1.98,4.6 3.71,9.21 1.73,4.62 1.65,4.63 3.04,9.29 1.39,4.65 1.31,4.66 1.24,4.66 1.13,4.68 1.05,4.68 0.97,4.68 0.88,4.69 0.81,4.7 0.7,4.7 0.63,4.7 0.54,4.7 0.45,4.71 0.37,4.71 0.28,4.72 0.19,4.71 0.11,4.72 0.02,4.71 -0.06,4.71 -0.15,4.72 -0.25,4.71 -0.32,4.71 -0.41,4.71 -0.49,4.7 -0.58,4.71 -0.68,4.7 -0.75,4.69 -0.85,4.7 -0.92,4.68 -1.01,4.69 -1.1,4.68 -2.45,9.33 -1.35,4.65 -1.44,4.66 -3.12,9.27 -1.7,4.63 -1.77,4.61 -3.79,9.21 -2.03,4.59 -2.1,4.57 -4.46,9.11 -9.9,18.08 -2.91,4.87 -2.99,4.85 -6.29,9.64 -13.66,19.08 -3.64,4.72 -3.73,4.69 -7.74,9.33 -16.5,18.39 -4.34,4.54 -4.42,4.52 -9.1,8.96 -19.17,17.59 -4.99,4.34 -5.07,4.3 -10.37,8.53 -21.65,16.7 -5.58,4.1 -5.67,4.07 -11.54,8.06 -23.9,15.72 -6.13,3.85 -6.21,3.81 -12.6,7.55 -25.91,14.67 -6.63,3.58 -6.68,3.55 -13.54,7 -27.7,13.56 -57.76,25.42 -6.92,2.82 -6.96,2.78 -14.03,5.47 -28.45,10.55 -7.19,2.56 -7.22,2.52 -14.53,4.96 -29.37,9.52 -7.41,2.31 -7.44,2.26 -14.94,4.44 -30.12,8.5 -61.1,15.47 -7.72,1.78 -7.7,1.77 -15.48,3.43 -31.07,6.47 -7.78,1.55 -7.79,1.5 -15.61,2.94 -31.28,5.5 -7.82,1.31 -7.83,1.27 -15.66,2.46 -31.33,4.57 -7.82,1.07 -7.83,1.04 -15.65,2.01 -31.24,3.66 -8.45,0.92 -8.45,0.89 -16.86,1.68 -8.42,0.79 -8.4,0.76 -16.78,1.43 -8.38,0.68 -8.36,0.64 -16.68,1.2 -8.32,0.55 -8.31,0.52 -16.57,0.97 -8.25,0.44 -8.24,0.41 -8.23,0.38 -8.21,0.36 -8.2,0.33 -8.17,0.29 -8.16,0.28 -8.12,0.25 -8.13,0.22 -8.09,0.2 -8.08,0.17 -8.05,0.15 -8.03,0.13 -8.01,0.09 -7.99,0.07 -7.98,0.05 -7.93,0.02 h -7.93 l -7.9,-0.03 -7.87,-0.04 -7.85,-0.07 -7.82,-0.09 -7.8,-0.12 -7.77,-0.14 -7.75,-0.16 -7.73,-0.18 -7.69,-0.21 -7.68,-0.22 -7.64,-0.25 -7.62,-0.27 -15.16,-0.6 -7.53,-0.32 -7.51,-0.35 -14.93,-0.75 -7.42,-0.4 -7.4,-0.43 -14.7,-0.9 -7.31,-0.49 -7.28,-0.49 -14.47,-1.05 -28.57,-2.29 -6.93,-0.6 -6.91,-0.62 -13.73,-1.29 -27.09,-2.73 -6.7,-0.72 -6.67,-0.73 -13.24,-1.51 -26.12,-3.17 -6.45,-0.82 -6.42,-0.83 -12.74,-1.71 -25.13,-3.54 -48.74,-7.58 -5.94,-0.99 -5.93,-0.99 -11.75,-2.03 -23.12,-4.15 -44.74,-8.66 -5.46,-1.11 -5.41,-1.11 -10.76,-2.25 -21.14,-4.59 -40.83,-9.41 -4.64,-1.11 -4.61,-1.12 -9.15,-2.25 -17.98,-4.54 -34.75,-9.19 -64.83,-18.77 -3.86,-1.19 -3.83,-1.18 -7.58,-2.37 -14.91,-4.75 -28.74,-9.52 -53.4,-18.97 -3.42,-1.28 -3.41,-1.28 -6.74,-2.56 -13.22,-5.09 -25.35,-10.1 -46.67,-19.83 -2.74,-1.22 -2.72,-1.22 -5.41,-2.42 -10.56,-4.82 -20.25,-9.52 -37.21,-18.47 -2.04,-1.05 -2.03,-1.05 -4.01,-2.1 -7.88,-4.15 -15.12,-8.18 -27.91,-15.79 -47.54,-29.35 -1.3,-0.85 -1.29,-0.85 -2.56,-1.69 -5.01,-3.35 -9.65,-6.56 -17.8,-12.61 -30.43,-23.2 -0.93,-0.74 -0.92,-0.74 -1.81,-1.47 -3.56,-2.9 -6.8,-5.68 -12.51,-10.82 -21.13,-19.7 -0.56,-0.54 -0.54,-0.53 -1.08,-1.06 -2.11,-2.11 -4.07,-4.12 -7.52,-7.88 -12.87,-14.42 -0.4,-0.45 -0.39,-0.47 -0.77,-0.9 -1.5,-1.8 -2.9,-3.51 -5.32,-6.68 -9.04,-12.18 -0.23,-0.33 -0.24,-0.33 -0.46,-0.66 -0.9,-1.3 -1.75,-2.56 -3.23,-4.88 -5.57,-8.98 -0.15,-0.25 -0.16,-0.27 -0.3,-0.51 L 23.27,82.04 22.13,80.05 20,76.22 16.34,69.15 16.22,68.93 16.11,68.7 15.89,68.25 15.47,67.36 14.63,65.63 13.09,62.28 10.47,56.14 10.41,55.97 10.34,55.8 10.21,55.46 9.94,54.79 9.43,53.49 8.49,50.97 6.86,46.27 6.81,46.12 6.76,45.97 6.66,45.67 6.47,45.08 6.1,43.91 5.43,41.66 5.38,41.53 5.34,41.39 5.26,41.11 5.11,40.58 4.82,39.52 4.26,37.49 4.23,37.36 4.21,37.24 4.14,37 4.02,36.52 3.79,35.57 3.36,33.74 3.33,33.64 3.3,33.52 3.25,33.3 3.15,32.86 2.97,32 2.62,30.32 2.6,30.23 2.58,30.13 2.54,29.94 2.47,29.56 2.33,28.82 2.06,27.38 2.05,27.29 2.04,27.2 2.01,27.02 1.95,26.68 1.83,25.99 1.62,24.65 1.6,24.55 1.59,24.46 1.56,24.29 1.51,23.93 1.42,23.24 1.22,21.88 V 21.8 L 1.21,21.72 1.18,21.56 1.14,21.23 1.07,20.58 0.92,19.31 0.91,19.24 0.9,19.17 0.89,19.03 0.86,18.74 0.8,18.17 0.69,17.06 V 16.99 L 0.68,16.93 0.67,16.79 0.64,16.52 0.6,15.98 0.51,14.93 V 14.87 L 0.5,14.8 0.49,14.68 0.48,14.42 0.43,13.93 0.37,12.95 V 12.88 L 0.36,12.83 0.35,12.7 0.34,12.46 0.31,11.99 0.26,11.05 V 10.98 L 0.25,10.92 0.24,10.79 V 10.54 L 0.21,10.05 V 9.99 L 0.2,9.93 V 9.8 L 0.19,9.56 0.17,9.07 V 9.01 L 0.16,8.95 V 8.82 L 0.15,8.58 0.13,8.11 0.11,7.16 0.1,7.1 V 7.04 6.93 L 0.09,6.72 0.08,6.29 0.07,6.23 V 6.18 6.06 L 0.06,5.85 V 5.42 5.37 5.31 L 0.05,5.21 V 4.99 L 0.04,4.56 V 4.52 4.47 L 0.03,4.36 V 4.15 L 0.02,3.72 V 3.67 3.61 3.49 L 0.01,3.26 V 3.2 3.14 3.02 2.79 2.73 2.67 L 0,2.56 V 2.32 2.26 2.2 2.09 1.86 1.8 1.74 1.63 1.57 1.51 1.4 1.34 1.28 1.16 1.11 1.04 0.92 0.87 0.81 0.75 0.69 0.64 0.58 0.52 0.46 0.4 0.35 0.29 0.23 0.17 0.12 0.06 0"
           id="path15" />
        <path
           transform="matrix(0.1,0,0,-0.1,160.78903,203.83795)"
           stroke-width="3.294"
           stroke-linecap="butt"
           stroke-miterlimit="3.25"
           stroke-linejoin="miter"
           fill="none"
           stroke="#231f20"
           d="M 0,0 V 16.36"
           id="path17" />
        <path
           transform="matrix(0.1,0,0,-0.1,176.95304,203.83795)"
           stroke-width="3.294"
           stroke-linecap="butt"
           stroke-miterlimit="3.25"
           stroke-linejoin="miter"
           fill="none"
           stroke="#231f20"
           d="M 0,0 V 27.26"
           id="path19" />
        <path
           transform="matrix(0.1,0,0,-0.1,193.11603,203.83795)"
           stroke-width="3.294"
           stroke-linecap="butt"
           stroke-miterlimit="3.25"
           stroke-linejoin="miter"
           fill="none"
           stroke="#231f20"
           d="M 0,0 V 16.36"
           id="path21" />
        <path
           transform="matrix(0.1,0,0,-0.1,209.28003,203.83795)"
           stroke-width="3.294"
           stroke-linecap="butt"
           stroke-miterlimit="3.25"
           stroke-linejoin="miter"
           fill="none"
           stroke="#231f20"
           d="M 0,0 V 16.36"
           id="path23" />
        <path
           transform="matrix(0.1,0,0,-0.1,225.44303,203.83795)"
           stroke-width="3.294"
           stroke-linecap="butt"
           stroke-miterlimit="3.25"
           stroke-linejoin="miter"
           fill="none"
           stroke="#231f20"
           d="M 0,0 V 16.36"
           id="path25" />
        <path
           transform="matrix(0.1,0,0,-0.1,241.60605,203.83795)"
           stroke-width="3.294"
           stroke-linecap="butt"
           stroke-miterlimit="3.25"
           stroke-linejoin="miter"
           fill="none"
           stroke="#231f20"
           d="M 0,0 V 27.26"
           id="path27" />
      </g>
      <clipPath
         id="cp1">
        <path
           transform="matrix(0.1,0,0,-0.1,0,792)"
           d="m 2350.21,5749.34 h 131.777 v 123.539 H 2350.21 Z"
           id="path31" />
      </clipPath>
      <g
         clip-path="url(#cp1)"
         id="g49">
        <symbol
           id="font_2_13">
          <path
             d="M 0,0.3388672 C 0,0.41438804 0.01139323,0.47932945 0.03417969,0.5336914 0.05696615,0.5883789 0.08723959,0.62906906 0.125,0.6557617 0.15429688,0.6769206 0.18457031,0.6875 0.21582031,0.6875 c 0.0507813,0 0.0963542,-0.0258789 0.13671876,-0.0776367 0.0504557,-0.0641276 0.0756836,-0.15104167 0.0756836,-0.2607422 0,-0.0768229 -0.0110677,-0.14208985 -0.0332031,-0.19580079 C 0.37288413,0.09960938 0.3445638,0.06054688 0.3100586,0.03613281 0.2758789,0.01204427 0.24283855,0 0.2109375,0 0.14778646,0 0.09521485,0.03727214 0.05322266,0.11181641 0.01774089,0.17464192 0,0.25032554 0,0.3388672 m 0.09570313,-0.012207 c 0,-0.0911458 0.01123047,-0.16552736 0.0336914,-0.22314454 0.0185547,-0.04850261 0.046224,-0.07275391 0.0830078,-0.07275391 0.0175781,0 0.0358073,0.0078125 0.0546875,0.0234375 0.0188802,0.01595052 0.0332031,0.04248047 0.0429687,0.07958984 0.014974,0.0559896 0.0224609,0.13492839 0.0224609,0.23681642 0,0.0755208 -0.007813,0.13850911 -0.0234375,0.18896482 -0.0117188,0.0374349 -0.0268555,0.0639649 -0.0454102,0.0795899 -0.0133463,0.0107422 -0.0294596,0.0161133 -0.0483399,0.0161133 -0.0221354,0 -0.0418294,-0.009928 -0.059082,-0.0297852 C 0.1328125,0.59847006 0.11686198,0.55598959 0.10839844,0.49804688 0.0999349,0.44010417 0.09570313,0.38297526 0.09570313,0.3266602 Z"
             id="path34" />
        </symbol>
        <symbol
           id="font_2_11">
          <path
             d="m 0.05419922,0.10839844 c 0.01529948,0 0.02815755,-0.005371 0.03857422,-0.01611328 0.01041666,-0.01041667 0.015625,-0.02311198 0.015625,-0.03808594 0,-0.01497396 -0.005371,-0.02783203 -0.01611328,-0.03857422 C 0.08186849,0.00520833 0.06917318,0 0.05419922,0 0.03922526,0 0.02636719,0.00520833 0.015625,0.015625 0.00520833,0.02636719 0,0.03922526 0,0.05419922 0,0.0694987 0.00520833,0.08235677 0.015625,0.09277344 c 0.01074219,0.01041666 0.02360026,0.015625 0.03857422,0.015625 z"
             id="path37" />
        </symbol>
        <symbol
           id="font_2_15">
          <path
             d="M 0.43701173,0.1274414 0.390625,0 H 0 v 0.01806641 c 0.11490885,0.10481771 0.19580078,0.19042969 0.24267578,0.25683594 0.046875,0.0664063 0.0703125,0.12711588 0.0703125,0.18212891 0,0.0419922 -0.0128581,0.0764973 -0.0385742,0.10351564 -0.0257162,0.0270182 -0.0564779,0.0405273 -0.0922852,0.0405273 -0.0325521,0 -0.061849,-0.009603 -0.08789062,-0.0288086 C 0.06852213,0.55338546 0.04947917,0.5255534 0.03710938,0.48876954 H 0.01904297 c 0.008138,0.0602214 0.02897136,0.10644533 0.0625,0.13867186 0.03385416,0.0322266 0.07600911,0.0483399 0.12646484,0.0483399 0.053711,0 0.0984701,-0.0172527 0.13427736,-0.0517578 0.0361328,-0.0345052 0.0541992,-0.0751954 0.0541992,-0.12207036 0,-0.0335286 -0.007813,-0.0670573 -0.0234375,-0.1005859 C 0.34895835,0.3486328 0.30989585,0.292806 0.25585938,0.23388672 0.17480469,0.14534505 0.1241862,0.09195963 0.10400391,0.07373047 h 0.17285157 c 0.0351563,0 0.0597331,0.0013021 0.0737305,0.0039063 0.0143229,0.0026042 0.027181,0.0078125 0.0385742,0.015625 0.0113932,0.008138 0.0213216,0.01953125 0.0297851,0.03417968 z"
             id="path40" />
        </symbol>
        <use
           xlink:href="#font_2_13"
           transform="matrix(8.236,0,0,-8.236,236.5506,214.6415)"
           fill="#030404"
           id="use43"
           x="0"
           y="0"
           width="100%"
           height="100%" />
        <use
           xlink:href="#font_2_11"
           transform="matrix(8.236,0,0,-8.236,240.97872,214.65758)"
           fill="#030404"
           id="use45"
           x="0"
           y="0"
           width="100%"
           height="100%" />
        <use
           xlink:href="#font_2_15"
           transform="matrix(8.236,0,0,-8.236,242.63976,214.54499)"
           fill="#030404"
           id="use47"
           x="0"
           y="0"
           width="100%"
           height="100%" />
      </g>
      <clipPath
         id="cp3">
        <path
           transform="matrix(0.1,0,0,-0.1,0,792)"
           d="M 1452.5,5312.84 H 4417.4299 V 6441.1599 H 1452.5 Z"
           id="path51" />
      </clipPath>
      <g
         clip-path="url(#cp3)"
         id="g62">
        <path
           transform="matrix(0.1,0,0,-0.1,257.77,203.83795)"
           stroke-width="3.294"
           stroke-linecap="butt"
           stroke-miterlimit="3.25"
           stroke-linejoin="miter"
           fill="none"
           stroke="#231f20"
           d="M 0,0 V 16.36"
           id="path54" />
        <path
           transform="matrix(0.1,0,0,-0.1,273.93299,203.83795)"
           stroke-width="3.294"
           stroke-linecap="butt"
           stroke-miterlimit="3.25"
           stroke-linejoin="miter"
           fill="none"
           stroke="#231f20"
           d="M 0,0 V 16.36"
           id="path56" />
        <path
           transform="matrix(0.1,0,0,-0.1,290.09599,203.83795)"
           stroke-width="3.294"
           stroke-linecap="butt"
           stroke-miterlimit="3.25"
           stroke-linejoin="miter"
           fill="none"
           stroke="#231f20"
           d="M 0,0 V 16.36"
           id="path58" />
        <path
           transform="matrix(0.1,0,0,-0.1,306.25898,203.83795)"
           stroke-width="3.294"
           stroke-linecap="butt"
           stroke-miterlimit="3.25"
           stroke-linejoin="miter"
           fill="none"
           stroke="#231f20"
           d="M 0,0 V 27.26"
           id="path60" />
      </g>
      <clipPath
         id="cp4">
        <path
           transform="matrix(0.1,0,0,-0.1,0,792)"
           d="m 2992.62,5749.34 h 131.773 v 123.539 H 2992.62 Z"
           id="path64" />
      </clipPath>
      <g
         clip-path="url(#cp4)"
         id="g76">
        <symbol
           id="font_2_17">
          <path
             d="M 0.44970704,0.24414063 V 0.17480469 H 0.36083985 V 0 H 0.28027345 V 0.17480469 H 0 v 0.0625 l 0.3071289,0.43847658 h 0.053711 V 0.24414063 h 0.0888672 m -0.16943359,0 V 0.5727539 L 0.04785156,0.24414063 Z"
             id="path67" />
        </symbol>
        <use
           xlink:href="#font_2_13"
           transform="matrix(8.236,0,0,-8.236,301.20359,214.6415)"
           fill="#030404"
           id="use70"
           x="0"
           y="0"
           width="100%"
           height="100%" />
        <use
           xlink:href="#font_2_11"
           transform="matrix(8.236,0,0,-8.236,305.63175,214.65758)"
           fill="#030404"
           id="use72"
           x="0"
           y="0"
           width="100%"
           height="100%" />
        <use
           xlink:href="#font_2_17"
           transform="matrix(8.236,0,0,-8.236,307.2445,214.54499)"
           fill="#030404"
           id="use74"
           x="0"
           y="0"
           width="100%"
           height="100%" />
      </g>
      <clipPath
         id="cp5">
        <path
           transform="matrix(0.1,0,0,-0.1,0,792)"
           d="M 1452.5,5312.84 H 4417.4299 V 6441.1599 H 1452.5 Z"
           id="path78" />
      </clipPath>
      <g
         clip-path="url(#cp5)"
         id="g89">
        <path
           transform="matrix(0.1,0,0,-0.1,322.423,203.83795)"
           stroke-width="3.294"
           stroke-linecap="butt"
           stroke-miterlimit="3.25"
           stroke-linejoin="miter"
           fill="none"
           stroke="#231f20"
           d="M 0,0 V 16.36"
           id="path81" />
        <path
           transform="matrix(0.1,0,0,-0.1,338.586,203.83795)"
           stroke-width="3.294"
           stroke-linecap="butt"
           stroke-miterlimit="3.25"
           stroke-linejoin="miter"
           fill="none"
           stroke="#231f20"
           d="M 0,0 V 16.36"
           id="path83" />
        <path
           transform="matrix(0.1,0,0,-0.1,354.75,203.83795)"
           stroke-width="3.294"
           stroke-linecap="butt"
           stroke-miterlimit="3.25"
           stroke-linejoin="miter"
           fill="none"
           stroke="#231f20"
           d="M 0,0 V 16.36"
           id="path85" />
        <path
           transform="matrix(0.1,0,0,-0.1,370.913,203.83795)"
           stroke-width="3.294"
           stroke-linecap="butt"
           stroke-miterlimit="3.25"
           stroke-linejoin="miter"
           fill="none"
           stroke="#231f20"
           d="M 0,0 V 27.26"
           id="path87" />
      </g>
      <clipPath
         id="cp6">
        <path
           transform="matrix(0.1,0,0,-0.1,0,792)"
           d="m 3643.26,5749.34 h 131.7662 v 123.539 H 3643.26 Z"
           id="path91" />
      </clipPath>
      <g
         clip-path="url(#cp6)"
         id="g103">
        <symbol
           id="font_2_19">
          <path
             d="M 0.40527345,0.6875 V 0.6694336 C 0.3623047,0.66520187 0.32714845,0.6565755 0.2998047,0.6435547 0.27278648,0.6308594 0.24593099,0.6113281 0.21923828,0.58496096 0.1928711,0.55859377 0.17089844,0.5291341 0.15332031,0.49658204 0.1360677,0.46435548 0.12158203,0.425944 0.10986328,0.38134767 c 0.046875,0.0322266 0.0939128,0.0483398 0.14111329,0.0483398 0.0452474,0 0.0844727,-0.0182292 0.11767578,-0.0546875 0.0332031,-0.0364583 0.0498047,-0.0833333 0.0498047,-0.140625 0,-0.0553385 -0.0167643,-0.10579426 -0.050293,-0.15136719 C 0.32779948,0.02766927 0.27441407,0 0.20800781,0 0.16276042,0 0.12434896,0.01497396 0.09277344,0.04492188 0.03092448,0.1031901 0,0.17871094 0,0.27148438 c 0,0.0592448 0.01188151,0.11555991 0.03564453,0.16894532 0.02376302,0.0533854 0.05761719,0.1007487 0.1015625,0.14208986 0.0442708,0.0413411 0.0865885,0.0691731 0.12695314,0.083496 C 0.30452476,0.68033859 0.3421224,0.6875 0.37695313,0.6875 h 0.0283203 M 0.1015625,0.34570313 C 0.0957031,0.30175783 0.0927734,0.26627603 0.0927734,0.23925781 c 0,-0.03125 0.0056966,-0.0652669 0.01708984,-0.10205078 0.0117188,-0.0364583 0.0289714,-0.06542968 0.0517578,-0.08691406 0.0166016,-0.01529948 0.0367839,-0.02294922 0.0605469,-0.02294922 0.0283203,0 0.0535482,0.01334636 0.0756836,0.04003906 0.0224609,0.02669271 0.0336914,0.06477865 0.0336914,0.11425782 0,0.0556641 -0.0110677,0.10384116 -0.0332031,0.14453125 -0.0221354,0.0406901 -0.0535482,0.0610352 -0.0942383,0.0610352 -0.0123698,0 -0.0257161,-0.002604 -0.0400391,-0.007813 -0.0139974,-0.005208 -0.0348307,-0.0164388 -0.0624999,-0.0336909 z"
             id="path94" />
        </symbol>
        <use
           xlink:href="#font_2_13"
           transform="matrix(8.236,0,0,-8.236,365.85658,214.6415)"
           fill="#030404"
           id="use97"
           x="0"
           y="0"
           width="100%"
           height="100%" />
        <use
           xlink:href="#font_2_11"
           transform="matrix(8.236,0,0,-8.236,370.28474,214.65758)"
           fill="#030404"
           id="use99"
           x="0"
           y="0"
           width="100%"
           height="100%" />
        <use
           xlink:href="#font_2_19"
           transform="matrix(8.236,0,0,-8.236,372.12269,214.6415)"
           fill="#030404"
           id="use101"
           x="0"
           y="0"
           width="100%"
           height="100%" />
      </g>
      <clipPath
         id="cp7">
        <path
           transform="matrix(0.1,0,0,-0.1,0,792)"
           d="M 1452.5,5312.84 H 4417.4299 V 6441.1599 H 1452.5 Z"
           id="path105" />
      </clipPath>
      <g
         clip-path="url(#cp7)"
         id="g116">
        <path
           transform="matrix(0.1,0,0,-0.1,387.077,203.83795)"
           stroke-width="3.294"
           stroke-linecap="butt"
           stroke-miterlimit="3.25"
           stroke-linejoin="miter"
           fill="none"
           stroke="#231f20"
           d="M 0,0 V 16.36"
           id="path108" />
        <path
           transform="matrix(0.1,0,0,-0.1,403.24,203.83795)"
           stroke-width="3.294"
           stroke-linecap="butt"
           stroke-miterlimit="3.25"
           stroke-linejoin="miter"
           fill="none"
           stroke="#231f20"
           d="M 0,0 V 16.36"
           id="path110" />
        <path
           transform="matrix(0.1,0,0,-0.1,419.404,203.83795)"
           stroke-width="3.294"
           stroke-linecap="butt"
           stroke-miterlimit="3.25"
           stroke-linejoin="miter"
           fill="none"
           stroke="#231f20"
           d="M 0,0 V 16.36"
           id="path112" />
        <path
           transform="matrix(0.1,0,0,-0.1,435.566,203.83795)"
           stroke-width="3.294"
           stroke-linecap="butt"
           stroke-miterlimit="3.25"
           stroke-linejoin="miter"
           fill="none"
           stroke="#231f20"
           d="M 0,0 V 27.26"
           id="path114" />
      </g>
      <clipPath
         id="cp8">
        <path
           transform="matrix(0.1,0,0,-0.1,0,792)"
           d="m 4293.89,5749.34 h 123.539 v 123.539 H 4293.89 Z"
           id="path118" />
      </clipPath>
      <g
         clip-path="url(#cp8)"
         id="g130">
        <symbol
           id="font_2_1b">
          <path
             d="M 0.13134766,0.34521485 C 0.07893881,0.3881836 0.04508464,0.4226888 0.02978516,0.44873048 0.0148112,0.47477214 0.00732422,0.50179037 0.00732422,0.52978518 c 0,0.0429687 0.01660156,0.0799153 0.04980469,0.11083982 0.03320312,0.03125 0.0773112,0.046875 0.13232422,0.046875 0.0533854,0 0.0963542,-0.0144856 0.12890625,-0.043457 0.0325521,-0.0289714 0.0488281,-0.0620117 0.0488281,-0.0991211 0,-0.0247396 -0.008789,-0.0499674 -0.0263672,-0.0756836 C 0.3232422,0.44352214 0.2866211,0.4132487 0.23095703,0.37841798 0.2882487,0.33414714 0.32617188,0.2993164 0.34472657,0.27392579 c 0.0247396,-0.0332031 0.0371094,-0.0681966 0.0371094,-0.10498048 0,-0.0465495 -0.0177409,-0.08642578 -0.0532227,-0.1196289 C 0.2931315,0.0164388 0.24658203,0 0.18896485,0 0.12613933,0 0.07714844,0.01969401 0.04199219,0.05908203 0.0139974,0.09065756 0,0.12516277 0,0.16259766 c 0,0.0292969 0.00976563,0.0582682 0.02929688,0.0869141 0.01985677,0.0289714 0.05387369,0.0608724 0.10205078,0.0957031 m 0.0766601,0.0522461 c 0.0390625,0.0351563 0.0638021,0.0628255 0.0742188,0.0830078 0.0104167,0.0205078 0.015625,0.0436198 0.015625,0.0693359 0,0.0341797 -0.009603,0.0608724 -0.0288086,0.0800781 -0.0192057,0.0195313 -0.0454102,0.0292969 -0.0786133,0.0292969 -0.0332031,0 -0.0602214,-0.009603 -0.0810547,-0.0288086 -0.02083333,-0.0192057 -0.03125,-0.0416667 -0.03125,-0.0673828 0,-0.0169271 0.0042318,-0.0338542 0.01269531,-0.0507812 0.0087891,-0.0169271 0.02115886,-0.0330404 0.03710938,-0.0483399 l 0.0800781,-0.0664063 M 0.15429688,0.32666017 C 0.12727864,0.3038737 0.10725912,0.27897135 0.09423828,0.25195313 0.08121745,0.22526042 0.07470703,0.19628906 0.07470703,0.16503906 c 0,-0.0419922 0.01139323,-0.07568359 0.03417969,-0.10107421 0.023112,-0.02506511 0.0524089,-0.03759766 0.0878906,-0.03759766 0.0351563,0 0.0633138,0.0099284 0.0844727,0.02978515 0.0211589,0.01985678 0.0317383,0.04394532 0.0317383,0.07226563 0,0.0234375 -0.006185,0.0444336 -0.0185547,0.0629883 -0.023112,0.0345052 -0.0698242,0.0795899 -0.14013674,0.1352539 z"
             id="path121" />
        </symbol>
        <use
           xlink:href="#font_2_13"
           transform="matrix(8.236,0,0,-8.236,430.5106,214.6415)"
           fill="#030404"
           id="use124"
           x="0"
           y="0"
           width="100%"
           height="100%" />
        <use
           xlink:href="#font_2_11"
           transform="matrix(8.236,0,0,-8.236,434.93876,214.65758)"
           fill="#030404"
           id="use126"
           x="0"
           y="0"
           width="100%"
           height="100%" />
        <use
           xlink:href="#font_2_1b"
           transform="matrix(8.236,0,0,-8.236,436.92149,214.6415)"
           fill="#030404"
           id="use128"
           x="0"
           y="0"
           width="100%"
           height="100%" />
      </g>
      <clipPath
         id="cp9">
        <path
           transform="matrix(0.1,0,0,-0.1,0,792)"
           d="M 1452.5,5312.84 H 4417.4299 V 6441.1599 H 1452.5 Z"
           id="path132" />
      </clipPath>
      <g
         clip-path="url(#cp9)"
         id="g273">
        <path
           transform="matrix(0.1,0,0,-0.1,145.332,203.83795)"
           stroke-width="3.294"
           stroke-linecap="butt"
           stroke-miterlimit="3.25"
           stroke-linejoin="miter"
           fill="none"
           stroke="#231f20"
           d="M 0,0 H 2947.64"
           id="path135" />
        <path
           transform="matrix(0.1,0,0,-0.1,176.95302,258.79298)"
           stroke-width="3.294"
           stroke-linecap="butt"
           stroke-miterlimit="3.25"
           stroke-linejoin="miter"
           fill="none"
           stroke="#231f20"
           d="M 0,0 H 16.35"
           id="path137" />
        <path
           transform="matrix(0.1,0,0,-0.1,176.95302,255.56095)"
           stroke-width="3.294"
           stroke-linecap="butt"
           stroke-miterlimit="3.25"
           stroke-linejoin="miter"
           fill="none"
           stroke="#231f20"
           d="M 0,0 H 16.35"
           id="path139" />
        <path
           transform="matrix(0.1,0,0,-0.1,176.95302,252.32793)"
           stroke-width="3.294"
           stroke-linecap="butt"
           stroke-miterlimit="3.25"
           stroke-linejoin="miter"
           fill="none"
           stroke="#231f20"
           d="M 0,0 H 27.26"
           id="path141" />
        <symbol
           id="font_2_b1">
          <path
             d="M 0.51708987,0 H 0 v 0.03564453 h 0.51708987 z"
             id="path143" />
        </symbol>
        <symbol
           id="font_2_14">
          <path
             d="m 0,0.59716799 0.16113281,0.0786133 H 0.1772461 V 0.11669922 c 0,-0.03710937 0.001465,-0.06022136 0.004395,-0.06933594 C 0.1848961,0.03824868 0.1914071,0.03125 0.2011724,0.02636719 0.2109384,0.02148439 0.2307948,0.01871749 0.2607427,0.01806639 V 0 H 0.01171875 v 0.01806641 c 0.03125,6.5104e-4 0.05143229,0.0032552 0.06054688,0.0078125 0.0091146,0.0048828 0.01546224,0.01123047 0.01904297,0.01904297 0.0035807,0.008138 0.0053711,0.0320638 0.0053711,0.07177734 V 0.4741211 c 0,0.0481771 -0.0016276,0.0791016 -0.0048828,0.0927735 -0.0022786,0.0104166 -0.0065104,0.0180664 -0.01269532,0.0229492 -0.0058594,0.004883 -0.01302083,0.007324 -0.02148437,0.007324 -0.01204427,0 -0.0288086,-0.005046 -0.05029297,-0.0151367 z"
             id="path146" />
        </symbol>
        <symbol
           id="font_2_18">
          <path
             d="M 0.38623048,0.6738281 0.34814454,0.5908203 H 0.14892578 L 0.10546878,0.5019531 C 0.19173178,0.4892578 0.2600912,0.457194 0.31054691,0.4057617 c 0.0432943,-0.0442708 0.0649414,-0.0963542 0.0649414,-0.15625001 0,-0.0348307 -0.007161,-0.0670573 -0.0214844,-0.0966797 C 0.3400065,0.12320963 0.32226563,0.09798177 0.30078126,0.07714844 0.27929688,0.05631511 0.2553711,0.03955078 0.2290039,0.02685547 0.19156902,0.00895182 0.15315755,0 0.11376953,0 0.07405599,0 0.04508464,0.00667318 0.02685547,0.02001953 0.00895182,0.03369141 0,0.04866536 0,0.06494141 c 0,0.0091146 0.00374349,0.01708984 0.01123047,0.02392578 0.007487,0.0071615 0.01692708,0.01074219 0.02832031,0.01074219 0.0084635,0 0.01578776,-0.0013021 0.02197266,-0.0039063 0.0065104,-0.0026042 0.01741537,-0.0092774 0.03271484,-0.02001953 0.02441407,-0.01692709 0.04915364,-0.02539063 0.07421875,-0.02539063 0.0380859,0 0.0714518,0.01432291 0.10009767,0.04296875 0.0289713,0.02897135 0.043457,0.06412761 0.043457,0.10546875 0,0.0400391 -0.0128581,0.0773112 -0.0385742,0.11181641 -0.0257161,0.0348307 -0.0611979,0.0616862 -0.10644531,0.0805664 -0.0354818,0.0146484 -0.08382162,0.023112 -0.14501953,0.0253906 l 0.12695312,0.2573242 z"
             id="path149" />
        </symbol>
        <use
           xlink:href="#font_2_b1"
           transform="matrix(8.236,0,0,-8.236,153.81963,253.80028)"
           fill="#030404"
           id="use152"
           x="0"
           y="0"
           width="100%"
           height="100%" />
        <use
           xlink:href="#font_2_13"
           transform="matrix(8.236,0,0,-8.236,159.95491,255.71852)"
           fill="#030404"
           id="use154"
           x="0"
           y="0"
           width="100%"
           height="100%" />
        <use
           xlink:href="#font_2_11"
           transform="matrix(8.236,0,0,-8.236,164.38303,255.7346)"
           fill="#030404"
           id="use156"
           x="0"
           y="0"
           width="100%"
           height="100%" />
        <use
           xlink:href="#font_2_14"
           transform="matrix(8.236,0,0,-8.236,166.83228,255.62201)"
           fill="#030404"
           id="use158"
           x="0"
           y="0"
           width="100%"
           height="100%" />
        <use
           xlink:href="#font_2_18"
           transform="matrix(8.236,0,0,-8.236,170.40383,255.71852)"
           fill="#030404"
           id="use160"
           x="0"
           y="0"
           width="100%"
           height="100%" />
        <path
           transform="matrix(0.1,0,0,-0.1,176.95302,249.09503)"
           stroke-width="3.294"
           stroke-linecap="butt"
           stroke-miterlimit="3.25"
           stroke-linejoin="miter"
           fill="none"
           stroke="#231f20"
           d="M 0,0 H 16.35"
           id="path162" />
        <path
           transform="matrix(0.1,0,0,-0.1,176.95302,245.862)"
           stroke-width="3.294"
           stroke-linecap="butt"
           stroke-miterlimit="3.25"
           stroke-linejoin="miter"
           fill="none"
           stroke="#231f20"
           d="M 0,0 H 16.35"
           id="path164" />
        <path
           transform="matrix(0.1,0,0,-0.1,176.95302,242.63)"
           stroke-width="3.294"
           stroke-linecap="butt"
           stroke-miterlimit="3.25"
           stroke-linejoin="miter"
           fill="none"
           stroke="#231f20"
           d="M 0,0 H 16.35"
           id="path166" />
        <path
           transform="matrix(0.1,0,0,-0.1,176.95302,239.39704)"
           stroke-width="3.294"
           stroke-linecap="butt"
           stroke-miterlimit="3.25"
           stroke-linejoin="miter"
           fill="none"
           stroke="#231f20"
           d="M 0,0 H 16.35"
           id="path168" />
        <path
           transform="matrix(0.1,0,0,-0.1,176.95302,236.16498)"
           stroke-width="3.294"
           stroke-linecap="butt"
           stroke-miterlimit="3.25"
           stroke-linejoin="miter"
           fill="none"
           stroke="#231f20"
           d="M 0,0 H 27.26"
           id="path170" />
        <use
           xlink:href="#font_2_b1"
           transform="matrix(8.236,0,0,-8.236,153.81963,237.63726)"
           fill="#030404"
           id="use172"
           x="0"
           y="0"
           width="100%"
           height="100%" />
        <use
           xlink:href="#font_2_13"
           transform="matrix(8.236,0,0,-8.236,159.95491,239.5555)"
           fill="#030404"
           id="use174"
           x="0"
           y="0"
           width="100%"
           height="100%" />
        <use
           xlink:href="#font_2_11"
           transform="matrix(8.236,0,0,-8.236,164.38303,239.57158)"
           fill="#030404"
           id="use176"
           x="0"
           y="0"
           width="100%"
           height="100%" />
        <use
           xlink:href="#font_2_14"
           transform="matrix(8.236,0,0,-8.236,166.83228,239.45899)"
           fill="#030404"
           id="use178"
           x="0"
           y="0"
           width="100%"
           height="100%" />
        <use
           xlink:href="#font_2_13"
           transform="matrix(8.236,0,0,-8.236,170.30731,239.5555)"
           fill="#030404"
           id="use180"
           x="0"
           y="0"
           width="100%"
           height="100%" />
        <path
           transform="matrix(0.1,0,0,-0.1,176.95302,232.932)"
           stroke-width="3.294"
           stroke-linecap="butt"
           stroke-miterlimit="3.25"
           stroke-linejoin="miter"
           fill="none"
           stroke="#231f20"
           d="M 0,0 H 16.35"
           id="path182" />
        <path
           transform="matrix(0.1,0,0,-0.1,176.95302,229.69904)"
           stroke-width="3.294"
           stroke-linecap="butt"
           stroke-miterlimit="3.25"
           stroke-linejoin="miter"
           fill="none"
           stroke="#231f20"
           d="M 0,0 H 16.35"
           id="path184" />
        <path
           transform="matrix(0.1,0,0,-0.1,176.95302,226.46698)"
           stroke-width="3.294"
           stroke-linecap="butt"
           stroke-miterlimit="3.25"
           stroke-linejoin="miter"
           fill="none"
           stroke="#231f20"
           d="M 0,0 H 16.35"
           id="path186" />
        <path
           transform="matrix(0.1,0,0,-0.1,176.95302,223.23401)"
           stroke-width="3.294"
           stroke-linecap="butt"
           stroke-miterlimit="3.25"
           stroke-linejoin="miter"
           fill="none"
           stroke="#231f20"
           d="M 0,0 H 16.35"
           id="path188" />
        <path
           transform="matrix(0.1,0,0,-0.1,176.95302,220.00098)"
           stroke-width="3.294"
           stroke-linecap="butt"
           stroke-miterlimit="3.25"
           stroke-linejoin="miter"
           fill="none"
           stroke="#231f20"
           d="M 0,0 H 27.26"
           id="path190" />
        <use
           xlink:href="#font_2_b1"
           transform="matrix(8.236,0,0,-8.236,153.81963,221.47429)"
           fill="#030404"
           id="use192"
           x="0"
           y="0"
           width="100%"
           height="100%" />
        <use
           xlink:href="#font_2_13"
           transform="matrix(8.236,0,0,-8.236,159.95491,223.39253)"
           fill="#030404"
           id="use194"
           x="0"
           y="0"
           width="100%"
           height="100%" />
        <use
           xlink:href="#font_2_11"
           transform="matrix(8.236,0,0,-8.236,164.38303,223.40862)"
           fill="#030404"
           id="use196"
           x="0"
           y="0"
           width="100%"
           height="100%" />
        <use
           xlink:href="#font_2_13"
           transform="matrix(8.236,0,0,-8.236,166.16472,223.39253)"
           fill="#030404"
           id="use198"
           x="0"
           y="0"
           width="100%"
           height="100%" />
        <use
           xlink:href="#font_2_18"
           transform="matrix(8.236,0,0,-8.236,170.40383,223.39253)"
           fill="#030404"
           id="use200"
           x="0"
           y="0"
           width="100%"
           height="100%" />
        <path
           transform="matrix(0.1,0,0,-0.1,176.95302,216.768)"
           stroke-width="3.294"
           stroke-linecap="butt"
           stroke-miterlimit="3.25"
           stroke-linejoin="miter"
           fill="none"
           stroke="#231f20"
           d="M 0,0 H 16.35"
           id="path202" />
        <path
           transform="matrix(0.1,0,0,-0.1,176.95302,213.53601)"
           stroke-width="3.294"
           stroke-linecap="butt"
           stroke-miterlimit="3.25"
           stroke-linejoin="miter"
           fill="none"
           stroke="#231f20"
           d="M 0,0 H 16.35"
           id="path204" />
        <path
           transform="matrix(0.1,0,0,-0.1,176.95302,210.30298)"
           stroke-width="3.294"
           stroke-linecap="butt"
           stroke-miterlimit="3.25"
           stroke-linejoin="miter"
           fill="none"
           stroke="#231f20"
           d="M 0,0 H 16.35"
           id="path206" />
        <path
           transform="matrix(0.1,0,0,-0.1,176.95302,207.07099)"
           stroke-width="3.294"
           stroke-linecap="butt"
           stroke-miterlimit="3.25"
           stroke-linejoin="miter"
           fill="none"
           stroke="#231f20"
           d="M 0,0 H 16.35"
           id="path208" />
        <path
           transform="matrix(0.1,0,0,-0.1,176.95302,203.83802)"
           stroke-width="3.294"
           stroke-linecap="butt"
           stroke-miterlimit="3.25"
           stroke-linejoin="miter"
           fill="none"
           stroke="#231f20"
           d="M 0,0 H 27.26"
           id="path210" />
        <path
           transform="matrix(0.1,0,0,-0.1,176.95302,200.60498)"
           stroke-width="3.294"
           stroke-linecap="butt"
           stroke-miterlimit="3.25"
           stroke-linejoin="miter"
           fill="none"
           stroke="#231f20"
           d="M 0,0 H 16.35"
           id="path212" />
        <path
           transform="matrix(0.1,0,0,-0.1,176.95302,197.37299)"
           stroke-width="3.294"
           stroke-linecap="butt"
           stroke-miterlimit="3.25"
           stroke-linejoin="miter"
           fill="none"
           stroke="#231f20"
           d="M 0,0 H 16.35"
           id="path214" />
        <path
           transform="matrix(0.1,0,0,-0.1,176.95302,194.14002)"
           stroke-width="3.294"
           stroke-linecap="butt"
           stroke-miterlimit="3.25"
           stroke-linejoin="miter"
           fill="none"
           stroke="#231f20"
           d="M 0,0 H 16.35"
           id="path216" />
        <path
           transform="matrix(0.1,0,0,-0.1,176.95302,190.90699)"
           stroke-width="3.294"
           stroke-linecap="butt"
           stroke-miterlimit="3.25"
           stroke-linejoin="miter"
           fill="none"
           stroke="#231f20"
           d="M 0,0 H 16.35"
           id="path218" />
        <path
           transform="matrix(0.1,0,0,-0.1,176.95302,187.67499)"
           stroke-width="3.294"
           stroke-linecap="butt"
           stroke-miterlimit="3.25"
           stroke-linejoin="miter"
           fill="none"
           stroke="#231f20"
           d="M 0,0 H 27.26"
           id="path220" />
        <use
           xlink:href="#font_2_13"
           transform="matrix(8.236,0,0,-8.236,159.9546,191.06649)"
           fill="#030404"
           id="use222"
           x="0"
           y="0"
           width="100%"
           height="100%" />
        <use
           xlink:href="#font_2_11"
           transform="matrix(8.236,0,0,-8.236,164.38272,191.08257)"
           fill="#030404"
           id="use224"
           x="0"
           y="0"
           width="100%"
           height="100%" />
        <use
           xlink:href="#font_2_13"
           transform="matrix(8.236,0,0,-8.236,166.16442,191.06649)"
           fill="#030404"
           id="use226"
           x="0"
           y="0"
           width="100%"
           height="100%" />
        <use
           xlink:href="#font_2_18"
           transform="matrix(8.236,0,0,-8.236,170.40352,191.06649)"
           fill="#030404"
           id="use228"
           x="0"
           y="0"
           width="100%"
           height="100%" />
        <path
           transform="matrix(0.1,0,0,-0.1,176.95302,184.44104)"
           stroke-width="3.294"
           stroke-linecap="butt"
           stroke-miterlimit="3.25"
           stroke-linejoin="miter"
           fill="none"
           stroke="#231f20"
           d="M 0,0 H 16.35"
           id="path230" />
        <path
           transform="matrix(0.1,0,0,-0.1,176.95302,181.20899)"
           stroke-width="3.294"
           stroke-linecap="butt"
           stroke-miterlimit="3.25"
           stroke-linejoin="miter"
           fill="none"
           stroke="#231f20"
           d="M 0,0 H 16.35"
           id="path232" />
        <path
           transform="matrix(0.1,0,0,-0.1,176.95302,177.97595)"
           stroke-width="3.294"
           stroke-linecap="butt"
           stroke-miterlimit="3.25"
           stroke-linejoin="miter"
           fill="none"
           stroke="#231f20"
           d="M 0,0 H 16.35"
           id="path234" />
        <path
           transform="matrix(0.1,0,0,-0.1,176.95302,174.74304)"
           stroke-width="3.294"
           stroke-linecap="butt"
           stroke-miterlimit="3.25"
           stroke-linejoin="miter"
           fill="none"
           stroke="#231f20"
           d="M 0,0 H 16.35"
           id="path236" />
        <path
           transform="matrix(0.1,0,0,-0.1,176.95302,171.51099)"
           stroke-width="3.294"
           stroke-linecap="butt"
           stroke-miterlimit="3.25"
           stroke-linejoin="miter"
           fill="none"
           stroke="#231f20"
           d="M 0,0 H 27.26"
           id="path238" />
        <use
           xlink:href="#font_2_13"
           transform="matrix(8.236,0,0,-8.236,159.9546,174.90254)"
           fill="#030404"
           id="use240"
           x="0"
           y="0"
           width="100%"
           height="100%" />
        <use
           xlink:href="#font_2_11"
           transform="matrix(8.236,0,0,-8.236,164.38272,174.91863)"
           fill="#030404"
           id="use242"
           x="0"
           y="0"
           width="100%"
           height="100%" />
        <use
           xlink:href="#font_2_14"
           transform="matrix(8.236,0,0,-8.236,166.83197,174.80603)"
           fill="#030404"
           id="use244"
           x="0"
           y="0"
           width="100%"
           height="100%" />
        <use
           xlink:href="#font_2_13"
           transform="matrix(8.236,0,0,-8.236,170.307,174.90254)"
           fill="#030404"
           id="use246"
           x="0"
           y="0"
           width="100%"
           height="100%" />
        <path
           transform="matrix(0.1,0,0,-0.1,176.95302,168.27899)"
           stroke-width="3.294"
           stroke-linecap="butt"
           stroke-miterlimit="3.25"
           stroke-linejoin="miter"
           fill="none"
           stroke="#231f20"
           d="M 0,0 H 16.35"
           id="path248" />
        <path
           transform="matrix(0.1,0,0,-0.1,176.95302,165.04602)"
           stroke-width="3.294"
           stroke-linecap="butt"
           stroke-miterlimit="3.25"
           stroke-linejoin="miter"
           fill="none"
           stroke="#231f20"
           d="M 0,0 H 16.35"
           id="path250" />
        <path
           transform="matrix(0.1,0,0,-0.1,176.95302,161.81299)"
           stroke-width="3.294"
           stroke-linecap="butt"
           stroke-miterlimit="3.25"
           stroke-linejoin="miter"
           fill="none"
           stroke="#231f20"
           d="M 0,0 H 16.35"
           id="path252" />
        <path
           transform="matrix(0.1,0,0,-0.1,176.95302,158.57996)"
           stroke-width="3.294"
           stroke-linecap="butt"
           stroke-miterlimit="3.25"
           stroke-linejoin="miter"
           fill="none"
           stroke="#231f20"
           d="M 0,0 H 16.35"
           id="path254" />
        <path
           transform="matrix(0.1,0,0,-0.1,176.95302,155.34803)"
           stroke-width="3.294"
           stroke-linecap="butt"
           stroke-miterlimit="3.25"
           stroke-linejoin="miter"
           fill="none"
           stroke="#231f20"
           d="M 0,0 H 27.26"
           id="path256" />
        <use
           xlink:href="#font_2_13"
           transform="matrix(8.236,0,0,-8.236,159.9546,158.73952)"
           fill="#030404"
           id="use258"
           x="0"
           y="0"
           width="100%"
           height="100%" />
        <use
           xlink:href="#font_2_11"
           transform="matrix(8.236,0,0,-8.236,164.38272,158.7556)"
           fill="#030404"
           id="use260"
           x="0"
           y="0"
           width="100%"
           height="100%" />
        <use
           xlink:href="#font_2_14"
           transform="matrix(8.236,0,0,-8.236,166.83197,158.643)"
           fill="#030404"
           id="use262"
           x="0"
           y="0"
           width="100%"
           height="100%" />
        <use
           xlink:href="#font_2_18"
           transform="matrix(8.236,0,0,-8.236,170.40352,158.73952)"
           fill="#030404"
           id="use264"
           x="0"
           y="0"
           width="100%"
           height="100%" />
        <path
           transform="matrix(0.1,0,0,-0.1,176.95302,152.11603)"
           stroke-width="3.294"
           stroke-linecap="butt"
           stroke-miterlimit="3.25"
           stroke-linejoin="miter"
           fill="none"
           stroke="#231f20"
           d="M 0,0 H 16.35"
           id="path266" />
        <path
           transform="matrix(0.1,0,0,-0.1,176.95302,148.88196)"
           stroke-width="3.294"
           stroke-linecap="butt"
           stroke-miterlimit="3.25"
           stroke-linejoin="miter"
           fill="none"
           stroke="#231f20"
           d="M 0,0 H 16.35"
           id="path268" />
        <path
           transform="matrix(0.1,0,0,-0.1,176.95302,259.71003)"
           stroke-width="3.294"
           stroke-linecap="butt"
           stroke-miterlimit="3.25"
           stroke-linejoin="miter"
           fill="none"
           stroke="#231f20"
           d="M 0,0 V 1117.44"
           id="path270" />
        <g
           id="Layer-1"
           data-name="TouchUp_TextEdit" />
      </g>
    </g>
  </g>
</svg>
